<svg width="32" height="32" viewBox="0 0 32 32" fill="none" xmlns="http://www.w3.org/2000/svg">
<path fill-rule="evenodd" clip-rule="evenodd" d="M1.16392 12.8248C0.0834419 17.3746 -0.163688 22.1427 0.0934994 26.8248C-0.0228815 28.3133 0.662473 29.7505 1.57341 30.776C2.90676 32.2677 5.53323 32.0643 7.25739 31.8543C10.3968 31.5004 11.7934 28.1165 11.9773 24.8567C12.1181 19.222 12.1526 13.3011 12.1425 7.6564C12.1403 7.49566 12.1406 7.32693 12.1409 7.15348C12.1422 6.40967 12.1437 5.57908 11.9514 4.91924C11.4845 3.07682 10.0319 2.41527 8.57207 2.7692C8.27708 2.87971 7.99295 3.0255 7.72436 3.20417C6.84772 3.76529 6.02842 4.43764 5.28179 5.20867C3.78912 6.72526 2.60199 8.5986 1.80329 10.6979C1.7244 10.888 1.64433 11.1475 1.5702 11.3878C1.52823 11.5238 1.48816 11.6537 1.45128 11.7613C1.37494 11.9841 1.29698 12.2958 1.22886 12.5682C1.20596 12.6598 1.18416 12.7469 1.16392 12.8248ZM0.0934994 26.8248C0.548966 22.06 1.18978 17.315 2.64813 12.8297C3.43934 10.4669 4.75638 8.38509 6.46715 6.79308C6.62395 6.63739 6.85653 6.4358 7.0461 6.27147C7.0841 6.23854 7.12036 6.20711 7.15394 6.17784C7.15394 6.17784 8.32925 4.99366 8.96575 4.92916C9.60225 4.86466 9.9514 4.91758 10.0951 5.73129L10.1396 6.11995L10.1497 6.54996C10.1396 8.49988 10.1324 12.1037 10.1497 14.0883C10.1712 16.9512 10.2 19.8141 10.2574 22.6753L10.2962 24.7625C10.2898 25.4128 10.2252 26.0607 10.1037 26.6958C9.82783 28.1992 9.12667 29.6629 7.8551 30.255C7.03613 30.6006 6.14675 30.7363 5.28467 30.8553C4.27459 30.9579 3.21711 31.0191 2.28462 30.5361C1.14524 29.7522 0.225685 28.3944 0.0934994 26.8248Z" fill="#78C081"/>
<path d="M25.6683 14.0807C26.2203 15.6946 27.2259 18.2174 27.5734 21.2484C27.3243 15.7097 27.0001 15.6946 26.8396 14.8454C26.5828 13.486 26.2392 12.1503 25.8115 10.8493C24.5861 7.49515 22.3899 4.73451 19.597 3.0376C19.3593 2.88452 19.1012 2.77822 18.8331 2.72308C18.6795 2.71314 18.5905 2.68335 18.3765 2.68335C16.9191 2.58734 15.8163 3.68816 15.5651 5.3038C15.433 6.00402 15.4689 6.86316 15.4689 7.55345C15.4516 11.2996 15.4444 15.9478 15.4976 19.7155C15.5191 21.0696 15.5335 22.4237 15.5651 23.7778C15.5601 24.5089 15.6081 25.2393 15.7086 25.9612C16.1897 29.2405 17.795 31.7749 20.862 31.9205C22.387 32.048 24.0138 32.1225 25.4325 31.3246C26.5453 30.6144 26.9984 29.4146 27.3243 28.0903C27.5374 27.2245 27.8262 26.3385 29.0389 24.9231C27.8262 25.7723 27.4247 26.1996 26.6134 28.6031C25.5264 30.7418 24.7461 31.0034 22.7158 30.8561C22.1499 30.8056 21.587 30.7172 21.03 30.5913C20.5246 30.4737 19.9718 30.3612 19.5195 30.0781C18.1252 29.2554 17.5495 27.408 17.3872 25.693C17.3313 25.0717 17.3183 24.4462 17.3484 23.8224C17.3972 21.4652 17.4547 18.0833 17.4547 15.6946C17.4547 13.3059 17.4848 9.89415 17.4547 7.54021C17.4604 6.8433 17.3326 5.77724 17.6414 5.18792C17.8596 4.76415 18.2162 4.63236 18.8059 4.95783C21.2988 6.35988 23.3356 8.64717 24.6169 11.4833C24.9901 12.3716 25.4295 13.3825 25.6683 14.0807Z" fill="#78C081"/>
<path d="M13.922 6.66586C14.0233 6.42392 13.9393 6.13085 13.7343 6.01125C13.5293 5.89166 13.281 5.99084 13.1797 6.23277L11.2239 10.9039C11.1226 11.1459 11.2066 11.4389 11.4116 11.5585C11.6166 11.6781 11.8649 11.579 11.9662 11.337L13.922 6.66586Z" fill="#78C081"/>
<path d="M13.4316 6.66586C13.3303 6.42392 13.4143 6.13085 13.6193 6.01125C13.8243 5.89166 14.0726 5.99084 14.1739 6.23277L16.1297 10.9039C16.231 11.1459 16.147 11.4389 15.942 11.5585C15.737 11.6781 15.4888 11.579 15.3874 11.337L13.4316 6.66586Z" fill="#78C081"/>
<path d="M13.2482 0.488608C13.2482 0.218757 13.4335 0 13.6622 0C13.8908 0 14.0762 0.218758 14.0762 0.488609V6.6791C14.0762 6.94896 13.8908 7.16771 13.6622 7.16771C13.4335 7.16771 13.2482 6.94896 13.2482 6.6791V0.488608Z" fill="#78C081"/>
<path d="M26.0412 30.0442C25.9147 29.7532 25.7868 29.4847 25.6563 29.2164C25.5258 28.9481 25.393 28.6836 25.2537 28.4183C25.1143 28.1531 24.9679 27.9002 24.8255 27.6482C24.7884 27.5824 24.7465 27.5228 24.707 27.4595C24.6675 27.3962 24.6243 27.3367 24.581 27.2749C24.5378 27.2131 24.4908 27.1551 24.4422 27.0913C24.4192 27.0605 24.3939 27.0311 24.3666 27.0035C24.3405 26.9735 24.3131 26.9436 24.2882 26.9111C24.4563 26.9516 24.6142 27.0199 24.7541 27.1128C24.8249 27.1579 24.8922 27.2074 24.9554 27.261C25.02 27.3134 25.0811 27.3693 25.1385 27.4283C25.3657 27.661 25.5556 27.9227 25.7024 28.206C25.8507 28.4866 25.9602 28.7839 26.0286 29.0915C26.1045 29.4027 26.1088 29.7271 26.0412 30.0442Z" fill="#78C081"/>
<path d="M25.9202 26.8989C25.8039 26.5691 25.6134 26.279 25.3666 26.056C25.1295 25.8386 24.8587 25.6706 24.5669 25.5598C24.2726 25.4519 23.9683 25.3791 23.6592 25.3428C23.3467 25.3012 23.0259 25.2816 22.7012 25.2627L22.972 24.9432C23.0242 25.4094 23.0854 25.8726 23.1285 26.3402C23.1546 26.5732 23.173 26.809 23.2052 27.0248C23.2176 27.1355 23.2374 27.2406 23.261 27.3437C23.2855 27.4469 23.3165 27.5481 23.3538 27.6463C23.5058 28.046 23.749 28.3935 24.0597 28.6552C24.3855 28.9335 24.7704 29.1155 25.1791 29.1844C24.738 29.2451 24.2932 29.1501 23.9079 28.913C23.5056 28.6717 23.1774 28.3042 22.9636 27.8555C22.9105 27.7405 22.865 27.6213 22.8273 27.4988C22.791 27.3793 22.7621 27.257 22.7408 27.1329C22.694 26.8823 22.668 26.6507 22.6373 26.4243C22.5754 25.9552 22.5233 25.4905 22.4711 25.0244L22.4323 24.6777L22.7431 24.7048C23.0769 24.7322 23.4087 24.7793 23.7374 24.846C24.0756 24.9118 24.4037 25.0275 24.7128 25.1902C25.0261 25.3555 25.3031 25.5931 25.5258 25.8874C25.7473 26.1706 25.8849 26.5234 25.9202 26.8989Z" fill="#78C081"/>
<path d="M26.4855 26.7178C26.3782 26.5096 26.3029 26.2771 26.2648 26.0356C26.226 25.7909 26.2132 25.5433 26.2269 25.3004C26.2624 24.8146 26.3628 24.3495 26.5232 23.9267C26.6805 23.4957 26.8863 23.1042 27.134 22.7648C27.2639 22.5904 27.4094 22.4383 27.5677 22.3113C27.7246 22.1901 27.89 22.0876 28.0621 22.0049C28.2307 21.9183 28.402 21.8536 28.5709 21.7922C28.7398 21.7308 28.9059 21.6773 29.0751 21.6227C29.41 21.5195 29.7369 21.4171 30.0455 21.2849C30.3432 21.1642 30.623 20.9865 30.8769 20.7568C31.1443 20.5187 31.3601 20.1932 31.5066 19.8067C31.6164 19.4845 31.708 19.144 31.8089 18.8138C31.7809 18.9101 31.8735 19.2501 31.8891 19.3663C31.9736 19.9869 32.01 20.6116 31.9976 21.2302C31.9939 21.6366 31.9692 22.0396 31.9237 22.4361L31.9032 22.5896L31.8316 23.026C31.7982 23.2168 31.7618 23.4087 31.7173 23.6015C31.6256 23.9941 31.4878 24.3594 31.3087 24.6844C31.2193 24.8438 31.121 24.9933 31.0145 25.1318C30.9058 25.2666 30.7972 25.3899 30.6853 25.5074C30.4614 25.7432 30.2231 25.9544 29.9724 26.1393C29.4744 26.5079 28.9295 26.7646 28.3572 26.9C28.8723 26.6194 29.3559 26.2561 29.7984 25.8173C30.0161 25.6022 30.2222 25.3675 30.4153 25.1145C30.6061 24.8736 30.7756 24.6039 30.921 24.3098C31.0537 24.0174 31.1502 23.6948 31.2069 23.3534C31.2383 23.1795 31.2651 23.0006 31.2886 22.816L31.3225 22.5373L31.34 22.3966L31.3537 22.2666C31.3825 21.9004 31.3951 21.5302 31.3916 21.1579C31.3912 20.7795 31.5737 21.1444 31.2651 21.4381C30.9625 21.7167 30.6253 21.9264 30.2654 22.0598C29.9209 22.1944 29.5748 22.2813 29.2388 22.3688C28.9028 22.4563 28.5666 22.537 28.259 22.6549C28.1078 22.7107 27.9615 22.7841 27.8218 22.8743C27.6841 22.9646 27.5559 23.0767 27.4396 23.2084C27.1945 23.4816 26.982 23.8032 26.8081 24.1638C26.6257 24.5229 26.4912 24.9255 26.4099 25.3557C26.3201 25.7937 26.3468 26.274 26.4855 26.7178Z" fill="#78C081"/>
</svg>
