<svg width="1480" height="127" viewBox="0 0 1480 127" fill="none" xmlns="http://www.w3.org/2000/svg">
<path d="M1 48C13.8193 55.7505 56.6079 74.158 125.208 85.7837C210.959 100.316 255.133 85.2024 278 82.296M278 82.296L267.5 77.5M278 82.296L270 90.5" stroke="#78C081" stroke-width="2" stroke-linecap="round" stroke-linejoin="round"/>
<path d="M794 93.4955C821 107.674 864 124.941 926.5 125.937C1020.5 127.434 1056.5 101.98 1076 92.7927M1076 92.7927L1065.5 91M1076 92.7927L1070 101.98" stroke="#78C081" stroke-width="2" stroke-linecap="round" stroke-linejoin="round"/>
<path d="M394.5 77.5025C418 66.5016 457.5 48.5029 525.208 44.5022C604 39.8465 634 59.0014 678 76.0015M678 76.0015L672.5 67.4999M678 76.0015L668 79.9999" stroke="#78C081" stroke-width="2" stroke-linecap="round" stroke-linejoin="round"/>
<path d="M1192 59C1210 45.7908 1255.5 23.501 1326 10.4997C1351.87 5.72899 1417.5 -1.49822 1479 9.50135M1479 9.50135L1473.5 1M1479 9.50135L1469 13.4996" stroke="#78C081" stroke-width="2" stroke-linecap="round" stroke-linejoin="round"/>
<circle cx="336" cy="74" r="50" fill="#D9FADD"/>
<circle cx="736" cy="69" r="50" fill="#D9FADD"/>
<circle cx="1134" cy="69" r="50" fill="#D9FADD"/>
<path d="M756.101 50.7776V93.8008C756.101 95.5595 754.663 96.985 752.89 96.985H719.11C717.337 96.985 715.899 95.5594 715.899 93.8008V50.7776C715.899 49.019 717.337 47.5933 719.11 47.5933H726.513V52.0522C726.513 52.7112 727.052 53.2455 727.717 53.2455H744.283C744.947 53.2455 745.486 52.7112 745.486 52.0522V47.5933H752.89C754.663 47.5933 756.101 49.019 756.101 50.7776V50.7776Z" fill="#D9FADD"/>
<path d="M745.487 46.5896V52.0541C745.487 52.7131 744.948 53.2474 744.283 53.2474H727.717C727.052 53.2474 726.513 52.7131 726.513 52.0541V46.5896C726.513 45.9306 727.052 45.3963 727.717 45.3963H732.272V45.3848C732.272 42.8472 734.898 40.9025 737.609 42.0473C738.927 42.604 739.716 43.9642 739.716 45.3848V45.3963H744.283C744.948 45.3964 745.487 45.9307 745.487 46.5896V46.5896Z" fill="#D9FADD"/>
<path d="M744.284 44.5046H740.535C739.616 39.5549 732.424 39.6715 731.461 44.5046H727.716C726.557 44.5046 725.614 45.4401 725.614 46.5898V46.7017H719.11C716.844 46.7017 715 48.53 715 50.7774V93.8007C715 96.0482 716.844 97.8764 719.11 97.8764H752.89C755.156 97.8764 757 96.0481 757 93.8007V50.7774C757 48.5299 755.156 46.7017 752.89 46.7017H746.386V46.5898C746.386 45.4401 745.443 44.5046 744.284 44.5046ZM727.716 46.2877H732.272C732.769 46.2877 733.171 45.8772 733.171 45.3849C733.171 41.8189 738.817 41.5869 738.817 45.3963C738.817 45.8886 739.22 46.2878 739.717 46.2878H744.284C744.451 46.2878 744.588 46.4231 744.588 46.5899C744.588 47.1875 744.588 50.6866 744.587 52.0521C744.587 52.2189 744.451 52.3542 744.283 52.3542H727.717C727.549 52.3542 727.413 52.2189 727.413 52.0521C727.413 51.9606 727.412 46.4983 727.412 46.5899C727.412 46.423 727.549 46.2877 727.716 46.2877ZM727.716 54.1389H744.284C745.443 54.1389 746.386 53.2039 746.386 52.0542V52.052L750.938 52.0229C751.322 52.0229 751.634 52.3324 751.634 52.7133V91.8649C751.634 92.2459 751.322 92.5554 750.938 92.5554H721.062C720.678 92.5554 720.366 92.2459 720.366 91.8649V52.7132C720.366 52.3323 720.678 52.0228 721.062 52.0228H725.614V52.0541C725.614 53.2039 726.557 54.1389 727.716 54.1389ZM752.89 48.4847C754.165 48.4847 755.202 49.5133 755.202 50.7774V93.8007C755.202 95.0648 754.165 96.0935 752.89 96.0935H719.11C717.835 96.0935 716.798 95.0648 716.798 93.8007V50.7774C716.798 49.5133 717.835 48.4847 719.11 48.4847H725.614V50.2398H721.062C719.687 50.2398 718.568 51.3494 718.568 52.7132V91.8648C718.568 93.2287 719.687 94.3382 721.062 94.3382H750.938C752.313 94.3382 753.432 93.2286 753.432 91.8648V52.7132C753.432 51.3493 752.313 50.2398 750.938 50.2398H746.386V48.4847H752.89Z" fill="#5CCD6A"/>
<path d="M736.638 45.0095C736.971 44.6608 737 44.1437 736.638 43.7436C736.305 43.4136 735.703 43.4136 735.362 43.7436C735.01 44.1297 735.021 44.6532 735.362 45.0095C735.727 45.3529 736.273 45.3532 736.638 45.0095Z" fill="#5CCD6A"/>
<path d="M737.002 60.7983H746.489C746.985 60.7983 747.388 60.3992 747.388 59.9068C747.388 59.4144 746.985 59.0153 746.489 59.0153H737.002C736.505 59.0153 736.103 59.4144 736.103 59.9068C736.103 60.3992 736.505 60.7983 737.002 60.7983Z" fill="#C3FF17"/>
<path d="M737.002 64.6477H742.617C743.114 64.6477 743.516 64.2485 743.516 63.7562C743.516 63.2638 743.114 62.8646 742.617 62.8646H737.002C736.505 62.8646 736.103 63.2638 736.103 63.7562C736.103 64.2485 736.505 64.6477 737.002 64.6477Z" fill="#C3FF17"/>
<path d="M725.5 64.1101C725.5 65.3472 726.505 66.3537 727.743 66.3537H731.257C732.495 66.3537 733.5 65.3474 733.5 64.1101V60.5928C733.5 59.3553 732.495 58.3488 731.257 58.3488H727.743C726.505 58.3488 725.5 59.3552 725.5 60.5928V64.1101Z" fill="#C3FF17" stroke="#5CCD6A"/>
<path d="M737.002 71.7679H746.489C746.985 71.7679 747.388 71.3688 747.388 70.8764C747.388 70.384 746.985 69.9849 746.489 69.9849H737.002C736.505 69.9849 736.103 70.384 736.103 70.8764C736.103 71.3688 736.505 71.7679 737.002 71.7679Z" fill="#C3FF17"/>
<path d="M737.002 75.6174H742.617C743.114 75.6174 743.516 75.2183 743.516 74.7259C743.516 74.2335 743.114 73.8344 742.617 73.8344H737.002C736.505 73.8344 736.103 74.2335 736.103 74.7259C736.103 75.2183 736.505 75.6174 737.002 75.6174Z" fill="#C3FF17"/>
<path d="M733.5 71.6006V71.6006C733.5 70.3632 732.495 69.3566 731.257 69.3566H727.743C726.505 69.3566 725.5 70.3631 725.5 71.6006V75.1179C725.5 76.355 726.505 77.3615 727.743 77.3615H731.257C732.495 77.3615 733.5 76.3551 733.5 75.1179V71.6006Z" fill="#C3FF17" stroke="#5CCD6A"/>
<path d="M737.002 82.7378H746.489C746.985 82.7378 747.388 82.3386 747.388 81.8462C747.388 81.3539 746.985 80.9547 746.489 80.9547H737.002C736.505 80.9547 736.103 81.3539 736.103 81.8462C736.103 82.3386 736.505 82.7378 737.002 82.7378Z" fill="#C3FF17"/>
<path d="M737.002 86.5873H742.617C743.114 86.5873 743.516 86.1881 743.516 85.6957C743.516 85.2034 743.114 84.8042 742.617 84.8042H737.002C736.505 84.8042 736.103 85.2034 736.103 85.6957C736.103 86.1881 736.505 86.5873 737.002 86.5873Z" fill="#C3FF17"/>
<path d="M733.5 82.6084V82.6084C733.5 81.371 732.495 80.3644 731.257 80.3644H727.743C726.505 80.3644 725.5 81.3708 725.5 82.6084V86.1257C725.5 87.3629 726.505 88.3694 727.743 88.3694H731.257C732.495 88.3694 733.5 87.363 733.5 86.1257V82.6084Z" fill="#C3FF17" stroke="#5CCD6A"/>
<path d="M344.879 83.4465C342.14 86.1972 342.482 91.7478 342.482 91.7478H328.593C328.593 91.7478 328.886 86.1972 326.197 83.4465C323.213 80.7941 321.306 76.9627 321.306 72.6893C321.306 64.8301 327.664 58.4446 335.489 58.4446C343.314 58.4446 349.672 64.8301 349.672 72.6893C349.672 76.9627 347.813 80.7941 344.879 83.4465Z" fill="#C3FF17"/>
<path d="M342.874 96.1194C342.874 96.8562 342.287 97.4457 341.554 97.4457H329.474C328.74 97.4457 328.153 96.8562 328.153 96.1194C328.153 95.3827 328.74 94.7932 329.474 94.7932H341.505C342.238 94.7932 342.874 95.3827 342.874 96.1194Z" fill="#D9FADD"/>
<path d="M341.064 101.621C341.064 102.358 340.477 102.947 339.744 102.947H331.283C330.549 102.947 329.962 102.358 329.962 101.621C329.962 100.884 330.549 100.295 331.283 100.295H339.744C340.477 100.295 341.064 100.884 341.064 101.621Z" fill="#D9FADD"/>
<path d="M345.613 83.9377C348.792 81.0396 350.602 76.9626 350.602 72.6892C350.602 64.3389 343.804 57.5112 335.489 57.5112C327.175 57.5112 320.377 64.3389 320.377 72.6892C320.377 77.0609 322.285 81.2361 325.513 84.085C327.909 86.4919 327.664 91.6003 327.664 91.6495C327.664 91.8951 327.762 92.1406 327.909 92.3371C328.105 92.5336 328.349 92.6318 328.594 92.6318H342.434C342.679 92.6318 342.923 92.5336 343.119 92.3371C343.314 92.1406 343.363 91.8951 343.363 91.6495C343.363 91.6003 343.119 86.4919 345.515 84.085C345.564 84.0359 345.613 83.9868 345.613 83.9377ZM344.244 82.7097C344.146 82.7588 344.097 82.857 344.048 82.9553C341.896 85.2639 341.554 89.0461 341.505 90.8144H329.523C329.474 88.997 329.083 85.0674 326.784 82.7588C323.899 80.2046 322.236 76.5697 322.236 72.7384C322.236 65.3704 328.202 59.4269 335.489 59.4269C342.825 59.4269 348.743 65.4195 348.743 72.7384C348.743 76.5206 347.129 80.2046 344.244 82.7097Z" fill="#5CCD6A"/>
<path d="M335.489 61.4408C335 61.4408 334.56 61.8338 334.56 62.3741C334.56 62.8653 334.951 63.3073 335.489 63.3073C340.967 63.3073 345.417 67.7772 345.417 73.2787C345.417 73.7699 345.809 74.2119 346.346 74.2119C346.836 74.2119 347.276 73.819 347.276 73.2787C347.276 66.7457 341.994 61.4408 335.489 61.4408Z" fill="#5CCD6A"/>
<path d="M343.803 96.1194C343.803 94.8423 342.776 93.8599 341.553 93.8599H329.474C328.202 93.8599 327.224 94.8914 327.224 96.1194C327.224 97.3965 328.251 98.3789 329.474 98.3789H341.504C342.776 98.3789 343.803 97.3965 343.803 96.1194ZM341.504 96.5123H329.474C329.229 96.5123 329.082 96.3158 329.082 96.1194C329.082 95.8738 329.278 95.7264 329.474 95.7264H341.504C341.749 95.7264 341.896 95.9229 341.896 96.1194C341.945 96.365 341.749 96.5123 341.504 96.5123Z" fill="#5CCD6A"/>
<path d="M339.744 99.3613H331.283C330.012 99.3613 329.034 100.393 329.034 101.621C329.034 102.898 330.061 103.88 331.283 103.88H339.744C341.016 103.88 341.994 102.849 341.994 101.621C341.994 100.393 340.967 99.3613 339.744 99.3613ZM339.744 102.014H331.283C331.039 102.014 330.892 101.817 330.892 101.621C330.892 101.375 331.088 101.228 331.283 101.228H339.744C339.989 101.228 340.135 101.424 340.135 101.621C340.135 101.866 339.989 102.014 339.744 102.014Z" fill="#5CCD6A"/>
<path d="M336.418 52.059V45.7717C336.418 45.2805 336.027 44.8384 335.489 44.8384C335 44.8384 334.56 45.2313 334.56 45.7717V52.1081C334.56 52.5993 334.951 53.0414 335.489 53.0414C336.027 52.9923 336.418 52.5993 336.418 52.059Z" fill="#5CCD6A"/>
<path d="M350.895 49.5047C350.454 49.21 349.916 49.3574 349.623 49.7503L346.151 55.0061C345.857 55.4482 346.004 55.9885 346.395 56.2832C346.542 56.3815 346.738 56.4306 346.884 56.4306C347.178 56.4306 347.471 56.2832 347.667 56.0376L351.139 50.7818C351.433 50.3889 351.286 49.7994 350.895 49.5047Z" fill="#5CCD6A"/>
<path d="M324.436 56.2342C324.583 56.2342 324.779 56.1851 324.925 56.0868C325.366 55.7921 325.463 55.2518 325.219 54.8097L321.844 49.5048C321.551 49.0627 321.013 48.9645 320.573 49.2101C320.133 49.5048 320.035 50.0451 320.279 50.4872L323.654 55.7921C323.85 56.0868 324.143 56.2342 324.436 56.2342Z" fill="#5CCD6A"/>
<path d="M311.476 60.6549L317.003 63.6512C317.149 63.7494 317.296 63.7494 317.443 63.7494C317.785 63.7494 318.079 63.553 318.274 63.2583C318.519 62.8162 318.372 62.2267 317.883 61.9811L312.357 58.9848C311.916 58.7392 311.33 58.8866 311.085 59.3778C310.889 59.869 311.036 60.4093 311.476 60.6549Z" fill="#5CCD6A"/>
<path d="M353.535 63.7986C353.682 63.7986 353.829 63.7495 353.976 63.7004L359.502 60.7041C359.942 60.4585 360.138 59.9181 359.893 59.427C359.649 58.9849 359.111 58.7884 358.622 59.034L353.095 62.0303C352.655 62.2759 352.459 62.8162 352.704 63.3074C352.851 63.6021 353.193 63.7986 353.535 63.7986Z" fill="#5CCD6A"/>
<path d="M1138.8 59.3575C1138.8 61.2414 1138.44 62.977 1137.84 64.3669C1138.19 64.6129 1138.52 64.8913 1138.81 65.1984L1147.34 56.6682C1143.97 53.2606 1139.31 51.1367 1134.16 51.0946C1136.72 51.1368 1138.8 54.8192 1138.8 59.3575Z" fill="#D9FADD"/>
<path d="M1123.19 73.8837C1124.52 72.5517 1126 71.5779 1127.41 71.0209C1127.34 70.6424 1127.3 70.2535 1127.3 69.856C1127.3 69.8185 1127.31 69.7816 1127.31 69.7443H1115.25C1115.25 69.7817 1115.25 69.8187 1115.25 69.8561C1115.25 74.9826 1117.31 79.628 1120.64 83.0146C1118.85 81.1686 1119.98 77.0943 1123.19 73.8837Z" fill="#D9FADD"/>
<path d="M1129.2 80.3545C1129.2 78.4708 1129.56 76.7351 1130.16 75.3451C1129.81 75.0991 1129.48 74.8207 1129.19 74.5137L1120.66 83.0438C1124.03 86.4514 1128.69 88.5753 1133.84 88.6174C1131.28 88.5753 1129.2 84.8929 1129.2 80.3545Z" fill="#D9FADD"/>
<path d="M1129.98 59.0366C1131.31 60.3686 1132.28 61.8491 1132.84 63.2579C1133.21 63.1915 1133.6 63.1549 1134 63.1549C1134.04 63.1549 1134.07 63.1571 1134.11 63.1577V51.0941C1134.07 51.0939 1134.04 51.0928 1134 51.0928C1128.88 51.0928 1124.23 53.1495 1120.85 56.4819C1122.7 54.6908 1126.77 55.8261 1129.98 59.0366Z" fill="#D9FADD"/>
<path d="M1123.51 65.0535C1125.39 65.0535 1127.13 65.4119 1128.51 66.0142C1128.76 65.6634 1129.04 65.3374 1129.35 65.0404L1120.82 56.5103C1117.42 59.8778 1115.29 64.5406 1115.25 69.7C1115.29 67.1299 1118.97 65.0535 1123.51 65.0535Z" fill="#D9FADD"/>
<path d="M1144.49 74.6587C1142.61 74.6587 1140.87 74.3003 1139.49 73.698C1139.24 74.0488 1138.96 74.3747 1138.65 74.6718L1147.18 83.2019C1150.58 79.8344 1152.71 75.1716 1152.75 70.0122C1152.71 72.5823 1149.03 74.6587 1144.49 74.6587Z" fill="#D9FADD"/>
<path d="M1144.81 65.8285C1143.48 67.1605 1142 68.1342 1140.59 68.6913C1140.66 69.0698 1140.7 69.4587 1140.7 69.8562C1140.7 69.8936 1140.69 69.9306 1140.69 69.9679H1152.75C1152.75 69.9306 1152.75 69.8936 1152.75 69.8562C1152.75 64.7297 1150.69 60.0843 1147.36 56.6978C1149.15 58.5437 1148.02 62.618 1144.81 65.8285Z" fill="#D9FADD"/>
<path d="M1138.02 80.6756C1136.69 79.3436 1135.72 77.8631 1135.16 76.4543C1134.79 76.5207 1134.4 76.5573 1134 76.5573C1133.96 76.5573 1133.93 76.5551 1133.89 76.5545V88.6181C1133.93 88.6183 1133.96 88.6194 1134 88.6194C1139.12 88.6194 1143.76 86.5627 1147.15 83.2303C1145.3 85.0214 1141.23 83.8861 1138.02 80.6756Z" fill="#D9FADD"/>
<path d="M1144.49 74.6586C1149.05 74.6586 1152.75 72.5585 1152.75 69.9678H1140.69C1140.67 71.3546 1140.23 72.6384 1139.49 73.698C1140.87 74.3002 1142.61 74.6586 1144.49 74.6586Z" fill="#C3FF17"/>
<path d="M1144.81 65.8285C1148.04 62.6009 1149.17 58.4993 1147.34 56.6675L1138.81 65.1986C1139.72 66.1396 1140.36 67.3463 1140.59 68.6914C1142 68.1342 1143.48 67.1605 1144.81 65.8285Z" fill="#C3FF17"/>
<path d="M1138.8 59.3575C1138.8 54.793 1136.7 51.0928 1134.11 51.0928V63.1578C1135.5 63.1806 1136.78 63.6241 1137.84 64.367C1138.44 62.977 1138.8 61.2414 1138.8 59.3575Z" fill="#C3FF17"/>
<path d="M1129.98 59.0366C1126.75 55.809 1122.65 54.6775 1120.82 56.5094L1129.35 65.0405C1130.29 64.1301 1131.49 63.4938 1132.84 63.2578C1132.28 61.8491 1131.31 60.3686 1129.98 59.0366Z" fill="#C3FF17"/>
<path d="M1123.51 65.0536C1118.95 65.0536 1115.25 67.1537 1115.25 69.7444H1127.31C1127.33 68.3576 1127.77 67.0738 1128.51 66.0142C1127.13 65.4119 1125.39 65.0536 1123.51 65.0536Z" fill="#C3FF17"/>
<path d="M1123.19 73.8838C1119.96 77.1114 1118.83 81.2129 1120.66 83.0448L1129.19 74.5137C1128.28 73.5726 1127.64 72.3661 1127.41 71.021C1126 71.578 1124.52 72.5518 1123.19 73.8838Z" fill="#C3FF17"/>
<path d="M1129.2 80.3546C1129.2 84.9192 1131.3 88.6195 1133.89 88.6195V76.5544C1132.5 76.5317 1131.22 76.0881 1130.16 75.3451C1129.56 76.7352 1129.2 78.4708 1129.2 80.3546Z" fill="#C3FF17"/>
<path d="M1138.02 80.6756C1141.25 83.9032 1145.35 85.0347 1147.18 83.2028L1138.65 74.6716C1137.71 75.582 1136.51 76.2183 1135.16 76.4542C1135.72 77.863 1136.69 79.3436 1138.02 80.6756Z" fill="#C3FF17"/>
<path d="M1134 63.1549C1130.3 63.1549 1127.3 66.1551 1127.3 69.8562C1127.3 73.5571 1130.3 76.5573 1134 76.5573C1137.7 76.5573 1140.7 73.5571 1140.7 69.8562C1140.7 66.1552 1137.7 63.1549 1134 63.1549Z" fill="#D9FADD"/>
<path d="M1134 72.0899C1135.23 72.0899 1136.23 71.0898 1136.23 69.8562C1136.23 68.6225 1135.23 67.6224 1134 67.6224C1132.77 67.6224 1131.77 68.6225 1131.77 69.8562C1131.77 71.0898 1132.77 72.0899 1134 72.0899Z" fill="#C3FF17"/>
<path d="M1154.12 44.8384H1113.88C1111.19 44.8384 1109 47.0304 1109 49.7247V89.9876C1109 92.6819 1111.19 94.8739 1113.88 94.8739H1154.12C1156.81 94.8739 1159 92.6819 1159 89.9876V49.7247C1159 47.0304 1156.81 44.8384 1154.12 44.8384ZM1157.05 89.9876C1157.05 91.6042 1155.73 92.9194 1154.12 92.9194H1113.88C1112.27 92.9194 1110.95 91.6042 1110.95 89.9876V49.7247C1110.95 48.1081 1112.27 46.7929 1113.88 46.7929H1154.12C1155.73 46.7929 1157.05 48.1081 1157.05 49.7247V89.9876Z" fill="#5CCD6A"/>
<path d="M1154.02 85.0037C1153.48 85.0037 1153.04 85.4413 1153.04 85.9809C1153.04 87.5975 1151.73 88.9127 1150.11 88.9127C1149.57 88.9127 1149.14 89.3503 1149.14 89.8899C1149.14 90.4296 1149.57 90.8672 1150.11 90.8672C1152.81 90.8672 1155 88.6752 1155 85.9809C1155 85.4413 1154.56 85.0037 1154.02 85.0037Z" fill="#5CCD6A"/>
<path d="M1150.11 48.8451C1149.57 48.8451 1149.14 49.2827 1149.14 49.8223C1149.14 50.362 1149.57 50.7996 1150.11 50.7996C1151.73 50.7996 1153.04 52.1148 1153.04 53.7314C1153.04 54.271 1153.48 54.7086 1154.02 54.7086C1154.56 54.7086 1155 54.271 1155 53.7314C1155 51.0371 1152.81 48.8451 1150.11 48.8451Z" fill="#5CCD6A"/>
<path d="M1113.98 54.7086C1114.52 54.7086 1114.96 54.271 1114.96 53.7314C1114.96 52.1148 1116.27 50.7996 1117.89 50.7996C1118.43 50.7996 1118.86 50.362 1118.86 49.8223C1118.86 49.2827 1118.43 48.8451 1117.89 48.8451C1115.19 48.8451 1113 51.0371 1113 53.7314C1113 54.271 1113.44 54.7086 1113.98 54.7086Z" fill="#5CCD6A"/>
<path d="M1117.89 88.9127C1116.27 88.9127 1114.96 87.5975 1114.96 85.9809C1114.96 85.4413 1114.52 85.0037 1113.98 85.0037C1113.44 85.0037 1113 85.4413 1113 85.9809C1113 88.6752 1115.19 90.8672 1117.89 90.8672C1118.43 90.8672 1118.86 90.4296 1118.86 89.8899C1118.86 89.3503 1118.43 88.9127 1117.89 88.9127Z" fill="#5CCD6A"/>
<path d="M1150.11 87.0558C1150.71 87.0558 1151.19 86.5746 1151.19 85.9809C1151.19 85.3872 1150.71 84.9059 1150.11 84.9059C1149.52 84.9059 1149.04 85.3872 1149.04 85.9809C1149.04 86.5746 1149.52 87.0558 1150.11 87.0558Z" fill="#5CCD6A"/>
<path d="M1117.98 87.0558C1118.58 87.0558 1119.06 86.5746 1119.06 85.9809C1119.06 85.3872 1118.58 84.9059 1117.98 84.9059C1117.39 84.9059 1116.91 85.3872 1116.91 85.9809C1116.91 86.5746 1117.39 87.0558 1117.98 87.0558Z" fill="#5CCD6A"/>
<path d="M1150.11 54.8063C1150.71 54.8063 1151.19 54.3251 1151.19 53.7314C1151.19 53.1377 1150.71 52.6564 1150.11 52.6564C1149.52 52.6564 1149.04 53.1377 1149.04 53.7314C1149.04 54.3251 1149.52 54.8063 1150.11 54.8063Z" fill="#5CCD6A"/>
<path d="M1117.98 54.8063C1118.58 54.8063 1119.06 54.3251 1119.06 53.7314C1119.06 53.1377 1118.58 52.6564 1117.98 52.6564C1117.39 52.6564 1116.91 53.1377 1116.91 53.7314C1116.91 54.3251 1117.39 54.8063 1117.98 54.8063Z" fill="#5CCD6A"/>
<path d="M1147.95 83.7962C1151.46 80.2814 1153.65 75.4539 1153.72 70.1236C1153.73 70.0719 1153.73 70.02 1153.73 69.9679C1153.73 69.9603 1153.73 69.953 1153.73 69.9455C1153.73 69.9156 1153.73 69.886 1153.73 69.8562C1153.73 64.5676 1151.64 59.7583 1148.24 56.2107C1148.17 56.1302 1148.1 56.0517 1148.03 55.9765C1148 55.9456 1147.96 55.9182 1147.93 55.8923C1144.42 52.3833 1139.59 50.1902 1134.27 50.119C1134.22 50.1169 1134.16 50.1156 1134.11 50.1156C1134.1 50.1156 1134.1 50.1166 1134.09 50.1168C1134.06 50.1166 1134.03 50.1156 1134 50.1156C1128.72 50.1156 1123.91 52.2053 1120.37 55.6015C1120.29 55.6703 1120.21 55.7423 1120.13 55.8185C1120.1 55.849 1120.07 55.8817 1120.05 55.9155C1116.54 59.4304 1114.35 64.2581 1114.28 69.5888C1114.27 69.6405 1114.27 69.6924 1114.27 69.7445C1114.27 69.7521 1114.27 69.7593 1114.27 69.7669C1114.27 69.7968 1114.27 69.8264 1114.27 69.8562C1114.27 75.1447 1116.36 79.9539 1119.76 83.5014C1119.83 83.582 1119.9 83.6605 1119.97 83.7359C1120 83.7668 1120.04 83.7943 1120.07 83.8203C1123.58 87.329 1128.41 89.5222 1133.73 89.5933C1133.78 89.5955 1133.84 89.5968 1133.89 89.5968C1133.9 89.5968 1133.9 89.5958 1133.91 89.5956C1133.94 89.5958 1133.97 89.5968 1134 89.5968C1139.29 89.5968 1144.1 87.5032 1147.64 84.1014C1147.72 84.0353 1147.8 83.967 1147.87 83.8938C1147.9 83.8629 1147.93 83.83 1147.95 83.7962ZM1120.84 57.9123L1127.55 64.6291C1126.34 64.2741 1124.97 64.0764 1123.51 64.0764C1120.77 64.0764 1118.35 64.7722 1116.67 65.8974C1117.36 62.871 1118.82 60.1359 1120.84 57.9123ZM1128.28 69.8562C1128.28 66.7 1130.85 64.1323 1134 64.1323C1137.15 64.1323 1139.72 66.7 1139.72 69.8562C1139.72 73.0123 1137.15 75.5801 1134 75.5801C1130.85 75.5801 1128.28 73.0123 1128.28 69.8562ZM1132.91 77.456V87.3579C1132.37 87.0451 1131.86 86.4832 1131.42 85.7164C1130.62 84.3001 1130.18 82.3958 1130.18 80.3547C1130.18 79.0796 1130.35 77.8588 1130.68 76.7762C1131.37 77.1112 1132.12 77.3432 1132.91 77.456ZM1126.76 72.3972C1127.02 73.1433 1127.4 73.8375 1127.86 74.4585L1120.86 81.4617C1120.7 80.8594 1120.74 80.0976 1120.97 79.2477C1121.4 77.6779 1122.44 76.0183 1123.88 74.575C1124.78 73.6731 1125.77 72.932 1126.76 72.3972ZM1126.41 68.7672H1116.51C1116.82 68.2281 1117.38 67.7127 1118.15 67.2775C1119.57 66.4736 1121.47 66.0309 1123.51 66.0309C1124.78 66.0309 1126 66.2047 1127.08 66.5306C1126.75 67.2247 1126.52 67.977 1126.41 68.7672ZM1122.4 56.7106C1123 56.5505 1123.77 56.5833 1124.62 56.8179C1126.18 57.2509 1127.84 58.2844 1129.28 59.7277C1130.19 60.6296 1130.93 61.6159 1131.46 62.6118C1130.72 62.8743 1130.02 63.2474 1129.4 63.7138L1122.4 56.7106ZM1135.09 62.2564V52.3545C1135.63 52.6672 1136.14 53.2291 1136.58 53.996C1137.38 55.4122 1137.82 57.3164 1137.82 59.3576C1137.82 60.6328 1137.65 61.8534 1137.32 62.9358C1136.63 62.601 1135.88 62.369 1135.09 62.2564ZM1138.6 75.9985L1145.6 83.0017C1145 83.1618 1144.23 83.1291 1143.38 82.8944C1141.82 82.4614 1140.16 81.428 1138.72 79.9847C1137.81 79.0828 1137.07 78.0964 1136.54 77.1004C1137.29 76.8379 1137.98 76.4648 1138.6 75.9985ZM1141.59 70.9451H1151.49C1151.18 71.4843 1150.62 71.9997 1149.85 72.4349C1148.43 73.2388 1146.53 73.6815 1144.49 73.6815C1143.22 73.6815 1142 73.5078 1140.92 73.1821C1141.25 72.4879 1141.48 71.7354 1141.59 70.9451ZM1140.14 65.2539L1147.14 58.2507C1147.3 58.853 1147.26 59.6148 1147.03 60.4647C1146.6 62.0346 1145.56 63.6941 1144.12 65.1374C1143.22 66.0393 1142.23 66.78 1141.24 67.3147C1140.98 66.5689 1140.6 65.8747 1140.14 65.2539ZM1142.25 68.9906C1143.36 68.3817 1144.47 67.5522 1145.5 66.5196C1147.43 64.5857 1148.66 62.3828 1149.05 60.4029C1150.63 62.9142 1151.6 65.8464 1151.75 68.9906H1142.25ZM1139.22 63.405C1139.58 62.1888 1139.78 60.8178 1139.78 59.3577C1139.78 56.6184 1139.08 54.193 1137.96 52.5149C1140.98 53.2054 1143.71 54.6697 1145.94 56.6883L1139.22 63.405ZM1133.14 61.5985C1132.53 60.4874 1131.7 59.3782 1130.67 58.3457C1128.99 56.667 1127.02 55.4553 1125.13 54.9338C1124.94 54.8794 1124.74 54.8357 1124.55 54.7971C1127.06 53.2151 1129.99 52.243 1133.14 52.0915V61.5985ZM1125.75 70.7217C1124.64 71.3307 1123.53 72.1603 1122.5 73.1927C1120.57 75.1267 1119.34 77.3296 1118.95 79.3094C1117.37 76.7981 1116.4 73.8659 1116.25 70.7217H1125.75V70.7217ZM1128.78 76.3074C1128.42 77.5236 1128.22 78.8946 1128.22 80.3547C1128.22 83.0941 1128.92 85.5195 1130.04 87.1976C1127.02 86.5071 1124.29 85.0427 1122.06 83.0241L1128.78 76.3074ZM1134.86 78.1139C1135.47 79.2249 1136.3 80.3342 1137.33 81.3667C1139.27 83.3004 1141.47 84.5226 1143.45 84.9157C1140.94 86.4975 1138.01 87.4695 1134.86 87.6208V78.1139ZM1140.45 75.0832C1141.66 75.4383 1143.03 75.636 1144.49 75.636C1147.23 75.636 1149.65 74.9402 1151.33 73.815C1150.64 76.8414 1149.18 79.5766 1147.16 81.8001L1140.45 75.0832Z" fill="#5CCD6A"/>
<path d="M1137.21 69.8457C1137.2 68.0752 1135.76 66.6394 1133.99 66.6452C1132.22 66.6509 1130.79 68.0961 1130.79 69.8667C1130.8 71.6372 1132.24 73.073 1134.01 73.0672C1135.78 73.0613 1137.21 71.6162 1137.21 69.8457ZM1132.74 69.8602C1132.74 69.1674 1133.3 68.6019 1134 68.5997C1134.69 68.5974 1135.25 69.1592 1135.26 69.852C1135.26 70.5448 1134.7 71.1103 1134 71.1126C1133.31 71.1148 1132.75 70.5531 1132.74 69.8602Z" fill="#5CCD6A"/>
</svg>
