<svg width="17" height="18" viewBox="0 0 17 18" fill="none" xmlns="http://www.w3.org/2000/svg">
<path d="M7.67428 10.108C5.3065 12.2971 2.05425 11.9 0.708136 9.79962C-1.02694 7.09225 1.82341 3.31132 4.36874 6.17526C5.10959 7.00666 6.09092 8.9246 7.6775 8.71471L7.67428 10.108Z" fill="#D7FFDB"/>
<path d="M9.12437 10.3131C11.3114 12.6814 10.9143 15.9361 8.81608 17.2825C6.10936 19.018 2.32933 16.1653 5.19099 13.6194C6.02383 12.88 7.93968 11.8984 7.73147 10.3115L9.12437 10.3131Z" fill="#9DFF94"/>
<path d="M12.6343 12.7962C11.8951 11.9632 10.9137 10.0469 9.32715 10.2568L9.33037 8.86352C11.6981 6.67437 14.9504 7.07151 16.2965 9.17188C18.0316 11.8776 15.1796 15.6602 12.6343 12.7962Z" fill="#D7FFDB"/>
<path d="M7.87885 8.65818C5.69022 6.28984 6.0889 3.03518 8.18713 1.68878C10.8939 -0.0467041 14.6739 2.80596 11.8106 5.35189C10.9794 6.09129 9.06357 7.07284 9.27179 8.65981L7.87885 8.65818Z" fill="#9DFF94"/>
<path d="M8.47442 11.3051C9.43705 11.3051 10.2174 10.5245 10.2174 9.56169C10.2174 8.59884 9.43705 7.8183 8.47442 7.8183C7.5118 7.8183 6.73145 8.59884 6.73145 9.56169C6.73145 10.5245 7.5118 11.3051 8.47442 11.3051Z" fill="white"/>
<path d="M0.171145 8.02373C0.269228 8.02746 0.351785 7.95243 0.356109 7.85457C0.406126 6.73112 1.04418 5.73226 1.90767 5.42571C2.67153 5.15462 3.49851 5.46284 4.23674 6.29349C4.74119 6.86001 5.35755 7.93772 6.23604 8.51902C6.31764 8.57294 6.4276 8.55064 6.48155 8.46899C6.53553 8.3874 6.5132 8.27742 6.43153 8.22342C5.61734 7.68456 5.01693 6.6371 4.50142 6.05785C3.36754 4.78219 2.31596 4.90473 1.78914 5.09172C0.793281 5.44536 0.058352 6.57494 0.0021326 7.83883C-0.00222742 7.93658 0.0733817 8.01941 0.171145 8.02373Z" fill="#78C081"/>
<path d="M6.38489 10.8129C4.77675 11.6719 2.91328 11.5741 1.63715 10.5645C1.56033 10.5035 1.44892 10.5171 1.38834 10.5936C1.32762 10.6704 1.34059 10.7818 1.41741 10.8425C2.17814 11.4445 3.12831 11.7496 4.11704 11.7496C4.93034 11.7496 5.7698 11.5431 6.55163 11.1257C6.63795 11.0796 6.67066 10.9723 6.62447 10.8859C6.57846 10.7995 6.4707 10.7667 6.38489 10.8129Z" fill="#78C081"/>
<path d="M0.411867 9.23678C0.323107 9.27819 0.284894 9.3836 0.326226 9.47221C0.429165 9.69245 0.557378 9.90815 0.696969 10.096C0.755138 10.1743 0.866018 10.1911 0.944888 10.1326C1.02344 10.0743 1.03971 9.96339 0.981399 9.88487C0.855809 9.71583 0.740215 9.52128 0.647308 9.32223C0.606012 9.23383 0.500449 9.1956 0.411867 9.23678Z" fill="#78C081"/>
<path d="M8.9126 17.4321C10.7993 16.2203 11.3233 13.6342 10.1316 11.417C10.0853 11.3307 9.97765 11.2984 9.89165 11.3448C9.80548 11.3912 9.77315 11.4986 9.81952 11.5848C10.9228 13.6375 10.4507 16.0231 8.72143 17.1339C7.27628 18.0599 5.48562 17.5998 4.72024 16.5888C4.06507 15.7234 4.28548 14.6632 5.31002 13.7526C5.8631 13.26 6.88565 12.6716 7.47851 11.8355C7.53508 11.7557 7.5164 11.6451 7.43647 11.5884C7.35689 11.5318 7.24597 11.5507 7.18958 11.6304C6.63777 12.4087 5.6333 12.9901 5.07454 13.4878C3.6877 14.7203 3.8363 16.0084 4.43769 16.8028C5.34011 17.9945 7.35706 18.4292 8.9126 17.4321Z" fill="#78C081"/>
<path d="M15.6037 13.2675C14.7378 13.9237 13.6772 13.7032 12.766 12.6784C12.2659 12.1143 11.6552 11.0503 10.7892 10.466C10.7077 10.4113 10.598 10.4326 10.5432 10.5139C10.4885 10.595 10.51 10.7052 10.5909 10.7599C11.3936 11.3013 11.994 12.3419 12.5011 12.9138C13.6491 14.2052 14.9282 14.2241 15.8177 13.55C16.9539 12.6888 17.4777 10.6857 16.4462 9.07666C15.2262 7.17361 12.5406 6.66199 10.3317 7.9123C10.2464 7.96048 10.2165 8.06855 10.2648 8.15379C10.3129 8.23892 10.4212 8.26912 10.5061 8.22066C12.5511 7.06356 15.0293 7.5231 16.148 9.26788C17.0736 10.712 16.6139 12.5018 15.6037 13.2675Z" fill="#78C081"/>
<path d="M8.09147 1.53972C6.19805 2.75529 5.68264 5.43525 6.9183 7.64095C6.96594 7.72636 7.07384 7.75664 7.15949 7.70895C7.24477 7.66109 7.27522 7.55313 7.2273 7.46771C6.08316 5.42532 6.54685 2.95249 8.28263 1.83805C9.72778 0.912158 11.5184 1.37166 12.2836 2.3823C12.939 3.24745 12.7186 4.308 11.694 5.21929C11.1275 5.72382 9.99594 6.37245 9.42932 7.27973C9.37742 7.36269 9.40266 7.47207 9.48554 7.52391C9.56859 7.57592 9.67777 7.55057 9.72966 7.4675C10.256 6.62489 11.3402 6.00892 11.9295 5.48407C13.3163 4.25064 13.1677 2.96246 12.5662 2.16825C11.7051 1.03154 9.70148 0.507714 8.09147 1.53972Z" fill="#78C081"/>
<path d="M8.47378 11.4824C9.5326 11.4824 10.394 10.6208 10.394 9.56182C10.394 8.50276 9.53263 7.64111 8.47378 7.64111C7.41515 7.64111 6.55371 8.50272 6.55371 9.56182C6.55375 10.6208 7.41515 11.4824 8.47378 11.4824ZM8.47378 7.99556C9.33728 7.99556 10.0397 8.69823 10.0397 9.56186C10.0397 10.4255 9.33728 11.128 8.47378 11.128C7.61047 11.128 6.90804 10.4255 6.90804 9.56186C6.90804 8.69826 7.61047 7.99556 8.47378 7.99556Z" fill="#78C081"/>
</svg>
