<svg width="496" height="541" viewBox="0 0 496 541" fill="none" xmlns="http://www.w3.org/2000/svg">
<circle cx="231" cy="119" r="50" fill="#D9FADD"/>
<path d="M239.879 128.446C237.14 131.197 237.482 136.748 237.482 136.748H223.593C223.593 136.748 223.886 131.197 221.197 128.446C218.213 125.794 216.306 121.963 216.306 117.689C216.306 109.83 222.664 103.445 230.489 103.445C238.314 103.445 244.672 109.83 244.672 117.689C244.672 121.963 242.813 125.794 239.879 128.446Z" fill="#C3FF17"/>
<path d="M237.874 141.119C237.874 141.856 237.287 142.446 236.554 142.446H224.474C223.74 142.446 223.153 141.856 223.153 141.119C223.153 140.383 223.74 139.793 224.474 139.793H236.505C237.238 139.793 237.874 140.383 237.874 141.119Z" fill="#D9FADD"/>
<path d="M236.064 146.621C236.064 147.358 235.477 147.947 234.744 147.947H226.283C225.549 147.947 224.963 147.358 224.963 146.621C224.963 145.884 225.549 145.295 226.283 145.295H234.744C235.477 145.295 236.064 145.884 236.064 146.621Z" fill="#D9FADD"/>
<path d="M240.613 128.938C243.792 126.04 245.602 121.963 245.602 117.689C245.602 109.339 238.804 102.511 230.489 102.511C222.175 102.511 215.377 109.339 215.377 117.689C215.377 122.061 217.285 126.236 220.513 129.085C222.909 131.492 222.664 136.6 222.664 136.649C222.664 136.895 222.762 137.141 222.909 137.337C223.105 137.534 223.349 137.632 223.594 137.632H237.434C237.679 137.632 237.923 137.534 238.119 137.337C238.314 137.141 238.363 136.895 238.363 136.649C238.363 136.6 238.119 131.492 240.515 129.085C240.564 129.036 240.613 128.987 240.613 128.938ZM239.244 127.71C239.146 127.759 239.097 127.857 239.048 127.955C236.896 130.264 236.554 134.046 236.505 135.814H224.523C224.474 133.997 224.083 130.067 221.784 127.759C218.899 125.205 217.236 121.57 217.236 117.738C217.236 110.37 223.202 104.427 230.489 104.427C237.825 104.427 243.743 110.42 243.743 117.738C243.743 121.521 242.129 125.205 239.244 127.71Z" fill="#5CCD6A"/>
<path d="M230.489 106.441C230 106.441 229.56 106.834 229.56 107.374C229.56 107.865 229.951 108.307 230.489 108.307C235.967 108.307 240.417 112.777 240.417 118.279C240.417 118.77 240.809 119.212 241.346 119.212C241.836 119.212 242.276 118.819 242.276 118.279C242.276 111.746 236.994 106.441 230.489 106.441Z" fill="#5CCD6A"/>
<path d="M238.803 141.119C238.803 139.842 237.776 138.86 236.553 138.86H224.474C223.202 138.86 222.224 139.891 222.224 141.119C222.224 142.397 223.251 143.379 224.474 143.379H236.505C237.776 143.379 238.803 142.397 238.803 141.119ZM236.505 141.512H224.474C224.229 141.512 224.082 141.316 224.082 141.119C224.082 140.874 224.278 140.726 224.474 140.726H236.505C236.749 140.726 236.896 140.923 236.896 141.119C236.945 141.365 236.749 141.512 236.505 141.512Z" fill="#5CCD6A"/>
<path d="M234.744 144.361H226.283C225.012 144.361 224.034 145.393 224.034 146.621C224.034 147.898 225.061 148.88 226.283 148.88H234.744C236.016 148.88 236.994 147.849 236.994 146.621C236.994 145.393 235.967 144.361 234.744 144.361ZM234.744 147.014H226.283C226.039 147.014 225.892 146.817 225.892 146.621C225.892 146.375 226.088 146.228 226.283 146.228H234.744C234.989 146.228 235.135 146.424 235.135 146.621C235.135 146.866 234.989 147.014 234.744 147.014Z" fill="#5CCD6A"/>
<path d="M231.418 97.059V90.7717C231.418 90.2805 231.027 89.8384 230.489 89.8384C230 89.8384 229.56 90.2313 229.56 90.7717V97.1081C229.56 97.5993 229.951 98.0414 230.489 98.0414C231.027 97.9923 231.418 97.5993 231.418 97.059Z" fill="#5CCD6A"/>
<path d="M245.895 94.5047C245.454 94.21 244.916 94.3574 244.623 94.7503L241.151 100.006C240.857 100.448 241.004 100.989 241.395 101.283C241.542 101.382 241.738 101.431 241.884 101.431C242.178 101.431 242.471 101.283 242.667 101.038L246.139 95.7819C246.433 95.3889 246.286 94.7995 245.895 94.5047Z" fill="#5CCD6A"/>
<path d="M219.436 101.234C219.583 101.234 219.779 101.185 219.925 101.087C220.366 100.792 220.463 100.252 220.219 99.8097L216.844 94.5047C216.551 94.0627 216.013 93.9644 215.573 94.21C215.133 94.5047 215.035 95.0451 215.279 95.4871L218.654 100.792C218.849 101.087 219.143 101.234 219.436 101.234Z" fill="#5CCD6A"/>
<path d="M206.476 105.655L212.003 108.651C212.149 108.749 212.296 108.749 212.443 108.749C212.785 108.749 213.079 108.553 213.274 108.258C213.519 107.816 213.372 107.227 212.883 106.981L207.357 103.985C206.916 103.739 206.33 103.887 206.085 104.378C205.889 104.869 206.036 105.409 206.476 105.655Z" fill="#5CCD6A"/>
<path d="M248.535 108.799C248.682 108.799 248.829 108.749 248.976 108.7L254.502 105.704C254.942 105.458 255.138 104.918 254.893 104.427C254.649 103.985 254.111 103.788 253.622 104.034L248.095 107.03C247.655 107.276 247.46 107.816 247.704 108.307C247.851 108.602 248.193 108.799 248.535 108.799Z" fill="#5CCD6A"/>
<path d="M15.4907 1C20.5915 10.4077 40.2444 36.4393 78.0495 65.3045C125.306 101.386 157.607 103.712 172.596 108.454M172.596 108.454L167.871 101.865M172.596 108.454L164.822 111.966" stroke="#78C081" stroke-width="2" stroke-linecap="round" stroke-linejoin="round"/>
<path d="M294 128.5C347.5 128.5 400.752 145.36 414.545 190.772C423.563 228.096 406.027 255.348 374.221 288.321M374.221 288.321L382.5 287M374.221 288.321L374 279" stroke="#78C081" stroke-width="2" stroke-linecap="round" stroke-linejoin="round"/>
<circle cx="301" cy="293" r="50" fill="#D9FADD"/>
<path d="M321.101 274.778V317.801C321.101 319.559 319.663 320.985 317.89 320.985H284.11C282.337 320.985 280.899 319.559 280.899 317.801V274.778C280.899 273.019 282.337 271.593 284.11 271.593H291.513V276.052C291.513 276.711 292.052 277.245 292.717 277.245H309.283C309.947 277.245 310.486 276.711 310.486 276.052V271.593H317.89C319.663 271.593 321.101 273.019 321.101 274.778V274.778Z" fill="#D9FADD"/>
<path d="M310.487 270.59V276.054C310.487 276.713 309.948 277.247 309.283 277.247H292.717C292.052 277.247 291.513 276.713 291.513 276.054V270.59C291.513 269.931 292.052 269.396 292.717 269.396H297.272V269.385C297.272 266.847 299.898 264.902 302.609 266.047C303.927 266.604 304.716 267.964 304.716 269.385V269.396H309.283C309.948 269.396 310.487 269.931 310.487 270.59V270.59Z" fill="#D9FADD"/>
<path d="M309.284 268.505H305.535C304.616 263.555 297.424 263.672 296.461 268.505H292.716C291.557 268.505 290.614 269.44 290.614 270.59V270.702H284.11C281.844 270.702 280 272.53 280 274.777V317.801C280 320.048 281.844 321.876 284.11 321.876H317.89C320.156 321.876 322 320.048 322 317.801V274.777C322 272.53 320.156 270.702 317.89 270.702H311.386V270.59C311.386 269.44 310.443 268.505 309.284 268.505ZM292.716 270.288H297.272C297.769 270.288 298.171 269.877 298.171 269.385C298.171 265.819 303.817 265.587 303.817 269.396C303.817 269.889 304.22 270.288 304.717 270.288H309.284C309.451 270.288 309.588 270.423 309.588 270.59C309.588 271.188 309.588 274.687 309.587 276.052C309.587 276.219 309.451 276.354 309.283 276.354H292.717C292.549 276.354 292.413 276.219 292.413 276.052C292.413 275.961 292.412 270.498 292.412 270.59C292.412 270.423 292.549 270.288 292.716 270.288ZM292.716 278.139H309.284C310.443 278.139 311.386 277.204 311.386 276.054V276.052L315.938 276.023C316.322 276.023 316.634 276.332 316.634 276.713V315.865C316.634 316.246 316.322 316.555 315.938 316.555H286.062C285.678 316.555 285.366 316.246 285.366 315.865V276.713C285.366 276.332 285.678 276.023 286.062 276.023H290.614V276.054C290.614 277.204 291.557 278.139 292.716 278.139ZM317.89 272.485C319.165 272.485 320.202 273.513 320.202 274.777V317.801C320.202 319.065 319.165 320.093 317.89 320.093H284.11C282.835 320.093 281.798 319.065 281.798 317.801V274.777C281.798 273.513 282.835 272.485 284.11 272.485H290.614V274.24H286.062C284.687 274.24 283.568 275.349 283.568 276.713V315.865C283.568 317.229 284.687 318.338 286.062 318.338H315.938C317.313 318.338 318.432 317.229 318.432 315.865V276.713C318.432 275.349 317.313 274.24 315.938 274.24H311.386V272.485H317.89Z" fill="#5CCD6A"/>
<path d="M301.638 269.01C301.971 268.661 302 268.144 301.638 267.744C301.305 267.414 300.703 267.414 300.362 267.744C300.01 268.13 300.021 268.653 300.362 269.01C300.727 269.353 301.273 269.353 301.638 269.01Z" fill="#5CCD6A"/>
<path d="M302.002 284.798H311.489C311.985 284.798 312.388 284.399 312.388 283.907C312.388 283.414 311.985 283.015 311.489 283.015H302.002C301.505 283.015 301.103 283.414 301.103 283.907C301.103 284.399 301.505 284.798 302.002 284.798Z" fill="#C3FF17"/>
<path d="M302.002 288.648H307.617C308.114 288.648 308.516 288.249 308.516 287.756C308.516 287.264 308.114 286.865 307.617 286.865H302.002C301.505 286.865 301.103 287.264 301.103 287.756C301.103 288.249 301.505 288.648 302.002 288.648Z" fill="#C3FF17"/>
<path d="M290.5 288.11C290.5 289.347 291.505 290.354 292.743 290.354H296.257C297.495 290.354 298.5 289.347 298.5 288.11V284.593C298.5 283.355 297.495 282.349 296.257 282.349H292.743C291.505 282.349 290.5 283.355 290.5 284.593V288.11Z" fill="#C3FF17" stroke="#5CCD6A"/>
<path d="M302.002 295.768H311.489C311.985 295.768 312.388 295.369 312.388 294.876C312.388 294.384 311.985 293.985 311.489 293.985H302.002C301.505 293.985 301.103 294.384 301.103 294.876C301.103 295.369 301.505 295.768 302.002 295.768Z" fill="#C3FF17"/>
<path d="M302.002 299.617H307.617C308.114 299.617 308.516 299.218 308.516 298.726C308.516 298.233 308.114 297.834 307.617 297.834H302.002C301.505 297.834 301.103 298.233 301.103 298.726C301.103 299.218 301.505 299.617 302.002 299.617Z" fill="#C3FF17"/>
<path d="M298.5 295.601V295.601C298.5 294.363 297.495 293.357 296.257 293.357H292.743C291.505 293.357 290.5 294.363 290.5 295.601V299.118C290.5 300.355 291.505 301.362 292.743 301.362H296.257C297.495 301.362 298.5 300.355 298.5 299.118V295.601Z" fill="#C3FF17" stroke="#5CCD6A"/>
<path d="M302.002 306.738H311.489C311.985 306.738 312.388 306.339 312.388 305.846C312.388 305.354 311.985 304.955 311.489 304.955H302.002C301.505 304.955 301.103 305.354 301.103 305.846C301.103 306.339 301.505 306.738 302.002 306.738Z" fill="#C3FF17"/>
<path d="M302.002 310.587H307.617C308.114 310.587 308.516 310.188 308.516 309.696C308.516 309.203 308.114 308.804 307.617 308.804H302.002C301.505 308.804 301.103 309.203 301.103 309.696C301.103 310.188 301.505 310.587 302.002 310.587Z" fill="#C3FF17"/>
<path d="M298.5 306.608V306.608C298.5 305.371 297.495 304.364 296.257 304.364H292.743C291.505 304.364 290.5 305.371 290.5 306.608V310.126C290.5 311.363 291.505 312.369 292.743 312.369H296.257C297.495 312.369 298.5 311.363 298.5 310.126V306.608Z" fill="#C3FF17" stroke="#5CCD6A"/>
<path d="M242 328C197 343 101.71 382.808 97.4396 424.432C94.1181 456.806 114 470 132.81 471.239M132.81 471.239L128.5 465M132.81 471.239L126 475" stroke="#78C081" stroke-width="2" stroke-linecap="round" stroke-linejoin="round"/>
<circle cx="194" cy="467" r="50" fill="#D9FADD"/>
<path d="M198.799 457.358C198.799 459.241 198.441 460.977 197.839 462.367C198.19 462.613 198.515 462.891 198.812 463.198L207.336 454.668C203.971 451.261 199.312 449.137 194.156 449.095C196.724 449.137 198.799 452.819 198.799 457.358Z" fill="#D9FADD"/>
<path d="M183.188 471.884C184.519 470.552 185.999 469.578 187.406 469.021C187.34 468.642 187.304 468.254 187.304 467.856C187.304 467.819 187.306 467.782 187.306 467.744H175.251C175.251 467.782 175.25 467.819 175.25 467.856C175.25 472.983 177.305 477.628 180.635 481.015C178.846 479.169 179.98 475.094 183.188 471.884Z" fill="#D9FADD"/>
<path d="M189.201 478.355C189.201 476.471 189.559 474.735 190.161 473.345C189.81 473.099 189.485 472.821 189.188 472.514L180.664 481.044C184.029 484.452 188.688 486.575 193.844 486.617C191.276 486.575 189.201 482.893 189.201 478.355Z" fill="#D9FADD"/>
<path d="M189.975 457.037C191.306 458.369 192.279 459.849 192.836 461.258C193.214 461.192 193.603 461.155 194 461.155C194.038 461.155 194.074 461.157 194.112 461.158V449.094C194.074 449.094 194.037 449.093 194 449.093C188.877 449.093 184.235 451.15 180.851 454.482C182.696 452.691 186.767 453.826 189.975 457.037Z" fill="#D9FADD"/>
<path d="M183.509 463.054C185.391 463.054 187.126 463.412 188.515 464.014C188.761 463.664 189.039 463.338 189.346 463.041L180.821 454.51C177.416 457.878 175.294 462.541 175.252 467.7C175.294 465.13 178.974 463.054 183.509 463.054Z" fill="#D9FADD"/>
<path d="M204.491 472.659C202.609 472.659 200.874 472.3 199.485 471.698C199.239 472.049 198.961 472.375 198.654 472.672L207.179 481.202C210.584 477.834 212.706 473.172 212.748 468.012C212.706 470.582 209.026 472.659 204.491 472.659Z" fill="#D9FADD"/>
<path d="M204.812 463.829C203.481 465.161 202.001 466.134 200.594 466.691C200.66 467.07 200.696 467.459 200.696 467.856C200.696 467.894 200.694 467.931 200.694 467.968H212.749C212.749 467.931 212.75 467.894 212.75 467.856C212.75 462.73 210.695 458.084 207.365 454.698C209.154 456.544 208.02 460.618 204.812 463.829Z" fill="#D9FADD"/>
<path d="M198.025 478.676C196.694 477.344 195.721 475.863 195.164 474.454C194.786 474.521 194.397 474.557 194 474.557C193.963 474.557 193.926 474.555 193.888 474.555V486.618C193.926 486.618 193.963 486.619 194 486.619C199.123 486.619 203.765 484.563 207.149 481.23C205.305 483.021 201.233 481.886 198.025 478.676Z" fill="#D9FADD"/>
<path d="M204.491 472.659C209.052 472.659 212.75 470.559 212.75 467.968H200.694C200.671 469.355 200.227 470.638 199.485 471.698C200.874 472.3 202.609 472.659 204.491 472.659Z" fill="#C3FF17"/>
<path d="M204.812 463.828C208.037 460.601 209.168 456.499 207.337 454.667L198.812 463.199C199.722 464.14 200.358 465.346 200.594 466.691C202.001 466.134 203.481 465.16 204.812 463.828Z" fill="#C3FF17"/>
<path d="M198.799 457.358C198.799 452.793 196.7 449.093 194.112 449.093V461.158C195.497 461.181 196.78 461.624 197.839 462.367C198.441 460.977 198.799 459.241 198.799 457.358Z" fill="#C3FF17"/>
<path d="M189.975 457.037C186.75 453.809 182.651 452.678 180.821 454.509L189.346 463.041C190.286 462.13 191.492 461.494 192.836 461.258C192.279 459.849 191.306 458.369 189.975 457.037Z" fill="#C3FF17"/>
<path d="M183.509 463.054C178.948 463.054 175.25 465.154 175.25 467.744H187.306C187.329 466.358 187.772 465.074 188.515 464.014C187.126 463.412 185.391 463.054 183.509 463.054Z" fill="#C3FF17"/>
<path d="M183.188 471.884C179.963 475.111 178.832 479.213 180.663 481.045L189.188 472.514C188.278 471.573 187.642 470.366 187.407 469.021C185.999 469.578 184.519 470.552 183.188 471.884Z" fill="#C3FF17"/>
<path d="M189.201 478.355C189.201 482.919 191.3 486.619 193.888 486.619V474.554C192.503 474.532 191.22 474.088 190.161 473.345C189.559 474.735 189.201 476.471 189.201 478.355Z" fill="#C3FF17"/>
<path d="M198.025 478.676C201.25 481.903 205.349 483.035 207.179 481.203L198.654 472.672C197.714 473.582 196.508 474.218 195.164 474.454C195.721 475.863 196.694 477.344 198.025 478.676Z" fill="#C3FF17"/>
<path d="M194 461.155C190.302 461.155 187.304 464.155 187.304 467.856C187.304 471.557 190.302 474.557 194 474.557C197.698 474.557 200.696 471.557 200.696 467.856C200.696 464.155 197.698 461.155 194 461.155Z" fill="#D9FADD"/>
<path d="M194 470.09C195.233 470.09 196.232 469.09 196.232 467.856C196.232 466.622 195.233 465.622 194 465.622C192.767 465.622 191.768 466.622 191.768 467.856C191.768 469.09 192.767 470.09 194 470.09Z" fill="#C3FF17"/>
<path d="M214.117 442.838H173.883C171.19 442.838 169 445.03 169 447.725V487.988C169 490.682 171.19 492.874 173.883 492.874H214.117C216.81 492.874 219 490.682 219 487.988V447.725C219 445.03 216.81 442.838 214.117 442.838ZM217.047 487.988C217.047 489.604 215.733 490.919 214.117 490.919H173.883C172.267 490.919 170.953 489.604 170.953 487.988V447.725C170.953 446.108 172.267 444.793 173.883 444.793H214.117C215.733 444.793 217.047 446.108 217.047 447.725V487.988Z" fill="#5CCD6A"/>
<path d="M214.02 483.004C213.48 483.004 213.043 483.441 213.043 483.981C213.043 485.597 211.729 486.913 210.113 486.913C209.574 486.913 209.137 487.35 209.137 487.89C209.137 488.43 209.574 488.867 210.113 488.867C212.806 488.867 214.996 486.675 214.996 483.981C214.996 483.441 214.559 483.004 214.02 483.004Z" fill="#5CCD6A"/>
<path d="M210.113 446.845C209.574 446.845 209.137 447.283 209.137 447.822C209.137 448.362 209.574 448.8 210.113 448.8C211.729 448.8 213.043 450.115 213.043 451.731C213.043 452.271 213.48 452.709 214.02 452.709C214.559 452.709 214.996 452.271 214.996 451.731C214.996 449.037 212.806 446.845 210.113 446.845Z" fill="#5CCD6A"/>
<path d="M173.98 452.709C174.52 452.709 174.957 452.271 174.957 451.731C174.957 450.115 176.271 448.8 177.887 448.8C178.426 448.8 178.863 448.362 178.863 447.822C178.863 447.283 178.426 446.845 177.887 446.845C175.194 446.845 173.004 449.037 173.004 451.731C173.004 452.271 173.441 452.709 173.98 452.709Z" fill="#5CCD6A"/>
<path d="M177.887 486.913C176.271 486.913 174.957 485.597 174.957 483.981C174.957 483.441 174.52 483.004 173.98 483.004C173.441 483.004 173.004 483.441 173.004 483.981C173.004 486.675 175.194 488.867 177.887 488.867C178.426 488.867 178.863 488.43 178.863 487.89C178.863 487.35 178.426 486.913 177.887 486.913Z" fill="#5CCD6A"/>
<path d="M210.113 485.056C210.707 485.056 211.188 484.575 211.188 483.981C211.188 483.387 210.707 482.906 210.113 482.906C209.52 482.906 209.039 483.387 209.039 483.981C209.039 484.575 209.52 485.056 210.113 485.056Z" fill="#5CCD6A"/>
<path d="M177.984 485.056C178.578 485.056 179.059 484.575 179.059 483.981C179.059 483.387 178.578 482.906 177.984 482.906C177.391 482.906 176.91 483.387 176.91 483.981C176.91 484.575 177.391 485.056 177.984 485.056Z" fill="#5CCD6A"/>
<path d="M210.113 452.806C210.707 452.806 211.188 452.325 211.188 451.731C211.188 451.138 210.707 450.656 210.113 450.656C209.52 450.656 209.039 451.138 209.039 451.731C209.039 452.325 209.52 452.806 210.113 452.806Z" fill="#5CCD6A"/>
<path d="M177.984 452.806C178.578 452.806 179.059 452.325 179.059 451.731C179.059 451.138 178.578 450.656 177.984 450.656C177.391 450.656 176.91 451.138 176.91 451.731C176.91 452.325 177.391 452.806 177.984 452.806Z" fill="#5CCD6A"/>
<path d="M207.954 481.796C211.461 478.281 213.652 473.454 213.723 468.123C213.725 468.072 213.727 468.02 213.727 467.968C213.727 467.96 213.726 467.953 213.725 467.945C213.726 467.916 213.727 467.886 213.727 467.856C213.727 462.568 211.637 457.758 208.242 454.211C208.174 454.13 208.103 454.052 208.028 453.976C207.997 453.946 207.964 453.918 207.93 453.892C204.418 450.383 199.594 448.19 194.267 448.119C194.215 448.117 194.163 448.116 194.111 448.116C194.104 448.116 194.097 448.117 194.089 448.117C194.059 448.117 194.03 448.116 194 448.116C188.717 448.116 183.912 450.205 180.367 453.601C180.286 453.67 180.206 453.742 180.13 453.818C180.1 453.849 180.072 453.882 180.047 453.915C176.54 457.43 174.348 462.258 174.277 467.589C174.275 467.64 174.274 467.692 174.274 467.744C174.274 467.752 174.275 467.759 174.275 467.767C174.274 467.797 174.273 467.826 174.273 467.856C174.273 473.145 176.363 477.954 179.758 481.501C179.826 481.582 179.897 481.66 179.972 481.736C180.003 481.767 180.036 481.794 180.07 481.82C183.582 485.329 188.406 487.522 193.733 487.593C193.784 487.595 193.836 487.597 193.888 487.597C193.896 487.597 193.903 487.596 193.911 487.596C193.941 487.596 193.97 487.597 194 487.597C199.288 487.597 204.097 485.503 207.642 482.101C207.72 482.035 207.797 481.967 207.87 481.894C207.901 481.863 207.928 481.83 207.954 481.796ZM180.841 455.912L187.553 462.629C186.338 462.274 184.968 462.076 183.509 462.076C180.771 462.076 178.348 462.772 176.671 463.897C177.361 460.871 178.824 458.136 180.841 455.912ZM188.28 467.856C188.28 464.7 190.846 462.132 194 462.132C197.154 462.132 199.72 464.7 199.72 467.856C199.72 471.012 197.154 473.58 194 473.58C190.846 473.58 188.28 471.012 188.28 467.856ZM192.912 475.456V485.358C192.373 485.045 191.858 484.483 191.423 483.716C190.62 482.3 190.177 480.396 190.177 478.355C190.177 477.08 190.351 475.859 190.676 474.776C191.37 475.111 192.122 475.343 192.912 475.456ZM186.761 470.397C187.023 471.143 187.396 471.837 187.862 472.458L180.864 479.462C180.704 478.859 180.737 478.098 180.971 477.248C181.404 475.678 182.436 474.018 183.879 472.575C184.78 471.673 185.765 470.932 186.761 470.397ZM186.406 466.767H176.511C176.823 466.228 177.385 465.713 178.151 465.277C179.566 464.474 181.469 464.031 183.509 464.031C184.783 464.031 186.003 464.205 187.085 464.531C186.75 465.225 186.518 465.977 186.406 466.767ZM182.403 454.711C183.005 454.55 183.766 454.583 184.615 454.818C186.184 455.251 187.842 456.284 189.285 457.728C190.186 458.63 190.926 459.616 191.46 460.612C190.715 460.874 190.021 461.247 189.401 461.714L182.403 454.711ZM195.088 460.256V450.354C195.627 450.667 196.142 451.229 196.577 451.996C197.38 453.412 197.823 455.316 197.823 457.358C197.823 458.633 197.649 459.853 197.323 460.936C196.63 460.601 195.878 460.369 195.088 460.256ZM198.599 473.998L205.597 481.002C204.995 481.162 204.234 481.129 203.385 480.894C201.816 480.461 200.158 479.428 198.715 477.985C197.814 477.083 197.075 476.096 196.54 475.1C197.285 474.838 197.979 474.465 198.599 473.998ZM201.594 468.945H211.489C211.177 469.484 210.615 470 209.849 470.435C208.434 471.239 206.531 471.681 204.491 471.681C203.217 471.681 201.997 471.508 200.915 471.182C201.25 470.488 201.482 469.735 201.594 468.945ZM200.138 463.254L207.136 456.251C207.296 456.853 207.263 457.615 207.029 458.465C206.596 460.035 205.564 461.694 204.121 463.137C203.22 464.039 202.234 464.78 201.239 465.315C200.977 464.569 200.604 463.875 200.138 463.254ZM202.251 466.991C203.362 466.382 204.47 465.552 205.502 464.52C207.435 462.586 208.656 460.383 209.048 458.403C210.629 460.914 211.601 463.846 211.752 466.991H202.251ZM199.223 461.405C199.578 460.189 199.776 458.818 199.776 457.358C199.776 454.618 199.08 452.193 197.956 450.515C200.98 451.205 203.713 452.67 205.935 454.688L199.223 461.405ZM193.135 459.598C192.527 458.487 191.698 457.378 190.666 456.346C188.988 454.667 187.024 453.455 185.135 452.934C184.938 452.879 184.745 452.836 184.554 452.797C187.063 451.215 189.993 450.243 193.135 450.091V459.598ZM185.748 468.722C184.638 469.331 183.529 470.16 182.498 471.193C180.565 473.127 179.344 475.329 178.952 477.309C177.371 474.798 176.399 471.866 176.248 468.722H185.748V468.722ZM188.777 474.307C188.422 475.524 188.224 476.895 188.224 478.355C188.224 481.094 188.92 483.519 190.044 485.198C187.02 484.507 184.287 483.043 182.065 481.024L188.777 474.307ZM194.865 476.114C195.473 477.225 196.302 478.334 197.334 479.367C199.267 481.3 201.467 482.522 203.446 482.916C200.936 484.497 198.007 485.469 194.865 485.621V476.114ZM200.447 473.083C201.662 473.438 203.032 473.636 204.491 473.636C207.228 473.636 209.652 472.94 211.329 471.815C210.639 474.841 209.176 477.577 207.158 479.8L200.447 473.083Z" fill="#5CCD6A"/>
<path d="M197.209 467.846C197.203 466.075 195.759 464.639 193.99 464.645C192.22 464.651 190.786 466.096 190.792 467.867C190.797 469.637 192.241 471.073 194.011 471.067C195.78 471.061 197.215 469.616 197.209 467.846ZM192.745 467.86C192.742 467.167 193.304 466.602 193.996 466.6C194.688 466.597 195.254 467.159 195.256 467.852C195.258 468.545 194.697 469.11 194.004 469.113C193.312 469.115 192.747 468.553 192.745 467.86Z" fill="#5CCD6A"/>
<path d="M251 499.175C290.716 520.13 356.428 532.054 395.661 531.008C418.097 530.41 462.408 528.93 493.824 494.189M493.824 494.189L489.446 499.897M493.824 494.189L485.089 492.18" stroke="#78C081" stroke-width="2" stroke-linecap="round" stroke-linejoin="round"/>
</svg>
