<svg width="375" height="938" viewBox="0 0 375 938" fill="none" xmlns="http://www.w3.org/2000/svg">
<mask id="mask0_105_1348" style="mask-type:alpha" maskUnits="userSpaceOnUse" x="0" y="0" width="375" height="938">
<rect y="0.985352" width="375" height="937" fill="#EBEBEB"/>
</mask>
<g mask="url(#mask0_105_1348)">
<rect y="0.985352" width="375" height="937" fill="url(#paint0_linear_105_1348)"/>
<rect y="0.985352" width="375" height="937" fill="white" fill-opacity="0.3"/>
<g style="mix-blend-mode:soft-light">
<path d="M2276.7 924.146H-264.704V925.212H2276.7V924.146Z" fill="#B7B7B7"/>
<path d="M2276.7 869.842H-264.704V870.908H2276.7V869.842Z" fill="#B7B7B7"/>
<path d="M2276.7 815.539H-264.704V816.605H2276.7V815.539Z" fill="#B7B7B7"/>
<path d="M2276.7 761.235H-264.704V762.301H2276.7V761.235Z" fill="#B7B7B7"/>
<path d="M2276.7 706.932H-264.704V707.998H2276.7V706.932Z" fill="#B7B7B7"/>
<path d="M2276.7 652.628H-264.704V653.694H2276.7V652.628Z" fill="#B7B7B7"/>
<path d="M2276.7 598.325H-264.704V599.391H2276.7V598.325Z" fill="#B7B7B7"/>
<path d="M2276.7 544.021H-264.704V545.087H2276.7V544.021Z" fill="#B7B7B7"/>
<path d="M2276.7 489.717H-264.704V490.783H2276.7V489.717Z" fill="#B7B7B7"/>
<path d="M2276.7 435.414H-264.704V436.479H2276.7V435.414Z" fill="#B7B7B7"/>
<path d="M2276.7 381.111H-264.704V382.177H2276.7V381.111Z" fill="#B7B7B7"/>
<path d="M2276.7 326.806H-264.704V327.872H2276.7V326.806Z" fill="#B7B7B7"/>
<path d="M2276.7 272.503H-264.704V273.569H2276.7V272.503Z" fill="#B7B7B7"/>
<path d="M2276.7 218.199H-264.704V219.265H2276.7V218.199Z" fill="#B7B7B7"/>
<path d="M2276.7 163.896H-264.704V164.961H2276.7V163.896Z" fill="#B7B7B7"/>
<path d="M2276.7 109.592H-264.704V110.658H2276.7V109.592Z" fill="#B7B7B7"/>
<path d="M2276.7 55.2896H-264.704V56.3554H2276.7V55.2896Z" fill="#B7B7B7"/>
<path d="M2276.7 0.985352H-264.704V2.0512H2276.7V0.985352Z" fill="#B7B7B7"/>
<path d="M362.732 0.985352H361.674V937.985H362.732V0.985352Z" fill="#B7B7B7"/>
<path d="M311.539 0.985352H310.481V937.985H311.539V0.985352Z" fill="#B7B7B7"/>
<path d="M258.58 0.985352H257.522V937.985H258.58V0.985352Z" fill="#B7B7B7"/>
<path d="M205.622 0.985352H204.564V937.985H205.622V0.985352Z" fill="#B7B7B7"/>
<path d="M154.429 0.985352H153.371V937.985H154.429V0.985352Z" fill="#B7B7B7"/>
<path d="M101.471 0.985352H100.413V937.985H101.471V0.985352Z" fill="#B7B7B7"/>
<path d="M50.2776 0.985352H49.2195V937.985H50.2776V0.985352Z" fill="#B7B7B7"/>
</g>
<g style="mix-blend-mode:overlay">
<path d="M145.717 678.942L143.683 677.745C135.503 691.293 122.315 701.03 107.008 704.824C91.7012 708.617 75.5226 706.158 62.0154 697.985L60.7952 700C74.8424 708.496 91.6659 711.05 107.582 707.103C123.499 703.156 137.211 693.03 145.717 678.942Z" fill="#B7B7B7"/>
<path d="M-0.448119 763.437L-0.971138 768.198C-1.48444 773.091 -0.0484643 777.99 3.02248 781.821C6.09342 785.653 10.5493 788.105 15.4147 788.642L34.5315 790.745L39.0928 749.038L20.005 746.935C17.5834 746.663 15.1323 746.875 12.7923 747.558C10.4522 748.241 8.26939 749.382 6.36904 750.915C4.46869 752.449 2.88822 754.344 1.71834 756.493C0.548472 758.641 -0.187735 761.001 -0.448119 763.437ZM19.4821 751.754L34.0085 753.361L30.4641 785.751L15.9377 784.174C13.6813 783.909 11.5202 783.108 9.63323 781.837C7.5564 780.421 5.90217 778.463 4.84786 776.173C3.79354 773.883 3.3789 771.348 3.64835 768.84L4.20027 764.05C4.3886 762.225 4.93391 760.455 5.80479 758.842C6.67568 757.229 7.855 755.804 9.27503 754.651C10.6951 753.498 12.3278 752.638 14.0795 752.12C15.8311 751.603 17.6672 751.439 19.4821 751.637V751.754Z" fill="#B7B7B7"/>
<path d="M-3.00486 800.209C-5.77027 798.291 -9.00431 797.168 -12.3579 796.962C-15.7116 796.756 -19.0575 797.475 -22.0345 799.041L-26.3053 801.261C-30.6557 803.533 -33.9312 807.449 -35.4128 812.147C-36.8944 816.845 -36.4609 821.943 -34.2076 826.32L-25.3174 843.406L11.8702 824.042L2.95095 806.839C1.54253 804.167 -0.503998 801.889 -3.00486 800.209ZM-23.3419 837.097L-30.0531 824.159C-31.744 820.895 -32.0821 817.092 -30.9934 813.579C-29.9048 810.066 -27.4778 807.128 -24.2425 805.408L-19.9717 803.188C-17.7409 802.03 -15.2399 801.499 -12.7337 801.653C-10.2274 801.808 -7.80937 802.641 -5.73583 804.064C-3.86648 805.367 -2.33275 807.1 -1.26167 809.117L5.42046 822.026L-23.3419 837.097Z" fill="#B7B7B7"/>
<path d="M173.346 811.598L209.371 836.278L236.245 796.907L200.22 772.228C195.625 769.069 189.974 767.864 184.499 768.876C179.024 769.888 174.169 773.035 170.993 777.631L167.884 782.216C166.313 784.503 165.209 787.079 164.633 789.796C164.057 792.514 164.022 795.319 164.53 798.05C165.038 800.781 166.078 803.385 167.591 805.71C169.104 808.035 171.06 810.036 173.346 811.598ZM171.661 784.932L174.798 780.347C177.262 776.76 181.036 774.299 185.298 773.5C189.56 772.701 193.964 773.629 197.547 776.083L229.767 798.075L208.18 829.706L176.019 807.655C172.448 805.219 169.984 801.459 169.167 797.199C168.35 792.94 169.247 788.528 171.661 784.932Z" fill="#B7B7B7"/>
<path d="M206.786 762.649L242.782 787.328L269.685 747.958L233.66 723.278C229.057 720.12 223.396 718.925 217.918 719.954C212.44 720.983 207.591 724.153 204.433 728.769L201.295 733.325C199.739 735.613 198.646 738.186 198.08 740.898C197.514 743.61 197.485 746.408 197.994 749.131C198.504 751.854 199.543 754.45 201.052 756.77C202.56 759.089 204.509 761.087 206.786 762.649ZM205.159 735.983L208.268 731.398C210.741 727.823 214.514 725.372 218.772 724.574C223.029 723.776 227.428 724.695 231.016 727.133L263.178 749.184L241.562 780.815L209.43 758.764C207.661 757.551 206.147 755.999 204.974 754.197C203.802 752.395 202.995 750.379 202.598 748.263C202.201 746.148 202.223 743.974 202.663 741.867C203.102 739.76 203.95 737.76 205.159 735.983Z" fill="#B7B7B7"/>
<path d="M255.188 691.764L291.213 716.443L318.087 677.102L282.062 652.393C277.454 649.251 271.798 648.065 266.324 649.093C260.851 650.121 256.003 653.281 252.834 657.884L249.726 662.47C248.169 664.753 247.075 667.322 246.507 670.031C245.939 672.74 245.907 675.534 246.415 678.255C246.922 680.976 247.958 683.57 249.463 685.888C250.969 688.206 252.914 690.202 255.188 691.764ZM253.59 665.098L256.698 660.542C259.157 656.949 262.932 654.482 267.196 653.683C271.46 652.884 275.866 653.817 279.447 656.278L311.608 678.329L289.993 709.989L257.832 687.909C256.058 686.695 254.54 685.142 253.366 683.337C252.191 681.531 251.384 679.511 250.99 677.391C250.596 675.27 250.622 673.093 251.068 670.983C251.515 668.874 252.372 666.874 253.59 665.098Z" fill="#B7B7B7"/>
<path d="M288.628 642.814L324.624 667.494L351.527 628.152L315.531 603.443C310.918 600.299 305.258 599.112 299.779 600.141C294.301 601.169 289.448 604.329 286.274 608.934L283.166 613.52C281.605 615.802 280.508 618.371 279.938 621.08C279.368 623.79 279.335 626.586 279.843 629.308C280.35 632.029 281.388 634.624 282.895 636.942C284.403 639.259 286.351 641.255 288.628 642.814ZM287.03 616.148L290.138 611.592C292.597 607.999 296.372 605.532 300.636 604.733C304.9 603.934 309.306 604.867 312.887 607.328L345.019 629.379L323.404 661.01L291.272 638.959C289.501 637.743 287.986 636.188 286.814 634.383C285.642 632.577 284.836 630.557 284.442 628.438C284.048 626.319 284.073 624.143 284.518 622.034C284.962 619.925 285.815 617.925 287.03 616.148Z" fill="#B7B7B7"/>
<path d="M35.8967 453.175L132.933 519.708C142.172 526.046 154.171 529.58 158.209 523.651L175.467 498.387L40.3418 405.744L23.0844 430.978C19.0461 436.936 26.6579 446.867 35.8967 453.175ZM26.9485 433.636L41.4749 412.228L168.901 499.614L154.374 520.993C152.893 523.154 144.845 522.22 135.548 515.853L38.5406 449.32C29.3017 442.982 25.4958 435.914 26.9485 433.636Z" fill="#B7B7B7"/>
<path d="M25.2346 718.312L42.492 693.048C46.5594 687.207 38.9185 677.189 29.6796 670.851L-67.3279 604.318C-76.5668 597.98 -88.5656 594.446 -92.633 600.404L-109.89 625.756L25.2346 718.312ZM-88.769 603.062C-87.3163 600.901 -79.2396 601.836 -69.9718 608.203L27.0358 674.735C36.3037 681.073 40.1096 688.258 38.657 690.419L24.1305 711.799L-103.266 624.441L-88.769 603.062Z" fill="#B7B7B7"/>
<path d="M9.98179 727.104L-44.6377 689.661L-111.953 788.146L-57.3047 825.618L9.98179 727.104ZM-105.445 786.948L-43.3303 696.145L3.59012 728.272L-58.5249 819.105L-105.445 786.948Z" fill="#B7B7B7"/>
<path d="M421.516 -303.015L399.174 -270.303L351.44 -303.015H346.966L397.75 -268.2L393.334 -261.746L335.083 -301.671L335.984 -303.015H327.53L164.34 -60.2782L130.057 -83.8187L129.883 -83.5559L128.459 -84.5489L127.297 -82.8549L72.6489 -120.327C67.2741 -124.036 61.8702 -127.775 56.4373 -131.484L57.7737 -133.441L27.5588 -154.265L127.588 -303.015H116.722L20.5861 -158.997C1.41122 -172.227 -17.7346 -185.283 -36.5318 -198.28L-37.8682 -196.352L-65.3813 -215.395L-93.0978 -234.437L-54.9513 -293.698C-24.6492 -274.421 -13.2896 -232.889 -31.9996 -201.814L-29.9949 -200.616C-10.6457 -232.743 -22.325 -275.706 -53.7021 -295.655L-49.1408 -302.547L-49.9833 -303.015H-51.7555L-55.6486 -296.969C-58.6859 -299.258 -61.9129 -301.28 -65.2942 -303.015H-70.7852C-65.8393 -300.934 -61.1736 -298.235 -56.8979 -294.983L-95.0153 -235.664L-149.606 -273.195L-148.502 -274.801L-149.257 -275.327L-149.025 -275.648C-162.941 -285.228 -176.189 -294.253 -188.595 -303.015H-200.942C-186.067 -292.705 -169.972 -281.606 -152.947 -269.865L-150.826 -272.786L-151.61 -271.676C-125.172 -253.451 -96.4098 -233.707 -66.6597 -213.263L-39.0594 -194.307L-37.9554 -195.914L-40.4249 -192.497C-9.4836 -171.234 22.3293 -149.358 53.8226 -127.629L55.159 -129.556C79.0405 -113.084 102.777 -96.6989 125.816 -80.6936L124.479 -78.766C144.148 -65.0973 163.323 -51.7498 181.8 -38.782C219.831 -14.5405 225.38 23.691 218.465 49.0716C214.331 64.0897 207.817 78.3401 199.174 91.2752C199.174 91.2752 191.185 102.958 178.285 121.855C178.947 122.195 179.587 122.575 180.203 122.994L80.8417 268.443L82.7883 269.786L182.149 124.308C182.896 124.852 183.604 125.448 184.27 126.089L204.985 95.1888L202.864 93.7578L204.898 95.1305C213.998 81.5757 220.865 66.6346 225.235 50.8824C232.759 23.1945 226.861 -18.4542 185.694 -44.6526L169.714 -55.8388L246.937 -170.621L313.003 -125.321L317.681 -122.109L441.214 -303.015H421.516ZM305.653 -133.382L248.332 -172.695L252.69 -179.178L310.069 -139.837L305.653 -133.382ZM311.463 -141.94L254.113 -181.311L258.471 -187.794L315.909 -148.395L311.463 -141.94ZM317.274 -150.497L259.895 -189.897L264.253 -196.381L321.748 -156.981L317.274 -150.497ZM323.085 -159.055L265.56 -198.484L269.918 -204.997L327.501 -165.51L323.085 -159.055ZM328.895 -167.613L271.458 -207.1L275.816 -213.584L333.456 -174.067L328.895 -167.613ZM334.706 -176.17L277.239 -215.687L281.626 -222.171L339.296 -182.625L334.706 -176.17ZM340.516 -184.728L283.021 -224.157L287.408 -230.67L345.136 -191.066L340.516 -184.728ZM346.327 -193.285L288.802 -232.919L293.189 -239.403L350.975 -199.769L346.327 -193.285ZM352.137 -201.843L294.322 -241.476L298.709 -247.989L356.583 -208.297L352.137 -201.843ZM357.948 -210.4L300.394 -250.092L304.752 -256.576L362.684 -216.855L357.948 -210.4ZM363.759 -218.958L306.176 -258.679L310.534 -265.046L368.639 -225.296L363.759 -218.958ZM369.569 -227.515L311.463 -267.266L315.821 -273.779L373.927 -233.97L369.569 -227.515ZM375.38 -236.073L317.274 -275.882L321.632 -282.366L379.738 -242.528L375.38 -236.073ZM381.19 -244.631L323.085 -284.468L327.443 -290.982L385.548 -251.085L381.19 -244.631ZM387.001 -253.188L328.895 -293.084L333.253 -299.568L391.359 -259.643L387.001 -253.188Z" fill="#B7B7B7"/>
<path d="M456.379 496.254L371.312 620.791L195.746 500.401L13.9331 375.689C37.3788 340.875 61.2602 306.089 85.1126 271.363C82.9125 270.365 80.8829 269.025 79.0988 267.391C53.4741 305.009 27.6751 342.919 6.14694 374.637L6.75702 375.046L-31.709 431.474L-30.0239 432.613C-56.8688 472.509 -82.319 510.302 -106.869 546.519L-109.222 544.912L-148.937 603.063L-175.085 641.265L-173.167 642.579L-221.657 713.581L-223.574 712.266L-251.174 752.63L-250.274 753.243C-278.426 790.569 -346.148 802.895 -387.084 777.163L-389.582 781.136C-347.775 807.422 -279.356 795.739 -248.705 758.763L-248.443 758.939L-246.381 756.018L-230.314 767.058C-249.701 792.654 -278.025 809.904 -309.57 815.324C-341.115 820.745 -373.53 813.934 -400.274 796.265L-401.261 795.622L-451.959 871.559L-450.971 872.202C-404.284 903.418 -347.393 915.263 -292.213 905.256C-237.034 895.25 -187.846 864.168 -154.951 818.52L-131.912 834.321L-172.121 893.289L-181.36 906.812L-31.0407 1011.28H-4.66074L-34.6142 990.197L6.81519 929.505L21.3416 939.523L48.9128 899.16L46.6466 897.583L46.9953 897.816L89.5287 835.518L143.741 872.202C134.519 887.087 119.872 897.757 102.929 901.932C85.9867 906.107 68.0917 903.456 53.0673 894.545L51.8761 896.56C67.4126 905.783 85.9196 908.535 103.447 904.23C120.974 899.924 136.133 888.902 145.688 873.516L157.716 881.636L159.023 879.708L90.8361 833.591L95.3393 827.019L97.2858 828.333L119.569 795.739L209.633 857.453L104.578 1011.28H124.392L456.379 525.285V496.254ZM-103.47 548.826L-105.009 547.774L-66.7467 491.143L-8.64096 531.068C-17.97 545.841 -32.6649 556.372 -49.5992 560.419C-66.5336 564.466 -84.3705 561.711 -99.315 552.74L-100.506 554.726C-85.0472 564.046 -66.5778 566.927 -49.0363 562.753C-31.4949 558.579 -16.2696 547.681 -6.60724 532.383L0.132965 536.997L1.46945 535.07L-5.27081 530.426C5.51773 515.908 10.1911 497.707 7.73932 479.754C5.28754 461.801 -4.0925 445.539 -18.3737 434.482L-19.7973 436.351C-5.98672 447.042 3.07767 462.773 5.43231 480.135C7.78696 497.498 3.24219 515.094 -7.21741 529.111L-65.3232 489.186L-28.0193 433.869L-25.8693 435.329L10.6792 381.822L186.13 502.124L163.875 534.748L165.792 536.063L129.418 589.306L127.501 587.963L91.1266 641.236L93.0441 642.55L56.5537 695.852L54.6362 694.509L33.0499 726.139L-142.4 605.866L-103.47 548.826ZM-448.705 870.742L-400.68 798.601C-397.775 800.558 -394.696 802.34 -391.616 804.004L-432.29 880.613C-437.752 877.605 -443.301 874.334 -448.705 870.742ZM-430.082 881.753L-389.408 805.143C-386.328 806.721 -383.22 808.064 -380.053 809.524L-412.883 889.726C-418.751 887.331 -424.475 884.702 -430.082 881.753ZM-410.82 890.514L-377.99 810.313C-374.852 811.569 -371.657 812.708 -368.432 813.701L-393.301 896.648C-399.199 894.983 -405.038 892.968 -410.82 890.631V890.514ZM-391.064 897.32L-366.224 814.373C-362.999 815.307 -359.774 816.125 -356.52 816.797L-373.255 901.671C-379.239 900.591 -385.166 899.16 -391.064 897.378V897.32ZM-370.959 902.109L-354.196 817.352C-350.942 817.965 -347.688 818.462 -344.405 818.812L-353.121 904.797C-358.99 904.212 -365.004 903.365 -370.959 902.226V902.109ZM-332.639 905.79C-338.653 905.79 -344.666 905.468 -350.651 904.913L-342.11 818.929C-338.856 819.221 -335.573 819.396 -332.29 819.425L-332.639 905.79ZM-330.314 905.79L-329.966 819.425C-326.712 819.425 -323.458 819.25 -320.175 818.987L-312.36 904.943C-318.345 905.546 -324.329 905.867 -330.314 905.906V905.79ZM-309.977 904.738L-317.793 818.754C-314.568 818.432 -311.343 817.994 -308.118 817.41L-292.226 902.109C-298.182 903.424 -304.08 904.271 -310.035 904.855L-309.977 904.738ZM-289.931 901.817L-305.823 816.972C-302.627 816.33 -299.46 815.599 -296.323 814.723L-272.499 897.699C-278.31 899.422 -284.149 900.795 -289.989 901.934L-289.931 901.817ZM-270.262 897.057L-294.085 814.081C-290.948 813.146 -287.868 812.095 -284.818 810.956L-253.295 891.537C-258.902 893.581 -264.568 895.48 -270.32 897.174L-270.262 897.057ZM-251.058 890.456L-282.639 810.109C-279.733 808.882 -276.596 807.509 -273.661 806.078L-234.585 883.096C-240.028 885.861 -245.538 888.353 -251.116 890.573L-251.058 890.456ZM-232.493 882.045L-271.569 805.027C-268.664 803.508 -265.759 801.843 -262.854 800.12L-216.572 873.137C-221.889 876.437 -227.177 879.416 -232.551 882.161L-232.493 882.045ZM-214.742 871.968L-261.023 798.952C-258.118 797.141 -255.532 795.213 -252.888 793.11L-199.722 861.395C-204.603 865.251 -209.629 868.697 -214.742 871.968ZM-197.862 860.023L-251.029 791.767C-248.376 789.664 -245.819 787.444 -243.359 785.108L-183.743 847.931C-188.314 852.195 -193.03 856.226 -197.891 860.023H-197.862ZM-182.058 846.325L-241.703 783.472C-239.234 781.077 -236.88 778.595 -234.585 775.995L-169.042 832.656C-173.226 837.446 -177.583 841.885 -182.087 846.325H-182.058ZM-167.531 830.875L-233.074 774.214C-231.477 772.286 -229.879 770.3 -228.368 768.372L-156.898 817.41C-160.268 821.996 -163.841 826.523 -167.531 830.875ZM-170.059 894.75L-129.821 835.84L-123.371 840.279L-163.667 899.247L-170.059 894.75ZM-161.604 900.591L-121.279 841.593L-114.829 846.004L-155.213 905.089L-161.604 900.591ZM-153.121 906.432L-112.737 847.727L-106.288 852.137L-146.729 911.31L-153.121 906.432ZM-144.667 912.419L-104.196 853.568L-97.7462 857.978L-138.275 917.297L-144.667 912.419ZM-136.183 918.261L-95.6253 859.409L-89.1755 863.849L-129.85 923.255L-136.183 918.261ZM-127.729 924.102L-87.0547 864.667L-80.6049 869.077L-121.279 928.6L-127.729 924.102ZM-119.274 929.943L-78.6003 870.391L-72.1796 874.831L-112.854 934.441L-119.274 929.943ZM-105.997 939.29L-110.791 935.931L-70.1169 876.262L-63.638 880.672L-104.312 940.399L-105.997 939.29ZM-102.307 941.831L-61.6334 882.103L-55.1546 886.542L-95.8287 946.241L-102.307 941.831ZM-93.7658 947.672L-53.0918 887.974L-46.6422 892.384L-87.3162 952.111L-93.7658 947.672ZM-85.2244 953.513L-44.5504 893.786L-38.1006 898.225L-78.7747 957.923L-85.2244 953.513ZM-76.6828 959.355L-35.8635 900.299L-29.4428 904.709L-70.1169 964.437L-76.6828 959.355ZM-68.1413 965.196L-27.4673 905.468L-21.0175 909.908L-61.6915 969.606L-68.1413 965.196ZM-59.5997 971.037L-18.9257 911.31L-12.476 915.72L-53.15 975.447L-59.5997 971.037ZM-51.0582 976.879L-10.3842 917.151L-3.93442 921.59L-44.6084 981.289L-51.0582 976.879ZM-36.0669 987.919L-42.5166 983.508L-1.84259 923.781L4.60715 928.191L-36.0669 987.919ZM91.5914 824.361L93.509 825.676L45.1649 896.473L43.2184 895.158L19.5984 929.71L-241.413 750.732L-217.647 716.297L-218.693 715.596C-205.135 695.794 -191.374 675.573 -177.409 654.934L-122.383 692.669C-131.705 707.491 -146.422 718.061 -163.392 722.121C-180.362 726.182 -198.238 723.41 -213.202 714.398L-214.422 716.414C-198.948 725.745 -180.457 728.622 -162.901 724.43C-145.344 720.239 -130.115 709.312 -120.465 693.983L-108.496 702.19L-107.159 700.262L-176.247 652.918L-170.436 644.419L-169.274 645.237L-147.136 612.847L113.875 791.825L91.5914 824.361ZM213.614 851.611L123.55 789.927L38.0179 731.309L60.4177 698.539L58.4712 697.196L94.8453 643.952L93.6542 643.134L96.7919 645.266L113.003 621.55L288.57 741.94L213.614 851.611ZM292.521 736.157L116.955 615.767L133.166 592.023L131.22 590.708L166.838 538.574L215.822 572.162C207.517 585.409 194.376 594.855 179.22 598.47C164.065 602.085 148.104 599.581 134.764 591.497L133.544 593.483C147.395 601.908 163.982 604.531 179.738 600.79C195.493 597.049 209.159 587.241 217.797 573.476L228.43 580.749L229.738 578.85L170.15 537.961L191.853 506.184L367.419 626.574L292.521 736.157Z" fill="#B7B7B7"/>
<path d="M319.83 128.776C319.556 131.196 319.761 133.646 320.433 135.986C321.105 138.326 322.231 140.509 323.746 142.409C325.261 144.31 327.135 145.89 329.26 147.059C331.386 148.228 333.72 148.963 336.129 149.221L340.865 149.717C344.2 150.079 347.57 149.523 350.614 148.108C353.659 146.693 356.264 144.473 358.151 141.685C359.87 139.173 360.948 136.274 361.289 133.245L363.439 114.143L321.98 109.675L319.83 128.776ZM324.45 129.272L326.077 114.669L358.267 118.145L356.669 132.602C356.415 134.868 355.607 137.035 354.316 138.911C352.903 140.994 350.954 142.653 348.678 143.713C346.402 144.772 343.882 145.192 341.388 144.927L336.652 144.431C333.03 144.041 329.708 142.223 327.416 139.377C325.124 136.53 324.046 132.886 324.421 129.243L324.45 129.272Z" fill="#B7B7B7"/>
<path d="M152.08 266.514C149.568 264.79 146.676 263.707 143.654 263.36L124.566 261.228L120.121 302.76L139.209 304.892C141.609 305.168 144.041 304.965 146.363 304.295C148.685 303.625 150.853 302.501 152.743 300.987C154.632 299.473 156.205 297.599 157.373 295.472C158.54 293.346 159.279 291.009 159.546 288.595L160.069 283.834C160.424 280.49 159.869 277.112 158.461 274.061C157.054 271.011 154.848 268.402 152.08 266.514ZM155.45 283.308L154.927 288.069C154.728 289.877 154.176 291.628 153.303 293.221C152.429 294.814 151.252 296.218 149.837 297.352C148.423 298.486 146.799 299.329 145.06 299.831C143.321 300.333 141.501 300.484 139.703 300.277L125.177 298.642L128.634 266.514L143.16 268.121C145.406 268.391 147.557 269.191 149.436 270.457C151.481 271.837 153.118 273.745 154.176 275.98C155.235 278.216 155.674 280.697 155.45 283.162V283.308Z" fill="#B7B7B7"/>
<path d="M203.619 175.536C205.908 179.904 209.819 183.189 214.502 184.676C219.186 186.163 224.264 185.734 228.634 183.48L232.846 181.29C234.994 180.174 236.902 178.642 238.458 176.783C240.015 174.923 241.191 172.772 241.917 170.453C242.643 168.135 242.906 165.695 242.691 163.274C242.476 160.853 241.786 158.499 240.662 156.347L231.742 139.32L194.642 158.45L203.619 175.536ZM236.42 158.45C237.262 160.056 237.78 161.813 237.944 163.621C238.108 165.429 237.914 167.251 237.374 168.983C236.834 170.716 235.958 172.323 234.797 173.713C233.636 175.104 232.213 176.249 230.609 177.084L226.368 179.275C224.136 180.435 221.632 180.964 219.125 180.805C216.617 180.645 214.2 179.803 212.132 178.369C210.264 177.073 208.738 175.339 207.687 173.316L200.946 160.436L229.767 145.599L236.42 158.45Z" fill="#B7B7B7"/>
<path d="M403.212 433.432C400.441 431.53 397.21 430.414 393.861 430.204C390.512 429.993 387.168 430.694 384.183 432.234L379.97 434.425C377.828 435.535 375.925 437.06 374.371 438.911C372.816 440.763 371.641 442.905 370.912 445.214C370.183 447.523 369.916 449.955 370.124 452.368C370.332 454.782 371.012 457.131 372.126 459.279L381.016 476.307L418.058 457.118L409.168 440.091C407.737 437.427 405.695 435.145 403.212 433.432ZM411.783 455.22L383.021 470.115L376.28 457.235C375.433 455.628 374.912 453.868 374.745 452.057C374.579 450.246 374.772 448.42 375.312 446.685C375.853 444.949 376.73 443.338 377.893 441.946C379.057 440.553 380.484 439.407 382.091 438.572L386.333 436.381C389.585 434.688 393.369 434.352 396.866 435.445C400.363 436.539 403.291 438.974 405.014 442.223L411.783 455.22Z" fill="#B7B7B7"/>
<path d="M139.529 392.688L122.533 401.625L141.679 438.718L158.674 429.81C161.35 428.426 163.66 426.424 165.415 423.968C167.315 421.196 168.427 417.955 168.632 414.595C168.837 411.234 168.126 407.881 166.577 404.896L164.398 400.661C163.29 398.493 161.766 396.565 159.915 394.99C158.064 393.415 155.921 392.222 153.611 391.481C151.3 390.741 148.867 390.466 146.45 390.673C144.033 390.88 141.681 391.565 139.529 392.688ZM161.551 421.194C160.276 423.084 158.547 424.621 156.525 425.662L143.683 432.409L128.808 403.582L141.65 396.835C144.89 395.129 148.672 394.785 152.164 395.881C155.656 396.976 158.572 399.42 160.272 402.677L162.451 406.912C163.632 409.163 164.173 411.698 164.014 414.238C163.855 416.778 163.003 419.225 161.551 421.31V421.194Z" fill="#B7B7B7"/>
<path d="M266.635 473.357C261.77 472.856 256.906 474.306 253.098 477.39C249.29 480.474 246.847 484.944 246.298 489.829L244.148 508.93L285.606 513.37L287.756 494.269C288.031 491.851 287.827 489.403 287.157 487.065C286.487 484.727 285.363 482.545 283.851 480.645C282.339 478.745 280.468 477.164 278.346 475.993C276.224 474.823 273.893 474.086 271.487 473.824L266.635 473.357ZM283.021 493.801L281.394 508.259L249.203 504.812L250.801 490.209C251.225 486.549 253.067 483.206 255.928 480.904C258.789 478.601 262.438 477.527 266.083 477.913L270.848 478.409C272.654 478.605 274.404 479.159 275.996 480.039C277.588 480.92 278.991 482.108 280.123 483.537C281.255 484.966 282.094 486.606 282.592 488.363C283.089 490.12 283.235 491.958 283.021 493.772V493.801Z" fill="#B7B7B7"/>
<path d="M213.352 439.126C271.458 479.051 359.11 452.736 408.471 380.45C457.832 308.163 450.569 216.863 392.463 176.967C334.357 137.071 246.704 163.357 197.315 235.643C147.925 307.93 155.13 399.2 213.352 439.126ZM201.15 238.272C249.058 168.176 333.689 142.357 389.761 180.822C445.833 219.287 452.544 307.667 404.607 377.821C356.67 447.975 272.097 473.882 215.996 435.271C159.895 396.659 153.241 308.426 201.15 238.272Z" fill="#B7B7B7"/>
</g>
<g style="mix-blend-mode:soft-light">
<path d="M34.6338 720.125L15.8271 747.727L16.7429 748.357L35.5496 720.756L34.6338 720.125Z" fill="#CCD3D6"/>
<path d="M-9.32874 784.438L-8.42428 785.079L10.4458 757.513L9.52084 756.893L-9.32874 784.438Z" fill="#CCD3D6"/>
<path d="M59.7792 683.43L40.9294 711.002L41.8442 711.634L60.694 684.062L59.7792 683.43Z" fill="#CCD3D6"/>
<path d="M91.23 637.471L92.1344 638.091L111.005 610.545L110.08 609.905L91.23 637.471Z" fill="#CCD3D6"/>
<path d="M84.9273 646.689L66.0775 674.261L66.9923 674.893L85.8421 647.321L84.9273 646.689Z" fill="#CCD3D6"/>
<path d="M135.229 573.19L116.355 600.745L117.269 601.378L136.143 573.823L135.229 573.19Z" fill="#CCD3D6"/>
<path d="M342.626 270.037L343.551 270.657L362.4 243.111L361.475 242.47L342.626 270.037Z" fill="#CCD3D6"/>
<path d="M367.766 233.294L368.691 233.914L387.54 206.369L386.636 205.728L367.766 233.294Z" fill="#CCD3D6"/>
<path d="M141.51 563.967L142.435 564.608L161.284 537.041L160.359 536.421L141.51 563.967Z" fill="#CCD3D6"/>
<path d="M216.928 453.743L217.853 454.384L236.702 426.817L235.777 426.197L216.928 453.743Z" fill="#CCD3D6"/>
<path d="M191.788 490.485L192.713 491.126L211.563 463.559L210.638 462.939L191.788 490.485Z" fill="#CCD3D6"/>
<path d="M317.486 306.779L318.411 307.399L337.261 279.853L336.336 279.212L317.486 306.779Z" fill="#CCD3D6"/>
<path d="M166.649 527.227L167.574 527.868L186.423 500.301L185.498 499.681L166.649 527.227Z" fill="#CCD3D6"/>
<path d="M260.997 392.461L242.028 419.895L242.938 420.531L261.907 393.097L260.997 392.461Z" fill="#CCD3D6"/>
<path d="M292.347 343.519L293.272 344.138L312.121 316.593L311.196 315.952L292.347 343.519Z" fill="#CCD3D6"/>
<path d="M267.207 380.261L268.132 380.881L286.982 353.335L286.057 352.715L267.207 380.261Z" fill="#CCD3D6"/>
<path d="M324.496 930.886L249.015 879.039L248.399 879.969L322.522 930.886H324.496Z" fill="#CCD3D6"/>
<path d="M616.715 905.986L278.307 673.531L278.944 672.622L617.352 905.056L616.715 905.986Z" fill="#CCD3D6"/>
<path d="M226.239 930.887L306.201 814.03L305.276 813.41L224.903 930.887H226.239Z" fill="#CCD3D6"/>
<path d="M22.4505 930.886L173.144 710.665L172.219 710.024L21.1144 930.886H22.4505Z" fill="#CCD3D6"/>
<path d="M112.278 323.681L-234.537 85.4607L-233.92 84.5308L112.916 322.772L112.278 323.681Z" fill="#CCD3D6"/>
<path d="M198.736 0.985352L350.848 105.465L351.465 104.556L200.709 0.985352H198.736Z" fill="#CCD3D6"/>
<path d="M147.203 591.266L33.3451 512.761L33.9823 511.832L147.84 590.336L147.203 591.266Z" fill="#CCD3D6"/>
<path d="M261.698 429.567L144.963 349.368L145.579 348.458L262.335 428.637L261.698 429.567Z" fill="#CCD3D6"/>
<path d="M313.869 353.295L159.372 247.162L160.009 246.253L314.506 352.365L313.869 353.295Z" fill="#CCD3D6"/>
<path d="M302.686 330.396L301.782 329.776L408.63 173.594L409.555 174.214L302.686 330.396Z" fill="#CCD3D6"/>
<path d="M295.102 340.503C300.667 336.487 306.846 333.409 313.396 331.39L303.118 328.724L296.952 320.128C297.444 326.976 296.819 333.858 295.102 340.503Z" fill="#CCD3D6"/>
<path d="M250.495 406.671L249.591 406.051L287.536 350.587L288.441 351.228L250.495 406.671Z" fill="#CCD3D6"/>
<path d="M242.931 416.776C248.491 412.758 254.662 409.673 261.205 407.642L250.927 404.997L244.76 396.401C245.258 403.247 244.64 410.13 242.931 416.776Z" fill="#CCD3D6"/>
<path d="M295.101 340.503C293.37 347.139 292.731 354.014 293.21 360.857L287.043 352.282L276.766 349.616C283.331 347.605 289.525 344.526 295.101 340.503Z" fill="#CCD3D6"/>
<path d="M138.672 570.126L137.747 569.486L235.346 426.859L236.25 427.5L138.672 570.126Z" fill="#CCD3D6"/>
<path d="M131.088 580.21C136.644 576.19 142.816 573.112 149.362 571.097L139.084 568.431L132.917 559.855C133.416 566.695 132.798 573.571 131.088 580.21Z" fill="#CCD3D6"/>
<path d="M242.931 416.775C241.193 423.409 240.547 430.285 241.019 437.129L234.852 428.533L224.574 425.888C231.145 423.873 237.345 420.795 242.931 416.775Z" fill="#CCD3D6"/>
<path d="M101.425 624.556L100.5 623.916L123.502 590.315L124.427 590.935L101.425 624.556Z" fill="#CCD3D6"/>
<path d="M93.8405 634.642C99.4055 630.637 105.576 627.56 112.114 625.529L101.837 622.884L95.6699 614.287C96.1687 621.127 95.5507 628.003 93.8405 634.642Z" fill="#CCD3D6"/>
<path d="M131.087 580.209C129.346 586.85 128.707 593.734 129.196 600.584L123.03 591.988L112.752 589.343C119.316 587.318 125.509 584.233 131.087 580.209Z" fill="#CCD3D6"/>
<path d="M446.227 332.402L441.91 329.55L442.547 328.621L446.823 331.576L446.227 332.402ZM432.763 323.165L405.259 304.278L405.897 303.348L433.4 322.235L432.763 323.165ZM396.071 297.975L368.568 279.088L369.205 278.158L396.708 297.045L396.071 297.975ZM359.4 272.785L331.896 253.898L332.533 252.968L360.037 271.876L359.4 272.785ZM322.728 247.595L295.225 228.708L295.862 227.778L323.366 246.686L322.728 247.595ZM286.057 222.405L258.554 203.497L259.191 202.567L286.694 221.475L286.057 222.405ZM249.386 197.298L221.882 178.41L222.519 177.481L250.023 196.389L249.386 197.298ZM212.714 172.025L185.17 153.138L185.807 152.208L213.311 171.116L212.714 172.025ZM176.043 146.835L148.54 127.948L149.156 127.018L176.68 145.926L176.043 146.835ZM139.372 121.645L111.868 102.758L112.485 101.828L139.947 120.839L139.372 121.645ZM102.7 96.4551L75.1969 77.5678L75.8136 76.6379L103.338 95.5459L102.7 96.4551ZM65.9469 71.2445L38.4434 52.3571L39.06 51.4272L66.5635 70.3352L65.9469 71.2445Z" fill="#CCD3D6"/>
<path d="M346.038 373.525C338.958 373.52 331.895 372.828 324.948 371.459L325.153 370.363C332.033 371.723 339.027 372.415 346.038 372.43C350.09 372.43 354.139 372.202 358.166 371.748L358.289 372.864C354.221 373.311 350.131 373.532 346.038 373.525ZM369.307 371.045L369.06 369.95C379.872 367.624 390.268 363.66 399.894 358.192L400.428 359.163C390.713 364.684 380.219 368.691 369.307 371.045ZM314.094 368.814C303.391 365.555 293.244 360.677 284.001 354.348L284.618 353.418C293.767 359.695 303.819 364.524 314.423 367.739L314.094 368.814ZM409.946 353.191L409.226 352.282C418.254 345.861 426.254 338.091 432.947 329.241L433.831 329.923C427.089 338.845 419.034 346.684 409.946 353.17V353.191ZM275.08 347.591C266.486 340.383 259.041 331.895 253.003 322.422L253.949 321.822C259.904 331.192 267.253 339.59 275.738 346.723L275.08 347.591ZM440.224 320.727L439.279 320.128C445.077 310.673 449.396 300.38 452.085 289.607L453.154 289.875C450.423 300.739 446.063 311.121 440.224 320.665V320.727ZM247.556 312.751C242.54 302.737 239.074 292.013 237.278 280.948L238.367 280.762C240.193 291.721 243.658 302.339 248.645 312.255L247.556 312.751ZM455.312 278.902L454.202 278.737C454.948 273.57 455.326 268.356 455.333 263.135C455.334 257.272 454.859 251.418 453.914 245.633L455.024 245.447C455.957 251.296 456.432 257.211 456.443 263.135C456.434 268.391 456.056 273.639 455.312 278.84V278.902ZM236.003 269.831C235.86 267.558 235.777 265.243 235.777 262.949C235.784 254.055 236.861 245.195 238.984 236.561L240.074 236.829C237.955 245.387 236.885 254.172 236.887 262.991C236.887 265.243 236.887 267.537 237.093 269.81L236.003 269.831ZM451.612 234.804C448.767 224.072 444.302 213.842 438.374 204.469L439.32 203.87C445.302 213.335 449.815 223.662 452.701 234.494L451.612 234.804ZM243.26 226.229L242.211 225.857C245.39 216.878 249.708 208.348 255.059 200.481C256.004 199.096 257.011 197.712 258.039 196.348L258.923 197.009C257.895 198.373 256.867 199.757 255.984 201.142C250.682 208.916 246.405 217.349 243.26 226.229ZM432.002 195.459C425.151 186.695 417.014 179.031 407.869 172.728C401.599 168.436 394.911 164.795 387.91 161.859L388.342 160.846C405.806 168.126 421.132 179.77 432.865 194.674L432.002 195.459ZM266.076 188.599L265.275 187.855C272.876 179.616 281.695 172.604 291.422 167.066L291.977 168.017C282.362 173.486 273.629 180.391 266.076 188.495V188.599ZM301.843 163.037L301.391 162.024C311.626 157.485 322.486 154.53 333.602 153.262L333.746 154.358C322.744 155.595 311.99 158.485 301.843 162.933V163.037ZM377.488 158.242C366.873 155.059 355.84 153.513 344.764 153.655V152.539H346.223C356.93 152.538 367.58 154.104 377.838 157.189L377.488 158.242Z" fill="#CCD3D6"/>
<path d="M345.504 263.073L339.337 230.237L340.426 230.03L346.593 262.887L345.504 263.073ZM337.281 219.285L331.115 186.449L332.204 186.242L338.371 219.078L337.281 219.285ZM329.059 175.497L327.6 167.727L328.689 167.541L330.149 175.29L329.059 175.497Z" fill="#CCD3D6"/>
<path d="M326.037 155.225C329.506 161.147 333.907 166.465 339.07 170.971L328.668 169.256L319.562 174.567C322.748 168.514 324.935 161.982 326.037 155.225Z" fill="#CCD3D6"/>
</g>
</g>
<defs>
<linearGradient id="paint0_linear_105_1348" x1="187.5" y1="0.985352" x2="187.5" y2="937.985" gradientUnits="userSpaceOnUse">
<stop stop-color="#F1F1F1"/>
<stop offset="0.162548" stop-color="#F0F2F1"/>
<stop offset="0.432601" stop-color="#EBEDEC"/>
<stop offset="0.725045" stop-color="#E6E8E7"/>
<stop offset="1" stop-color="#DEE2E1"/>
</linearGradient>
</defs>
</svg>
