<svg width="20" height="20" viewBox="0 0 20 20" fill="none" xmlns="http://www.w3.org/2000/svg">
<g clip-path="url(#clip0_92_409)">
<mask id="path-1-inside-1_92_409" fill="white">
<path d="M19.9571 15.4963C19.9006 15.3259 19.5407 15.0748 18.8777 14.7437C18.6981 14.6393 18.4421 14.4974 18.111 14.3175C17.7796 14.1375 17.4787 13.9717 17.209 13.8202C16.9388 13.6687 16.6856 13.5219 16.449 13.3801C16.4112 13.3517 16.2928 13.2689 16.094 13.1313C15.8949 12.9941 15.7271 12.8923 15.5895 12.8258C15.4522 12.7598 15.3172 12.7266 15.1846 12.7266C14.9953 12.7266 14.7587 12.8616 14.4748 13.1313C14.1908 13.4014 13.9303 13.6947 13.6937 14.0122C13.457 14.3296 13.206 14.6229 12.9411 14.8928C12.6758 15.1628 12.4579 15.2977 12.2876 15.2977C12.2022 15.2977 12.0956 15.2739 11.9679 15.2268C11.8402 15.1795 11.7431 15.139 11.6764 15.1063C11.6104 15.0729 11.497 15.0068 11.3359 14.9071C11.1745 14.8076 11.0847 14.7532 11.0658 14.7437C9.76857 14.0238 8.65597 13.1999 7.72786 12.2722C6.80004 11.3439 5.97606 10.2314 5.2564 8.93403C5.24695 8.91507 5.19237 8.82507 5.09302 8.66417C4.99352 8.50313 4.9272 8.38964 4.89406 8.32318C4.86093 8.25696 4.82068 8.15984 4.77342 8.03203C4.72615 7.90422 4.70242 7.79775 4.70242 7.71243C4.70242 7.54208 4.8374 7.32417 5.1073 7.05899C5.37715 6.79396 5.67078 6.54292 5.9879 6.30635C6.30526 6.06978 6.5986 5.80928 6.86855 5.5253C7.1384 5.24117 7.27333 5.00455 7.27333 4.8152C7.27333 4.68271 7.24019 4.54764 7.17398 4.41037C7.10771 4.27281 7.00592 4.10495 6.86855 3.90599C6.73114 3.70713 6.6483 3.58887 6.61984 3.55081C6.47795 3.31425 6.33133 3.06096 6.17964 2.79106C6.02795 2.52121 5.86238 2.22041 5.68238 1.88901C5.50252 1.55777 5.36058 1.302 5.2563 1.1221C4.92506 0.459356 4.67416 0.0993537 4.50366 0.0427365C4.43734 0.0143284 4.33784 0 4.2054 0C3.94958 0 3.61585 0.0472639 3.20395 0.14209C2.79191 0.236767 2.46768 0.336071 2.23092 0.4404C1.75743 0.639157 1.25559 1.21677 0.725236 2.17305C0.242298 3.063 0.000854492 3.94385 0.000854492 4.81495C0.000854492 5.07042 0.0174217 5.31898 0.0505562 5.56068C0.0836907 5.80212 0.142895 6.07441 0.228219 6.3775C0.313393 6.68048 0.3821 6.90556 0.434041 7.05213C0.486031 7.19879 0.583096 7.46153 0.725186 7.84044C0.867078 8.21925 0.952402 8.45114 0.98081 8.53636C1.3122 9.46443 1.70519 10.2929 2.15967 11.0221C2.90744 12.2342 3.92789 13.4868 5.22043 14.7794C6.51303 16.072 7.76537 17.0924 8.97752 17.8404C9.70663 18.2949 10.5354 18.6878 11.4634 19.0195C11.5486 19.0477 11.7805 19.1328 12.1592 19.2752C12.538 19.4172 12.8008 19.5143 12.9475 19.5664C13.0942 19.6185 13.3193 19.6873 13.6221 19.7726C13.9255 19.8579 14.1975 19.9171 14.4389 19.9505C14.6805 19.9832 14.9291 20.0001 15.1847 20.0001C16.0557 20.0001 16.9366 19.7585 17.8267 19.2756C18.7829 18.7454 19.3604 18.2435 19.5592 17.7696C19.6638 17.5331 19.7628 17.2088 19.8575 16.7968C19.9525 16.3849 19.9997 16.0512 19.9997 15.7955C20 15.6625 19.9857 15.5632 19.9571 15.4963Z"/>
</mask>
<path d="M19.9571 15.4963C19.9006 15.3259 19.5407 15.0748 18.8777 14.7437C18.6981 14.6393 18.4421 14.4974 18.111 14.3175C17.7796 14.1375 17.4787 13.9717 17.209 13.8202C16.9388 13.6687 16.6856 13.5219 16.449 13.3801C16.4112 13.3517 16.2928 13.2689 16.094 13.1313C15.8949 12.9941 15.7271 12.8923 15.5895 12.8258C15.4522 12.7598 15.3172 12.7266 15.1846 12.7266C14.9953 12.7266 14.7587 12.8616 14.4748 13.1313C14.1908 13.4014 13.9303 13.6947 13.6937 14.0122C13.457 14.3296 13.206 14.6229 12.9411 14.8928C12.6758 15.1628 12.4579 15.2977 12.2876 15.2977C12.2022 15.2977 12.0956 15.2739 11.9679 15.2268C11.8402 15.1795 11.7431 15.139 11.6764 15.1063C11.6104 15.0729 11.497 15.0068 11.3359 14.9071C11.1745 14.8076 11.0847 14.7532 11.0658 14.7437C9.76857 14.0238 8.65597 13.1999 7.72786 12.2722C6.80004 11.3439 5.97606 10.2314 5.2564 8.93403C5.24695 8.91507 5.19237 8.82507 5.09302 8.66417C4.99352 8.50313 4.9272 8.38964 4.89406 8.32318C4.86093 8.25696 4.82068 8.15984 4.77342 8.03203C4.72615 7.90422 4.70242 7.79775 4.70242 7.71243C4.70242 7.54208 4.8374 7.32417 5.1073 7.05899C5.37715 6.79396 5.67078 6.54292 5.9879 6.30635C6.30526 6.06978 6.5986 5.80928 6.86855 5.5253C7.1384 5.24117 7.27333 5.00455 7.27333 4.8152C7.27333 4.68271 7.24019 4.54764 7.17398 4.41037C7.10771 4.27281 7.00592 4.10495 6.86855 3.90599C6.73114 3.70713 6.6483 3.58887 6.61984 3.55081C6.47795 3.31425 6.33133 3.06096 6.17964 2.79106C6.02795 2.52121 5.86238 2.22041 5.68238 1.88901C5.50252 1.55777 5.36058 1.302 5.2563 1.1221C4.92506 0.459356 4.67416 0.0993537 4.50366 0.0427365C4.43734 0.0143284 4.33784 0 4.2054 0C3.94958 0 3.61585 0.0472639 3.20395 0.14209C2.79191 0.236767 2.46768 0.336071 2.23092 0.4404C1.75743 0.639157 1.25559 1.21677 0.725236 2.17305C0.242298 3.063 0.000854492 3.94385 0.000854492 4.81495C0.000854492 5.07042 0.0174217 5.31898 0.0505562 5.56068C0.0836907 5.80212 0.142895 6.07441 0.228219 6.3775C0.313393 6.68048 0.3821 6.90556 0.434041 7.05213C0.486031 7.19879 0.583096 7.46153 0.725186 7.84044C0.867078 8.21925 0.952402 8.45114 0.98081 8.53636C1.3122 9.46443 1.70519 10.2929 2.15967 11.0221C2.90744 12.2342 3.92789 13.4868 5.22043 14.7794C6.51303 16.072 7.76537 17.0924 8.97752 17.8404C9.70663 18.2949 10.5354 18.6878 11.4634 19.0195C11.5486 19.0477 11.7805 19.1328 12.1592 19.2752C12.538 19.4172 12.8008 19.5143 12.9475 19.5664C13.0942 19.6185 13.3193 19.6873 13.6221 19.7726C13.9255 19.8579 14.1975 19.9171 14.4389 19.9505C14.6805 19.9832 14.9291 20.0001 15.1847 20.0001C16.0557 20.0001 16.9366 19.7585 17.8267 19.2756C18.7829 18.7454 19.3604 18.2435 19.5592 17.7696C19.6638 17.5331 19.7628 17.2088 19.8575 16.7968C19.9525 16.3849 19.9997 16.0512 19.9997 15.7955C20 15.6625 19.9857 15.5632 19.9571 15.4963Z" fill="#78C081" stroke="#577A5B" stroke-width="2" mask="url(#path-1-inside-1_92_409)"/>
</g>
<defs>
<clipPath id="clip0_92_409">
<rect width="20" height="20" fill="white"/>
</clipPath>
</defs>
</svg>
