<svg width="25" height="25" viewBox="0 0 25 25" fill="none" xmlns="http://www.w3.org/2000/svg">
<path d="M14.7904 12.5204L24.5249 2.78564C25.1584 2.15243 25.1584 1.12862 24.5249 0.495414C23.8917 -0.137794 22.8679 -0.137794 22.2347 0.495414L12.4999 10.2302L2.76536 0.495414C2.13185 -0.137794 1.10834 -0.137794 0.475129 0.495414C-0.158376 1.12862 -0.158376 2.15243 0.475129 2.78564L10.2096 12.5204L0.475129 22.2552C-0.158376 22.8884 -0.158376 23.9123 0.475129 24.5455C0.790695 24.8613 1.20562 25.02 1.62024 25.02C2.03487 25.02 2.44949 24.8613 2.76536 24.5455L12.4999 14.8107L22.2347 24.5455C22.5505 24.8613 22.9651 25.02 23.3798 25.02C23.7944 25.02 24.209 24.8613 24.5249 24.5455C25.1584 23.9123 25.1584 22.8884 24.5249 22.2552L14.7904 12.5204Z" fill="white"/>
</svg>
