<svg width="20" height="20" viewBox="0 0 20 20" fill="none" xmlns="http://www.w3.org/2000/svg">
<g clip-path="url(#clip0_92_406)">
<path d="M10 0.5C11.8557 0.502637 13.6346 1.24098 14.9468 2.55317C16.2592 3.86551 16.9975 5.64473 17 7.50066C16.9999 8.74434 16.5944 10.099 15.9516 11.4571C15.3107 12.8113 14.4481 14.1389 13.5682 15.32C12.0319 17.3821 10.4662 18.9663 10 19.4247C9.5338 18.9663 7.96813 17.3821 6.43181 15.32C5.55188 14.1389 4.68933 12.8113 4.04837 11.4571C3.4055 10.0988 3.00007 8.74409 3 7.50033C3.00255 5.64451 3.7409 3.86543 5.05317 2.55317C6.36536 1.24098 8.1443 0.502637 10 0.5ZM10 11.4375H10.0003C11.0443 11.4369 12.0454 11.0219 12.7836 10.2836C13.5219 9.5454 13.9369 8.54432 13.9375 7.5003V7.5C13.9375 6.72124 13.7066 5.95996 13.2739 5.31244C12.8413 4.66492 12.2263 4.16024 11.5068 3.86222C10.7873 3.5642 9.99563 3.48623 9.23183 3.63816C8.46803 3.79009 7.76644 4.1651 7.21577 4.71577C6.6651 5.26644 6.29009 5.96803 6.13816 6.73183C5.98623 7.49563 6.0642 8.28733 6.36222 9.00682C6.66024 9.7263 7.16492 10.3413 7.81244 10.7739C8.45996 11.2066 9.22124 11.4375 10 11.4375Z" fill="#78C081" stroke="#577A5B"/>
</g>
<defs>
<clipPath id="clip0_92_406">
<rect width="20" height="20" fill="white"/>
</clipPath>
</defs>
</svg>
