<svg width="169" height="53" viewBox="0 0 169 53" fill="none" xmlns="http://www.w3.org/2000/svg">
<path fill-rule="evenodd" clip-rule="evenodd" d="M60.0687 52.9199C53.777 53.1008 46.8242 53.3636 42.6243 48.8793C38.2231 44.1801 37.6095 37.1165 39.648 31.1165C41.4953 25.6794 46.878 22.5451 52.3519 20.2485C57.5161 18.0819 63.1572 17.0352 68.3837 19.0605C74.0542 21.2579 78.8878 25.4668 80.4308 31.1293C82.0264 36.9847 80.4619 43.401 76.2459 47.9128C72.2723 52.1652 66.029 52.7486 60.0687 52.9199Z" fill="#78C081" fill-opacity="0.15"/>
<path d="M64.4574 25.9808V13.3718H70.7929C72.3352 13.3718 73.4504 13.7081 74.1385 14.3805C74.8385 15.041 75.1885 16.1098 75.1885 17.5868C75.1885 19.0639 74.8385 20.1386 74.1385 20.8111C73.4504 21.4836 72.3352 21.8198 70.7929 21.8198H66.9667V25.9808H64.4574ZM66.9667 19.4421H70.6505C71.3623 19.4421 71.8784 19.298 72.1988 19.0098C72.531 18.7096 72.6971 18.2353 72.6971 17.5868C72.6971 16.9504 72.531 16.488 72.1988 16.1998C71.8784 15.8996 71.3623 15.7495 70.6505 15.7495H66.9667V19.4421Z" fill="#495E4C"/>
<path d="M79.7507 26.1429C78.5524 26.1429 77.6686 25.9148 77.0991 25.4584C76.5415 24.9901 76.2627 24.2456 76.2627 23.2248C76.2627 22.1801 76.5711 21.4356 77.1881 20.9913C77.805 20.5349 78.8016 20.3068 80.1778 20.3068H82.954C82.9066 19.6703 82.7108 19.214 82.3668 18.9378C82.0346 18.6496 81.5125 18.5055 80.8007 18.5055C79.6499 18.5055 78.9736 18.9198 78.7719 19.7484H76.4584C76.6008 18.5955 77.022 17.761 77.722 17.2446C78.4219 16.7162 79.4778 16.452 80.8897 16.452C82.432 16.452 83.5532 16.7763 84.2531 17.4247C84.9531 18.0612 85.3031 19.0939 85.3031 20.5229V25.9808H82.954V25.0982C82.2778 25.7947 81.21 26.1429 79.7507 26.1429ZM78.6118 23.1168C78.6118 23.7652 79.1872 24.0895 80.338 24.0895C81.1448 24.0895 81.7498 23.9454 82.1532 23.6571C82.5684 23.3569 82.8354 22.8946 82.954 22.2702V22.054H80.8007C79.3414 22.054 78.6118 22.4083 78.6118 23.1168Z" fill="#495E4C"/>
<path d="M86.95 22.9907H89.2635C89.4889 23.7232 90.2422 24.0895 91.5236 24.0895C92.7574 24.0895 93.3744 23.8373 93.3744 23.3329C93.3744 22.8766 92.5973 22.5404 91.0431 22.3242C89.5956 22.1561 88.5694 21.8439 87.9643 21.3875C87.3593 20.9192 87.0567 20.2227 87.0567 19.298C87.0567 18.3254 87.3771 17.6108 88.0177 17.1545C88.6584 16.6862 89.6728 16.452 91.0609 16.452C92.4964 16.452 93.5642 16.7042 94.2642 17.2086C94.976 17.7009 95.3972 18.4995 95.5277 19.6043H93.2142C93.0837 19.22 92.8464 18.9438 92.5024 18.7757C92.1702 18.5955 91.6778 18.5055 91.0253 18.5055C89.8982 18.5055 89.3346 18.7396 89.3346 19.208C89.3346 19.6403 90.0465 19.9525 91.4702 20.1446C93.0362 20.3728 94.1218 20.703 94.7269 21.1354C95.3319 21.5557 95.6345 22.2221 95.6345 23.1348C95.6345 24.1435 95.2963 24.9 94.6201 25.4044C93.9557 25.8967 92.8998 26.1429 91.4524 26.1429C90.0287 26.1429 88.955 25.8907 88.2313 25.3864C87.5076 24.882 87.0805 24.0834 86.95 22.9907Z" fill="#495E4C"/>
<path d="M101.535 26.1429C99.9098 26.1429 98.7293 25.7646 97.9937 25.0081C97.27 24.2396 96.9081 23.0027 96.9081 21.2975C96.9081 19.6043 97.2759 18.3734 98.0115 17.6048C98.7471 16.8363 99.9216 16.452 101.535 16.452C103.006 16.452 104.11 16.7582 104.845 17.3707C105.581 17.9711 106.014 18.9378 106.144 20.2707H103.831C103.7 19.7063 103.457 19.298 103.101 19.0459C102.745 18.7937 102.241 18.6676 101.589 18.6676C100.77 18.6676 100.171 18.8777 99.7911 19.298C99.4233 19.7063 99.2394 20.3728 99.2394 21.2975C99.2394 22.2101 99.4233 22.8766 99.7911 23.2969C100.171 23.7172 100.77 23.9273 101.589 23.9273C102.846 23.9273 103.594 23.393 103.831 22.3242H106.144C106.014 23.6571 105.581 24.6298 104.845 25.2423C104.11 25.8427 103.006 26.1429 101.535 26.1429Z" fill="#495E4C"/>
<path d="M110.929 26.1429C109.73 26.1429 108.847 25.9148 108.277 25.4584C107.719 24.9901 107.441 24.2456 107.441 23.2248C107.441 22.1801 107.749 21.4356 108.366 20.9913C108.983 20.5349 109.98 20.3068 111.356 20.3068H114.132C114.085 19.6703 113.889 19.214 113.545 18.9378C113.213 18.6496 112.691 18.5055 111.979 18.5055C110.828 18.5055 110.152 18.9198 109.95 19.7484H107.636C107.779 18.5955 108.2 17.761 108.9 17.2446C109.6 16.7162 110.656 16.452 112.068 16.452C113.61 16.452 114.731 16.7763 115.431 17.4247C116.131 18.0612 116.481 19.0939 116.481 20.5229V25.9808H114.132V25.0982C113.456 25.7947 112.388 26.1429 110.929 26.1429ZM109.79 23.1168C109.79 23.7652 110.365 24.0895 111.516 24.0895C112.323 24.0895 112.928 23.9454 113.331 23.6571C113.746 23.3569 114.013 22.8946 114.132 22.2702V22.054H111.979C110.519 22.054 109.79 22.4083 109.79 23.1168Z" fill="#495E4C"/>
<path d="M118.519 25.9808V12.4712H120.869V25.9808H118.519Z" fill="#495E4C"/>
<path d="M126.932 13.3718H129.583L133.854 23.3149L138.108 13.3718H140.777L135.26 25.9808H132.448L126.932 13.3718Z" fill="#495E4C"/>
<path d="M142.155 24.9901C141.407 24.2215 141.034 22.9907 141.034 21.2975C141.034 19.6043 141.407 18.3734 142.155 17.6048C142.902 16.8363 144.112 16.452 145.785 16.452C147.446 16.452 148.644 16.8363 149.38 17.6048C150.127 18.3734 150.501 19.6043 150.501 21.2975C150.501 21.4656 150.489 21.7178 150.465 22.054H143.436C143.59 23.411 144.379 24.0895 145.803 24.0895C146.871 24.0895 147.577 23.7232 147.921 22.9907H150.341C150.104 24.1555 149.599 24.9721 148.828 25.4404C148.057 25.9087 147.043 26.1429 145.785 26.1429C144.112 26.1429 142.902 25.7586 142.155 24.9901ZM145.803 18.5055C145.139 18.5055 144.611 18.6436 144.219 18.9198C143.828 19.196 143.578 19.6523 143.472 20.2888H148.134C148.027 19.6523 147.778 19.196 147.387 18.9198C147.007 18.6436 146.479 18.5055 145.803 18.5055Z" fill="#495E4C"/>
<path d="M154.497 25.9808H152.148V16.6141H154.497V17.5508C155.114 16.8183 156.111 16.452 157.487 16.452C158.792 16.452 159.741 16.7883 160.334 17.4607C160.939 18.1332 161.242 19.214 161.242 20.703V25.9808H158.893V20.703C158.893 19.9945 158.721 19.4782 158.377 19.1539C158.044 18.8297 157.516 18.6676 156.793 18.6676C155.974 18.6676 155.387 18.8777 155.031 19.298C154.675 19.7063 154.497 20.3728 154.497 21.2975V25.9808Z" fill="#495E4C"/>
<path d="M166.313 16.6141H168.84V18.8297H166.313V22.4323C166.313 22.9006 166.42 23.2429 166.633 23.459C166.847 23.6632 167.203 23.7652 167.701 23.7652H169V25.9808H167.63C166.348 25.9808 165.417 25.7226 164.836 25.2062C164.254 24.6899 163.964 23.8613 163.964 22.7205V18.8297H162.611V16.6141H163.964V14.5787H166.313V16.6141Z" fill="#495E4C"/>
<path d="M66.6325 39.6705H69.1477V41.1436H66.6325V47.9965H65.0823V41.1436H63.627V39.6705H65.0823V39.3823C65.0823 38.1868 65.3407 37.3169 65.8574 36.7725C66.3742 36.2281 67.202 35.9559 68.341 35.9559H69.2426V37.4289H68.42C67.7978 37.4289 67.3444 37.5837 67.0596 37.8933C66.7749 38.2028 66.6325 38.6992 66.6325 39.3823V39.6705Z" fill="#78C081"/>
<path d="M73.5828 47.9965H72.0325V39.6705H73.5828V40.7433C74.1206 39.9427 75.0592 39.5424 76.3985 39.5424H77.1104V41.0155H75.9556C75.1119 41.0155 74.5055 41.2396 74.1364 41.688C73.7673 42.1256 73.5828 42.8408 73.5828 43.8335V47.9965Z" fill="#78C081"/>
<path d="M80.3086 47.0998C79.6548 46.4167 79.3278 45.3279 79.3278 43.8335C79.3278 42.3391 79.6548 41.2503 80.3086 40.5672C80.973 39.884 82.0434 39.5424 83.5198 39.5424C84.9857 39.5424 86.0403 39.884 86.6836 40.5672C87.3374 41.2503 87.6643 42.3391 87.6643 43.8335C87.6643 43.8869 87.6591 43.9669 87.6485 44.0737C87.6485 44.1804 87.6485 44.2605 87.6485 44.3138H80.9097C80.9625 45.1464 81.1997 45.7602 81.6216 46.1551C82.054 46.5501 82.692 46.7476 83.5356 46.7476C84.7695 46.7476 85.5552 46.3206 85.8926 45.4667H87.5062C87.2847 46.4487 86.8312 47.1372 86.1457 47.5321C85.4708 47.9271 84.5955 48.1245 83.5198 48.1245C82.0434 48.1245 80.973 47.783 80.3086 47.0998ZM83.5356 40.9194C82.7447 40.9194 82.133 41.0955 81.7007 41.4478C81.2788 41.7894 81.0257 42.3498 80.9414 43.129H86.1141C86.0297 42.3391 85.7766 41.7734 85.3548 41.4318C84.9435 41.0902 84.3371 40.9194 83.5356 40.9194Z" fill="#78C081"/>
<path d="M90.3874 45.4667H91.9218C92.0589 45.915 92.3226 46.2405 92.7128 46.4433C93.103 46.6462 93.6566 46.7476 94.3737 46.7476C95.7763 46.7476 96.4776 46.406 96.4776 45.7228C96.4776 45.4133 96.2878 45.1678 95.9082 44.9863C95.5285 44.8048 94.9169 44.6501 94.0732 44.522C92.776 44.3512 91.8586 44.0737 91.3207 43.6894C90.7934 43.2944 90.5298 42.718 90.5298 41.9602C90.5298 41.1489 90.8092 40.5458 91.3682 40.1509C91.9271 39.7453 92.8077 39.5424 94.0099 39.5424C95.2121 39.5424 96.1191 39.7559 96.7307 40.1829C97.3424 40.5992 97.7221 41.2717 97.8697 42.2003H96.3353C96.1982 41.752 95.9451 41.4264 95.576 41.2236C95.2069 41.0208 94.6743 40.9194 93.9783 40.9194C92.6811 40.9194 92.0326 41.245 92.0326 41.8961C92.0326 42.195 92.2171 42.4352 92.5862 42.6166C92.9553 42.7874 93.5406 42.9369 94.3421 43.0649C95.7025 43.2784 96.6464 43.5666 97.1737 43.9296C97.7115 44.2925 97.9804 44.8475 97.9804 45.5947C97.9804 47.2813 96.7624 48.1245 94.3263 48.1245C93.1135 48.1245 92.1907 47.9111 91.558 47.4841C90.9252 47.0571 90.535 46.3846 90.3874 45.4667Z" fill="#78C081"/>
<path d="M101.148 35.9879H102.699V40.7913C103.268 39.9587 104.265 39.5424 105.688 39.5424C106.88 39.5424 107.75 39.836 108.298 40.4231C108.847 41.0102 109.121 41.9441 109.121 43.2251V47.9965H107.587V43.2251C107.587 42.4565 107.397 41.8961 107.017 41.5439C106.638 41.1916 106.047 41.0155 105.245 41.0155C104.349 41.0155 103.7 41.2396 103.3 41.688C102.899 42.1256 102.699 42.8408 102.699 43.8335V47.9965H101.148V35.9879Z" fill="#78C081"/>
<path d="M121.125 48.1245C120.028 48.1245 119.227 47.9271 118.721 47.5321C118.215 47.1372 117.961 46.5021 117.961 45.6268C117.961 44.7195 118.241 44.0737 118.8 43.6894C119.369 43.2944 120.282 43.097 121.536 43.097H124.336C124.336 42.3391 124.147 41.7894 123.767 41.4478C123.387 41.0955 122.781 40.9194 121.948 40.9194C121.283 40.9194 120.772 41.0315 120.413 41.2557C120.055 41.4691 119.812 41.8161 119.686 42.2964H118.151C118.299 41.3357 118.679 40.6366 119.29 40.1989C119.902 39.7613 120.809 39.5424 122.011 39.5424C123.361 39.5424 124.342 39.8253 124.953 40.391C125.576 40.9461 125.887 41.8374 125.887 43.0649V47.9965H124.336V46.9237C123.714 47.7243 122.644 48.1245 121.125 48.1245ZM119.512 45.5627C119.512 45.979 119.67 46.2832 119.986 46.4754C120.313 46.6568 120.814 46.7476 121.489 46.7476C122.385 46.7476 123.055 46.5821 123.498 46.2512C123.951 45.9203 124.231 45.3919 124.336 44.6661V44.2818H121.932C120.318 44.2818 119.512 44.7088 119.512 45.5627Z" fill="#78C081"/>
<path d="M129.461 47.9965V39.6705H131.011V47.9965H129.461ZM129.445 38.0534C129.287 37.8933 129.208 37.6264 129.208 37.2528C129.208 36.8792 129.287 36.6124 129.445 36.4522C129.603 36.2921 129.867 36.2121 130.236 36.2121C130.605 36.2121 130.869 36.2921 131.027 36.4522C131.185 36.6124 131.264 36.8792 131.264 37.2528C131.264 37.6264 131.185 37.8933 131.027 38.0534C130.869 38.2135 130.605 38.2936 130.236 38.2936C129.867 38.2936 129.603 38.2135 129.445 38.0534Z" fill="#78C081"/>
<path d="M136.17 47.9965H134.619V39.6705H136.17V40.7433C136.707 39.9427 137.646 39.5424 138.985 39.5424H139.697V41.0155H138.542C137.699 41.0155 137.092 41.2396 136.723 41.688C136.354 42.1256 136.17 42.8408 136.17 43.8335V47.9965Z" fill="#78C081"/>
<path fill-rule="evenodd" clip-rule="evenodd" d="M3.16091 20.4389C1.1531 27.69 0.693871 35.2889 1.17179 42.7509C0.955527 45.1231 2.2291 47.4136 3.92185 49.0478C6.39958 51.4253 11.2803 51.1011 14.4842 50.7663C20.3181 50.2022 22.9133 44.8094 23.255 39.6143C23.5167 30.6341 23.5808 21.198 23.5621 12.202C23.558 11.9459 23.5586 11.677 23.5591 11.4005C23.5615 10.2151 23.5642 8.8914 23.207 7.83981C22.3392 4.90354 19.6399 3.84922 16.9272 4.41328C16.3791 4.58941 15.8511 4.82175 15.352 5.1065C13.7229 6.00075 12.2005 7.07229 10.813 8.30108C8.03923 10.7181 5.83324 13.7036 4.34905 17.0493C4.20244 17.3522 4.05365 17.7658 3.9159 18.1487C3.8379 18.3656 3.76344 18.5726 3.69491 18.7441C3.55304 19.0991 3.40819 19.5959 3.2816 20.03C3.23904 20.176 3.19854 20.3149 3.16091 20.4389ZM1.17179 42.7509C2.01817 35.1572 3.20897 27.5951 5.91898 20.4468C7.38926 16.6812 9.83666 13.3634 13.0157 10.8262C13.3071 10.578 13.7393 10.2568 14.0916 9.99488C14.1622 9.94239 14.2296 9.89229 14.292 9.84565C14.292 9.84565 16.476 7.95842 17.6588 7.85563C18.8416 7.75283 19.4904 7.83718 19.7574 9.13398L19.8402 9.7534L19.8588 10.4387C19.8402 13.5463 19.8268 19.2897 19.8588 22.4526C19.8989 27.0152 19.9523 31.5777 20.0591 36.1377L20.1312 39.464C20.1192 40.5005 19.9993 41.533 19.7734 42.5453C19.2608 44.9412 17.9578 47.2739 15.5949 48.2175C14.073 48.7684 12.4203 48.9845 10.8184 49.1743C8.94138 49.3377 6.97629 49.4352 5.24348 48.6656C3.1262 47.4162 1.41743 45.2522 1.17179 42.7509Z" fill="#78C081"/>
<path d="M48.6966 22.4405C49.7224 25.0125 51.591 29.0332 52.2367 33.8637C51.7739 25.0367 51.1714 25.0125 50.8732 23.6591C50.3959 21.4926 49.7574 19.364 48.9628 17.2906C46.6855 11.9451 42.6044 7.54541 37.4145 4.84103C36.9728 4.59707 36.4931 4.42766 35.995 4.33978C35.7095 4.32395 35.5441 4.27646 35.1465 4.27646C32.4382 4.12345 30.389 5.87783 29.9221 8.45269C29.6766 9.56864 29.7433 10.9379 29.7433 12.038C29.7113 18.0082 29.6979 25.4162 29.7967 31.4206C29.8367 33.5787 29.8634 35.7367 29.9221 37.8947C29.9128 39.0599 30.002 40.2239 30.1889 41.3745C31.0828 46.6007 34.0659 50.6397 39.7653 50.8719C42.599 51.075 45.6221 51.1937 48.2583 49.9221C50.3262 48.7904 51.1682 46.8782 51.7739 44.7677C52.1699 43.3878 52.7064 41.9757 54.96 39.72C52.7064 41.0735 51.9604 41.7544 50.4528 45.5849C48.433 48.9934 46.9829 49.4103 43.21 49.1755C42.1584 49.0951 41.1125 48.9541 40.0775 48.7534C39.1382 48.5661 38.111 48.3867 37.2704 47.9356C34.6796 46.6244 33.6096 43.6802 33.3081 40.9471C33.2042 39.9568 33.1801 38.96 33.236 37.9659C33.3268 34.2092 33.4335 28.8194 33.4335 25.0125C33.4335 21.2056 33.4895 15.7683 33.4335 12.0169C33.4442 10.9062 33.2067 9.20721 33.7804 8.26802C34.1859 7.59265 34.8486 7.38261 35.9443 7.90131C40.5768 10.1358 44.3619 13.781 46.7428 18.301C47.4364 19.7166 48.2528 21.3278 48.6966 22.4405Z" fill="#78C081"/>
<path d="M26.8689 10.6234C27.0571 10.2378 26.9009 9.77076 26.52 9.58016C26.1391 9.38956 25.6777 9.54762 25.4895 9.93319L21.855 17.3776C21.6667 17.7632 21.8229 18.2303 22.2038 18.4209C22.5847 18.6115 23.0461 18.4534 23.2343 18.0679L26.8689 10.6234Z" fill="#78C081"/>
<path d="M25.9575 10.6234C25.7692 10.2378 25.9254 9.77076 26.3063 9.58016C26.6872 9.38956 27.1486 9.54762 27.3369 9.93319L30.9714 17.3776C31.1596 17.7632 31.0035 18.2303 30.6225 18.4209C30.2416 18.6115 29.7803 18.4534 29.592 18.0679L25.9575 10.6234Z" fill="#78C081"/>
<path d="M25.6166 0.778697C25.6166 0.348634 25.9611 0 26.386 0C26.8109 0 27.1553 0.348635 27.1553 0.778698V10.6445C27.1553 11.0746 26.8109 11.4232 26.386 11.4232C25.9611 11.4232 25.6166 11.0746 25.6166 10.6445V0.778697Z" fill="#78C081"/>
<path d="M49.3895 47.8816C49.1544 47.4178 48.9167 46.9899 48.6743 46.5623C48.4318 46.1348 48.185 45.7132 47.9261 45.2904C47.6672 44.8677 47.3951 44.4647 47.1303 44.0631C47.0615 43.9582 46.9836 43.8632 46.9102 43.7623C46.8368 43.6615 46.7566 43.5667 46.6762 43.4681C46.5957 43.3696 46.5085 43.2772 46.4182 43.1755C46.3754 43.1264 46.3284 43.0796 46.2777 43.0355C46.2292 42.9877 46.1783 42.9401 46.1319 42.8884C46.4444 42.9529 46.7377 43.0618 46.9977 43.2098C47.1293 43.2817 47.2543 43.3606 47.3719 43.446C47.4918 43.5295 47.6054 43.6185 47.712 43.7126C48.1343 44.0834 48.4871 44.5006 48.76 44.952C49.0355 45.3992 49.239 45.8731 49.3661 46.3632C49.5072 46.8592 49.5152 47.3763 49.3895 47.8816Z" fill="#78C081"/>
<path d="M49.1646 42.8688C48.9485 42.3433 48.5946 41.881 48.136 41.5255C47.6954 41.1791 47.1921 40.9114 46.6498 40.7348C46.103 40.5627 45.5376 40.4468 44.9631 40.389C44.3824 40.3227 43.7863 40.2915 43.183 40.2612L43.686 39.7522C43.7831 40.495 43.8969 41.2333 43.9769 41.9785C44.0254 42.3499 44.0596 42.7256 44.1194 43.0696C44.1425 43.246 44.1793 43.4135 44.2231 43.5777C44.2687 43.7423 44.3263 43.9035 44.3956 44.0601C44.6781 44.697 45.13 45.2508 45.7074 45.6678C46.3128 46.1115 47.028 46.4015 47.7875 46.5113C46.9678 46.608 46.1412 46.4567 45.4253 46.0788C44.6777 45.6943 44.0678 45.1085 43.6706 44.3934C43.5719 44.2101 43.4872 44.0202 43.4172 43.825C43.3498 43.6345 43.2961 43.4396 43.2565 43.2418C43.1695 42.8424 43.1213 42.4733 43.0642 42.1125C42.9491 41.3649 42.8524 40.6244 42.7553 39.8815L42.6831 39.329L43.2608 39.3721C43.881 39.4158 44.4977 39.4909 45.1084 39.5972C45.7369 39.702 46.3465 39.8865 46.9211 40.1457C47.5032 40.4091 48.018 40.7878 48.4317 41.2568C48.8434 41.7082 49.099 42.2704 49.1646 42.8688Z" fill="#78C081"/>
<path d="M50.2151 42.5803C50.0157 42.2485 49.8759 41.8779 49.8049 41.4931C49.7329 41.1031 49.7092 40.7085 49.7345 40.3213C49.8007 39.5472 49.9871 38.8059 50.2853 38.1321C50.5776 37.4451 50.96 36.8212 51.4202 36.2803C51.6615 36.0024 51.9319 35.76 52.2262 35.5576C52.5178 35.3644 52.8251 35.2011 53.145 35.0694C53.4582 34.9312 53.7765 34.8282 54.0904 34.7303C54.4042 34.6324 54.713 34.5473 55.0273 34.4603C55.6497 34.2957 56.2571 34.1325 56.8306 33.9218C57.3838 33.7296 57.9038 33.4463 58.3755 33.0801C58.8725 32.7008 59.2734 32.1819 59.5456 31.566C59.7498 31.0525 59.9198 30.5099 60.1075 29.9836C60.0554 30.1372 60.2275 30.679 60.2565 30.8642C60.4136 31.8532 60.4812 32.8489 60.4582 33.8347C60.4511 34.4824 60.4052 35.1245 60.3207 35.7566L60.2826 36.0011L60.1497 36.6967C60.0876 37.0007 60.0199 37.3066 59.9372 37.6139C59.7668 38.2396 59.5107 38.8217 59.178 39.3397C59.0119 39.5937 58.8291 39.832 58.6312 40.0527C58.4291 40.2675 58.2273 40.4639 58.0195 40.6513C57.6033 41.027 57.1605 41.3636 56.6947 41.6583C55.7692 42.2458 54.7567 42.6548 53.6933 42.8706C54.6505 42.4234 55.5492 41.8444 56.3714 41.1451C56.7759 40.8024 57.1588 40.4283 57.5178 40.0251C57.8723 39.6412 58.1872 39.2114 58.4574 38.7427C58.7041 38.2767 58.8833 37.7625 58.9887 37.2184C59.0472 36.9413 59.0969 36.6561 59.1406 36.3619L59.2037 35.9178L59.2361 35.6936L59.2616 35.4864C59.3151 34.9028 59.3385 34.3128 59.3319 33.7194C59.3313 33.1164 59.6704 33.6979 59.0969 34.1661C58.5346 34.61 57.908 34.9442 57.2392 35.1567C56.5991 35.3714 55.9559 35.5098 55.3316 35.6493C54.7072 35.7887 54.0824 35.9173 53.5108 36.1053C53.2297 36.1941 52.958 36.3111 52.6984 36.4549C52.4424 36.5988 52.2042 36.7774 51.9882 36.9873C51.5326 37.4228 51.1377 37.9352 50.8147 38.51C50.4757 39.0822 50.2257 39.7239 50.0747 40.4096C49.9078 41.1076 49.9573 41.873 50.2151 42.5803Z" fill="#78C081"/>
</svg>
