<svg width="1479" height="236" viewBox="0 0 1479 236" fill="none" xmlns="http://www.w3.org/2000/svg">
<g opacity="0.3">
<g style="mix-blend-mode:soft-light">
<path fill-rule="evenodd" clip-rule="evenodd" d="M518.899 223.042C518.899 223.042 303.294 214.363 70.9999 157.94Z" fill="white"/>
</g>
<g style="mix-blend-mode:soft-light">
<path fill-rule="evenodd" clip-rule="evenodd" d="M1099.2 171.527C1099.2 171.527 878.459 199.102 734.157 188.569Z" fill="white"/>
</g>
<g style="mix-blend-mode:soft-light">
<path fill-rule="evenodd" clip-rule="evenodd" d="M658.222 183.909C658.222 183.909 435.855 190.145 293.23 165.795Z" fill="white"/>
</g>
<g style="mix-blend-mode:soft-light">
<path fill-rule="evenodd" clip-rule="evenodd" d="M1289 111.692C1289 111.692 1068.26 139.267 923.957 128.734Z" fill="white"/>
</g>
<g style="mix-blend-mode:soft-light">
<path fill-rule="evenodd" clip-rule="evenodd" d="M1050.95 141.808C1050.95 141.808 869.198 168.782 684.519 156.391C499.841 144.001 164 37.7615 164 37.7615C164 37.7615 451.447 131.123 685.85 148.717C920.253 166.31 1050.95 141.808 1050.95 141.808Z" fill="white"/>
</g>
<g style="mix-blend-mode:soft-light">
<path fill-rule="evenodd" clip-rule="evenodd" d="M1242.77 180.164C1242.77 180.164 1055.23 200.582 825.531 200.362L1019.35 198.05C1019.35 198.05 879.117 211.924 768 209.184C768 209.184 1060.02 208.802 1236.31 196.466L1242.77 180.164Z" fill="white"/>
</g>
<path fill-rule="evenodd" clip-rule="evenodd" d="M534.979 95.8448C534.979 95.8448 836.436 84.6781 956.598 104.81L534.979 95.8448Z" fill="white" style="mix-blend-mode:screen"/>
<path fill-rule="evenodd" clip-rule="evenodd" d="M-0.000117268 67.8933C-0.000117268 67.8933 301.457 56.7266 421.619 76.8584L-0.000117268 67.8933Z" fill="white" style="mix-blend-mode:screen"/>
<g style="mix-blend-mode:soft-light">
<path fill-rule="evenodd" clip-rule="evenodd" d="M402.797 34.883C402.797 34.883 694.336 14.309 882.96 42.8069Z" fill="white"/>
</g>
<g style="mix-blend-mode:soft-light">
<path fill-rule="evenodd" clip-rule="evenodd" d="M683.455 76.5859C683.455 76.5859 924.343 40.4616 1165.64 81.4403Z" fill="white"/>
</g>
</g>
<g clip-path="url(#clip0_2814_76)">
<path d="M1352.41 198.254C1352.25 198.197 1352.1 198.127 1351.96 198.044L1349.11 197.856C1348.9 197.448 1348.73 197.138 1348.63 196.88C1348.24 208.189 1349.3 234.208 1331.69 233.324C1331.85 234.155 1332.02 234.986 1332.15 235.817C1350.02 233.415 1353.58 212.74 1353.48 198.141C1353.33 198.25 1353.15 198.318 1352.96 198.338C1352.77 198.358 1352.58 198.329 1352.41 198.254V198.254Z" fill="#EDFFEF"/>
<path d="M1329.41 38.8315L1329.85 39.488C1329.71 39.2756 1329.56 39.0568 1329.41 38.8315Z" fill="#EDFFEF"/>
<path d="M1287.5 213.782C1287.2 213.204 1286.93 212.611 1286.68 212.004C1285.76 210.206 1284.74 208.147 1283.85 205.909C1284.65 209.233 1285.97 212.347 1288.02 214.832C1287.82 214.497 1287.64 214.146 1287.5 213.782V213.782Z" fill="#EDFFEF"/>
<path d="M1388.95 86.4808L1388.88 86.7147L1388.98 86.4947L1388.95 86.4808Z" fill="#EDFFEF"/>
<path d="M1303.29 226.38C1303.29 226.38 1303.26 226.369 1303.29 226.38V226.38Z" fill="#EDFFEF"/>
<path d="M1361.45 2.55145C1361.22 2.967 1360.92 3.38255 1360.69 3.78978C1363.03 4.47405 1364.7 5.34116 1366.76 6.52131C1364.68 5.63679 1362.54 4.92155 1360.35 4.38263C1359.24 6.29137 1354.2 5.8038 1354.74 3.34099C1337.19 1.08042 1299.01 5.33838 1295.83 27.8388C1295.5 25.8996 1301.88 8.86499 1302.62 9.81244C1301.37 8.21674 1297.45 13.5385 1297.07 14.4915C1297.3 14.3862 1297.53 14.2809 1297.77 14.1923C1297.53 14.2809 1297.3 14.3862 1297.07 14.4943C1294.76 20.0349 1294.54 25.3373 1295.25 31.1605C1295.37 32.1495 1298.32 43.9731 1298.68 43.4357C1304.48 55.7691 1317.47 67.5762 1328.76 77.2501C1328.76 77.1642 1328.76 77.0783 1328.76 76.9952C1330.18 76.9204 1330.99 77.8928 1331.96 78.5632C1332.68 78.1615 1333.33 78.1671 1333.91 78.5826C1334.38 79.5938 1331.95 79.5495 1331.63 79.2586H1331.11C1335.95 83.3808 1343.79 88.1845 1346.86 93.9191C1349.29 98.4458 1347.94 103.197 1351.61 107.441C1348.29 108.902 1345.6 111.499 1344.03 114.763L1345.89 115.663C1346.26 116.295 1346.63 116.928 1347 117.564C1345.96 117.744 1345.33 118.251 1345.36 119.273C1347.98 122.453 1340.46 126.506 1339.07 119.065C1327.68 119.821 1315.07 123.102 1306.09 130.423C1308.03 131.036 1305.45 131.532 1304.93 131.476C1303.36 132.933 1300.54 135.177 1299.65 136.294C1301.04 134.515 1302.43 132.485 1304.11 130.969C1303.95 130.563 1304.23 130.302 1304.97 130.188C1314.79 120.991 1326.1 118.957 1339.04 118.957C1338.82 117.789 1338.35 116.681 1337.67 115.708C1330.98 115.663 1324.19 117.093 1317.64 119.766C1317.76 120.224 1317.73 120.706 1317.58 121.151C1317.05 122.705 1315.99 120.896 1315.86 120.522C1299.63 127.75 1285.08 142.524 1277.5 160.955C1278.3 160.678 1279.1 160.498 1279.73 160.304C1283.07 161.335 1278.54 164.141 1276.66 163.091C1276.11 164.587 1275.59 166.103 1275.11 167.64C1275.31 167.454 1275.61 167.74 1275.73 167.917C1275.51 168.008 1275.26 168.02 1275.02 167.953C1273.21 174.02 1271.89 180.577 1272.32 186.943C1271.8 184.661 1272.4 162.191 1273.68 162.77C1269.59 160.905 1270.03 180.389 1270 180.156C1271.54 192.947 1277.38 205.809 1286.87 214.599C1272.4 200.848 1272.22 173.679 1283.33 157.883C1277.39 166.365 1275.66 182.453 1278.19 193.019C1278.09 186.37 1279.26 177.372 1282.2 171.358C1280.23 175.375 1280.34 184.312 1280.03 189.295C1280.29 189.063 1280.6 188.901 1280.94 188.824C1281.27 188.747 1281.63 188.759 1281.96 188.858C1283.05 181.874 1284.92 174.07 1287.79 167.571C1285.52 172.679 1283.81 183.134 1283.27 189.326C1284.48 190.159 1284.4 191.062 1283.02 192.035C1282.65 196.296 1282.74 201.305 1283.86 205.914C1284.76 208.147 1285.76 210.206 1286.69 212.009C1282.61 201.969 1284.72 188.315 1288.99 178.851C1286.05 185.381 1284.8 205.482 1287.27 213.126C1287.73 213.998 1288.15 214.788 1288.51 215.505C1288.32 215.301 1288.16 215.077 1288.02 214.838C1285.98 212.344 1284.66 209.239 1283.85 205.914C1282.21 201.85 1280.93 197.213 1281.2 192.55C1280.77 192.442 1280.38 192.21 1280.08 191.883C1280.56 202.634 1281.54 210.599 1290.73 217.924C1282.56 206.629 1289.31 183.805 1294.72 172.449C1289.82 182.785 1283.64 212.713 1294.59 221.392C1289.43 211.308 1290.49 195.429 1295.7 185.359C1295.77 185.209 1295.85 185.065 1295.93 184.924C1295.85 185.065 1295.78 185.215 1295.7 185.359C1291.73 193.379 1291.57 212.175 1294.48 220.713C1296.22 221.941 1297.99 223.09 1299.76 224.165C1291.3 215.095 1295.67 191.98 1299.61 181.331C1299.66 181.185 1299.72 181.043 1299.77 180.907L1299.61 181.331C1296.33 190.448 1293.16 220.669 1303.03 226.235C1296.09 217.156 1298.59 200.748 1301.83 190.559C1299.38 198.249 1298.39 218.838 1303.28 226.368C1303.47 226.398 1306.95 227.686 1304.9 227.091C1305.81 227.573 1306.71 228.033 1307.6 228.476C1306.68 227.378 1305.99 226.106 1305.58 224.736C1304.75 225.193 1304.19 223.5 1305.16 223.124C1302.5 211.272 1302.86 196.551 1306.24 184.716C1306.29 184.528 1306.34 184.342 1306.39 184.162C1306.34 184.345 1306.29 184.528 1306.24 184.716C1303.66 194.152 1302.48 220.73 1308.24 228.794C1314.65 231.944 1322.54 236.122 1329.88 235.997C1329.66 235.05 1329.79 234.059 1330.23 233.194C1329.16 233.063 1321.6 231.576 1322.02 230.498C1322.15 230.135 1328.92 231.556 1330.04 231.642C1322.06 224.395 1322.49 204.923 1326.93 195.623C1323.7 202.548 1324.34 225.645 1330.16 231.637C1331.05 231.703 1331.94 231.723 1332.83 231.698C1330.57 220.738 1331.16 206.649 1334.6 195.866C1334.38 196.534 1334.81 200.108 1334.6 201.571C1335.61 201.512 1336.62 201.632 1337.59 201.925C1338.98 197.85 1338.77 189.074 1338.28 185.461C1339.06 191.171 1339.58 196.897 1339.12 202.668C1339.93 203.23 1340.59 203.972 1341.06 204.837C1341.83 202.025 1341.87 198.93 1342.73 196.149C1342.77 195.997 1342.82 195.844 1342.87 195.7C1342.82 195.85 1342.77 195.999 1342.73 196.149C1341.4 200.546 1341.62 208.458 1340.51 213.53C1339.09 219.971 1336.14 225.096 1333.51 231.077C1337.12 222.885 1338.51 213.58 1341.01 205.017C1340.37 204.773 1339.68 204.691 1339.01 204.776C1339.01 210.039 1337 215.624 1335.93 220.741C1336.93 215.807 1336.41 210.267 1337.08 205.214C1336.05 204.74 1335.31 202.72 1334.54 201.848C1333.21 210.926 1331.62 222.642 1332.87 231.706C1339.96 231.529 1345.46 222.038 1346.44 215.915C1345.64 216.056 1344.99 215.734 1344.49 214.951C1344.29 214.12 1346.33 214.428 1346.64 214.486C1347.6 205.425 1347.87 196.302 1347.42 187.201C1346.88 187.442 1346.36 187.716 1345.81 187.93C1346.37 187.716 1346.88 187.442 1347.42 187.201C1346.28 173.045 1349.04 154.401 1340.45 142.195C1339.7 142.317 1339 142.613 1338.39 143.059C1338.52 144.562 1339.13 145.649 1340.24 146.319C1339.13 145.649 1338.51 144.562 1338.39 143.059L1333.71 143.89C1333.5 144.595 1333.44 145.334 1333.54 146.063C1333.63 146.791 1333.87 147.493 1334.24 148.126C1336.3 147.829 1337.96 147.148 1339.85 146.286C1333.7 149.079 1323.54 154.63 1320.01 159.769C1322.6 155.954 1325.9 152.673 1329.73 150.107C1329.41 150.062 1329.08 150.021 1328.75 149.985C1328.39 149.234 1328.03 148.483 1327.61 147.613L1330.65 145.209C1325.78 148.087 1318.6 150.965 1315.31 154.952C1319.48 149.871 1324.54 145.621 1330.99 143.918C1330.99 142.862 1330.57 138.502 1332.07 139.164C1333.23 139.928 1333.72 141.037 1333.56 142.488C1337.6 143.059 1337.41 139.568 1340.53 138.793C1340.61 138.826 1342.83 140.422 1342.81 140.627L1341.6 141.94C1342.78 143.564 1343.75 145.333 1344.48 147.203C1344.63 146.511 1347.22 136.222 1349.61 139.773C1347.98 137.349 1344.59 153.054 1345.8 152.084C1348.49 165.753 1349.13 181.946 1348.66 195.919C1349.89 194.567 1351.46 194.042 1353.38 194.343C1352.99 184.248 1351.44 173.879 1350.2 165.111C1349.77 165.224 1349.33 165.374 1348.88 165.512C1348.16 164.049 1348.22 162.512 1348.35 160.966C1348.77 161.565 1349.28 162.103 1349.85 162.562C1349.21 157.98 1347.49 151.445 1348.72 146.821C1349.62 143.447 1352.27 142.142 1353.4 138.898C1351.54 138.216 1342.76 132.834 1344.34 129.714C1344.02 128.794 1343.78 127.845 1343.64 126.88C1343.98 127.717 1344.39 128.522 1344.87 129.288C1345.51 129.088 1352.55 135.078 1355.06 135.355C1360.14 135.909 1365.67 133.374 1368.73 129.448C1376.28 119.752 1368.64 115.09 1364.31 107.688C1362.92 107.013 1361.43 106.557 1359.9 106.336C1362.6 105.977 1365.34 106.336 1367.85 107.376C1370.37 108.416 1372.56 110.101 1374.21 112.259C1377.85 109.424 1381.06 106.079 1383.74 102.327C1383.08 102.488 1382.44 102.73 1381.84 103.047C1381.86 102.369 1381.88 101.693 1381.9 101.014C1379.22 102.953 1376.57 105.225 1373.66 106.779C1380.28 103.161 1386.04 93.5174 1388.88 86.7163L1388.95 86.4836C1388.81 86.4262 1388.7 86.3191 1388.63 86.1829C1388.56 86.0466 1388.55 85.8909 1388.59 85.7457C1388.64 85.6005 1388.73 85.4761 1388.86 85.3964C1388.99 85.3168 1389.14 85.2876 1389.29 85.3145C1389.8 83.5058 1390.46 81.7445 1391.27 80.0509C1390.45 81.6577 1390.01 83.6357 1389.43 85.3477C1389.39 85.3304 1389.34 85.3174 1389.29 85.3089C1389.18 85.694 1389.06 86.0846 1388.95 86.478L1388.98 86.4919L1388.88 86.7107C1387.62 91.1432 1386.38 95.9082 1383.12 99.8558C1383.62 100.323 1384.03 100.874 1384.34 101.485C1403.83 73.4132 1398.7 14.8516 1361.45 2.55145ZM1284.77 165.05C1283.69 166.317 1282.61 166.57 1281.55 165.809C1281.18 164.435 1282.03 163.675 1284.09 163.529C1284.76 163.869 1285 164.374 1284.77 165.05ZM1344.11 186.871C1343.95 190.473 1345.99 196.166 1345.49 200.831C1344.93 205.984 1342.75 210.017 1341.48 214.959C1342.54 210.821 1342.68 206.349 1343.53 202.133C1344.56 196.831 1343.87 192.157 1344.11 186.871ZM1302.68 134.814C1306.15 133.85 1306.27 133.825 1307.4 135.781C1316.8 126.473 1328.67 125.517 1340.96 124.074C1330.19 125.359 1316.1 129.152 1307.87 136.576C1308.13 136.986 1308.39 137.391 1308.66 137.815C1307.88 138.488 1307.27 137.934 1306.81 137.571C1305.48 138.77 1302.8 140.995 1302.14 141.851C1303.38 140.244 1304.6 138.391 1306.08 136.997C1305.15 136.216 1304.25 135.344 1302.68 134.814ZM1341.87 130.443C1328.73 131.094 1311.73 137.524 1303.93 147.746C1314.02 134.515 1325.95 131.271 1341.87 130.443ZM1303.26 180.541C1303.19 181.601 1303.11 182.663 1303.03 183.727L1300.73 183.708C1300.86 182.557 1300.99 181.407 1301.13 180.259L1296.99 180.045C1296.71 176.031 1299.91 176.826 1303.02 176.834C1305.15 176.214 1305.15 176.214 1306.63 177.943C1305.97 179.546 1304.84 180.412 1303.26 180.541V180.541ZM1307.78 156.7C1306.99 155.517 1310.1 156.298 1308.62 157.01C1308.46 157.032 1308.31 157.016 1308.16 156.961C1308.01 156.907 1307.88 156.817 1307.78 156.7V156.7ZM1329.81 217.899C1329.86 218.008 1329.9 218.122 1329.93 218.24C1329.9 218.122 1329.86 218.008 1329.81 217.899V217.899ZM1329.91 217.757C1329.89 217.805 1329.88 217.852 1329.86 217.896L1329.79 217.838C1329.82 217.802 1329.87 217.774 1329.91 217.757L1330.1 217.203C1330.58 217.6 1330.16 217.641 1329.91 217.746V217.757ZM1331.02 154.298C1331.26 153.356 1332.67 152.015 1333.61 152.996C1334.69 154.104 1331.87 154.725 1331.02 154.301V154.298ZM1325.43 160.093C1325.64 159.816 1326.22 159.8 1326.45 159.728C1326.98 159.816 1330.74 159.805 1330.22 161.188C1333.67 159.068 1338.73 154.619 1341.75 151.807C1337.27 156.024 1332.98 161.576 1327.99 165.241C1327.82 165.368 1329.41 162.171 1329.76 161.659C1329.1 162.063 1323.55 162.396 1325.43 160.093V160.093ZM1319.08 189.046C1320.38 188.584 1321.82 188.649 1323.08 189.226C1323.22 188.478 1323.4 187.738 1323.62 187.01C1323.73 186.686 1323.79 189.038 1323.71 189.47C1324.79 189.945 1325.94 190.244 1327.11 190.354C1328.75 188.708 1329.15 188.196 1331.22 189.75C1331.18 188.666 1331.24 187.581 1331.42 186.511C1331.56 185.846 1331.84 190.06 1331.84 190.154L1332.64 190.351C1332.67 190.703 1332.69 191.054 1332.72 191.406L1331.94 191.464C1332 192.395 1331.88 193.334 1331.91 194.268C1332.54 194.451 1333.16 194.636 1333.8 194.783C1333.16 194.636 1332.54 194.451 1331.91 194.268C1332.23 204.607 1330.34 215.466 1331.68 225.706C1330.46 216.472 1330.37 208.153 1330.57 198.856C1330.43 199.087 1330.23 199.278 1329.99 199.41C1329.94 198.889 1329.88 198.365 1329.83 197.842C1330.14 197.947 1330.4 198.153 1330.58 198.426C1330.66 196.193 1330.79 193.758 1331.08 191.531L1329.19 191.675C1329.06 191.822 1328.93 191.971 1328.8 192.115C1326.97 192.171 1325.23 191.838 1323.52 191.39V191.428C1323.61 191.467 1323.6 191.484 1323.52 191.481C1323.3 202.59 1320.77 214.422 1323.73 225.379C1320.64 213.987 1319.89 203.033 1322.77 191.368C1320.94 191.005 1316.83 189.866 1319.08 189.046ZM1316.1 204.13C1316.32 201.329 1316.82 198.558 1317.61 195.861C1317.63 195.814 1317.64 195.767 1317.66 195.72C1317.72 195.523 1317.78 195.332 1317.85 195.146C1317.78 195.335 1317.72 195.526 1317.66 195.72C1317.64 195.767 1317.63 195.814 1317.61 195.861C1316.83 198.401 1316.44 201.377 1316.1 204.141C1315.18 214.303 1316.83 227.379 1323.28 232.482C1314.16 225.423 1314.65 217.023 1315.8 206.466C1315.9 205.709 1316 204.928 1316.1 204.13ZM1315.51 184.738C1314.15 192.714 1313.29 200.992 1313.63 209.081C1314.14 209.463 1314.6 209.87 1315.13 210.222C1314.83 210.66 1314.53 211.1 1314.23 211.541C1314.09 211.582 1313.95 211.61 1313.81 211.646C1314.37 217.929 1312.18 227.805 1319.77 230.465C1312.27 228.218 1311.75 217.09 1311.86 210.549L1311.33 210.139L1309.71 210.477C1309.77 213.829 1310.23 217.084 1310.51 220.414C1311.9 220.195 1312.24 221.273 1310.65 221.597C1311.53 225.531 1314.22 228.279 1316.08 231.698C1312.63 225.622 1308.62 222.921 1308.08 215.378C1307.63 209.109 1308.22 200.252 1309.94 194.174C1308.93 197.745 1309.59 206.086 1309.71 210.477L1311.33 210.128C1311.53 209.873 1311.7 209.663 1311.86 209.48C1311.74 201.125 1314.24 192.118 1315.51 184.73L1315.51 184.738ZM1344.71 133.922C1344.38 133.964 1344.06 134 1343.73 134.033C1330.63 135.659 1321.62 144.768 1311.96 152.594C1322.53 144.048 1327.41 136.169 1342.91 134.097C1343.19 134.077 1343.46 134.053 1343.73 134.028C1344.04 133.992 1344.36 133.953 1344.71 133.922ZM1368.27 7.2028C1368.39 7.25431 1368.51 7.31545 1368.62 7.38564C1368.47 7.31085 1368.32 7.23328 1368.17 7.16125L1368.27 7.2028ZM1375.1 31.4153C1371.79 23.1515 1360.39 9.03121 1352.25 4.21918C1362.8 10.4025 1370.46 19.816 1375.1 31.4125V31.4153ZM1355.66 7.59065L1355.58 7.64605L1355.66 7.59065ZM1359.45 16.3171C1359.91 16.2063 1360.26 16.5942 1360.52 17.0042C1362.25 17.2166 1362.91 18.2499 1362.49 20.1041C1368.82 27.379 1371.47 35.8644 1376.04 44.1227C1371.71 36.219 1366.39 28.4732 1361.48 20.9131C1360.78 21.1901 1357.33 21.6195 1356.91 20.6166C1357.08 19.3368 1357.88 18.4226 1359.3 17.874C1357.98 14.6051 1352.31 8.84283 1349.14 8.37187C1354.32 8.95918 1356.22 13.0953 1359.45 16.3171ZM1371.7 89.0516C1372.37 79.6603 1371.81 72.7761 1369.92 63.6507C1370.73 67.5623 1373.9 72.2663 1374.14 77.4551C1374.4 82.8655 1372.64 87.0709 1371.6 92.2929C1371.92 90.6141 1371.59 90.7443 1371.7 89.0516V89.0516ZM1369.1 43.5631C1367.08 44.7322 1366.14 40.4548 1368.04 39.4852C1370.17 40.6007 1370.52 41.96 1369.1 43.5631V43.5631ZM1368.82 60.6005C1368.21 60.908 1367.27 58.6419 1368.34 58.0546C1369.29 58.2125 1370.08 59.9911 1368.82 60.6005H1368.82ZM1373.48 61.2239C1373.49 61.2903 1373.5 61.3541 1373.52 61.4178C1373.54 61.4815 1373.58 61.62 1373.61 61.7197C1373.61 61.7364 1373.61 61.753 1373.62 61.7696C1373.92 62.6292 1374.41 63.4089 1375.05 64.0468L1375.14 64.1355C1375.16 64.3571 1375.18 64.5815 1375.2 64.8031L1375.14 64.1355L1375.05 64.0468C1374.41 63.4089 1373.92 62.6292 1373.62 61.7696C1373.62 61.753 1373.62 61.7364 1373.61 61.7197C1373.58 61.62 1373.55 61.5175 1373.52 61.4178C1373.5 61.318 1373.49 61.2903 1373.48 61.2239C1373.47 61.1574 1373.45 61.1158 1373.44 61.0604C1373.29 60.2116 1373.29 59.3439 1373.44 58.4951C1373.29 59.3439 1373.29 60.2116 1373.44 61.0604C1373.45 61.1269 1373.47 61.1823 1373.48 61.2239ZM1375.25 90.0351L1375.28 90.0628C1374.73 91.3298 1373.97 91.7111 1373.02 91.2069C1373.03 90.1376 1373.79 89.7581 1375.25 90.0489V90.0351ZM1366.7 93.3595C1366.79 92.4924 1366.7 91.3261 1366.77 90.4479C1366.79 90.2041 1366.8 89.9658 1366.81 89.7248C1366.56 81.087 1362.99 69.3104 1358.27 64.0717C1365.18 71.7732 1367.4 79.7462 1366.81 89.7248C1366.86 90.9439 1366.82 92.1647 1366.7 93.3789V93.3595ZM1356.13 77.0146C1353.76 72.5821 1349.44 66.8975 1345.58 64.4873C1356.17 71.1 1360.91 80.3335 1362.82 92.3594C1362.07 87.226 1358.63 81.5302 1356.13 77.0146ZM1356.65 92.1849C1350.33 81.9347 1342.69 74.3524 1333.55 66.8116C1337.61 70.1359 1343.79 72.56 1347.96 77.4828C1351.78 81.9846 1353.63 87.1955 1356.65 92.1849ZM1361.65 51.7383C1360.77 51.923 1360.22 51.6321 1359.99 50.8657C1360.05 49.5387 1364.11 50.2368 1363.83 51.2674C1363.55 51.5424 1363.2 51.7322 1362.82 51.8146C1362.43 51.897 1362.03 51.8686 1361.67 51.7328L1361.65 51.7383ZM1362.31 62.5896L1361.98 62.6949L1362.04 62.3652L1362.31 62.5896ZM1361.33 59.2375C1361.05 61.0964 1358.51 59.7279 1358.69 58.2125C1358.93 56.2899 1361.31 58.4148 1361.35 59.232L1361.33 59.2375ZM1364.82 60.1157L1364.88 59.7916L1365.16 60.0105L1364.82 60.1157ZM1361.32 24.8525L1360.96 24.7998L1361.2 24.5505L1361.32 24.8525ZM1362.2 31.0275C1359.15 23.5255 1348.04 10.3194 1340.5 6.15009C1350.49 11.6048 1357.84 20.1817 1362.2 31.0275ZM1330.03 7.53801C1332.98 9.00628 1335.07 9.62406 1337.7 11.7904C1338.07 11.1754 1338.5 10.9603 1338.99 11.145C1338.46 10.7571 1335.77 8.28046 1335.66 8.21674C1346.28 14.9403 1353.97 24.9993 1358 36.8839C1358.05 34.2023 1363.67 35.7536 1363.26 38.3522C1362.09 38.9506 1359.07 38.4879 1358.14 37.3105C1358.93 40.1556 1360.12 42.7902 1361.3 45.5023C1356.03 33.6094 1349.36 20.3396 1339.52 11.5965C1339.75 12.3194 1339.91 13.0611 1340 13.8128C1344.32 17.5887 1348.87 26.39 1350.79 31.7644C1349.12 27.077 1342.37 19.4448 1338.66 15.2201C1337.04 15.7437 1335.66 15.378 1334.36 17.1371C1341.07 25.5339 1345.18 32.7922 1350.55 41.9951C1351.8 41.2832 1354.21 41.4106 1354.12 43.5243C1353.64 44.2862 1350.51 47.4554 1349.35 45.8542C1348.44 44.4044 1348.79 43.1476 1350.39 42.0838C1344.45 34.3269 1340.67 25.1156 1333.83 17.9821C1333.77 18.0901 1333.71 18.2009 1333.65 18.3145C1333.83 19.1382 1334.01 19.9629 1334.19 20.7884C1331.91 20.2122 1331.91 20.2122 1332.34 18.1622C1332.14 17.4197 1331.74 16.6773 1331.62 15.9459C1329.85 14.5414 1327.13 12.0425 1325.76 11.2946C1327.76 12.4027 1329.93 13.4055 1331.7 14.8544C1331.84 14.4941 1332.06 14.1717 1332.34 13.9153C1333.93 14.2754 1335.47 13.749 1337.03 13.7075C1337.1 13.5662 1337.17 13.4305 1337.23 13.2781C1334.99 10.5493 1333.16 9.10878 1330.03 7.53801ZM1327.23 16.1703L1326.93 16.0678L1327.17 15.9182L1327.23 16.1703ZM1340.35 35.9863C1337.96 28.7835 1326.21 17.2092 1319.87 12.4027C1328.2 18.6553 1336.84 25.4065 1340.35 35.9863V35.9863ZM1331.69 31.3876C1331.9 31.2681 1332.12 31.1679 1332.34 31.0884C1332.59 31.8669 1332.71 32.3046 1332.53 32.5539C1334.93 35.6788 1337.06 39.5933 1338.05 43.4468C1339.88 43.8706 1341.04 44.9317 1342.11 46.4304C1341.15 48.5164 1339.67 45.7517 1338.7 45.3915C1339.57 47.0343 1340.36 48.7159 1341.21 50.3615C1340.3 48.5497 1338.93 47.0371 1337.97 45.2502C1337.71 45.2502 1334.84 46.893 1334.1 46.001C1333.37 45.109 1336.17 42.8955 1336.94 43.1559C1336.76 42.7274 1336.55 42.311 1336.31 41.9093L1336.18 41.8815C1335.84 41.9065 1335.51 41.8813 1335.18 41.8068C1332.79 41.8732 1330.51 43.3914 1330.42 39.7456C1332.07 39.5406 1333.36 40.0227 1334.15 41.4078C1334.47 41.5967 1334.82 41.7394 1335.18 41.8317C1335.51 41.8207 1335.85 41.8458 1336.18 41.9065H1336.3C1334.54 38.837 1332.54 35.8478 1330.58 32.9002H1330.44C1330.46 32.8587 1330.48 32.8254 1330.5 32.7839C1326.74 27.1047 1322.17 19.8271 1317.49 15.68C1322.82 20.3673 1327.74 25.437 1331.69 31.3876V31.3876ZM1329.47 37.7787L1330.45 39.0641L1329.47 37.7787ZM1329.42 38.8314C1329.57 39.0568 1329.71 39.2756 1329.85 39.488L1329.42 38.8314C1325.36 32.7368 1317.18 22.6279 1311.2 17.0319C1310.8 16.669 1310.41 16.306 1310 15.9459C1310.39 16.2839 1310.79 16.6459 1311.2 17.0319C1318.23 23.4867 1324.1 30.7061 1329.41 38.8314H1329.42ZM1324.7 42.6212C1327.33 46.7462 1329.95 50.8241 1332.58 54.5751C1329.78 50.6413 1327.22 46.6299 1324.7 42.6212C1319.71 34.8339 1314.68 26.872 1309.39 20.6277C1315.34 27.6228 1319.97 35.1192 1324.71 42.6212H1324.7ZM1311.55 38.258C1311.79 38.9028 1312.15 39.5008 1312.59 40.0254L1311.89 41.0311C1315.11 47.3806 1322.17 56.2678 1328.41 60.1324C1328.63 60.2681 1328.85 60.4094 1329.08 60.5313C1328.86 60.4066 1328.63 60.2709 1328.41 60.1324C1318.6 54.251 1311.01 44.3748 1306.38 33.7978C1306.76 34.6704 1309.99 38.0114 1311.02 39.4049C1311.19 39.0746 1311.39 38.7587 1311.62 38.4602L1311.55 38.258ZM1355.33 124.833C1353.66 125.348 1353.59 123.847 1353.66 122.786L1353.47 122.764C1354.36 117.068 1360.16 123.337 1355.33 124.833ZM1356.89 103.651C1356.49 102.787 1356.5 103.017 1357.21 102.64C1357.71 103.169 1357.61 103.504 1356.89 103.651V103.651ZM1360.04 123.412C1360.58 123.966 1360.46 124.32 1359.69 124.476C1359.16 123.924 1359.28 123.572 1360.04 123.412V123.412ZM1361.98 103.363C1361.92 103.339 1361.87 103.302 1361.82 103.254C1361.78 103.206 1361.74 103.149 1361.72 103.086C1362.14 102.676 1362.46 102.682 1362.68 103.103C1362.46 103.206 1362.23 103.294 1361.99 103.363H1361.98ZM1352.44 94.7917C1352.83 96.2295 1354.13 105.757 1354.05 105.939C1352.66 105.962 1351.79 105.153 1351.43 103.513C1350.38 100.224 1352.22 96.9581 1350.68 93.6891C1349.83 93.1101 1348.82 91.5699 1348.72 90.567C1340.51 79.3556 1322.44 68.8478 1310.42 56.2151C1309.36 56.3841 1309.29 56.3066 1309.61 55.3453C1301.55 46.6022 1296.51 36.8257 1299.64 25.1046L1298.95 25.0602C1297.99 23.2484 1298.97 22.1265 1300.84 21.6943C1301.35 20.3455 1302.18 19.1413 1303.26 18.1871C1303.08 19.3529 1302.71 20.483 1302.18 21.5364C1303.01 21.5142 1303.85 21.5863 1304.66 21.5641C1304.49 20.7053 1304.22 19.8271 1304 18.9711C1304.31 20.1623 1304.56 20.5335 1305.14 21.5336C1305.26 21.5336 1305.38 21.5336 1305.49 21.5031C1305.57 19.7329 1308.34 19.7994 1308.3 21.9409C1307.71 23.0767 1306.84 23.3731 1305.69 22.8301C1308.57 31.0663 1314.19 36.5238 1318.74 43.6268C1314.18 36.5459 1306.93 33.0997 1305.11 23.0434C1304.58 23.7453 1304.06 24.4489 1303.54 25.1544C1303.07 25.5496 1302.63 25.6475 1302.22 25.4481C1304.56 31.6369 1305.52 45.8874 1311.77 49.4223C1304.01 44.9483 1302.28 32.9362 1301.84 25.2708L1301.8 25.2486L1301.18 25.2098C1296.78 46.677 1319.57 63.3681 1334.25 75.4688C1334.97 74.4216 1335.52 74.3819 1335.88 75.3497C1335.8 75.5458 1335.66 75.7134 1335.48 75.8302C1335.31 75.947 1335.1 76.0074 1334.89 76.0035C1342.71 82.2921 1349.03 92.9024 1358.98 96.1492C1360.74 96.7254 1371.94 97.5177 1371.9 98.069C1371.74 101.055 1353.79 95.6782 1352.45 94.7917H1352.44ZM1369.77 106.463C1373.1 103.657 1377.01 98.7339 1378.8 94.8277C1377.76 94.9524 1376.73 95.066 1375.69 95.1796C1374.34 97.5897 1373.22 100.058 1372.08 102.579C1377.48 90.5753 1381.05 75.8954 1379.62 62.7448C1379.12 62.7106 1378.63 62.643 1378.13 62.5425C1378.13 62.5619 1378.13 62.5813 1378.13 62.6007H1378.04C1378 63.6728 1377.3 64.1715 1376.18 64.2851C1376.28 62.4869 1376.67 60.7173 1377.35 59.0464C1377.38 58.9619 1377.39 58.8719 1377.38 58.7831C1377.37 58.6943 1377.34 58.6091 1377.29 58.5339C1379.29 56.9493 1379.29 56.9493 1381.65 58.3123L1383.66 58.2208L1384.67 59.9606L1382.25 59.944C1382.55 61.4274 1382.97 62.8859 1383.49 64.3072L1381.03 63.454C1380.83 63.2001 1380.57 63.0077 1380.27 62.8999C1382.21 73.2858 1380.91 85.8935 1375.7 95.1685C1376.73 95.0577 1377.78 94.9441 1378.81 94.8194C1383.06 85.5444 1387.11 74.8732 1387.37 65.1411C1386.9 82.015 1382.98 95.2987 1369.77 106.463H1369.77ZM1384.57 53.3257C1384.54 53.0819 1384.51 52.8381 1384.47 52.5943C1384.51 52.8381 1384.54 53.0819 1384.57 53.3257C1384.64 54.0766 1384.68 54.8313 1384.68 55.5863V55.5863C1384.61 55.7608 1384.54 55.9381 1384.47 56.1126L1384.68 55.5863C1384.64 54.8244 1384.64 54.0709 1384.57 53.3257H1384.57ZM1383.94 79.6963C1383.64 80.6714 1382.99 81.0621 1381.99 80.8681C1381.15 79.4959 1381.74 78.5097 1383.77 77.9094C1383.83 78.5051 1383.88 79.1034 1383.94 79.6963H1383.94ZM1382.55 37.7344C1379.62 37.6374 1376.56 38.812 1373.62 39.0669L1373.69 38.9727C1373.27 31.2352 1378.64 35.6484 1382.06 36.7066C1376.94 26.7003 1373.05 15.3115 1364.75 8.22505C1364.48 7.99511 1364.2 7.76518 1363.92 7.53801C1364.2 7.76241 1364.48 7.99234 1364.75 8.22505C1377.53 18.8547 1380.75 32.396 1387.17 47.2227C1385.81 44.0092 1383.98 40.948 1382.55 37.7344Z" fill="#EDFFEF"/>
<path d="M1391.27 80.062C1390.46 81.7556 1389.8 83.5169 1389.29 85.3256C1389.34 85.334 1389.39 85.347 1389.43 85.3644C1390.01 83.6385 1390.45 81.6605 1391.27 80.062Z" fill="#EDFFEF"/>
<path d="M1287.5 213.782C1287.64 214.147 1287.81 214.5 1288 214.838C1288.07 214.915 1288.13 214.996 1288.2 215.073C1287.96 214.655 1287.73 214.22 1287.5 213.782Z" fill="#EDFFEF"/>
<path d="M1299.61 181.331L1299.77 180.907C1299.71 181.043 1299.66 181.185 1299.61 181.331Z" fill="#EDFFEF"/>
<path d="M1295.69 185.359C1295.77 185.215 1295.84 185.065 1295.92 184.924C1295.83 185.057 1295.76 185.209 1295.69 185.359Z" fill="#EDFFEF"/>
<path d="M1306.23 184.719C1306.28 184.536 1306.33 184.353 1306.39 184.165C1306.33 184.345 1306.28 184.53 1306.23 184.719Z" fill="#EDFFEF"/>
<path d="M1288.21 215.073C1288.14 214.995 1288.08 214.915 1288.02 214.838C1288.16 215.077 1288.32 215.301 1288.51 215.505C1288.15 214.796 1287.73 213.998 1287.27 213.126C1287.35 213.355 1287.43 213.573 1287.51 213.782C1287.73 214.22 1287.96 214.655 1288.21 215.073Z" fill="#EDFFEF"/>
<path d="M1287.27 213.126C1287.09 212.756 1286.9 212.382 1286.69 212.004C1286.94 212.611 1287.21 213.204 1287.51 213.782C1287.43 213.575 1287.35 213.356 1287.27 213.126Z" fill="#EDFFEF"/>
<path d="M1342.72 196.16C1342.76 196.011 1342.81 195.861 1342.86 195.711C1342.81 195.861 1342.76 196.008 1342.72 196.16Z" fill="#EDFFEF"/>
<path d="M1364.75 8.22506C1364.48 7.99236 1364.2 7.76242 1363.92 7.53802C1364.2 7.75688 1364.48 7.99513 1364.75 8.22506Z" fill="#EDFFEF"/>
<path d="M1317.66 195.709C1317.72 195.515 1317.78 195.324 1317.85 195.135C1317.78 195.321 1317.72 195.512 1317.66 195.709Z" fill="#EDFFEF"/>
<path d="M1328.41 60.1324C1328.63 60.2709 1328.86 60.4094 1329.08 60.5313C1328.85 60.3928 1328.63 60.2681 1328.41 60.1324Z" fill="#EDFFEF"/>
<path d="M1316.1 204.13C1316.44 201.36 1316.83 198.39 1317.62 195.85C1316.83 198.55 1316.32 201.325 1316.1 204.13V204.13Z" fill="#EDFFEF"/>
<path d="M1324.71 42.6212C1327.24 46.6299 1329.79 50.6551 1332.59 54.5751C1329.95 50.8241 1327.33 46.7462 1324.71 42.6212Z" fill="#EDFFEF"/>
<path d="M1311.2 17.0319C1310.79 16.6477 1310.39 16.2857 1310 15.9459C1310.4 16.3061 1310.8 16.669 1311.2 17.0319Z" fill="#EDFFEF"/>
<path d="M1343.72 134.034C1344.04 134 1344.37 133.964 1344.69 133.922C1344.36 133.953 1344.04 133.992 1343.72 134.034Z" fill="#EDFFEF"/>
<path d="M1335.18 41.8317C1335.51 41.9067 1335.84 41.932 1336.18 41.9069C1335.85 41.8459 1335.51 41.8207 1335.18 41.8317V41.8317Z" fill="#EDFFEF"/>
<path d="M1373.62 61.7779C1373.92 62.6375 1374.41 63.4172 1375.05 64.0551C1374.41 63.4172 1373.92 62.6375 1373.62 61.7779V61.7779Z" fill="#EDFFEF"/>
<path d="M1384.57 53.3146C1384.55 53.0708 1384.52 52.827 1384.48 52.5833C1384.52 52.827 1384.55 53.0708 1384.57 53.3146Z" fill="#EDFFEF"/>
<path d="M1384.7 55.5752L1384.49 56.1016C1384.55 55.927 1384.62 55.7497 1384.7 55.5752Z" fill="#EDFFEF"/>
<path d="M1366.7 93.3789C1366.82 92.1711 1366.86 90.9569 1366.81 89.7442C1366.8 89.9852 1366.79 90.2235 1366.77 90.4673C1366.7 91.3455 1366.79 92.5118 1366.7 93.3789Z" fill="#EDFFEF"/>
<path d="M1373.52 61.4289C1373.55 61.5286 1373.58 61.6311 1373.61 61.7308C1373.59 61.6311 1373.55 61.5286 1373.52 61.4289Z" fill="#EDFFEF"/>
<path d="M1309.67 55.1763C1309.65 55.2372 1309.64 55.2926 1309.62 55.348C1309.89 55.6389 1310.15 55.927 1310.43 56.2179L1310.64 56.1847L1309.67 55.1763Z" fill="#EDFFEF"/>
<path d="M1373.44 61.0715C1373.44 61.1272 1373.47 61.1829 1373.48 61.2358C1373.47 61.1829 1373.45 61.1272 1373.44 61.0715Z" fill="#EDFFEF"/>
<path d="M1322.77 191.368C1323.01 191.422 1323.27 191.46 1323.52 191.481V191.428C1323.29 191.342 1323.05 191.269 1322.8 191.21C1322.79 191.262 1322.78 191.315 1322.77 191.368Z" fill="#EDFFEF"/>
<path d="M1342.32 116.289C1342.6 116.234 1342.86 116.167 1343.13 116.087C1342.7 116.032 1342.28 115.979 1341.85 115.938L1342.32 116.289Z" fill="#EDFFEF"/>
<path d="M1347.43 0.39892C1347.45 1.64833 1354.05 2.30212 1355.17 2.42402C1355.48 1.88499 1355.87 1.39865 1356.33 0.983456C1356.33 0.969638 1356.33 0.955719 1356.33 0.941901C1355.51 0.745209 1347.41 -0.678731 1347.43 0.39892Z" fill="#EDFFEF"/>
<path d="M1289.88 132.762C1289.02 133.679 1278.28 146.137 1279.77 147.018C1280.36 147.372 1292.19 132.762 1293.13 131.834C1298.87 126.152 1306.51 120.234 1314.37 117.76C1314.58 117.259 1314.9 116.814 1315.32 116.464C1305.7 119.873 1296.99 125.45 1289.88 132.762V132.762Z" fill="#EDFFEF"/>
<path d="M1315.77 116.292L1316.26 117.123L1316.59 116.993C1317.14 116.802 1338.23 112.231 1338.19 112.724C1338.41 110.156 1317.04 115.782 1315.77 116.292Z" fill="#EDFFEF"/>
<path d="M1410.61 98.346C1408.8 100.038 1407.11 101.849 1405.55 103.768C1404.48 105.064 1410.99 100.241 1412.33 99.0912L1410.68 98.5178C1410.66 98.4458 1410.63 98.3903 1410.61 98.346Z" fill="#EDFFEF"/>
<path d="M1457.52 77.275C1452.11 74.9369 1445.5 75.0172 1439.87 76.48C1427.22 79.7656 1419.71 89.9603 1410.61 98.3322C1410.63 98.3904 1410.66 98.4458 1410.68 98.5012L1412.33 99.0774C1421.3 91.3842 1427.97 80.8626 1440.04 77.469C1444.3 76.275 1449.02 75.9314 1453.35 77.0811C1454.72 77.444 1469.66 87.0099 1469.07 87.4809C1470.48 86.3617 1458.48 77.685 1457.52 77.275ZM1446.69 76.2971L1446.36 76.0201C1446.47 75.9398 1446.58 75.8012 1446.7 75.7874C1447.24 76.1512 1447.24 76.3211 1446.7 76.2971H1446.69Z" fill="#EDFFEF"/>
<path d="M1380.16 132.016C1379.01 132.163 1380.57 129.246 1380.95 128.927C1381.31 129.706 1378.43 112.029 1376.4 113.137C1375.2 113.799 1379.5 124.955 1379.02 127.625C1378.63 128.229 1377.83 129.711 1378.24 130.396C1377.43 132.471 1376.17 134.342 1374.55 135.877C1372.94 137.412 1371 138.573 1368.89 139.277C1368.26 139.615 1363.5 142.569 1362.5 141.494C1362.98 142.749 1363.52 143.987 1364.12 145.173C1373.25 143.303 1379.52 136.466 1384.26 128.387C1383.31 128.916 1381.06 131.911 1380.16 132.016Z" fill="#EDFFEF"/>
<path d="M1474.55 142.918C1474.5 142.877 1474.45 142.847 1474.39 142.829C1474.45 142.854 1474.5 142.884 1474.55 142.918Z" fill="#EDFFEF"/>
<path d="M1472.25 148.073C1472.77 147.879 1473.26 147.696 1473.72 147.519C1473.25 147.696 1472.76 147.881 1472.25 148.073Z" fill="#EDFFEF"/>
<path d="M1448.98 138.022C1445.27 138.576 1441.17 139.574 1437.44 139.685C1441.13 139.585 1446.15 138.826 1451.46 137.64C1450.64 137.771 1449.82 137.899 1448.98 138.022Z" fill="#EDFFEF"/>
<path d="M1444.07 148.658C1441.7 149.034 1439.07 149.708 1436.62 149.785C1438.95 149.713 1441.28 149.464 1443.57 149.043C1443.72 148.896 1443.89 148.767 1444.07 148.658V148.658Z" fill="#EDFFEF"/>
<path d="M1465.69 90.8994C1464.77 90.8994 1463.84 90.9523 1462.92 91.0414C1463.82 91.0331 1464.75 90.9969 1465.69 90.8994Z" fill="#EDFFEF"/>
<path d="M1396.29 124.11C1396.09 124.218 1395.88 124.329 1395.67 124.434C1395.88 124.318 1396.08 124.207 1396.29 124.11Z" fill="#EDFFEF"/>
<path d="M1474.4 142.829C1474.54 142.896 1474.66 142.992 1474.76 143.11C1474.86 143.228 1474.93 143.365 1474.98 143.513C1475.1 143.286 1474.95 143.053 1474.4 142.829Z" fill="#EDFFEF"/>
<path d="M1476.43 134.111L1477.13 133.82L1476.43 134.111Z" fill="#EDFFEF"/>
<path d="M1461.6 84.3366C1436.78 70.0889 1413.86 98.7311 1398.16 114.176C1398.19 114.206 1398.23 114.234 1398.26 114.267C1398.28 114.899 1398.08 115.518 1397.7 116.026C1397.5 115.749 1397.3 115.472 1397.1 115.195C1391.09 121.065 1386.33 125.243 1383.48 125.262C1383.53 125.936 1383.38 126.609 1383.05 127.202L1383.1 127.179C1384.46 126.539 1396.25 117.71 1396.58 117.866C1407.44 106.175 1421.45 93.6614 1436.08 86.6442C1443.46 83.1066 1450.24 81.8405 1457.84 84.8131C1458.62 85.1233 1471.48 92.7251 1469.83 93.9218C1469.34 94.2792 1466.14 91.2125 1465.73 90.8967H1465.69C1464.74 90.9936 1463.82 91.0296 1462.91 91.0379C1456 91.6973 1448.97 94.5091 1442.28 95.5729C1444.87 95.1629 1449.66 91.8829 1453.31 91.2817C1456.64 90.7277 1459.71 91.0656 1462.91 91.0379C1463.84 90.9493 1464.77 90.8994 1465.69 90.8967H1465.73C1462.12 88.0721 1458 85.9612 1453.59 84.6773C1446.42 85.5084 1436.15 88.6666 1430.47 93.2653C1431.21 94.4454 1430.94 95.331 1429.66 95.922C1427.84 95.6311 1428.13 92.5838 1429.83 92.9301C1437.71 87.564 1443.88 85.043 1453.41 84.6191C1438.06 80.3168 1420.26 97.9 1409.92 107.059C1403.58 112.682 1397.4 118.644 1392.56 125.636C1391.36 127.434 1385.53 141.84 1387.25 141.408C1382.66 142.665 1391.83 123.633 1393.25 121.883C1391.3 123.681 1389.06 125.066 1386.95 126.628C1386.7 135.247 1372.41 145.189 1364.88 146.613C1372.99 161.451 1389.86 171.291 1408.95 174.203C1401.35 173.926 1393.45 171.986 1386.51 168.925C1385.9 168.648 1366.98 156.969 1367.97 156.162C1363.29 160.019 1394.11 172.92 1393.36 172.726C1403.62 175.397 1413.86 175.336 1424.34 175.039C1434.56 174.748 1444.68 174.402 1454.29 170.449C1460.8 167.773 1466.71 163.875 1471.34 158.553C1472.32 157.426 1479.05 148.303 1477.47 147.671C1478.15 147.948 1463.25 163.836 1462.6 164.307C1454.62 170.172 1445.49 172.646 1435.77 173.682C1449.38 171.067 1464.14 164.983 1471.67 152.73C1465.11 156.218 1456.28 159.628 1448.67 159.933C1453.54 159.719 1466.48 154.777 1471.68 152.688C1482.95 134.324 1482.4 96.2627 1461.6 84.3366ZM1438.78 173.541L1439.38 173.967C1438.24 174.546 1438.02 173.668 1438.78 173.552V173.541ZM1475.01 143.871C1474.71 147.353 1454.9 150.519 1451.77 150.716C1454.87 150.528 1461.07 146.838 1465.02 146.006C1465.46 145.915 1474.31 144.735 1474.97 143.513C1474.93 143.365 1474.86 143.228 1474.76 143.11C1474.66 142.992 1474.53 142.896 1474.39 142.829C1474.95 143.053 1475.1 143.286 1474.97 143.513C1475.01 143.628 1475.03 143.75 1475.01 143.871ZM1446.35 148.544C1450.38 149.813 1441.96 150.655 1443.57 149.034C1441.28 149.459 1438.96 149.71 1436.63 149.785C1436.45 149.785 1436.27 149.785 1436.07 149.785H1436.63C1439.07 149.708 1441.71 149.034 1444.08 148.658C1443.89 148.767 1443.73 148.896 1443.57 149.043C1444.44 148.89 1445.34 148.716 1446.25 148.527C1446.08 148.476 1445.91 148.435 1445.74 148.403C1446.9 148.25 1448.03 148.073 1449.15 147.874C1457.55 145.86 1466.84 142.593 1472.79 139.662C1473.14 139.485 1473.5 139.311 1473.85 139.128C1473.51 139.305 1473.15 139.482 1472.79 139.662C1465.01 143.571 1457.63 146.372 1449.15 147.874C1448.17 148.109 1447.21 148.328 1446.25 148.527L1446.35 148.544ZM1445.24 155.982C1443.59 155.428 1443.57 155.384 1444.4 154.068C1444.91 154.583 1445.2 155.264 1445.24 155.982V155.982ZM1431.97 106.466C1432.8 106.397 1433.44 106.876 1434 107.552C1434.44 107.815 1434.87 108.092 1435.29 108.383C1435.34 108.997 1435.22 109.612 1434.94 110.164C1445.94 104.956 1457.87 103.283 1468.94 98.7643C1465.6 100.097 1462.58 101.745 1459.13 102.895C1459.1 102.95 1459.05 103.006 1459.02 103.064C1458.61 103.312 1458.15 103.457 1457.67 103.488C1454.64 104.948 1451.27 105.549 1448.07 106.43C1446.68 106.815 1434.37 110.635 1434.35 110.585C1433.64 110.707 1433.43 109.461 1433.38 109.031C1433.59 108.853 1433.76 108.625 1433.87 108.368C1433.98 108.112 1434.03 107.833 1434 107.555C1433.35 107.155 1432.67 106.791 1431.97 106.466V106.466ZM1432.68 152.852L1431.85 154.038C1429.81 151.68 1432.49 152.026 1432.68 152.852V152.852ZM1449.44 112.211C1450.11 112.488 1450.3 113.018 1450.04 113.597C1449.55 114.666 1448.05 112.915 1449.44 112.211V112.211ZM1436.2 115.062L1436.01 115.217C1435.97 115.148 1435.89 115.073 1435.9 115.012C1435.91 114.951 1436.01 114.899 1436.07 114.843C1436.11 114.912 1436.15 114.968 1436.2 115.062V115.062ZM1433.37 113.043C1433.43 112.882 1435.22 111.355 1435.22 112.979C1434.97 113.196 1434.65 113.323 1434.32 113.339C1433.99 113.355 1433.67 113.259 1433.4 113.067L1432.98 113.259L1433.37 113.043ZM1453.49 115.702C1459.44 113.918 1465.66 113.156 1471.4 110.799C1460.02 115.508 1447.5 120.376 1435.04 121.683C1439.96 121.162 1447.94 117.392 1453.49 115.702V115.702ZM1458.1 123.772C1458.89 123.938 1459.1 124.379 1459.12 124.913C1464.1 122.766 1469.24 122.42 1474.1 119.763C1463.28 125.703 1450.64 130.944 1437.96 131.371C1442.07 131.238 1450.22 127.88 1454.76 126.42C1456.03 126.01 1457.26 125.639 1458.49 125.168C1458.12 124.819 1458.12 124.293 1458.1 123.772V123.772ZM1461.09 122.354C1461.33 122.215 1461.58 122.098 1461.84 122.004L1461.88 122.04C1460.94 123.678 1461.28 122.221 1461.09 122.354V122.354ZM1437.44 139.676C1441.17 139.574 1445.27 138.585 1448.98 138.014C1449.82 137.889 1450.64 137.758 1451.46 137.623C1460.38 135.626 1470.13 132.415 1475.78 129.063C1467.78 133.839 1460.38 136.128 1451.46 137.623C1446.15 138.817 1441.13 139.577 1437.44 139.676V139.676ZM1448.21 144.516C1446.68 144.128 1446.5 143.591 1447.69 142.904C1449.27 143.303 1449.44 143.84 1448.21 144.516V144.516ZM1444.84 120.353L1444.86 120.373L1444.84 120.353ZM1436.25 133.393C1436.13 133.426 1435.97 133.521 1435.91 133.485C1435.85 133.449 1435.81 133.288 1435.77 133.18C1436.05 132.975 1436.21 133.05 1436.25 133.393V133.393ZM1451.85 141.496C1457.5 141.627 1470.13 136.709 1476.43 134.111L1477.13 133.82L1476.43 134.111C1468.65 137.366 1460.79 141.693 1451.85 141.496V141.496ZM1478.29 124.841C1477.78 125.082 1477.24 125.34 1476.71 125.562C1469.35 128.858 1460.68 131.878 1452.47 131.404C1457.5 131.709 1470.42 127.637 1475.93 125.864C1476.19 125.78 1476.45 125.681 1476.71 125.573C1477.23 125.336 1477.76 125.092 1478.29 124.841ZM1453.5 122.741C1453.69 122.8 1453.7 122.927 1453.52 123.121C1453.42 123.077 1453.26 123.052 1453.24 122.982C1453.22 122.913 1453.28 122.847 1453.33 122.769C1452.12 122.967 1450.91 123.102 1449.68 123.174C1454.99 122.869 1469.5 117.677 1474.88 115.068C1468.38 118.157 1460.92 121.511 1453.49 122.741H1453.5ZM1473.34 105.169C1473.57 105.042 1473.81 104.937 1474.06 104.853V104.831H1474.08H1474.05C1473.22 106.446 1473.49 105.058 1473.32 105.169H1473.34ZM1471.16 105.513C1471.44 105.473 1471.72 105.418 1471.99 105.347L1474.78 104.405C1473.93 104.709 1472.94 105.108 1471.99 105.347C1466.87 107.07 1461.37 108.843 1455.9 109.738C1455.92 109.763 1455.92 109.794 1455.92 109.823C1455.81 110.674 1453.44 111.366 1453.36 110.358C1453.35 110.258 1453.39 110.159 1453.45 110.081C1452.13 110.231 1450.8 110.314 1449.47 110.33C1451.01 110.275 1452.54 110.071 1454.03 109.721C1454.26 109.644 1454.5 109.592 1454.74 109.566C1460 108.366 1466.48 106.122 1471.14 105.513H1471.16ZM1469.61 95.2987C1461.33 97.177 1453.23 100.601 1445.02 102.551C1450.02 101.388 1455.64 96.3265 1462.11 95.9386C1464.78 95.7779 1466.97 95.8749 1469.61 95.2987ZM1442.54 97.9748H1442.55C1448.38 95.3042 1454.58 94.7474 1460.82 93.8193C1455.05 94.6726 1448.85 97.598 1443.2 99.1993C1442.43 100.828 1440.56 102.579 1438.94 100.942C1435.97 102.327 1433.06 104.299 1430.08 105.577C1431.7 104.881 1436.36 101.288 1438.48 99.8531C1438.57 98.6812 1441.73 97.792 1442.54 97.9776V97.9748ZM1426.19 101.465C1434.58 91.4535 1445.81 89.7221 1457.85 87.8659C1445.19 89.7775 1435.39 95.609 1425.44 103.006C1424.75 102.538 1425 102.025 1426.19 101.465ZM1429.15 109.222C1432.3 110.552 1425.99 113.466 1425.51 113.574C1423.58 113.987 1425.59 107.724 1429.15 109.219V109.222ZM1427.28 133.834C1427.2 134.404 1425.61 134.875 1425.55 134.191C1425.52 133.615 1427.33 133.476 1427.28 133.831V133.834ZM1409.97 110.167L1411.21 110.663L1410.59 111.281C1410.4 111.158 1410.24 110.992 1410.13 110.796C1410.01 110.601 1409.95 110.381 1409.94 110.156L1409.97 110.167ZM1418.1 118.084C1416.29 118.309 1415.4 118.639 1414.98 116.53L1411.07 115.865C1411.42 114.912 1414.03 115.622 1414.65 115.057C1414.34 114.249 1414.22 113.387 1414.28 112.527C1409.64 114.998 1405.39 118.364 1400.96 121.284C1401.21 121.389 1401.3 121.736 1401.08 122.511C1400.4 122.744 1399.78 122.788 1399.33 122.337C1398.32 122.96 1397.31 123.548 1396.27 124.096C1396.07 124.207 1395.86 124.318 1395.66 124.42C1395.86 124.315 1396.07 124.204 1396.27 124.096C1397.29 123.528 1398.27 122.901 1399.21 122.218C1399.14 122.132 1399.08 122.039 1399.03 121.941C1399.49 121.67 1399.97 121.448 1400.48 121.279C1404.76 118.026 1409.19 113.874 1414.49 111.691C1415.6 108.003 1419.06 108.089 1420.74 111.414C1420.97 111.037 1421.23 110.671 1421.47 110.305C1424.13 110.677 1421.94 113.306 1421.35 113.86C1420.44 113.217 1420.15 112.99 1420.23 112.574C1413.47 114.106 1423.08 117.115 1423.04 116.81C1423.19 117.86 1419.06 117.96 1418.81 117.99C1418.9 118.229 1418.99 118.464 1419.08 118.702L1418.81 117.99L1418.46 118.032C1410.97 124.85 1399.85 125.996 1391.61 129.484C1400 125.96 1410.52 122.933 1418.11 118.084H1418.1ZM1406.09 122.636C1406.08 122.099 1406.26 121.576 1406.61 121.165C1406.26 121.576 1406.08 122.099 1406.09 122.636C1406.09 122.722 1406.09 122.808 1406.09 122.897C1405.46 123.325 1404.75 123.608 1404 123.728C1404.75 123.608 1405.46 123.325 1406.09 122.897C1406.1 122.808 1406.1 122.725 1406.1 122.636H1406.09ZM1410.77 116.854C1410.77 116.81 1411.12 116.771 1411.15 116.769C1411.42 117.291 1411.31 117.546 1410.82 117.533C1410.79 117.308 1410.77 117.082 1410.78 116.854H1410.77ZM1413.76 117.184C1413.8 117.108 1413.86 117.041 1413.92 116.988C1413.99 116.935 1414.07 116.897 1414.16 116.877C1414.87 117.553 1413.63 117.738 1413.76 117.184ZM1420.45 118.683C1420.17 118.534 1419.84 118.488 1419.52 118.553C1419.84 118.483 1420.17 118.524 1420.45 118.669V118.683ZM1411.89 128.933L1410.62 128.725C1410.38 126.819 1411.78 128.265 1411.89 128.911V128.933ZM1405.59 126.977C1405.57 126.976 1405.54 126.976 1405.52 126.977C1405.22 127.443 1401.46 130.833 1401.81 128.069C1401.91 127.26 1405.05 126.961 1405.52 126.977C1405.53 126.963 1405.54 126.948 1405.55 126.933L1405.59 126.977ZM1424.36 126.506C1412.9 130.21 1401.2 132.144 1390.14 134.554C1401.47 132.061 1413.39 130.016 1424.36 126.484V126.506ZM1423.4 136.105C1423.34 137.083 1421.82 136.019 1422.92 135.463C1423.06 135.497 1423.18 135.577 1423.27 135.689C1423.36 135.802 1423.4 135.941 1423.4 136.083V136.105ZM1389.81 143.366L1389.85 143.28C1389.75 143.508 1389.72 143.756 1389.75 144.001C1389.71 143.898 1389.69 143.786 1389.7 143.676C1389.71 143.565 1389.75 143.459 1389.81 143.366ZM1413.86 167.648C1412.65 167.205 1412.17 166.276 1412.39 164.861C1412.45 164.584 1413.16 160.67 1413.65 159.717C1411.55 159.625 1409.44 159.218 1407.35 158.983C1412.04 157.52 1399.33 161.545 1403.41 158.459C1395.27 157.658 1386.8 153.472 1379.49 150.018C1379.16 150.4 1379.34 151.01 1379.95 152.14C1379.76 153.162 1379.2 154.123 1379.02 155.146C1388.92 163.457 1403.63 170.795 1416.74 170.961C1401.37 170.684 1390.82 166.1 1379.02 156.342C1379.02 156.376 1379.02 156.403 1379.04 156.437C1378.73 156.42 1378.42 156.42 1378.11 156.437C1377.79 155.228 1377.02 154.189 1375.95 153.531C1375.07 152.757 1374.27 151.905 1373.54 150.987C1373.4 150.805 1375.42 152.134 1375.82 152.531C1376.1 148.652 1373.92 147.267 1369.63 147.849V146.971C1371.47 147.266 1373.33 147.373 1375.19 147.289L1374.08 145.849C1373.89 145.491 1375.9 147.076 1376.15 147.27C1378.32 147.228 1380.5 147.394 1382.67 147.458L1383.74 148.104C1383.7 148.658 1383.67 149.212 1383.63 149.766L1382.8 149.877C1382.48 149.664 1382.12 149.521 1381.74 149.458C1381.36 149.395 1380.97 149.413 1380.6 149.511C1386.32 152.148 1392.4 154.292 1398.61 155.536C1399.55 154.628 1400.71 154.337 1402.06 154.664C1401.87 155.148 1401.64 155.62 1401.38 156.077C1403.61 156.561 1405.56 157.428 1407.82 157.298C1408.57 157.24 1409 157.489 1409.09 158.052C1410.66 158.426 1412.4 159.057 1414.01 159.16C1414.98 158.127 1417.35 158.717 1418.4 159.29C1417.03 159.332 1419.99 159.251 1420.57 159.271C1419.89 159.264 1419.21 159.302 1418.54 159.384C1419.16 159.869 1414.01 167.673 1413.86 167.648ZM1407.16 152.614C1407.24 152.668 1407.3 152.74 1407.35 152.824C1406.42 154.323 1404.94 151.771 1407.16 152.614ZM1406.57 151.988L1406.94 151.965L1406.79 152.256L1406.57 151.988ZM1416.01 154.716C1415.07 154.888 1414.44 154.439 1414.12 153.395C1414 151.442 1417.71 153.855 1416.03 154.716H1416.01ZM1419.02 148.489L1419.3 148.724C1419.3 149.278 1419.3 149.841 1419.32 150.414C1416.2 150.528 1414.08 153.074 1412.76 149.583C1412.87 149.297 1413.03 149.035 1413.24 148.813C1407.37 149.114 1401.48 148.624 1395.74 147.356C1394.65 147.854 1393.57 148.384 1392.51 148.946V146.729C1388.56 145.674 1384.18 145.106 1380.43 143.455C1382.6 144.411 1389.78 145.535 1392.82 145.765L1393.12 144.901C1393.53 144.973 1396.18 145.159 1396.3 146.3C1398.3 146.682 1400.45 146.652 1402.48 146.874C1402.96 145.995 1404.73 146.278 1404.1 146.962C1407.87 146.998 1411.55 147.516 1415.29 147.674C1415.72 147.528 1416.12 147.342 1416.51 147.12C1417.15 147.269 1417.75 147.552 1418.28 147.951C1420.55 148.045 1422.88 147.289 1425.11 147.007C1423.02 147.236 1421.12 148.228 1419.02 148.489ZM1408.17 144.887C1408.24 143.873 1411.25 143.397 1411.7 144.297C1412.15 145.198 1408.12 145.693 1408.17 144.887ZM1425.67 142.798C1425.45 142.773 1425.41 142.679 1425.56 142.521C1425.77 142.538 1425.8 142.632 1425.66 142.79L1425.67 142.798ZM1412.44 141.075C1412.17 141.779 1410.88 142.023 1410.81 141.153C1404.89 141.519 1397.56 141.962 1391.53 141.153C1391.21 141.111 1390.89 141.067 1390.58 141.014C1390.89 141.067 1391.21 141.111 1391.53 141.153C1401.55 142.424 1418.29 139.477 1428.38 137.551C1423.04 138.585 1417.99 140.71 1412.43 141.067L1412.44 141.075ZM1430.88 111.33C1430.64 111.585 1430.34 111.773 1430 111.879C1429.66 111.984 1429.31 112.002 1428.96 111.932C1429.56 111.63 1430.21 111.424 1430.87 111.322L1430.88 111.33ZM1429.85 119.999C1429.66 122.462 1429.39 117.686 1429.85 119.999V119.999ZM1435.01 169.172C1435.64 168.777 1435.97 168.937 1436.01 169.654C1435.2 169.859 1435.32 170.05 1435 169.163L1435.01 169.172ZM1448.89 163.659C1454.97 161.72 1462.8 160.836 1467.44 156.32C1458.93 164.811 1440.82 168.917 1428.97 169.393C1434.34 169.169 1443.04 165.446 1448.9 163.651L1448.89 163.659ZM1430.46 159.678C1440.45 161.509 1461.34 152.198 1472.25 148.081C1472.74 147.897 1473.23 147.712 1473.71 147.527C1473.25 147.696 1472.76 147.879 1472.25 148.081C1459.93 152.799 1443.91 162.312 1430.46 159.67L1430.46 159.678Z" fill="#EDFFEF"/>
<path d="M1445.74 148.394C1445.92 148.426 1446.09 148.468 1446.26 148.519C1447.21 148.32 1448.18 148.101 1449.16 147.865C1448.04 148.065 1446.9 148.242 1445.74 148.394Z" fill="#EDFFEF"/>
<path d="M1391.53 141.145C1391.2 141.103 1390.88 141.059 1390.57 141.006C1390.88 141.059 1391.2 141.103 1391.53 141.145Z" fill="#EDFFEF"/>
<path d="M1406.11 122.897C1406.11 122.808 1406.11 122.722 1406.11 122.636C1406.1 122.725 1406.1 122.808 1406.11 122.897Z" fill="#EDFFEF"/>
<path d="M1476.69 125.562C1477.23 125.34 1477.76 125.082 1478.27 124.841C1477.75 125.083 1477.23 125.323 1476.69 125.562Z" fill="#EDFFEF"/>
<path d="M1471.98 105.347C1472.93 105.108 1473.92 104.709 1474.77 104.405L1471.98 105.347Z" fill="#EDFFEF"/>
<path d="M1434 107.552C1433.45 106.876 1432.8 106.397 1431.97 106.466C1432.67 106.792 1433.35 107.157 1434 107.557V107.552Z" fill="#EDFFEF"/>
<path d="M1472.79 139.654C1473.16 139.474 1473.52 139.297 1473.86 139.119C1473.5 139.302 1473.15 139.477 1472.79 139.654Z" fill="#EDFFEF"/>
<path d="M1400.49 121.287C1400.07 121.608 1399.65 121.919 1399.23 122.218C1399.26 122.259 1399.3 122.299 1399.34 122.337C1399.89 121.993 1400.44 121.642 1400.97 121.284C1400.82 121.235 1400.65 121.236 1400.49 121.287Z" fill="#EDFFEF"/>
<path d="M1453.31 122.769L1453.49 122.742C1453.44 122.725 1453.39 122.715 1453.34 122.711C1453.33 122.732 1453.32 122.751 1453.31 122.769V122.769Z" fill="#EDFFEF"/>
<path d="M1454.73 109.56C1454.49 109.616 1454.26 109.666 1454.02 109.715C1453.8 109.778 1453.6 109.903 1453.44 110.076C1454.26 109.985 1455.07 109.872 1455.89 109.738C1455.79 109.555 1455.27 109.497 1454.73 109.56Z" fill="#EDFFEF"/>
<path d="M1371.06 110.743C1371.49 110.466 1373.2 127.016 1372.89 127.808C1371.65 131.221 1368.67 133.748 1365.56 135.344C1364.96 135.651 1353.16 137.837 1353.21 137.61C1352.59 140.629 1368.98 134.648 1370.88 132.623C1374.7 128.592 1375.95 123.797 1374.8 118.345C1374.6 117.4 1372.12 110.076 1371.06 110.743Z" fill="#EDFFEF"/>
</g>
<defs>
<clipPath id="clip0_2814_76">
<rect width="209" height="236" fill="white" transform="translate(1270)"/>
</clipPath>
</defs>
</svg>
