<svg width="22" height="29" viewBox="0 0 22 29" fill="none" xmlns="http://www.w3.org/2000/svg">
<g clip-path="url(#clip0_173_1326)">
<path d="M16.0912 7.15585C14.5915 5.32885 13.0405 3.44235 11.7902 1.41585C11.6252 1.14985 11.3245 0.985352 11 0.985352C10.6755 0.985352 10.3748 1.14985 10.2117 1.41585C8.96133 3.4406 7.41033 5.32885 5.91067 7.1541C2.871 10.8536 0 14.3484 0 18.4854C0 24.2761 4.9335 28.9854 11 28.9854C17.0665 28.9854 22 24.2761 22 18.4854C22 14.3501 19.1308 10.8554 16.0912 7.15585ZM11 27.2354C5.9455 27.2354 1.83333 23.3101 1.83333 18.4854C1.83333 14.9521 4.51367 11.6901 7.3535 8.23385C8.59283 6.72535 9.86517 5.1766 11 3.5176C12.1348 5.1766 13.4072 6.7271 14.6465 8.2356C17.4863 11.6901 20.1667 14.9539 20.1667 18.4854C20.1667 23.3101 16.0545 27.2354 11 27.2354Z" fill="#78C081"/>
<path d="M8.25 11.4854C6.73383 11.4854 5.5 12.6631 5.5 14.1104C5.5 15.5576 6.73383 16.7354 8.25 16.7354C9.76617 16.7354 11 15.5576 11 14.1104C11 12.6631 9.76617 11.4854 8.25 11.4854ZM8.25 14.9854C7.744 14.9854 7.33333 14.5934 7.33333 14.1104C7.33333 13.6274 7.744 13.2354 8.25 13.2354C8.756 13.2354 9.16667 13.6274 9.16667 14.1104C9.16667 14.5934 8.756 14.9854 8.25 14.9854Z" fill="#78C081"/>
<path d="M13.75 20.2354C12.2338 20.2354 11 21.4131 11 22.8604C11 24.3076 12.2338 25.4854 13.75 25.4854C15.2662 25.4854 16.5 24.3076 16.5 22.8604C16.5 21.4131 15.2662 20.2354 13.75 20.2354ZM13.75 23.7354C13.2458 23.7354 12.8333 23.3416 12.8333 22.8604C12.8333 22.3791 13.2458 21.9854 13.75 21.9854C14.2542 21.9854 14.6667 22.3791 14.6667 22.8604C14.6667 23.3416 14.2542 23.7354 13.75 23.7354Z" fill="#78C081"/>
<path d="M16.2305 13.4928C15.873 13.1515 15.2918 13.1515 14.9343 13.4928L5.76764 22.2428C5.41014 22.584 5.41014 23.1388 5.76764 23.48C5.9473 23.6498 6.18197 23.7355 6.41664 23.7355C6.6513 23.7355 6.88597 23.6498 7.0638 23.48L16.2305 14.73C16.588 14.3888 16.588 13.834 16.2305 13.4928Z" fill="#78C081"/>
</g>
<defs>
<clipPath id="clip0_173_1326">
<rect width="22" height="28" fill="white" transform="translate(0 0.985352)"/>
</clipPath>
</defs>
</svg>
