<svg width="32" height="23" viewBox="0 0 32 23" fill="none" xmlns="http://www.w3.org/2000/svg">
<path d="M0.436201 12.5304C2.3292 14.1192 4.4747 15.92 8.62477 15.92C12.775 15.9199 14.9206 14.1192 16.8136 12.5304C18.6039 11.028 20.15 9.73036 23.3749 9.73036C26.5998 9.73036 28.146 11.028 29.9361 12.5304C30.4602 12.9702 31.2493 12.9111 31.6988 12.3984C32.1482 11.8856 32.0878 11.1135 31.5638 10.6737C29.6707 9.085 27.5251 7.28418 23.3749 7.28418C19.2247 7.28418 17.0791 9.08494 15.186 10.6737C13.3958 12.1762 11.8496 13.4738 8.62477 13.4738C5.39995 13.4738 3.85401 12.1762 2.06389 10.6737C1.53989 10.234 0.750764 10.293 0.301264 10.8058C-0.148236 11.3185 -0.0877986 12.0907 0.436201 12.5304Z" fill="#78C081"/>
<path d="M0.436201 5.84001C2.32914 7.42881 4.47464 9.22957 8.62477 9.22957C12.775 9.22957 14.9206 7.42881 16.8136 5.84001C18.6039 4.33757 20.15 3.03993 23.3749 3.03993C26.5997 3.03993 28.1458 4.33751 29.9361 5.84001C30.4602 6.2799 31.2493 6.22064 31.6987 5.70786C32.1482 5.19514 32.0876 4.42288 31.5636 3.98318C29.6706 2.39438 27.525 0.59375 23.3749 0.59375C19.2247 0.59375 17.0791 2.39451 15.186 3.9833C13.3958 5.48575 11.8496 6.78338 8.62477 6.78338C5.40001 6.78338 3.85401 5.48581 2.06389 3.9833C1.53989 3.54348 0.750701 3.60255 0.301264 4.11533C-0.148236 4.62805 -0.0877986 5.40025 0.436201 5.84001Z" fill="#78C081"/>
<path d="M31.5637 17.3629C29.6707 15.7742 27.525 13.9734 23.3748 13.9734C19.2247 13.9734 17.079 15.7741 15.186 17.3629C13.3957 18.8654 11.8496 20.163 8.62471 20.163C5.40009 20.163 3.85403 18.8654 2.0639 17.3631L2.06377 17.3629C1.53977 16.9233 0.750712 16.9824 0.301212 17.495C-0.148226 18.0078 -0.0877882 18.78 0.436212 19.2197C2.32921 20.8085 4.47478 22.6092 8.62471 22.6092C12.7749 22.6092 14.9205 20.8084 16.8136 19.2197C18.6038 17.7172 20.15 16.4196 23.3748 16.4196C26.5998 16.4196 28.1459 17.7172 29.9361 19.2197C30.4602 19.6594 31.2493 19.6003 31.6987 19.0876C32.1482 18.5748 32.0878 17.8027 31.5637 17.3629Z" fill="#78C081"/>
</svg>
