<svg width="28" height="25" viewBox="0 0 28 25" fill="none" xmlns="http://www.w3.org/2000/svg">
<g clip-path="url(#clip0_173_1339)">
<path fill-rule="evenodd" clip-rule="evenodd" d="M8.58132 4.30601C9.5537 2.34179 11.6136 0.985352 14 0.985352C16.3863 0.985352 18.4461 2.34176 19.4185 4.30584C19.6691 4.28217 19.9231 4.27007 20.1797 4.27007C24.4987 4.27007 28 7.68846 28 11.9052C28 16.122 24.4987 19.5404 20.1797 19.5404H18.3499C18.7197 20.9835 18.3267 22.5746 17.1709 23.703C15.4197 25.4128 12.5803 25.4128 10.8291 23.703C9.67327 22.5746 9.28027 20.9835 9.65008 19.5404H7.82031C3.50124 19.5404 0 16.122 0 11.9052C0 7.68847 3.50124 4.27007 7.82031 4.27007C8.07703 4.27007 8.33088 4.28227 8.58132 4.30601ZM11.5659 19.1703C11.5714 19.1619 11.5768 19.1533 11.5821 19.1446C11.6952 18.9666 11.8309 18.7985 11.9892 18.644C12.898 17.7566 14.2691 17.5955 15.3458 18.1605L11.494 21.9211C11.0208 21.0617 11.0448 20.0103 11.5659 19.1703ZM12.6541 23.0538C13.7308 23.6189 15.1019 23.4578 16.0108 22.5704C16.9197 21.683 17.0847 20.3444 16.5059 19.2932L12.6541 23.0538ZM17.5557 17.9386C17.4385 17.7901 17.3102 17.6474 17.1709 17.5113C15.4197 15.8015 12.5803 15.8015 10.8291 17.5113C10.6897 17.6474 10.5614 17.7901 10.4443 17.9386H7.82031C4.40734 17.9386 1.64062 15.2373 1.64062 11.9052C1.64062 8.5731 4.40734 5.87185 7.82031 5.87185C8.20508 5.87185 8.58127 5.90643 8.94637 5.97199C9.34404 6.04339 9.73569 5.82124 9.86912 5.44859C10.4661 3.78125 12.0912 2.58713 14 2.58713C15.9086 2.58713 17.5337 3.78115 18.1307 5.44833C18.2642 5.82095 18.6558 6.04307 19.0535 5.97167C19.4181 5.90619 19.7944 5.87185 20.1797 5.87185C23.5926 5.87185 26.3594 8.5731 26.3594 11.9052C26.3594 15.2373 23.5926 17.9386 20.1797 17.9386H17.5557ZM14 9.50421C13.5507 9.50421 13.1797 9.86644 13.1797 10.3051V12.4408C13.1797 12.8794 13.5506 13.2416 14 13.2416C14.4493 13.2416 14.8203 12.8794 14.8203 12.4408V10.3051C14.8203 9.86644 14.4493 9.50421 14 9.50421ZM11.539 10.3051C11.539 8.98181 12.6446 7.90244 14 7.90244C15.3554 7.90244 16.4609 8.98181 16.4609 10.3051V12.4408C16.4609 13.7641 15.3553 14.8434 14 14.8434C12.6446 14.8434 11.539 13.7641 11.539 12.4408V10.3051ZM5.63279 10.3051C5.63279 8.98058 6.73708 7.90244 8.09373 7.90244H9.73435C10.1874 7.90244 10.5547 8.26101 10.5547 8.70333C10.5547 9.14565 10.1874 9.50422 9.73435 9.50422H8.09373C7.64317 9.50422 7.27341 9.86522 7.27341 10.3051V12.4406C7.27341 12.8806 7.64315 13.2415 8.09373 13.2415H9.67967C10.1327 13.2415 10.5 13.6001 10.5 14.0424C10.5 14.4847 10.1327 14.8433 9.67967 14.8433H8.09373C6.7371 14.8433 5.63279 13.7652 5.63279 12.4406V10.3051ZM19.6313 12.0458C19.4905 12.0062 19.2332 11.9859 18.8334 12.0905C18.3958 12.2049 17.946 11.9514 17.8287 11.5241C17.7115 11.0969 17.9712 10.6577 18.4088 10.5432C19.608 10.2296 20.7361 10.4826 21.2403 11.3724C21.65 12.0955 21.4565 12.9217 20.9004 13.5059H21.6289C22.0819 13.5059 22.4492 13.8645 22.4492 14.3068C22.4492 14.7492 22.0819 15.1077 21.6289 15.1077H18.3476C17.9878 15.1077 17.67 14.8788 17.5639 14.5432C17.4577 14.2075 17.5879 13.8435 17.8851 13.6454L19.5746 12.5191L19.5746 12.519C19.7294 12.4159 19.7873 12.3124 19.8061 12.2526C19.8248 12.1935 19.8128 12.1619 19.8047 12.1478C19.7985 12.1368 19.7651 12.0834 19.6313 12.0458Z" fill="#78C081"/>
</g>
<defs>
<clipPath id="clip0_173_1339">
<rect width="28" height="24" fill="white" transform="translate(0 0.985352)"/>
</clipPath>
</defs>
</svg>
