<svg width="28" height="29" viewBox="0 0 28 29" fill="none" xmlns="http://www.w3.org/2000/svg">
<path d="M13.9996 0.985352C11.2307 0.985404 8.52402 1.80653 6.22178 3.34491C3.91955 4.88328 2.12519 7.0698 1.06561 9.62797C0.00603032 12.1861 -0.271176 15.0011 0.269043 17.7168C0.809262 20.4325 2.14264 22.927 4.10057 24.8849C6.0585 26.8428 8.55305 28.1762 11.2688 28.7164C13.9845 29.2565 16.7994 28.9793 19.3575 27.9196C21.9156 26.86 24.1021 25.0656 25.6404 22.7633C27.1787 20.461 27.9998 17.7543 27.9998 14.9853C27.9956 11.2736 26.5192 7.71504 23.8945 5.09044C21.2699 2.46584 17.7114 0.989514 13.9996 0.985352ZM13.9996 28.0528C11.4152 28.0527 8.88889 27.2863 6.74006 25.8505C4.59123 24.4146 2.91644 22.3738 1.92745 19.9861C0.938473 17.5984 0.679724 14.971 1.18393 12.4363C1.68813 9.90152 2.93264 7.5732 4.76009 5.74574C6.58753 3.91828 8.91584 2.67376 11.4506 2.16955C13.9853 1.66534 16.6126 1.92409 19.0003 2.91308C21.388 3.90207 23.4288 5.57688 24.8647 7.72572C26.3005 9.87457 27.0669 12.4009 27.067 14.9853C27.063 18.4498 25.685 21.7712 23.2352 24.221C20.7855 26.6707 17.4641 28.0489 13.9996 28.0528Z" fill="#78C081"/>
<path d="M13.9996 28.0528C11.4152 28.0527 8.88889 27.2863 6.74006 25.8505C4.59123 24.4146 2.91644 22.3738 1.92745 19.9861C0.938473 17.5984 0.679724 14.971 1.18393 12.4363C1.68813 9.90152 2.93264 7.5732 4.76009 5.74574C6.58753 3.91828 8.91584 2.67376 11.4506 2.16955C13.9853 1.66534 16.6126 1.92409 19.0003 2.91308C21.388 3.90207 23.4288 5.57688 24.8647 7.72572C26.3005 9.87457 27.0669 12.4009 27.067 14.9853C27.063 18.4498 25.685 21.7712 23.2352 24.221C20.7855 26.6707 17.4641 28.0489 13.9996 28.0528Z" fill="#78C081"/>
<path d="M5.15458 20.8138C3.57366 18.7704 2.81557 16.2566 3.01769 13.7279C3.2198 11.1992 4.36875 8.82291 6.25633 7.02969C8.14391 5.23646 10.6452 4.14492 13.307 3.95287C15.9688 3.76081 18.615 4.48095 20.766 5.98278L5.15458 20.8138Z" fill="white"/>
<path fill-rule="evenodd" clip-rule="evenodd" d="M21.9993 5.91314C21.9958 5.84787 21.9779 5.78404 21.9468 5.72576C21.9157 5.66747 21.8721 5.61604 21.8187 5.57479C19.4859 3.77152 16.5319 2.85427 13.5284 3.00049C10.5248 3.14671 7.685 4.34601 5.55843 6.36639C3.43186 8.38676 2.16961 11.0846 2.01589 13.938C1.86217 16.7914 2.8279 19.5976 4.72624 21.8137C4.76963 21.8644 4.82375 21.9059 4.8851 21.9355C4.94646 21.9651 5.01367 21.9821 5.08239 21.9855H5.10739C5.17193 21.9855 5.23583 21.9734 5.29545 21.9499C5.35507 21.9264 5.40923 21.892 5.45483 21.8486L21.8558 6.26802C21.9046 6.22175 21.9426 6.16624 21.9673 6.10509C21.992 6.04395 22.0029 5.97855 21.9993 5.91314ZM3.01769 13.7279C2.81557 16.2566 3.57366 18.7704 5.15458 20.8138L20.766 5.98278C18.615 4.48095 15.9688 3.76081 13.307 3.95287C10.6452 4.14492 8.14391 5.23646 6.25633 7.02969C4.36875 8.82291 3.2198 11.1992 3.01769 13.7279Z" fill="white"/>
<path d="M13.7449 26.0435C11.4181 26.0509 9.14731 25.3657 7.25149 24.0842L22.9446 9.17542C24.2939 10.9759 25.0156 13.1327 25.0085 15.3429C25.0051 18.1799 23.8173 20.8998 21.7057 22.9059C19.5941 24.9119 16.7311 26.0403 13.7449 26.0435Z" fill="white"/>
<path fill-rule="evenodd" clip-rule="evenodd" d="M23.3905 8.16544C23.3472 8.11304 23.2927 8.06995 23.2306 8.03901C23.1685 8.00807 23.1001 7.98998 23.0301 7.98595C22.9602 7.98264 22.8904 7.99313 22.8249 8.01675C22.7595 8.04038 22.7 8.07662 22.65 8.12319L6.14532 23.8029C6.09571 23.85 6.05718 23.9065 6.03229 23.9688C6.00739 24.0311 5.99669 24.0977 6.00089 24.1642C6.0051 24.2307 6.02411 24.2956 6.05667 24.3545C6.08924 24.4135 6.13461 24.4653 6.1898 24.5064C8.34103 26.1199 11.004 26.9937 13.7449 26.9854C16.994 26.9819 20.109 25.7542 22.4065 23.5716C24.7039 21.3889 25.9963 18.4296 25.9999 15.3429C26.0085 12.7391 25.0888 10.2092 23.3905 8.16544ZM7.25149 24.0842C9.14731 25.3657 11.4181 26.0509 13.7449 26.0435C16.7311 26.0403 19.5941 24.9119 21.7057 22.9059C23.8173 20.8998 25.0051 18.1799 25.0085 15.3429C25.0156 13.1327 24.2939 10.9759 22.9446 9.17542L7.25149 24.0842Z" fill="white"/>
<path d="M12 9.19591C12 9.43533 12.071 9.66938 12.204 9.86845C12.337 10.0675 12.5261 10.2227 12.7473 10.3143C12.9685 10.4059 13.2119 10.4299 13.4467 10.3832C13.6815 10.3365 13.8972 10.2212 14.0665 10.0519C14.2358 9.8826 14.3511 9.6669 14.3978 9.43207C14.4445 9.19725 14.4206 8.95385 14.3289 8.73265C14.2373 8.51145 14.0822 8.32238 13.8831 8.18937C13.684 8.05635 13.45 7.98535 13.2105 7.98535C12.8896 7.9857 12.5819 8.11336 12.355 8.3403C12.128 8.56725 12.0004 8.87495 12 9.19591ZM13.488 9.19591C13.488 9.25083 13.4717 9.30453 13.4412 9.3502C13.4107 9.39587 13.3673 9.43146 13.3166 9.45248C13.2658 9.4735 13.21 9.479 13.1561 9.46829C13.1022 9.45757 13.0527 9.43112 13.0139 9.39228C12.9751 9.35344 12.9486 9.30396 12.9379 9.25009C12.9272 9.19621 12.9327 9.14037 12.9537 9.08963C12.9747 9.03888 13.0103 8.99551 13.056 8.96499C13.1017 8.93448 13.1554 8.91819 13.2103 8.91819C13.2839 8.91826 13.3545 8.94754 13.4066 8.99961C13.4586 9.05167 13.4879 9.12227 13.488 9.19591Z" fill="#78C081"/>
<path d="M22.2105 13.9854C21.9711 13.9854 21.7371 14.0563 21.538 14.1894C21.3389 14.3224 21.1838 14.5114 21.0921 14.7326C21.0005 14.9538 20.9766 15.1972 21.0233 15.4321C21.07 15.6669 21.1853 15.8826 21.3546 16.0519C21.5239 16.2212 21.7396 16.3365 21.9744 16.3832C22.2092 16.4299 22.4526 16.4059 22.6738 16.3143C22.895 16.2227 23.0841 16.0675 23.2171 15.8685C23.3501 15.6694 23.4211 15.4353 23.4211 15.1959C23.4208 14.8749 23.2932 14.5672 23.0662 14.3402C22.8393 14.1133 22.5315 13.9856 22.2105 13.9854ZM22.2105 15.4734C22.1556 15.4734 22.1019 15.4571 22.0562 15.4265C22.0106 15.396 21.975 15.3526 21.9539 15.3019C21.9329 15.2511 21.9274 15.1952 21.9382 15.1414C21.9489 15.0875 21.9754 15.038 22.0143 14.9992C22.0531 14.9603 22.1026 14.9339 22.1565 14.9232C22.2104 14.9125 22.2663 14.9181 22.317 14.9391C22.3677 14.9602 22.4111 14.9958 22.4416 15.0415C22.4721 15.0872 22.4883 15.141 22.4883 15.1959C22.4882 15.2695 22.4589 15.3401 22.4068 15.3921C22.3548 15.4441 22.2842 15.4734 22.2105 15.4734Z" fill="#78C081"/>
<path d="M6.5 9.98535C6.00555 9.98535 5.5222 10.132 5.11108 10.4067C4.69995 10.6814 4.37952 11.0718 4.1903 11.5287C4.00108 11.9855 3.95157 12.4881 4.04804 12.9731C4.1445 13.4581 4.3826 13.9035 4.73223 14.2531C5.08187 14.6028 5.52732 14.8409 6.01227 14.9374C6.49723 15.0338 6.99989 14.9843 7.45671 14.7951C7.91352 14.6059 8.30397 14.2854 8.57867 13.8743C8.85338 13.4632 9 12.9798 9 12.4854C8.99927 11.8225 8.73565 11.1871 8.26696 10.7184C7.79828 10.2497 7.16282 9.98608 6.5 9.98535ZM6.5 13.6128C6.27701 13.6128 6.05903 13.5467 5.87362 13.4228C5.68821 13.2989 5.54371 13.1228 5.45837 12.9168C5.37304 12.7108 5.35071 12.4841 5.39421 12.2654C5.43772 12.0467 5.5451 11.8458 5.70277 11.6881C5.86045 11.5305 6.06134 11.4231 6.28005 11.3796C6.49875 11.3361 6.72544 11.3584 6.93146 11.4437C7.13747 11.5291 7.31356 11.6736 7.43744 11.859C7.56133 12.0444 7.62745 12.2624 7.62745 12.4854C7.62714 12.7843 7.50826 13.0709 7.29688 13.2823C7.08551 13.4936 6.79892 13.6125 6.5 13.6128Z" fill="#78C081"/>
<path d="M20.6396 21.0596L20.3982 20.9756C20.5555 20.4656 20.531 19.9181 20.329 19.4234C20.127 18.9288 19.7594 18.5166 19.2868 18.2548L19.3927 17.7495C19.4216 17.6117 19.3937 17.4682 19.3149 17.3506C19.2361 17.233 19.113 17.151 18.9727 17.1225C18.8323 17.0941 18.6863 17.1216 18.5666 17.199C18.4469 17.2764 18.3633 17.3973 18.3344 17.5351L18.2906 17.7447C18.0678 17.443 17.7569 17.2149 17.3992 17.0906C17.0415 16.9663 16.6538 16.9517 16.2874 17.0487C15.921 17.1457 15.5933 17.3498 15.3476 17.6338C15.1019 17.9178 14.9499 18.2685 14.9116 18.6393C14.8539 18.6608 14.8011 18.6909 14.7455 18.7163L14.4136 18.3333C14.3202 18.2272 14.1878 18.1618 14.0453 18.1514C13.9029 18.1409 13.7621 18.1863 13.6536 18.2776C13.5452 18.3688 13.4779 18.4986 13.4666 18.6384C13.4552 18.7783 13.5007 18.9168 13.5931 19.0238L13.8866 19.3608C13.5817 19.7096 13.3815 20.1347 13.3082 20.5888C13.2348 21.0429 13.2914 21.508 13.4714 21.9324L13.2161 22.1204C13.1015 22.2049 13.0257 22.3306 13.0054 22.47C12.9852 22.6093 13.0221 22.7508 13.1081 22.8634C13.194 22.976 13.322 23.0505 13.4639 23.0704C13.6057 23.0903 13.7498 23.054 13.8644 22.9696L14.0904 22.8031C14.4275 23.1138 14.8446 23.328 15.2967 23.4226C15.7488 23.5172 16.2186 23.4886 16.6553 23.3399L16.7226 23.5904C16.7592 23.7264 16.8494 23.8427 16.9733 23.9134C17.0971 23.9842 17.2445 24.0038 17.3831 23.9678C17.5216 23.9318 17.6399 23.8432 17.712 23.7215C17.784 23.5998 17.8039 23.455 17.7673 23.3189L17.6129 22.7491C17.6565 22.7066 17.7006 22.6648 17.741 22.6187C17.8627 22.6377 17.9856 22.6472 18.1087 22.6472C18.4342 22.6471 18.7563 22.5815 19.055 22.4544C19.3537 22.3274 19.6228 22.1416 19.8456 21.9085L20.2794 22.0601C20.3462 22.0834 20.4171 22.0934 20.488 22.0898C20.5589 22.0861 20.6283 22.0688 20.6924 22.0388C20.7564 22.0087 20.8138 21.9666 20.8613 21.9148C20.9087 21.863 20.9454 21.8025 20.969 21.7368C20.9927 21.6711 21.003 21.6015 20.9993 21.5318C20.9955 21.4622 20.9779 21.394 20.9473 21.3311C20.9168 21.2682 20.8739 21.2118 20.8211 21.1652C20.7684 21.1186 20.7068 21.0826 20.6399 21.0593L20.6396 21.0596ZM18.1081 21.5864C17.9667 21.586 17.8263 21.5632 17.6923 21.5188C17.5774 21.4807 17.4528 21.4819 17.3386 21.522C17.2244 21.5621 17.1274 21.6389 17.0631 21.7399C16.964 21.8953 16.8359 22.0309 16.6855 22.1396C16.6815 22.1426 16.6766 22.1447 16.6726 22.1477C16.4938 22.2733 16.2886 22.3577 16.0721 22.3948C15.8556 22.4318 15.6334 22.4206 15.422 22.3619C15.2105 22.3032 15.0152 22.1985 14.8505 22.0556C14.6858 21.9127 14.556 21.7353 14.4705 21.5364C14.3851 21.3375 14.3463 21.1223 14.357 20.9067C14.3677 20.6911 14.4277 20.4806 14.5324 20.2909C14.6371 20.1011 14.784 19.9369 14.9621 19.8105C15.1401 19.684 15.3449 19.5985 15.5612 19.5603C15.7004 19.5356 15.8241 19.4582 15.9059 19.3448C15.9877 19.2314 16.021 19.091 15.9986 18.9538C15.9652 18.7568 16.0102 18.5548 16.1242 18.3894C16.2383 18.2241 16.4126 18.1082 16.6113 18.0656C16.8099 18.0231 17.0176 18.0572 17.1913 18.1609C17.3651 18.2645 17.4916 18.4299 17.5447 18.6226C17.5763 18.7343 17.6444 18.8328 17.7383 18.903C17.8323 18.9731 17.9471 19.0111 18.0652 19.0111C18.0748 19.0111 18.0961 19.0111 18.118 19.009C18.466 19.0101 18.7993 19.1469 19.0445 19.3894C19.2898 19.6319 19.427 19.9601 19.4259 20.3019C19.4248 20.6438 19.2855 20.9712 19.0386 21.2121C18.7918 21.453 18.4576 21.5878 18.1097 21.5867L18.1081 21.5864Z" fill="#78C081"/>
</svg>
