<svg width="16" height="29" viewBox="0 0 16 29" fill="none" xmlns="http://www.w3.org/2000/svg">
<path fill-rule="evenodd" clip-rule="evenodd" d="M3.18018 21.9921C3.18018 23.8317 4.62806 25.3271 6.40972 25.3271C8.19137 25.3271 9.63926 23.8317 9.63926 21.9921C9.63926 20.1526 8.19138 18.6571 6.40972 18.6571C4.62805 18.6571 3.18018 20.1526 3.18018 21.9921ZM6.40972 23.6854C5.50654 23.6854 4.77027 22.9252 4.77027 21.9921C4.77027 21.0591 5.50655 20.2989 6.40972 20.2989C7.31288 20.2989 8.04916 21.0591 8.04916 21.9921C8.04916 22.9252 7.31289 23.6854 6.40972 23.6854Z" fill="#78C081"/>
<path fill-rule="evenodd" clip-rule="evenodd" d="M6.40979 20.2988C6.84889 20.2988 7.20484 19.9313 7.20484 19.4779V7.93669C7.20484 7.48333 6.84889 7.1158 6.40979 7.1158C5.9707 7.1158 5.61475 7.48333 5.61475 7.93669V19.4779C5.61475 19.9313 5.9707 20.2988 6.40979 20.2988Z" fill="#78C081"/>
<path fill-rule="evenodd" clip-rule="evenodd" d="M6.40974 26.9695C3.74807 26.9695 1.5901 24.7412 1.5901 21.9921C1.5901 20.2791 2.42736 18.768 3.70583 17.8712C3.92369 17.7184 4.05411 17.4641 4.05411 17.1922V4.66603C4.05411 3.32227 5.10892 2.23323 6.40974 2.23323C7.71056 2.23323 8.76536 3.32227 8.76536 4.66603V17.1922C8.76536 17.4641 8.89579 17.7184 9.11365 17.8712C10.3922 18.768 11.2294 20.2791 11.2294 21.9921C11.2294 24.7412 9.07145 26.9695 6.40974 26.9695ZM0 21.9921C0 25.6477 2.86959 28.6113 6.40974 28.6113C9.94994 28.6113 12.8195 25.6476 12.8195 21.9921C12.8195 19.8724 11.854 17.9859 10.3555 16.7755V4.66603C10.3555 2.41581 8.589 0.591438 6.40974 0.591438C4.23047 0.591438 2.46402 2.41581 2.46402 4.66603V16.7755C0.965488 17.9859 0 19.8724 0 21.9921Z" fill="#78C081"/>
<path fill-rule="evenodd" clip-rule="evenodd" d="M11.9458 14.5185C11.9458 14.9718 12.3018 15.3394 12.7408 15.3394H15.2049C15.644 15.3394 15.9999 14.9718 15.9999 14.5185C15.9999 14.0651 15.644 13.6976 15.2049 13.6976H12.7408C12.3018 13.6976 11.9458 14.0651 11.9458 14.5185Z" fill="#78C081"/>
<path fill-rule="evenodd" clip-rule="evenodd" d="M11.9458 11.2348C11.9458 11.6881 12.3018 12.0557 12.7408 12.0557H15.2049C15.644 12.0557 15.9999 11.6881 15.9999 11.2348C15.9999 10.7814 15.644 10.4139 15.2049 10.4139H12.7408C12.3018 10.4139 11.9458 10.7814 11.9458 11.2348Z" fill="#78C081"/>
<path fill-rule="evenodd" clip-rule="evenodd" d="M11.9458 7.95035C11.9458 8.40371 12.3018 8.77124 12.7408 8.77124H15.2049C15.644 8.77124 15.9999 8.40371 15.9999 7.95035C15.9999 7.49698 15.644 7.12945 15.2049 7.12945H12.7408C12.3018 7.12945 11.9458 7.49698 11.9458 7.95035Z" fill="#78C081"/>
<path fill-rule="evenodd" clip-rule="evenodd" d="M11.9458 4.66592C11.9458 5.11929 12.3018 5.48682 12.7408 5.48682H15.2049C15.644 5.48682 15.9999 5.11929 15.9999 4.66592C15.9999 4.21255 15.644 3.84503 15.2049 3.84503H12.7408C12.3018 3.84503 11.9458 4.21255 11.9458 4.66592Z" fill="#78C081"/>
</svg>
