<svg width="28" height="29" viewBox="0 0 28 29" fill="none" xmlns="http://www.w3.org/2000/svg">
<g clip-path="url(#clip0_173_1316)">
<path d="M27.6163 8.87049L14.3942 1.09262C14.1507 0.949921 13.8493 0.949921 13.6058 1.09262L0.383667 8.87049C0.145833 9.01006 0 9.26527 0 9.54099V28.2077C0 28.6372 0.348348 28.9855 0.777873 28.9855H7.82572C8.23446 28.9852 8.57312 28.6688 8.60103 28.2609C8.70357 26.5029 9.1818 24.7874 10.0033 23.2299C10.8717 23.8136 11.8777 24.1591 12.9213 24.2317C13.0991 24.2454 13.2748 24.2525 13.4486 24.2525C15.0519 24.2696 16.5925 23.6304 17.7128 22.4834C18.5684 21.3392 18.962 19.9151 18.8156 18.4941C18.7943 17.099 18.7729 15.6557 20.773 13.2563C20.9561 13.0361 21.0037 12.7334 20.8966 12.4676C20.7898 12.2022 20.5454 12.0167 20.2609 11.9848C15.4301 11.4434 9.93404 13.8023 8.25867 17.126C7.40218 18.7424 7.63717 20.7206 8.84798 22.0918C7.9106 23.7321 7.19055 25.1058 7 26.9854L2 26.9854V9.98535L14 2.98535L26 9.98535V26.9854L11.6667 26.9854C11.2371 26.9854 10.8293 27.4854 10.8293 27.9854C10.8293 28.4854 11.2371 28.9855 11.6667 28.9855H27.2221C27.6517 28.9855 28 28.6372 28 28.2077V9.54099C28 9.26527 27.8542 9.01006 27.6163 8.87049ZM9.64693 17.8261C10.7538 15.6318 14.5665 13.5021 18.6766 13.4603C17.6313 14.9303 17.1306 16.7184 17.2599 18.5174C17.3952 19.5573 17.1377 20.6104 16.5376 21.4706C15.6067 22.3678 14.3281 22.8104 13.0415 22.6805C12.2509 22.6295 11.4875 22.3703 10.8293 21.9291C11.559 20.9641 12.4981 20.1777 13.5762 19.6288C13.9604 19.4366 14.1162 18.9695 13.924 18.5852C13.732 18.201 13.2646 18.0452 12.8803 18.2374C11.69 18.8453 10.6418 19.6983 9.80473 20.7402C9.20801 19.8761 9.14705 18.7498 9.64693 17.8261Z" fill="#78C081"/>
</g>
<defs>
<clipPath id="clip0_173_1316">
<rect width="28" height="28" fill="white" transform="translate(0 0.985352)"/>
</clipPath>
</defs>
</svg>
