<svg width="11" height="18" viewBox="0 0 11 18" fill="none" xmlns="http://www.w3.org/2000/svg">
<path fill-rule="evenodd" clip-rule="evenodd" d="M9.91177 10.3649C10.0064 10.304 10.0973 10.234 10.1801 10.1511C10.4972 9.83401 10.6498 9.41684 10.6423 9.00147C10.6495 8.58588 10.4966 8.16847 10.1797 7.85159C10.0972 7.76863 10.0063 7.6987 9.91166 7.63784L3.55978 1.2863C2.93984 0.667049 1.9348 0.666709 1.31487 1.28664C0.694936 1.90635 0.694936 2.91128 1.31487 3.53155L6.7849 9.00158L1.28722 14.5001C0.667282 15.1198 0.667282 16.125 1.28722 16.745C1.5973 17.055 2.00326 17.21 2.40944 17.21C2.81563 17.21 3.22182 17.055 3.53167 16.745L9.91177 10.3649Z" fill="#5CCD6A"/>
<path d="M10.1801 10.1511C10.0973 10.234 10.0064 10.304 9.91177 10.3649L3.53167 16.745C3.22182 17.055 2.81563 17.21 2.40944 17.21C2.00326 17.21 1.5973 17.055 1.28722 16.745C0.667282 16.125 0.667282 15.1198 1.28722 14.5001L6.7849 9.00158L1.31487 3.53155C0.694936 2.91128 0.694936 1.90635 1.31487 1.28664C1.9348 0.666709 2.93984 0.667049 3.55978 1.2863L9.91166 7.63784C10.0063 7.6987 10.0972 7.76863 10.1797 7.85159C10.4966 8.16847 10.6495 8.58588 10.6423 9.00147C10.6498 9.41684 10.4972 9.83401 10.1801 10.1511Z" fill="white"/>
</svg>
