<svg width="18" height="18" viewBox="0 0 18 18" fill="none" xmlns="http://www.w3.org/2000/svg">
<g clip-path="url(#clip0_172_922)">
<path d="M11.3077 0.818237C12.6788 0.818237 17.1819 8.28429 17.1819 11.1532C17.1819 14.4827 14.5519 17.1819 11.3077 17.1819C10.5427 17.1819 9.79727 17.0315 9.10271 16.7426C8.88795 16.6533 8.7844 16.4022 8.87143 16.1818C8.95847 15.9613 9.20312 15.8551 9.41788 15.9444C10.0127 16.1918 10.6512 16.3206 11.3077 16.3206C14.0885 16.3206 16.3427 13.9723 16.3427 11.1532C16.2495 8.1515 12.1217 2.14971 11.275 1.68594C10.4042 2.17871 7.71388 6.67481 7.03754 8.32245C6.94446 8.54025 6.69697 8.63937 6.48476 8.54384C6.27255 8.44832 6.17597 8.19432 6.26904 7.97652C7.03754 5.97412 10.1117 0.924312 11.3077 0.818237ZM9.20985 14.1675C9.44157 14.1675 9.62943 14.3603 9.62943 14.5981C9.62943 14.819 9.4653 15.0288 9.20985 15.0288C8.56491 15.0288 8.06717 15.89 7.11306 15.89C6.15896 15.89 5.67418 15.0288 5.01404 15.0288C4.3539 15.0288 3.88189 15.89 2.91614 15.89C2.2451 15.89 1.58717 15.5524 0.944152 14.9057C0.778643 14.7393 0.775951 14.4666 0.938138 14.2967C1.10033 14.1269 1.36598 14.1241 1.53148 14.2906C2.03027 14.7922 2.49125 15.0288 2.91614 15.0288C3.50446 15.0288 4.04244 14.1674 5.01404 14.1675C5.98564 14.1676 6.4809 15.0288 7.11082 15.0288C7.74074 15.0288 8.18069 14.1676 9.20985 14.1675ZM5.60985 11.545C6.62026 11.545 7.10785 12.4063 7.71183 12.4063C8.13413 12.4105 8.59317 12.175 9.09099 11.6695C9.25572 11.5023 9.52138 11.5037 9.68435 11.6728C9.84732 11.8419 9.84589 12.1145 9.68115 12.2818C9.03718 12.9356 8.3782 13.2675 7.70367 13.2675C6.73257 13.2675 6.27515 12.4063 5.60985 12.4063C4.94454 12.4063 4.47442 13.2676 3.51307 13.2675C2.55171 13.2674 2.07704 12.4063 1.41404 12.4063C1.18231 12.4063 0.994461 12.2135 0.994461 11.9757C0.994461 11.7378 1.18231 11.545 1.41404 11.545C2.41841 11.5451 2.89574 12.4062 3.51082 12.4063C4.1259 12.4063 4.59943 11.5451 5.60985 11.545ZM9.20985 9.00006C9.44157 9.00006 9.62943 9.19285 9.62943 9.43068C9.62943 9.65152 9.45229 9.86131 9.20985 9.8613C8.51345 9.86127 8.09519 10.7199 7.11306 10.7226C6.13094 10.7252 5.68365 9.8613 5.01404 9.8613C4.34444 9.8613 3.90081 10.7225 2.91614 10.7226C2.24507 10.7226 1.58717 10.3849 0.944152 9.73824C0.778643 9.57179 0.775951 9.29915 0.938138 9.12928C1.10033 8.95942 1.36598 8.95666 1.53148 9.12311C2.03027 9.62475 2.49125 9.86131 2.91614 9.86131C3.52481 9.8584 4.02361 9.00006 5.01404 9.00006C6.00447 9.00006 6.48476 9.86302 7.11082 9.86131C7.73687 9.8596 8.20477 9.00006 9.20985 9.00006Z" fill="#78C081"/>
</g>
<defs>
<clipPath id="clip0_172_922">
<rect width="18" height="18" fill="white"/>
</clipPath>
</defs>
</svg>
