<svg width="20" height="19" viewBox="0 0 20 19" fill="none" xmlns="http://www.w3.org/2000/svg">
<g clip-path="url(#clip0_172_913)">
<path d="M19.4617 10.6121V10.5833L19.3594 10.4765L16.1188 6.18196V1.25387L15.8376 0.959961H4.34603L4.06478 1.25387V6.18214L0.824611 10.476L0.721827 10.5834V10.6122L0.69873 10.6427L0.721827 10.6617V12.2025C0.722188 12.54 0.850654 12.8636 1.07904 13.1023C1.30743 13.3409 1.61708 13.4752 1.94007 13.4756H18.2435C18.5665 13.4752 18.8761 13.3409 19.1045 13.1022C19.3329 12.8636 19.4613 12.54 19.4617 12.2025V10.6617L19.4848 10.6427L19.4617 10.6121ZM4.62728 1.54777H15.5563V5.99092H4.62728V1.54777ZM4.48188 6.57874H15.7016L18.5018 10.2895H1.68174L4.48188 6.57874ZM18.8992 12.2027C18.8991 12.3844 18.8299 12.5586 18.707 12.687C18.5841 12.8155 18.4174 12.8878 18.2435 12.8879H1.94007C1.76619 12.8878 1.59948 12.8155 1.47654 12.6871C1.35359 12.5586 1.28446 12.3844 1.28433 12.2027V10.8774H18.8992V12.2027Z" fill="#78C081"/>
<path d="M6.94897 3.03735L6.66772 3.33126V5.05177L6.94897 5.34568H13.2355L13.5168 5.05177V3.33126L13.2355 3.03735H6.94897ZM12.9543 4.75777H7.23022V3.62517H12.9543V4.75777Z" fill="#78C081"/>
<path d="M7.11204 15.1246C7.12542 14.9391 7.29426 14.7167 7.56221 14.418L7.15184 14.016C6.42639 14.8245 6.30545 15.2902 7.07301 16.2939C7.30602 16.5986 7.40122 16.8747 7.35588 17.1145C7.29255 17.4501 6.96826 17.6417 6.96502 17.6436L7.09985 17.9019L7.23306 18.1608C7.25565 18.148 7.78772 17.8429 7.90636 17.2367C7.98843 16.817 7.85599 16.3765 7.51252 15.9275C7.21892 15.5431 7.09917 15.3031 7.11204 15.1246Z" fill="#78C081"/>
<path d="M9.96495 15.1246C9.97833 14.939 10.1472 14.7166 10.4151 14.418L10.0047 14.016C9.27929 14.8245 9.15835 15.2902 9.92591 16.2939C10.1589 16.5986 10.2541 16.8747 10.2089 17.1146C10.1455 17.4501 9.82125 17.6418 9.81801 17.6437L9.95284 17.902L10.0861 18.1609C10.1086 18.1481 10.6407 17.843 10.7593 17.2368C10.8415 16.8171 10.709 16.3765 10.3655 15.9275C10.0717 15.5431 9.95199 15.3031 9.96495 15.1246Z" fill="#78C081"/>
<path d="M12.8174 15.1246C12.8307 14.939 12.9996 14.7166 13.2675 14.418L12.8572 14.016C12.1317 14.8245 12.0108 15.2902 12.7783 16.2939C13.0113 16.5986 13.1065 16.8747 13.0613 17.1146C12.998 17.4501 12.6737 17.6418 12.6704 17.6437L12.8053 17.902L12.9385 18.1609C12.9611 18.1481 13.4931 17.843 13.6118 17.2368C13.6939 16.8171 13.5614 16.3765 13.2179 15.9275C12.9242 15.5431 12.8045 15.3031 12.8174 15.1246Z" fill="#78C081"/>
<path d="M13.6364 11.8896C13.6364 12.1394 13.4329 12.3419 13.1818 12.3419C12.9308 12.3419 12.7273 12.1394 12.7273 11.8896C12.7273 11.6397 12.9308 11.4372 13.1818 11.4372C13.4329 11.4372 13.6364 11.6397 13.6364 11.8896Z" fill="#78C081"/>
<path d="M15.4545 11.8896C15.4545 12.1394 15.251 12.3419 15 12.3419C14.7489 12.3419 14.5454 12.1394 14.5454 11.8896C14.5454 11.6397 14.7489 11.4372 15 11.4372C15.251 11.4372 15.4545 11.6397 15.4545 11.8896Z" fill="#78C081"/>
<path d="M17.2727 11.8896C17.2727 12.1394 17.0692 12.3419 16.8182 12.3419C16.5672 12.3419 16.3636 12.1394 16.3636 11.8896C16.3636 11.6397 16.5672 11.4372 16.8182 11.4372C17.0692 11.4372 17.2727 11.6397 17.2727 11.8896Z" fill="#78C081"/>
</g>
<defs>
<clipPath id="clip0_172_913">
<rect width="20" height="19" fill="white"/>
</clipPath>
</defs>
</svg>
