<svg width="18" height="12" viewBox="0 0 18 12" fill="none" xmlns="http://www.w3.org/2000/svg">
<g clip-path="url(#clip0_92_467)">
<path fill-rule="evenodd" clip-rule="evenodd" d="M12.9136 11.4874C12.8983 11.4874 12.886 11.4754 12.886 11.4607V10.8679V10.6116C12.886 10.4721 12.7714 10.3586 12.6288 10.3553C12.6266 10.3553 12.6245 10.3553 12.6224 10.3553C12.6202 10.3553 12.6181 10.3553 12.616 10.3553C12.4733 10.3586 12.3587 10.4721 12.3587 10.6116V10.8679V11.4607C12.3587 11.7586 12.6072 12 12.9136 12H15.2433C15.5497 12 15.7982 11.7586 15.7982 11.4607V10.8679V10.6116C15.7982 10.4721 15.6836 10.3586 15.5409 10.3553C15.5388 10.3553 15.5366 10.3553 15.5345 10.3553C15.5324 10.3553 15.5302 10.3553 15.5281 10.3553C15.3854 10.3586 15.2708 10.4721 15.2708 10.6116V10.8679V11.4607C15.2708 11.4755 15.2585 11.4874 15.2433 11.4874H12.9136Z" fill="#78C081"/>
<path fill-rule="evenodd" clip-rule="evenodd" d="M5.22492 5.13359C5.32789 5.23368 5.49484 5.23368 5.59781 5.13359L7.32307 3.45672C7.34764 3.43283 7.36966 3.40756 7.38915 3.38117C7.57835 3.12509 7.52999 2.76458 7.27293 2.56207C7.27146 2.56092 7.26999 2.55977 7.26852 2.55863C6.72736 2.13985 6.06506 1.86205 5.34089 1.78336C5.33789 1.78304 5.3349 1.78273 5.33192 1.78245C5.00362 1.75156 4.71247 1.97504 4.6605 2.2826C4.65509 2.3146 4.65227 2.34752 4.65227 2.38116V4.75286C4.65227 4.8944 4.77032 5.00914 4.91594 5.00914C5.06157 5.00914 5.17962 4.8944 5.17962 4.75286V2.38116C5.17962 2.32881 5.22666 2.28677 5.2824 2.29275C5.90478 2.3604 6.47408 2.599 6.94004 2.9596C6.98618 2.99529 6.98763 3.05788 6.95018 3.09428L5.22492 4.77116C5.12195 4.87125 5.12195 5.03351 5.22492 5.13359Z" fill="#78C081"/>
<path fill-rule="evenodd" clip-rule="evenodd" d="M1.16006 5.02108C1.15758 5.04287 1.15631 5.06451 1.15621 5.08592C1.15487 5.38148 1.37606 5.63475 1.67385 5.6822C1.70674 5.68745 1.74057 5.69018 1.77513 5.69018H4.21526C4.36088 5.69018 4.47893 5.57544 4.47893 5.4339C4.47893 5.29236 4.36088 5.17762 4.21526 5.17762H1.77513C1.72133 5.17762 1.67803 5.13191 1.68418 5.07768C1.75378 4.47277 1.9993 3.91941 2.37027 3.46656C2.40703 3.42167 2.47143 3.42032 2.50886 3.4567L4.23409 5.13358C4.33706 5.23367 4.504 5.23367 4.60698 5.13359C4.70995 5.0335 4.70995 4.87124 4.60698 4.77115L2.88176 3.09427C2.85062 3.06401 2.81718 3.03774 2.78204 3.01538C2.57435 2.88329 2.30714 2.8882 2.10439 3.01718C2.05007 3.05174 2.00037 3.09521 1.95769 3.14733C1.52686 3.67328 1.24102 4.31719 1.16006 5.02108Z" fill="#78C081"/>
<path fill-rule="evenodd" clip-rule="evenodd" d="M4.49124 9.08446C4.82309 9.12026 5.11893 8.89557 5.17138 8.58527C5.1768 8.55324 5.17962 8.5203 5.17962 8.48664V6.11494C5.17962 5.9734 5.06157 5.85866 4.91594 5.85866C4.77032 5.85866 4.65227 5.9734 4.65227 6.11494V8.48664C4.65227 8.53895 4.60522 8.58102 4.54948 8.57504C3.92712 8.50739 3.3578 8.26876 2.89184 7.90819C2.84569 7.87249 2.84427 7.8099 2.88174 7.77348L4.60697 6.09663C4.70994 5.99655 4.70994 5.83428 4.60697 5.7342C4.504 5.63412 4.33705 5.63412 4.23408 5.7342L2.50886 7.41105C2.48429 7.43493 2.46228 7.4602 2.44278 7.48658C2.2525 7.74411 2.30244 8.10729 2.56338 8.30918M4.49124 9.08446C3.76705 9.00577 3.10453 8.72793 2.56338 8.30918L4.49124 9.08446Z" fill="#78C081"/>
<path fill-rule="evenodd" clip-rule="evenodd" d="M6.95017 7.77349C6.97475 7.79738 7.00076 7.81879 7.02792 7.83774C7.29286 8.02264 7.66648 7.97412 7.87416 7.7205C8.30502 7.19452 8.59084 6.55076 8.6718 5.84689C8.70869 5.52433 8.47755 5.2367 8.15834 5.18565C8.12535 5.18037 8.09142 5.17762 8.05675 5.17762H5.61663C5.47101 5.17762 5.35296 5.29236 5.35296 5.4339C5.35296 5.57544 5.47101 5.69018 5.61663 5.69018H8.05675C8.11065 5.69018 8.15389 5.73596 8.1477 5.7901C8.0781 6.39501 7.83261 6.94836 7.46162 7.40124C7.42494 7.44604 7.36054 7.44749 7.32305 7.41106L5.59779 5.73421C5.49482 5.63413 5.32788 5.63413 5.22491 5.73421C5.12194 5.8343 5.12194 5.99656 5.22491 6.09665L6.95017 7.77349Z" fill="#78C081"/>
<path fill-rule="evenodd" clip-rule="evenodd" d="M3.95149 5.4339C3.95149 5.95161 4.3833 6.37133 4.91593 6.37133C5.44861 6.37133 5.88044 5.95163 5.88044 5.4339C5.88044 4.91614 5.44862 4.49643 4.91593 4.49643C4.38329 4.49643 3.95149 4.91616 3.95149 5.4339ZM4.91594 5.85866C4.67457 5.85866 4.47893 5.66855 4.47893 5.4339C4.47893 5.1992 4.67458 5.00914 4.91594 5.00914C5.15739 5.00914 5.35296 5.19922 5.35296 5.4339C5.35296 5.66853 5.1574 5.85866 4.91594 5.85866Z" fill="#78C081"/>
<path fill-rule="evenodd" clip-rule="evenodd" d="M13.3836 5.13359C13.4865 5.23368 13.6535 5.23368 13.7565 5.13359L15.4817 3.45672C15.7461 3.19975 15.7148 2.78115 15.4272 2.55863C14.886 2.13985 14.2237 1.86204 13.4995 1.78336C13.1333 1.7438 12.8109 2.02138 12.8109 2.38116V4.75286C12.8109 4.8944 12.929 5.00914 13.0746 5.00914C13.2202 5.00914 13.3383 4.8944 13.3383 4.75286V2.38116C13.3383 2.32877 13.3854 2.28674 13.4411 2.29276C14.0635 2.36041 14.6327 2.59901 15.0987 2.9596C15.1448 2.99529 15.1463 3.05788 15.1088 3.09428L13.3836 4.77116C13.2806 4.87125 13.2806 5.03351 13.3836 5.13359Z" fill="#78C081"/>
<path fill-rule="evenodd" clip-rule="evenodd" d="M9.31871 5.02108C9.27808 5.37693 9.56361 5.69018 9.93378 5.69018H12.3739C12.5195 5.69018 12.6376 5.57544 12.6376 5.4339C12.6376 5.29236 12.5195 5.17762 12.3739 5.17762H9.93378C9.87998 5.17762 9.83668 5.13191 9.84283 5.07768C9.91243 4.47277 10.158 3.91941 10.5289 3.46656C10.5657 3.42167 10.6301 3.42032 10.6675 3.4567L12.3927 5.13358C12.4957 5.23367 12.6627 5.23367 12.7656 5.13359C12.8686 5.0335 12.8686 4.87124 12.7656 4.77115L11.0404 3.09427C10.776 2.83727 10.3453 2.86774 10.1163 3.14733C9.68551 3.67328 9.39967 4.31719 9.31871 5.02108Z" fill="#78C081"/>
<path fill-rule="evenodd" clip-rule="evenodd" d="M12.6499 9.08446C13.016 9.12396 13.3383 8.84641 13.3383 8.48664V6.11494C13.3383 5.9734 13.2202 5.85866 13.0746 5.85866C12.929 5.85866 12.8109 5.9734 12.8109 6.11494V8.48664C12.8109 8.53895 12.7639 8.58102 12.7081 8.57504C12.0858 8.50739 11.5164 8.26876 11.0505 7.90819C11.0043 7.87249 11.0029 7.8099 11.0404 7.77348L12.7656 6.09663C12.8686 5.99655 12.8686 5.83428 12.7656 5.7342C12.6626 5.63412 12.4957 5.63412 12.3927 5.7342L10.6675 7.41105C10.4031 7.66801 10.4344 8.08661 10.722 8.30918M12.6499 9.08446C11.9257 9.00577 11.2632 8.72793 10.722 8.30918L12.6499 9.08446Z" fill="#78C081"/>
<path fill-rule="evenodd" clip-rule="evenodd" d="M15.1088 7.77349C15.3732 8.03043 15.8038 8.00012 16.0328 7.7205C16.4637 7.19452 16.7495 6.55076 16.8305 5.84689C16.8712 5.49099 16.5856 5.17762 16.2154 5.17762H13.7753C13.6297 5.17762 13.5116 5.29236 13.5116 5.4339C13.5116 5.57544 13.6297 5.69018 13.7753 5.69018H16.2154C16.2693 5.69018 16.3125 5.73596 16.3064 5.7901C16.2368 6.39501 15.9913 6.94836 15.6203 7.40124C15.5836 7.44604 15.5192 7.44749 15.4817 7.41106L13.7564 5.73421C13.6535 5.63413 13.4865 5.63413 13.3836 5.73421C13.2806 5.8343 13.2806 5.99656 13.3836 6.09665L15.1088 7.77349Z" fill="#78C081"/>
<path fill-rule="evenodd" clip-rule="evenodd" d="M9.29508 5.4339C9.29508 7.4627 10.9873 9.10742 13.0746 9.10742C15.162 9.10742 16.8541 7.4627 16.8541 5.4339C16.8541 3.40506 15.162 1.76034 13.0746 1.76034C10.9873 1.76034 9.29508 3.40506 9.29508 5.4339ZM13.0746 8.59487C11.2785 8.59487 9.82243 7.17963 9.82243 5.4339C9.82243 3.68813 11.2785 2.27289 13.0746 2.27289C14.8708 2.27289 16.3268 3.68813 16.3268 5.4339C16.3268 7.17963 14.8708 8.59487 13.0746 8.59487Z" fill="#78C081"/>
<path fill-rule="evenodd" clip-rule="evenodd" d="M12.1101 5.4339C12.1101 5.95161 12.542 6.37133 13.0746 6.37133C13.6073 6.37133 14.0391 5.95161 14.0391 5.4339C14.0391 4.91616 13.6073 4.49643 13.0746 4.49643C12.5419 4.49643 12.1101 4.91616 12.1101 5.4339ZM13.0746 5.85866C12.8332 5.85866 12.6376 5.66855 12.6376 5.4339C12.6376 5.1992 12.8332 5.00914 13.0746 5.00914C13.316 5.00914 13.5116 5.1992 13.5116 5.4339C13.5116 5.66855 13.316 5.85866 13.0746 5.85866Z" fill="#78C081"/>
<path fill-rule="evenodd" clip-rule="evenodd" d="M2.20184 11.4607C2.20184 11.7586 2.4503 12 2.75671 12H5.08641C5.39283 12 5.64132 11.7586 5.64132 11.4607V10.8679V10.6116C5.64132 10.4721 5.52671 10.3586 5.38404 10.3553C5.38192 10.3553 5.37978 10.3553 5.37764 10.3553C5.37551 10.3553 5.37337 10.3553 5.37125 10.3553C5.22858 10.3586 5.11397 10.4721 5.11397 10.6116V10.8679V11.4607C5.11397 11.4754 5.10167 11.4874 5.08641 11.4874H2.75671C2.74151 11.4874 2.72918 11.4755 2.72918 11.4607V10.8679V10.6116C2.72918 10.4721 2.61457 10.3586 2.47191 10.3553C2.46978 10.3553 2.46765 10.3553 2.46551 10.3553C2.46337 10.3553 2.46124 10.3553 2.45911 10.3553C2.31645 10.3586 2.20184 10.4721 2.20184 10.6116V10.8679V11.4607Z" fill="#78C081"/>
<path fill-rule="evenodd" clip-rule="evenodd" d="M7.87926 8.85114C7.87926 8.99268 7.99731 9.10742 8.14294 9.10742H9.84759C9.99322 9.10742 10.1113 8.99268 10.1113 8.85114C10.1113 8.7096 9.99322 8.59486 9.84759 8.59486H8.14294C7.99731 8.59486 7.87926 8.7096 7.87926 8.85114Z" fill="#78C081"/>
<path d="M12.3587 10.6116C12.3587 10.4721 12.4733 10.3586 12.616 10.3553H7.47868H5.38404C5.52671 10.3586 5.64132 10.4721 5.64132 10.6116V10.8679H7.47868H12.3587V10.6116Z" fill="#78C081"/>
<path d="M5.11397 10.6116C5.11397 10.4721 5.22858 10.3586 5.37125 10.3553H2.47191C2.61457 10.3586 2.72918 10.4721 2.72918 10.6116V10.8679H5.11397V10.6116Z" fill="#78C081"/>
<path d="M12.886 10.6116V10.8679H15.2708V10.6116C15.2708 10.4721 15.3854 10.3586 15.5281 10.3553H12.6288C12.7714 10.3586 12.886 10.4721 12.886 10.6116Z" fill="#78C081"/>
<path d="M0.973829 10.3553C0.727543 10.3553 0.527344 10.1609 0.527344 9.92104V0.946521C0.527344 0.7068 0.727373 0.512556 0.973829 0.512556H12.989H17.0262C17.2726 0.512556 17.4727 0.7068 17.4727 0.946521V9.92104C17.4727 10.1609 17.2725 10.3553 17.0262 10.3553H15.5409C15.6836 10.3586 15.7982 10.4721 15.7982 10.6116V10.8679H17.0262C17.5639 10.8679 18 10.4438 18 9.92104V0.946521C18 0.423558 17.5637 0 17.0262 0H12.989H0.973829C0.436299 0 0 0.423558 0 0.946521V9.92104C0 10.4438 0.43613 10.8679 0.973829 10.8679H2.20184V10.6116C2.20184 10.4721 2.31645 10.3586 2.45911 10.3553H0.973829Z" fill="#78C081"/>
<path d="M4.6605 2.2826C4.71247 1.97504 5.00362 1.75156 5.33192 1.78245C5.1953 1.76792 5.0565 1.76045 4.91591 1.76045C4.61061 1.76045 4.31279 1.79567 4.02779 1.86262C3.19281 2.09822 2.56103 2.51729 2.10439 3.01718C2.30714 2.8882 2.57435 2.88329 2.78204 3.01538C3.14052 2.71037 3.59329 2.47399 4.15168 2.36083C4.3164 2.32214 4.48646 2.29572 4.6605 2.2826Z" fill="#78C081"/>
<path d="M7.27293 2.56207C7.52999 2.76458 7.57835 3.12509 7.38915 3.38117C7.82311 3.87456 8.1035 4.49936 8.15834 5.18565C8.47755 5.2367 8.70869 5.52433 8.6718 5.84689C8.59084 6.55076 8.30502 7.19452 7.87416 7.7205C7.66648 7.97412 7.29286 8.02264 7.02792 7.83774C6.52027 8.25948 5.87743 8.53195 5.17138 8.58527C5.11893 8.89557 4.82309 9.12026 4.49124 9.08446C3.76705 9.00577 3.10453 8.72793 2.56338 8.30918C2.30244 8.10729 2.2525 7.74411 2.44278 7.48658C2.00899 6.99322 1.72872 6.36849 1.67385 5.6822C1.37606 5.63475 1.15487 5.38148 1.15621 5.08592C1.14305 5.20457 1.13661 5.32088 1.13661 5.43378C1.13661 7.46287 2.82859 9.10744 4.91591 9.10744C7.00316 9.10744 8.69556 7.46291 8.69556 5.43378C8.69556 4.27138 8.14 3.23514 7.27293 2.56207Z" fill="#78C081"/>
</g>
<defs>
<clipPath id="clip0_92_467">
<rect width="18" height="12" fill="white"/>
</clipPath>
</defs>
</svg>
