<svg width="20" height="18" viewBox="0 0 20 18" fill="none" xmlns="http://www.w3.org/2000/svg">
<g clip-path="url(#clip0_172_1148)">
<path d="M18.7153 15.8202H18.4647V15.1773V4.38545V3.04979C18.4647 2.17644 17.747 1.46593 16.8649 1.46593H16.45C16.3306 0.976943 15.8851 0.612549 15.355 0.612549H4.47592C3.9458 0.612549 3.50031 0.976943 3.38085 1.46593H3.13518C2.25301 1.46593 1.53533 2.17644 1.53533 3.04979V4.38548V15.1773V15.8202H1.28476C1.07762 15.8202 0.909119 15.987 0.909119 16.1921V17.0154C0.909119 17.2204 1.07762 17.3873 1.28476 17.3873H18.7153C18.9224 17.3873 19.0909 17.2204 19.0909 17.0154V16.1921C19.0909 15.987 18.9224 15.8202 18.7153 15.8202ZM2.06491 3.04979C2.06491 2.46553 2.54502 1.99022 3.13518 1.99022H4.81026C4.95649 1.99022 5.07503 1.87287 5.07503 1.72809C5.07503 1.58332 4.95649 1.46597 4.81026 1.46597H3.9414C4.03923 1.27127 4.24175 1.13683 4.47592 1.13683H15.355C15.5891 1.13683 15.7916 1.27127 15.8895 1.46597H5.97101C5.82478 1.46597 5.70624 1.58332 5.70624 1.72809C5.70624 1.87287 5.82478 1.99022 5.97101 1.99022H16.8649C17.455 1.99022 17.9351 2.46553 17.9351 3.04979V3.13487H2.06491V3.04979ZM2.06491 4.64761H3.88064C4.24726 4.64761 4.54552 4.94288 4.54552 5.30584V14.2569C4.54552 14.6199 4.24726 14.9151 3.88064 14.9151H2.06491V4.64761ZM1.4387 16.863V16.3445H2.76263C2.90887 16.3445 3.02741 16.2271 3.02741 16.0824C3.02741 15.9376 2.90887 15.8202 2.76263 15.8202H2.06491V15.4394H3.88064C4.53927 15.4394 5.07506 14.9089 5.07506 14.2569V5.30584C5.07506 4.65379 4.53923 4.12332 3.88064 4.12332H2.06491V3.65912H9.73526V6.34762C9.73526 6.4924 9.85379 6.60975 10 6.60975C10.1463 6.60975 10.2648 6.4924 10.2648 6.34762V3.65912H17.9351V4.12332H16.1194C15.4608 4.12332 14.925 4.65379 14.925 5.30584V14.2569C14.925 14.9089 15.4608 15.4394 16.1194 15.4394H17.9351V15.8202H10.2648V7.41057C10.2648 7.2658 10.1463 7.14845 10 7.14845C9.85379 7.14845 9.73526 7.2658 9.73526 7.41057V15.8202H3.90411C3.75788 15.8202 3.63934 15.9376 3.63934 16.0824C3.63934 16.2271 3.75788 16.3445 3.90411 16.3445H18.5614V16.863L1.4387 16.863ZM17.9351 4.64761V14.9152H16.1194C15.7528 14.9152 15.4545 14.6199 15.4545 14.2569V5.30584C15.4545 4.94288 15.7528 4.64761 16.1194 4.64761H17.9351Z" fill="#78C081"/>
<path d="M3.72013 5.10449H2.68775C2.54151 5.10449 2.42297 5.22184 2.42297 5.36662C2.42297 5.51139 2.54151 5.62874 2.68775 5.62874H3.72013C3.86637 5.62874 3.98491 5.51139 3.98491 5.36662C3.98491 5.22184 3.86637 5.10449 3.72013 5.10449Z" fill="#78C081"/>
<path d="M3.72013 6.08557H2.68775C2.54151 6.08557 2.42297 6.20292 2.42297 6.3477C2.42297 6.49247 2.54151 6.60982 2.68775 6.60982H3.72013C3.86637 6.60982 3.98491 6.49247 3.98491 6.3477C3.98491 6.20292 3.86637 6.08557 3.72013 6.08557Z" fill="#78C081"/>
<path d="M3.72013 7.06665H2.68775C2.54151 7.06665 2.42297 7.184 2.42297 7.32878C2.42297 7.47355 2.54151 7.5909 2.68775 7.5909H3.72013C3.86637 7.5909 3.98491 7.47355 3.98491 7.32878C3.98491 7.184 3.86637 7.06665 3.72013 7.06665Z" fill="#78C081"/>
<path d="M3.72013 8.04773H2.68775C2.54151 8.04773 2.42297 8.16508 2.42297 8.30985C2.42297 8.45463 2.54151 8.57198 2.68775 8.57198H3.72013C3.86637 8.57198 3.98491 8.45463 3.98491 8.30985C3.98491 8.16508 3.86637 8.04773 3.72013 8.04773Z" fill="#78C081"/>
<path d="M3.72013 9.02881H2.68775C2.54151 9.02881 2.42297 9.14616 2.42297 9.29093C2.42297 9.43571 2.54151 9.55306 2.68775 9.55306H3.72013C3.86637 9.55306 3.98491 9.43571 3.98491 9.29093C3.98491 9.14616 3.86637 9.02881 3.72013 9.02881Z" fill="#78C081"/>
<path d="M3.72013 10.0099H2.68775C2.54151 10.0099 2.42297 10.1272 2.42297 10.272C2.42297 10.4168 2.54151 10.5341 2.68775 10.5341H3.72013C3.86637 10.5341 3.98491 10.4168 3.98491 10.272C3.98491 10.1272 3.86637 10.0099 3.72013 10.0099Z" fill="#78C081"/>
<path d="M3.72013 10.991H2.68775C2.54151 10.991 2.42297 11.1083 2.42297 11.2531C2.42297 11.3979 2.54151 11.5152 2.68775 11.5152H3.72013C3.86637 11.5152 3.98491 11.3979 3.98491 11.2531C3.98491 11.1083 3.86637 10.991 3.72013 10.991Z" fill="#78C081"/>
<path d="M3.72013 11.972H2.68775C2.54151 11.972 2.42297 12.0894 2.42297 12.2342C2.42297 12.3789 2.54151 12.4963 2.68775 12.4963H3.72013C3.86637 12.4963 3.98491 12.3789 3.98491 12.2342C3.98491 12.0894 3.86637 11.972 3.72013 11.972Z" fill="#78C081"/>
<path d="M3.72013 12.9531H2.68775C2.54151 12.9531 2.42297 13.0705 2.42297 13.2152C2.42297 13.36 2.54151 13.4774 2.68775 13.4774H3.72013C3.86637 13.4774 3.98491 13.36 3.98491 13.2152C3.98491 13.0705 3.86637 12.9531 3.72013 12.9531Z" fill="#78C081"/>
<path d="M3.72017 13.9342H2.68775C2.54151 13.9342 2.42297 14.0516 2.42297 14.1963C2.42297 14.3411 2.54151 14.4585 2.68775 14.4585H3.72013C3.86637 14.4585 3.98494 14.3411 3.98494 14.1963C3.98494 14.0516 3.8664 13.9342 3.72017 13.9342Z" fill="#78C081"/>
<path d="M8.8703 5.10449H5.97101C5.82477 5.10449 5.70624 5.22184 5.70624 5.36662C5.7062 5.51139 5.82477 5.62874 5.97101 5.62874H8.8703C9.01654 5.62874 9.13507 5.51139 9.13507 5.36662C9.13507 5.22181 9.01654 5.10449 8.8703 5.10449Z" fill="#78C081"/>
<path d="M8.8703 4.12341H5.97101C5.82477 4.12341 5.70624 4.24076 5.70624 4.38554C5.7062 4.53031 5.82477 4.64766 5.97101 4.64766H8.8703C9.01654 4.64766 9.13507 4.53031 9.13507 4.38554C9.13507 4.24076 9.01654 4.12341 8.8703 4.12341Z" fill="#78C081"/>
<path d="M8.8703 14.9227H5.97101C5.82477 14.9227 5.70624 15.0401 5.70624 15.1849C5.70624 15.3296 5.82477 15.447 5.97101 15.447H8.8703C9.01654 15.447 9.13507 15.3296 9.13507 15.1849C9.13507 15.0401 9.01654 14.9227 8.8703 14.9227Z" fill="#78C081"/>
<path d="M8.8703 6.08557H5.97101C5.82477 6.08557 5.70624 6.20292 5.70624 6.3477C5.7062 6.49243 5.82477 6.60982 5.97101 6.60982H8.8703C9.01654 6.60982 9.13507 6.49247 9.13507 6.3477C9.13507 6.20292 9.01654 6.08557 8.8703 6.08557Z" fill="#78C081"/>
<path d="M8.8703 7.06665H5.97101C5.82477 7.06665 5.70624 7.184 5.70624 7.32878C5.7062 7.47355 5.82477 7.5909 5.97101 7.5909H8.8703C9.01654 7.5909 9.13507 7.47355 9.13507 7.32878C9.13507 7.18404 9.01654 7.06665 8.8703 7.06665Z" fill="#78C081"/>
<path d="M8.8703 8.04773H5.97101C5.82477 8.04773 5.70624 8.16508 5.70624 8.30985C5.7062 8.45463 5.82477 8.57198 5.97101 8.57198H8.8703C9.01654 8.57198 9.13507 8.45463 9.13507 8.30985C9.13507 8.16505 9.01654 8.04773 8.8703 8.04773Z" fill="#78C081"/>
<path d="M8.8703 9.02881H5.97101C5.82477 9.02881 5.70624 9.14616 5.70624 9.29093C5.7062 9.43571 5.82477 9.55306 5.97101 9.55306H8.8703C9.01654 9.55306 9.13507 9.43571 9.13507 9.29093C9.13507 9.14616 9.01654 9.02881 8.8703 9.02881Z" fill="#78C081"/>
<path d="M8.8703 10.0099H5.97101C5.82477 10.0099 5.70624 10.1272 5.70624 10.272C5.7062 10.4168 5.82477 10.5341 5.97101 10.5341H8.8703C9.01654 10.5341 9.13507 10.4168 9.13507 10.272C9.13507 10.1272 9.01654 10.0099 8.8703 10.0099Z" fill="#78C081"/>
<path d="M8.8703 10.991H5.97101C5.82477 10.991 5.70624 11.1083 5.70624 11.2531C5.7062 11.3979 5.82477 11.5152 5.97101 11.5152H8.8703C9.01654 11.5152 9.13507 11.3979 9.13507 11.2531C9.13507 11.1083 9.01654 10.991 8.8703 10.991Z" fill="#78C081"/>
<path d="M8.8703 11.972H5.97101C5.82477 11.972 5.70624 12.0894 5.70624 12.2342C5.7062 12.3789 5.82477 12.4963 5.97101 12.4963H8.8703C9.01654 12.4963 9.13507 12.3789 9.13507 12.2342C9.13507 12.0894 9.01654 11.972 8.8703 11.972Z" fill="#78C081"/>
<path d="M8.8703 12.9531H5.97101C5.82477 12.9531 5.70624 13.0705 5.70624 13.2152C5.7062 13.36 5.82477 13.4774 5.97101 13.4774H8.8703C9.01654 13.4774 9.13507 13.36 9.13507 13.2152C9.13507 13.0705 9.01654 12.9531 8.8703 12.9531Z" fill="#78C081"/>
<path d="M8.8703 13.9342H5.97101C5.82477 13.9342 5.70624 14.0516 5.70624 14.1963C5.7062 14.3411 5.82477 14.4585 5.97101 14.4585H8.8703C9.01654 14.4585 9.13507 14.3411 9.13507 14.1963C9.13507 14.0516 9.01654 13.9342 8.8703 13.9342Z" fill="#78C081"/>
<path d="M17.3124 5.10449H16.28C16.1338 5.10449 16.0152 5.22184 16.0152 5.36662C16.0152 5.51139 16.1337 5.62874 16.28 5.62874H17.3124C17.4586 5.62874 17.5771 5.51139 17.5771 5.36662C17.5771 5.22184 17.4586 5.10449 17.3124 5.10449Z" fill="#78C081"/>
<path d="M17.3124 6.08557H16.28C16.1337 6.08557 16.0152 6.20292 16.0152 6.3477C16.0152 6.49247 16.1337 6.60982 16.28 6.60982H17.3124C17.4586 6.60982 17.5771 6.49247 17.5771 6.3477C17.5771 6.20296 17.4586 6.08557 17.3124 6.08557Z" fill="#78C081"/>
<path d="M17.3124 7.06665H16.28C16.1337 7.06665 16.0152 7.184 16.0152 7.32878C16.0152 7.47355 16.1337 7.5909 16.28 7.5909H17.3124C17.4586 7.5909 17.5771 7.47355 17.5771 7.32878C17.5771 7.18397 17.4586 7.06665 17.3124 7.06665Z" fill="#78C081"/>
<path d="M17.3124 8.04773H16.28C16.1337 8.04773 16.0152 8.16508 16.0152 8.30985C16.0152 8.45463 16.1337 8.57198 16.28 8.57198H17.3124C17.4586 8.57198 17.5771 8.45463 17.5771 8.30985C17.5771 8.16508 17.4586 8.04773 17.3124 8.04773Z" fill="#78C081"/>
<path d="M17.3124 9.02881H16.28C16.1337 9.02881 16.0152 9.14616 16.0152 9.29093C16.0152 9.43571 16.1337 9.55306 16.28 9.55306H17.3124C17.4586 9.55306 17.5771 9.43571 17.5771 9.29093C17.5771 9.14616 17.4586 9.02881 17.3124 9.02881Z" fill="#78C081"/>
<path d="M17.3124 10.0099H16.28C16.1337 10.0099 16.0152 10.1272 16.0152 10.272C16.0152 10.4168 16.1337 10.5341 16.28 10.5341H17.3124C17.4586 10.5341 17.5771 10.4168 17.5771 10.272C17.5771 10.1272 17.4586 10.0099 17.3124 10.0099Z" fill="#78C081"/>
<path d="M17.3124 10.991H16.28C16.1337 10.991 16.0152 11.1083 16.0152 11.2531C16.0152 11.3979 16.1337 11.5152 16.28 11.5152H17.3124C17.4586 11.5152 17.5771 11.3979 17.5771 11.2531C17.5771 11.1083 17.4586 10.991 17.3124 10.991Z" fill="#78C081"/>
<path d="M17.3124 11.972H16.28C16.1337 11.972 16.0152 12.0894 16.0152 12.2342C16.0152 12.3789 16.1337 12.4963 16.28 12.4963H17.3124C17.4586 12.4963 17.5771 12.3789 17.5771 12.2342C17.5771 12.0894 17.4586 11.972 17.3124 11.972Z" fill="#78C081"/>
<path d="M17.3124 12.9531H16.28C16.1337 12.9531 16.0152 13.0705 16.0152 13.2152C16.0152 13.36 16.1337 13.4774 16.28 13.4774H17.3124C17.4586 13.4774 17.5771 13.36 17.5771 13.2152C17.5771 13.0705 17.4586 12.9531 17.3124 12.9531Z" fill="#78C081"/>
<path d="M17.3124 13.9342H16.28C16.1337 13.9342 16.0152 14.0516 16.0152 14.1963C16.0152 14.3411 16.1337 14.4585 16.28 14.4585H17.3124C17.4586 14.4585 17.5771 14.3411 17.5771 14.1963C17.5771 14.0516 17.4586 13.9342 17.3124 13.9342Z" fill="#78C081"/>
<path d="M14.029 5.10449H11.0944C10.9482 5.10449 10.8297 5.22184 10.8297 5.36662C10.8297 5.51139 10.9482 5.62874 11.0944 5.62874H14.029C14.1752 5.62874 14.2938 5.51139 14.2938 5.36662C14.2938 5.22181 14.1752 5.10449 14.029 5.10449Z" fill="#78C081"/>
<path d="M14.029 4.12341H11.0944C10.9482 4.12341 10.8297 4.24076 10.8297 4.38554C10.8297 4.53031 10.9482 4.64766 11.0944 4.64766H14.029C14.1752 4.64766 14.2938 4.53031 14.2938 4.38554C14.2938 4.24076 14.1752 4.12341 14.029 4.12341Z" fill="#78C081"/>
<path d="M14.029 14.9227H11.0944C10.9482 14.9227 10.8297 15.0401 10.8297 15.1849C10.8297 15.3296 10.9482 15.447 11.0944 15.447H14.029C14.1752 15.447 14.2938 15.3296 14.2938 15.1849C14.2938 15.0401 14.1752 14.9227 14.029 14.9227Z" fill="#78C081"/>
<path d="M14.029 6.08557H11.0944C10.9482 6.08557 10.8297 6.20292 10.8297 6.3477C10.8297 6.49243 10.9482 6.60982 11.0944 6.60982H14.029C14.1752 6.60982 14.2938 6.49247 14.2938 6.3477C14.2938 6.20292 14.1752 6.08557 14.029 6.08557Z" fill="#78C081"/>
<path d="M14.029 7.06665H11.0944C10.9482 7.06665 10.8297 7.184 10.8297 7.32878C10.8297 7.47355 10.9482 7.5909 11.0944 7.5909H14.029C14.1752 7.5909 14.2938 7.47355 14.2938 7.32878C14.2938 7.18404 14.1752 7.06665 14.029 7.06665Z" fill="#78C081"/>
<path d="M14.029 8.04773H11.0944C10.9482 8.04773 10.8297 8.16508 10.8297 8.30985C10.8297 8.45463 10.9482 8.57198 11.0944 8.57198H14.029C14.1752 8.57198 14.2938 8.45463 14.2938 8.30985C14.2938 8.16505 14.1752 8.04773 14.029 8.04773Z" fill="#78C081"/>
<path d="M14.029 9.02881H11.0944C10.9482 9.02881 10.8297 9.14616 10.8297 9.29093C10.8297 9.43571 10.9482 9.55306 11.0944 9.55306H14.029C14.1752 9.55306 14.2938 9.43571 14.2938 9.29093C14.2938 9.14616 14.1752 9.02881 14.029 9.02881Z" fill="#78C081"/>
<path d="M14.029 10.0099H11.0944C10.9482 10.0099 10.8297 10.1272 10.8297 10.272C10.8297 10.4168 10.9482 10.5341 11.0944 10.5341H14.029C14.1752 10.5341 14.2938 10.4168 14.2938 10.272C14.2938 10.1272 14.1752 10.0099 14.029 10.0099Z" fill="#78C081"/>
<path d="M14.029 10.991H11.0944C10.9482 10.991 10.8297 11.1083 10.8297 11.2531C10.8297 11.3979 10.9482 11.5152 11.0944 11.5152H14.029C14.1752 11.5152 14.2938 11.3979 14.2938 11.2531C14.2938 11.1083 14.1752 10.991 14.029 10.991Z" fill="#78C081"/>
<path d="M14.029 11.972H11.0944C10.9482 11.972 10.8297 12.0894 10.8297 12.2342C10.8297 12.3789 10.9482 12.4963 11.0944 12.4963H14.029C14.1752 12.4963 14.2938 12.3789 14.2938 12.2342C14.2938 12.0894 14.1752 11.972 14.029 11.972Z" fill="#78C081"/>
<path d="M14.029 12.9531H11.0944C10.9482 12.9531 10.8297 13.0705 10.8297 13.2152C10.8297 13.36 10.9482 13.4774 11.0944 13.4774H14.029C14.1752 13.4774 14.2938 13.36 14.2938 13.2152C14.2938 13.0705 14.1752 12.9531 14.029 12.9531Z" fill="#78C081"/>
<path d="M14.029 13.9342H11.0944C10.9482 13.9342 10.8297 14.0516 10.8297 14.1963C10.8297 14.3411 10.9482 14.4585 11.0944 14.4585H14.029C14.1752 14.4585 14.2938 14.3411 14.2938 14.1963C14.2938 14.0516 14.1752 13.9342 14.029 13.9342Z" fill="#78C081"/>
</g>
<defs>
<clipPath id="clip0_172_1148">
<rect width="20" height="18" fill="white"/>
</clipPath>
</defs>
</svg>
