<svg width="17" height="17" viewBox="0 0 17 17" fill="none" xmlns="http://www.w3.org/2000/svg">
<g clip-path="url(#clip0_92_258)">
<path d="M1.59375 16.7344H15.4062C15.7584 16.734 16.0959 16.5939 16.3449 16.3449C16.5939 16.0959 16.734 15.7584 16.7344 15.4062V1.59375C16.734 1.24164 16.5939 0.90407 16.3449 0.65509C16.0959 0.406109 15.7584 0.266047 15.4062 0.265625H1.59375C1.24164 0.266047 0.90407 0.406109 0.65509 0.65509C0.406109 0.90407 0.266047 1.24164 0.265625 1.59375V15.4062C0.266047 15.7584 0.406109 16.0959 0.65509 16.3449C0.90407 16.5939 1.24164 16.734 1.59375 16.7344ZM0.796875 15.4062V1.59375C0.797333 1.47542 0.824576 1.35872 0.876562 1.25242L3.53281 3.90867C3.48102 4.01504 3.45378 4.13169 3.45312 4.25V12.75C3.45374 12.8684 3.48098 12.9851 3.53281 13.0916L0.876562 15.7478C0.824537 15.6415 0.797293 15.5247 0.796875 15.4062ZM16.1234 1.25242C16.1754 1.35872 16.2027 1.47542 16.2031 1.59375V15.4062C16.2025 15.5246 16.1753 15.6412 16.1234 15.7476L13.4672 13.0913C13.5191 12.985 13.5463 12.8683 13.5469 12.75V4.25C13.5464 4.13167 13.5192 4.01497 13.4672 3.90867L16.1234 1.25242ZM13.0156 11.9531H9.29688V11.4219H13.0156V11.9531ZM13.0156 10.8906H9.29688V10.3594H13.0156V10.8906ZM13.0156 9.82812H9.29688V9.29688H13.0156V9.82812ZM13.0156 8.76562H9.29688V8.23438H13.0156V8.76562ZM13.0156 7.70312H9.29688V7.17188H13.0156V7.70312ZM13.0156 6.64062H9.29688V6.10938H13.0156V6.64062ZM13.0156 5.57812H9.29688V5.04688H13.0156V5.57812ZM9.29688 12.4844H13.0156V12.75C13.0156 12.8204 12.9876 12.888 12.9378 12.9378C12.888 12.9876 12.8204 13.0156 12.75 13.0156H9.29688V12.4844ZM13.0156 4.25V4.51562H9.29688V3.98438H12.75C12.8204 3.98438 12.888 4.01236 12.9378 4.06217C12.9876 4.11199 13.0156 4.17955 13.0156 4.25ZM8.76562 13.0156H8.23438V3.98438H8.76562V13.0156ZM3.98438 5.04688H7.70312V5.57812H3.98438V5.04688ZM3.98438 6.10938H7.70312V6.64062H3.98438V6.10938ZM3.98438 7.17188H7.70312V7.70312H3.98438V7.17188ZM3.98438 8.23438H7.70312V8.76562H3.98438V8.23438ZM3.98438 9.29688H7.70312V9.82812H3.98438V9.29688ZM3.98438 10.3594H7.70312V10.8906H3.98438V10.3594ZM3.98438 11.4219H7.70312V11.9531H3.98438V11.4219ZM3.98438 12.75V12.4844H7.70312V13.0156H4.25C4.17955 13.0156 4.11199 12.9876 4.06217 12.9378C4.01236 12.888 3.98438 12.8204 3.98438 12.75ZM7.70312 4.51562H3.98438V4.25C3.98438 4.17955 4.01236 4.11199 4.06217 4.06217C4.11199 4.01236 4.17955 3.98438 4.25 3.98438H7.70312V4.51562ZM1.59375 16.2031C1.47542 16.2027 1.35872 16.1754 1.25242 16.1234L3.90867 13.4672C4.01501 13.5191 4.13168 13.5463 4.25 13.5469H12.75C12.8684 13.5463 12.9851 13.519 13.0916 13.4672L15.7478 16.1234C15.6414 16.1753 15.5246 16.2025 15.4062 16.2031H1.59375ZM15.4062 0.796875C15.5246 0.797333 15.6413 0.824576 15.7476 0.876562L13.0913 3.53281C12.985 3.48083 12.8683 3.45358 12.75 3.45312H4.25C4.13168 3.4537 4.01501 3.48094 3.90867 3.53281L1.25242 0.876562C1.35877 0.824697 1.47543 0.797462 1.59375 0.796875H15.4062Z" fill="#78C081"/>
<path d="M11.9531 14.0781H5.04688C4.83553 14.0781 4.63284 14.1621 4.4834 14.3115C4.33396 14.461 4.25 14.6637 4.25 14.875C4.25 15.0863 4.33396 15.289 4.4834 15.4385C4.63284 15.5879 4.83553 15.6719 5.04688 15.6719H11.9531C12.1645 15.6719 12.3672 15.5879 12.5166 15.4385C12.666 15.289 12.75 15.0863 12.75 14.875C12.75 14.6637 12.666 14.461 12.5166 14.3115C12.3672 14.1621 12.1645 14.0781 11.9531 14.0781ZM11.9531 15.1406H5.04688C4.97643 15.1406 4.90886 15.1126 4.85905 15.0628C4.80924 15.013 4.78125 14.9454 4.78125 14.875C4.78125 14.8046 4.80924 14.737 4.85905 14.6872C4.90886 14.6374 4.97643 14.6094 5.04688 14.6094H11.9531C12.0236 14.6094 12.0911 14.6374 12.141 14.6872C12.1908 14.737 12.2188 14.8046 12.2188 14.875C12.2188 14.9454 12.1908 15.013 12.141 15.0628C12.0911 15.1126 12.0236 15.1406 11.9531 15.1406Z" fill="#78C081"/>
<path d="M5.04688 2.92188H11.9531C12.1645 2.92188 12.3672 2.83792 12.5166 2.68848C12.666 2.53903 12.75 2.33634 12.75 2.125C12.75 1.91366 12.666 1.71097 12.5166 1.56152C12.3672 1.41208 12.1645 1.32812 11.9531 1.32812H5.04688C4.83553 1.32812 4.63284 1.41208 4.4834 1.56152C4.33396 1.71097 4.25 1.91366 4.25 2.125C4.25 2.33634 4.33396 2.53903 4.4834 2.68848C4.63284 2.83792 4.83553 2.92188 5.04688 2.92188ZM5.04688 1.85938H11.9531C12.0236 1.85938 12.0911 1.88736 12.141 1.93717C12.1908 1.98699 12.2188 2.05455 12.2188 2.125C12.2188 2.19545 12.1908 2.26301 12.141 2.31283C12.0911 2.36264 12.0236 2.39062 11.9531 2.39062H5.04688C4.97643 2.39062 4.90886 2.36264 4.85905 2.31283C4.80924 2.26301 4.78125 2.19545 4.78125 2.125C4.78125 2.05455 4.80924 1.98699 4.85905 1.93717C4.90886 1.88736 4.97643 1.85938 5.04688 1.85938Z" fill="#78C081"/>
<path d="M14.875 12.75C15.0863 12.75 15.289 12.666 15.4385 12.5166C15.5879 12.3672 15.6719 12.1645 15.6719 11.9531V5.04688C15.6719 4.83553 15.5879 4.63284 15.4385 4.4834C15.289 4.33396 15.0863 4.25 14.875 4.25C14.6637 4.25 14.461 4.33396 14.3115 4.4834C14.1621 4.63284 14.0781 4.83553 14.0781 5.04688V11.9531C14.0781 12.1645 14.1621 12.3672 14.3115 12.5166C14.461 12.666 14.6637 12.75 14.875 12.75ZM14.6094 5.04688C14.6094 4.97643 14.6374 4.90886 14.6872 4.85905C14.737 4.80924 14.8046 4.78125 14.875 4.78125C14.9454 4.78125 15.013 4.80924 15.0628 4.85905C15.1126 4.90886 15.1406 4.97643 15.1406 5.04688V11.9531C15.1406 12.0236 15.1126 12.0911 15.0628 12.141C15.013 12.1908 14.9454 12.2188 14.875 12.2188C14.8046 12.2188 14.737 12.1908 14.6872 12.141C14.6374 12.0911 14.6094 12.0236 14.6094 11.9531V5.04688Z" fill="#78C081"/>
<path d="M2.125 4.25C1.91366 4.25 1.71097 4.33396 1.56152 4.4834C1.41208 4.63284 1.32812 4.83553 1.32812 5.04688V11.9531C1.32812 12.1645 1.41208 12.3672 1.56152 12.5166C1.71097 12.666 1.91366 12.75 2.125 12.75C2.33634 12.75 2.53903 12.666 2.68848 12.5166C2.83792 12.3672 2.92188 12.1645 2.92188 11.9531V5.04688C2.92188 4.83553 2.83792 4.63284 2.68848 4.4834C2.53903 4.33396 2.33634 4.25 2.125 4.25ZM2.39062 11.9531C2.39062 12.0236 2.36264 12.0911 2.31283 12.141C2.26301 12.1908 2.19545 12.2188 2.125 12.2188C2.05455 12.2188 1.98699 12.1908 1.93717 12.141C1.88736 12.0911 1.85938 12.0236 1.85938 11.9531V5.04688C1.85938 4.97643 1.88736 4.90886 1.93717 4.85905C1.98699 4.80924 2.05455 4.78125 2.125 4.78125C2.19545 4.78125 2.26301 4.80924 2.31283 4.85905C2.36264 4.90886 2.39062 4.97643 2.39062 5.04688V11.9531Z" fill="#78C081"/>
</g>
<defs>
<clipPath id="clip0_92_258">
<rect width="17" height="17" fill="white" transform="matrix(-1 0 0 -1 17 17)"/>
</clipPath>
</defs>
</svg>
