<svg width="18" height="16" viewBox="0 0 18 16" fill="none" xmlns="http://www.w3.org/2000/svg">
<g clip-path="url(#clip0_172_1128)">
<path fill-rule="evenodd" clip-rule="evenodd" d="M10.8671 9.48263C10.8671 9.76968 11.1124 10.0023 11.4149 10.0023H12.9065C13.209 10.0023 13.4543 9.76966 13.4543 9.48263V8.9435C13.4543 8.65647 13.209 8.42379 12.9065 8.42379H11.4149C11.1124 8.42379 10.8671 8.65645 10.8671 8.9435V9.48263ZM11.4149 9.50201C11.4036 9.50201 11.3945 9.49331 11.3945 9.48263V8.9435C11.3945 8.93282 11.4036 8.92412 11.4149 8.92412H12.9065C12.9178 8.92412 12.9269 8.9328 12.9269 8.9435V9.48263C12.9269 9.49333 12.9178 9.50201 12.9065 9.50201H11.4149Z" fill="#78C081"/>
<path fill-rule="evenodd" clip-rule="evenodd" d="M14.0634 13.7956C14.0634 13.9337 14.1814 14.0457 14.327 14.0457H14.5905H15.1794C15.4819 14.0457 15.7271 13.813 15.7271 13.526V12.4478C15.7271 12.1607 15.4819 11.928 15.1794 11.928H14.5905H14.327C14.1814 11.928 14.0634 12.04 14.0634 12.1782C14.0634 12.3164 14.1814 12.4284 14.327 12.4284H14.5905H15.1794C15.1906 12.4284 15.1998 12.437 15.1998 12.4478V13.526C15.1998 13.5367 15.1906 13.5454 15.1794 13.5454H14.5905H14.327C14.1814 13.5454 14.0634 13.6574 14.0634 13.7956Z" fill="#78C081"/>
<path fill-rule="evenodd" clip-rule="evenodd" d="M10.8671 11.6391C10.8671 11.9261 11.1124 12.1588 11.4149 12.1588H12.9065C13.209 12.1588 13.4543 11.9261 13.4543 11.6391V11.1C13.4543 10.8129 13.209 10.5803 12.9065 10.5803H11.4149C11.1124 10.5803 10.8671 10.8129 10.8671 11.1V11.6391ZM11.4149 11.6585C11.4036 11.6585 11.3945 11.6498 11.3945 11.6391V11.1C11.3945 11.0893 11.4036 11.0806 11.4149 11.0806H12.9065C12.9178 11.0806 12.9269 11.0893 12.9269 11.1V11.6391C12.9269 11.6498 12.9178 11.6585 12.9065 11.6585H11.4149Z" fill="#78C081"/>
<path fill-rule="evenodd" clip-rule="evenodd" d="M4.54572 15.4129C4.54572 15.7372 4.82282 16 5.16455 16H6.15891C6.50068 16 6.77773 15.7372 6.77773 15.4129V14.9217V14.6716C6.77773 14.5334 6.65968 14.4214 6.51405 14.4214C6.36843 14.4214 6.25038 14.5334 6.25038 14.6716V14.9217V15.4129C6.25038 15.4608 6.20947 15.4997 6.15891 15.4997H5.16455C5.114 15.4997 5.07307 15.4608 5.07307 15.4129V14.9217V14.6716C5.07307 14.5334 4.95502 14.4214 4.8094 14.4214C4.66377 14.4214 4.54572 14.5334 4.54572 14.6716V14.9217V15.4129Z" fill="#78C081"/>
<path fill-rule="evenodd" clip-rule="evenodd" d="M11.8411 15.4997C11.7905 15.4997 11.7496 15.4608 11.7496 15.4129V14.9217V14.6716C11.7496 14.5334 11.6316 14.4214 11.4859 14.4214C11.3403 14.4214 11.2223 14.5334 11.2223 14.6716V14.9217V15.4129C11.2223 15.7372 11.4994 16 11.8411 16H12.8355C13.1772 16 13.4543 15.7372 13.4543 15.4129V14.9217V14.6716C13.4543 14.5334 13.3362 14.4214 13.1906 14.4214C13.045 14.4214 12.9269 14.5334 12.9269 14.6716V14.9217V15.4129C12.9269 15.4608 12.886 15.4997 12.8355 15.4997H11.8411Z" fill="#78C081"/>
<path fill-rule="evenodd" clip-rule="evenodd" d="M4.54575 11.1337C4.54575 12.6303 5.82448 13.8435 7.40188 13.8435C8.9793 13.8435 10.258 12.6303 10.258 11.1337C10.258 9.63703 8.97931 8.42379 7.40188 8.42379C5.82448 8.42379 4.54575 9.63703 4.54575 11.1337ZM7.40188 13.3432C6.11572 13.3432 5.07309 12.354 5.07309 11.1337C5.07309 9.91336 6.11573 8.92412 7.40188 8.92412C8.68806 8.92412 9.7307 9.91336 9.7307 11.1337C9.7307 12.354 8.68807 13.3432 7.40188 13.3432Z" fill="#78C081"/>
<path fill-rule="evenodd" clip-rule="evenodd" d="M7.40188 13.8435C7.5475 13.8435 7.66556 13.7315 7.66556 13.5934V8.67395C7.66556 8.53578 7.5475 8.42379 7.40188 8.42379C7.25626 8.42379 7.13821 8.53578 7.13821 8.67395V13.5934C7.13821 13.7315 7.25626 13.8435 7.40188 13.8435Z" fill="#78C081"/>
<path fill-rule="evenodd" clip-rule="evenodd" d="M4.54575 11.1337C4.54575 11.2718 4.66378 11.3838 4.8094 11.3838H9.99435C10.14 11.3838 10.258 11.2718 10.258 11.1337C10.258 10.9955 10.14 10.8835 9.99435 10.8835H4.8094C4.66378 10.8835 4.54575 10.9955 4.54575 11.1337Z" fill="#78C081"/>
<path fill-rule="evenodd" clip-rule="evenodd" d="M5.38229 13.0499C5.48526 13.1476 5.65221 13.1476 5.75518 13.0499L9.42152 9.57129C9.52449 9.47359 9.52449 9.31519 9.42152 9.21749C9.31855 9.1198 9.1516 9.1198 9.04863 9.21749L5.38229 12.6961C5.27932 12.7938 5.27932 12.9522 5.38229 13.0499Z" fill="#78C081"/>
<path fill-rule="evenodd" clip-rule="evenodd" d="M9.42151 13.0499C9.52448 12.9522 9.52448 12.7938 9.42151 12.6961L5.75517 9.21749C5.6522 9.1198 5.48526 9.1198 5.38229 9.21749C5.27931 9.31519 5.27931 9.47359 5.38229 9.57129L9.04862 13.0499C9.1516 13.1476 9.31854 13.1476 9.42151 13.0499Z" fill="#78C081"/>
<path fill-rule="evenodd" clip-rule="evenodd" d="M7.57982 4.53445C7.72 4.49704 7.80168 4.3589 7.76226 4.22589L7.70817 4.0434L7.5155 3.3934C7.44041 3.14029 7.19707 2.96523 6.91978 2.96523H1.77568C1.4984 2.96523 1.25504 3.14023 1.18 3.39339L0.987299 4.0434L0.9332 4.22588C0.893771 4.35889 0.975447 4.49703 1.11563 4.53444C1.13678 4.54009 1.15806 4.54312 1.17908 4.54374C1.18449 4.54389 1.18988 4.54389 1.19524 4.54374C1.30724 4.54045 1.4089 4.46913 1.44085 4.36136L1.53511 4.0434L1.68764 3.52886C1.69874 3.49143 1.73473 3.46556 1.77568 3.46556H6.91978C6.9607 3.46556 6.99671 3.4914 7.00785 3.52886L7.16036 4.0434L7.25461 4.36135C7.28655 4.46912 7.38821 4.54045 7.50021 4.54374C7.50558 4.54389 7.51097 4.54389 7.51638 4.54374C7.53739 4.54312 7.55867 4.54009 7.57982 4.53445Z" fill="#78C081"/>
<path fill-rule="evenodd" clip-rule="evenodd" d="M2.8766 1.32851C2.8766 1.46667 2.99465 1.57868 3.14027 1.57868H5.55519C5.70081 1.57868 5.81886 1.46667 5.81886 1.32851C5.81886 1.19034 5.70081 1.07834 5.55519 1.07834H3.14027C2.99465 1.07834 2.8766 1.19034 2.8766 1.32851Z" fill="#78C081"/>
<path d="M6.97574 1.32851C6.97574 1.47737 6.84854 1.59806 6.6916 1.59806C6.53474 1.59806 6.40751 1.47737 6.40751 1.32851C6.40751 1.17961 6.53474 1.05893 6.6916 1.05893C6.84854 1.05893 6.97574 1.17961 6.97574 1.32851Z" fill="#78C081"/>
<path d="M2.28794 1.32851C2.28794 1.47737 2.16074 1.59806 2.00384 1.59806C1.84694 1.59806 1.71971 1.47737 1.71971 1.32851C1.71971 1.17961 1.84694 1.05893 2.00384 1.05893C2.16074 1.05893 2.28794 1.17961 2.28794 1.32851Z" fill="#78C081"/>
<path fill-rule="evenodd" clip-rule="evenodd" d="M16.8844 4.53444C17.0246 4.49703 17.1062 4.35889 17.0668 4.22588L17.0127 4.04339L16.82 3.3934C16.745 3.14024 16.5016 2.96523 16.2243 2.96523H11.0802C10.803 2.96523 10.5596 3.14022 10.4845 3.39339L10.2918 4.04339L10.2377 4.22588C10.1983 4.35889 10.28 4.49703 10.4202 4.53444C10.4412 4.54007 10.4624 4.54309 10.4834 4.54373C10.4889 4.5439 10.4945 4.5439 10.5001 4.54373C10.6119 4.54034 10.7135 4.46904 10.7454 4.36136L10.8397 4.04339L10.9922 3.52886C11.0033 3.49145 11.0393 3.46556 11.0802 3.46556H16.2243C16.2653 3.46556 16.3013 3.49142 16.3124 3.52885L16.4649 4.04339L16.5592 4.36136C16.5911 4.46904 16.6926 4.54034 16.8045 4.54373C16.81 4.5439 16.8156 4.5439 16.8212 4.54373C16.8421 4.54309 16.8633 4.54007 16.8844 4.53444Z" fill="#78C081"/>
<path fill-rule="evenodd" clip-rule="evenodd" d="M12.1811 1.32851C12.1811 1.46667 12.2992 1.57868 12.4448 1.57868H14.8597C15.0054 1.57868 15.1234 1.46667 15.1234 1.32851C15.1234 1.19034 15.0054 1.07834 14.8597 1.07834H12.4448C12.2992 1.07834 12.1811 1.19034 12.1811 1.32851Z" fill="#78C081"/>
<path d="M16.2803 1.32851C16.2803 1.47737 16.1531 1.59806 15.9962 1.59806C15.8393 1.59806 15.7121 1.47737 15.7121 1.32851C15.7121 1.17961 15.8393 1.05893 15.9962 1.05893C16.1531 1.05893 16.2803 1.17961 16.2803 1.32851Z" fill="#78C081"/>
<path d="M11.5925 1.32851C11.5925 1.47737 11.4653 1.59806 11.3084 1.59806C11.1515 1.59806 11.0243 1.47737 11.0243 1.32851C11.0243 1.17961 11.1515 1.05893 11.3084 1.05893C11.4653 1.05893 11.5925 1.17961 11.5925 1.32851Z" fill="#78C081"/>
<path fill-rule="evenodd" clip-rule="evenodd" d="M8.07667 7.84588C8.22229 7.84588 8.34034 7.73388 8.34034 7.59571V7.34561V5.8436C8.34034 5.51934 8.06328 5.25647 7.72152 5.25647H6.54959C6.49902 5.25647 6.45811 5.21762 6.45811 5.16971V4.54374V4.29362C6.45811 4.15546 6.34006 4.04345 6.19444 4.04345C6.04882 4.04345 5.93077 4.15546 5.93077 4.29362V4.54374V5.16971C5.93077 5.49398 6.20781 5.75681 6.54959 5.75681H7.72152C7.77203 5.75681 7.813 5.79567 7.813 5.8436V7.34561V7.59571C7.813 7.73388 7.93105 7.84588 8.07667 7.84588Z" fill="#78C081"/>
<path fill-rule="evenodd" clip-rule="evenodd" d="M9.92337 7.84588C10.069 7.84588 10.187 7.73388 10.187 7.59571V7.34561V5.8436C10.187 5.79564 10.228 5.75681 10.2785 5.75681H11.4504C11.7922 5.75681 12.0692 5.49398 12.0692 5.16971V4.54373V4.29362C12.0692 4.15546 11.9512 4.04345 11.8056 4.04345C11.6599 4.04345 11.5419 4.15546 11.5419 4.29362V4.54373V5.16971C11.5419 5.21762 11.501 5.25647 11.4504 5.25647H10.2785C9.93669 5.25647 9.6597 5.51937 9.6597 5.8436V7.34561V7.59571C9.6597 7.73388 9.77775 7.84588 9.92337 7.84588Z" fill="#78C081"/>
<path fill-rule="evenodd" clip-rule="evenodd" d="M14.327 14.0457C14.1814 14.0457 14.0634 13.9337 14.0634 13.7956C14.0634 13.6574 14.1814 13.5454 14.327 13.5454H14.5905V12.4284H14.327C14.1814 12.4284 14.0634 12.3164 14.0634 12.1782C14.0634 12.04 14.1814 11.928 14.327 11.928H14.5905V8.13481C14.5905 7.69879 14.2183 7.34561 13.7588 7.34561H10.187V7.59571C10.187 7.73388 10.069 7.84588 9.92337 7.84588C9.77775 7.84588 9.6597 7.73388 9.6597 7.59571V7.34561H8.34034V7.59571C8.34034 7.73388 8.22229 7.84588 8.07667 7.84588C7.93105 7.84588 7.813 7.73388 7.813 7.59571V7.34561H6.40757H4.24124C3.78168 7.34561 3.40945 7.69878 3.40945 8.13481V14.1325C3.40945 14.5686 3.78168 14.9217 4.24124 14.9217H4.54572V14.6716C4.54572 14.5334 4.66377 14.4214 4.8094 14.4214C4.95502 14.4214 5.07307 14.5334 5.07307 14.6716V14.9217H6.25038V14.6716C6.25038 14.5334 6.36843 14.4214 6.51405 14.4214C6.65968 14.4214 6.77773 14.5334 6.77773 14.6716V14.9217H11.2223V14.6716C11.2223 14.5334 11.3403 14.4214 11.4859 14.4214C11.6316 14.4214 11.7496 14.5334 11.7496 14.6716V14.9217H12.9269V14.6716C12.9269 14.5334 13.045 14.4214 13.1906 14.4214C13.3362 14.4214 13.4543 14.5334 13.4543 14.6716V14.9217H13.7588C14.2183 14.9217 14.5905 14.5685 14.5905 14.1325V14.0457H14.327ZM6.40757 7.84595H13.7588C13.9271 7.84595 14.0632 7.9751 14.0632 8.13481V14.1325C14.0632 14.2922 13.9271 14.4214 13.7588 14.4214H4.24124C4.07292 14.4214 3.93679 14.2922 3.93679 14.1325V8.13481C3.93679 7.97511 4.07292 7.84595 4.24124 7.84595H6.40757Z" fill="#78C081"/>
<path d="M7.76226 4.22589C7.80168 4.3589 7.72 4.49704 7.57982 4.53445C7.55867 4.54009 7.53739 4.54312 7.51638 4.54374H7.8634C8.32275 4.54374 8.69555 4.19077 8.69555 3.75454V0.78954C8.69555 0.353509 8.32297 8.39799e-06 7.8634 8.39799e-06H2.61914H0.831797C0.372475 8.39799e-06 0 0.35361 0 0.78954V3.75454C0 4.19067 0.372687 4.54374 0.831797 4.54374H1.17908C1.15806 4.54312 1.13678 4.54009 1.11563 4.53444C0.975447 4.49703 0.893771 4.35889 0.9332 4.22588L0.987299 4.0434H0.831797C0.663719 4.0434 0.527344 3.91414 0.527344 3.75454V0.78954C0.527344 0.629736 0.663931 0.500345 0.831797 0.500345H2.61914H7.8634C8.03172 0.500345 8.1682 0.629837 8.1682 0.78954V3.75454C8.1682 3.91404 8.03194 4.0434 7.8634 4.0434H7.70817L7.76226 4.22589Z" fill="#78C081"/>
<path d="M7.25461 4.36135L7.16036 4.0434H1.53511L1.44085 4.36136C1.4089 4.46913 1.30724 4.54045 1.19524 4.54374H5.93077V4.29362C5.93077 4.15546 6.04882 4.04345 6.19444 4.04345C6.34006 4.04345 6.45811 4.15546 6.45811 4.29362V4.54374H7.50021C7.38821 4.54045 7.28655 4.46912 7.25461 4.36135Z" fill="#78C081"/>
<path d="M17.0668 4.22588C17.1062 4.35889 17.0246 4.49703 16.8844 4.53444C16.8633 4.54007 16.8421 4.54309 16.8212 4.54373H17.1682C17.6273 4.54373 18 4.1907 18 3.75453V0.789532C18 0.353644 17.6275 0 17.1682 0H10.1366C9.67702 0 9.30445 0.353544 9.30445 0.789532V3.75453C9.30445 4.19081 9.67726 4.54373 10.1366 4.54373H10.4834C10.4624 4.54309 10.4412 4.54007 10.4202 4.53444C10.28 4.49703 10.1983 4.35889 10.2377 4.22588L10.2918 4.04339H10.1366C9.96805 4.04339 9.8318 3.91405 9.8318 3.75453V0.789532C9.8318 0.629852 9.96829 0.500337 10.1366 0.500337H17.1682C17.3361 0.500337 17.4727 0.629752 17.4727 0.789532V3.75453C17.4727 3.91415 17.3363 4.04339 17.1682 4.04339H17.0127L17.0668 4.22588Z" fill="#78C081"/>
<path d="M16.5592 4.36136L16.4649 4.04339H15.712H10.8397L10.7454 4.36136C10.7135 4.46904 10.6119 4.54034 10.5001 4.54373H11.5419V4.29362C11.5419 4.15546 11.6599 4.04345 11.8056 4.04345C11.9512 4.04345 12.0692 4.15546 12.0692 4.29362V4.54373H15.712H16.8045C16.6926 4.54034 16.5911 4.46904 16.5592 4.36136Z" fill="#78C081"/>
</g>
<defs>
<clipPath id="clip0_172_1128">
<rect width="18" height="16" fill="white"/>
</clipPath>
</defs>
</svg>
