<svg width="18" height="14" viewBox="0 0 18 14" fill="none" xmlns="http://www.w3.org/2000/svg">
<g clip-path="url(#clip0_172_1141)">
<path d="M9.87277 2.00445V5.12408C9.87277 5.25736 9.99082 5.36535 10.1364 5.36535H16.5999C16.7455 5.36535 16.8636 5.25736 16.8636 5.12408V2.00445C16.8636 1.87118 16.7455 1.76318 16.5999 1.76318L10.1364 1.76318C9.99082 1.76318 9.87277 1.87121 9.87277 2.00445ZM10.4001 3.28559L16.3362 3.28559V3.84292L10.4001 3.84292V3.28559ZM10.4001 4.88282V4.32549H16.3362V4.88282H10.4001ZM16.3362 2.24572V2.80305L10.4001 2.80305V2.24572L16.3362 2.24572Z" fill="#78C081"/>
<path d="M1.40011 1.76318C1.25449 1.76318 1.13644 1.87118 1.13644 2.00445V5.12408C1.13644 5.25736 1.25449 5.36535 1.40011 5.36535H7.86359C8.0092 5.36535 8.12726 5.25736 8.12726 5.12408V2.00445C8.12726 1.87118 8.0092 1.76318 7.86359 1.76318L1.40011 1.76318ZM1.66378 3.28559L7.59991 3.28559V3.84292L1.66378 3.84292V3.28559ZM1.66378 4.88282V4.32549H7.59991V4.88282H1.66378ZM7.59991 2.24572V2.80305L1.66378 2.80305V2.24572L7.59991 2.24572Z" fill="#78C081"/>
<path d="M12.6845 13.1587C12.7875 13.0644 12.7875 12.9117 12.6845 12.8175C12.5815 12.7232 12.4146 12.7232 12.3116 12.8175L12.0515 13.0555V12.9881C12.0515 12.879 12.083 12.838 12.1457 12.7562C12.2258 12.6517 12.3356 12.5085 12.3356 12.2471C12.3356 11.9857 12.2258 11.8425 12.1457 11.7381C12.083 11.6563 12.0515 11.6152 12.0515 11.5061C12.0515 11.3971 12.083 11.3561 12.1457 11.2743C12.2259 11.1698 12.3356 11.0267 12.3356 10.7653C12.3356 10.6888 12.326 10.6228 12.3108 10.5646H14.8984C14.9453 10.6275 14.969 10.671 14.969 10.7653C14.969 10.8743 14.9375 10.9153 14.8747 10.9971C14.7946 11.1016 14.6848 11.2447 14.6848 11.5061C14.6848 11.7676 14.7946 11.9107 14.8747 12.0152C14.9375 12.097 14.9689 12.1381 14.9689 12.2471C14.9689 12.3562 14.9374 12.3972 14.8747 12.479C14.7946 12.5835 14.6848 12.7266 14.6848 12.9881V13.0555L14.4247 12.8175C14.3217 12.7232 14.1547 12.7232 14.0518 12.8175C14.0003 12.8646 13.9746 12.9264 13.9746 12.9881C13.9746 13.0498 14.0003 13.1116 14.0518 13.1587L14.7621 13.8086C14.865 13.9029 15.032 13.9029 15.1349 13.8086L15.8452 13.1587C15.9482 13.0644 15.9482 12.9117 15.8452 12.8175C15.7422 12.7232 15.5753 12.7232 15.4723 12.8175L15.2122 13.0555V12.9881C15.2122 12.879 15.2437 12.838 15.3064 12.7562C15.3865 12.6517 15.4963 12.5085 15.4963 12.2471C15.4963 11.9857 15.3865 11.8425 15.3064 11.7381C15.2436 11.6563 15.2122 11.6152 15.2122 11.5061C15.2122 11.3971 15.2437 11.3561 15.3064 11.2743C15.3866 11.1698 15.4963 11.0267 15.4963 10.7653C15.4963 10.6889 15.4868 10.6228 15.4715 10.5646H17.0262C17.5631 10.5646 18 10.1648 18 9.67351V1.61447C18 1.12315 17.5631 0.723389 17.0262 0.723389L5.21156 0.723389C5.06594 0.723389 4.94789 0.83138 4.94789 0.964657C4.94789 1.09793 5.06594 1.20593 5.21156 1.20593L17.0262 1.20593C17.2724 1.20593 17.4727 1.38919 17.4727 1.61447V9.67348C17.4727 9.89876 17.2724 10.082 17.0262 10.082H15.2163C15.2138 10.0648 15.2122 10.0462 15.2122 10.0244C15.2122 9.91539 15.2437 9.87434 15.3064 9.79257C15.3575 9.72595 15.4205 9.64347 15.4596 9.52483H16.5999C16.7455 9.52483 16.8636 9.41684 16.8636 9.28356V6.16393C16.8636 6.03065 16.7455 5.92266 16.5999 5.92266L10.1364 5.92266C9.99081 5.92266 9.87275 6.03065 9.87275 6.16393V9.28356C9.87275 9.41684 9.99081 9.52483 10.1364 9.52483H11.7068C11.6274 9.62851 11.5241 9.77066 11.5241 10.0244C11.5241 10.0444 11.525 10.0634 11.5262 10.082H10.5145C10.3689 10.082 10.2508 10.19 10.2508 10.3233C10.2508 10.4566 10.3689 10.5646 10.5145 10.5646H11.7377C11.7846 10.6275 11.8082 10.671 11.8082 10.7652C11.8082 10.8742 11.7767 10.9153 11.714 10.997C11.6339 11.1015 11.5241 11.2447 11.5241 11.5061C11.5241 11.7676 11.6339 11.9107 11.714 12.0152C11.7767 12.097 11.8082 12.138 11.8082 12.2471C11.8082 12.3561 11.7767 12.3972 11.714 12.479C11.6338 12.5835 11.5241 12.7266 11.5241 12.9881V13.0555L11.264 12.8174C11.161 12.7232 10.994 12.7232 10.8911 12.8174C10.8396 12.8646 10.8139 12.9263 10.8139 12.9881C10.8139 13.0498 10.8396 13.1116 10.8911 13.1587L11.6014 13.8086C11.7043 13.9028 11.8713 13.9028 11.9742 13.8086L12.6845 13.1587ZM16.3362 8.00239H10.4001V7.44506L16.3362 7.44506V8.00239ZM16.3362 6.40519V6.96252L10.4001 6.96252V6.40519L16.3362 6.40519ZM10.4001 9.04229V8.48496H16.3362V9.04229H10.4001ZM12.0515 10.0244C12.0515 9.91539 12.083 9.87434 12.1457 9.79257C12.1968 9.72595 12.2598 9.64347 12.2989 9.52483H14.8675C14.7882 9.62851 14.6848 9.77066 14.6848 10.0244C14.6848 10.0444 14.6857 10.0634 14.6869 10.082H12.0556C12.0531 10.0648 12.0515 10.0462 12.0515 10.0244Z" fill="#78C081"/>
<path d="M5.31548 12.8175C5.26401 12.8646 5.23824 12.9264 5.23824 12.9881C5.23824 13.0498 5.26398 13.1116 5.31548 13.1587L6.02574 13.8086C6.12871 13.9029 6.29567 13.9029 6.39861 13.8086L7.10887 13.1587C7.21184 13.0645 7.21184 12.9117 7.10887 12.8175C7.0059 12.7233 6.83894 12.7233 6.736 12.8175L6.47585 13.0555V12.9881C6.47585 12.8791 6.50735 12.838 6.57007 12.7562C6.65019 12.6517 6.75994 12.5086 6.75994 12.2471C6.75994 11.9857 6.65019 11.8426 6.57007 11.7381C6.50731 11.6563 6.47585 11.6152 6.47585 11.5062C6.47585 11.3971 6.50735 11.3561 6.57007 11.2743C6.65022 11.1698 6.75998 11.0267 6.75998 10.7653C6.75998 10.6889 6.75042 10.6228 6.73516 10.5646H9.28406C9.42967 10.5646 9.54773 10.4566 9.54773 10.3234C9.54773 10.1901 9.42967 10.0821 9.28406 10.0821H6.48C6.47746 10.0648 6.47585 10.0463 6.47585 10.0244C6.47585 9.91546 6.50735 9.87441 6.57007 9.79263C6.62115 9.72601 6.68418 9.64353 6.72324 9.52489H7.86357C8.00919 9.52489 8.12724 9.4169 8.12724 9.28362V6.16399C8.12724 6.03071 8.00919 5.92272 7.86357 5.92272L1.40009 5.92272C1.25448 5.92272 1.13642 6.03071 1.13642 6.16399V9.28362C1.13642 9.4169 1.25448 9.52489 1.40009 9.52489H2.97045C2.8911 9.62857 2.78778 9.77073 2.78778 10.0244C2.78778 10.0444 2.78862 10.0635 2.78982 10.0821H0.973824C0.727624 10.0821 0.527338 9.89882 0.527338 9.67354V1.61447C0.527338 1.38919 0.727624 1.20593 0.973824 1.20593H3.98109C4.12671 1.20593 4.24476 1.09793 4.24476 0.964657C4.24476 0.83138 4.12671 0.723389 3.98109 0.723389L0.973824 0.723389C0.436847 0.723389 -5.72205e-06 1.12312 -5.72205e-06 1.61447V9.67348C-5.72205e-06 10.1648 0.436847 10.5646 0.973824 10.5646H3.00135C3.04825 10.6275 3.07191 10.671 3.07191 10.7652C3.07191 10.8742 3.04041 10.9153 2.97769 10.997C2.89757 11.1015 2.78782 11.2447 2.78782 11.5061C2.78782 11.7676 2.89757 11.9107 2.97769 12.0152C3.04041 12.097 3.07191 12.138 3.07191 12.2471C3.07191 12.3561 3.04041 12.3972 2.97769 12.479C2.89754 12.5835 2.78782 12.7266 2.78782 12.9881V13.0555L2.52766 12.8174C2.42469 12.7232 2.25773 12.7232 2.15479 12.8174C2.10332 12.8646 2.07755 12.9263 2.07755 12.9881C2.07755 13.0498 2.10329 13.1116 2.15479 13.1587L2.86505 13.8086C2.96803 13.9028 3.13498 13.9028 3.23792 13.8086L3.94818 13.1587C4.05115 13.0644 4.05115 12.9117 3.94818 12.8175C3.84521 12.7232 3.67825 12.7232 3.57532 12.8175L3.31516 13.0555V12.9881C3.31516 12.879 3.34666 12.838 3.40938 12.7562C3.4895 12.6517 3.59926 12.5085 3.59926 12.2471C3.59926 11.9857 3.4895 11.8425 3.40938 11.7381C3.34662 11.6563 3.31516 11.6152 3.31516 11.5061C3.31516 11.3971 3.34666 11.3561 3.40938 11.2743C3.48953 11.1698 3.59926 11.0267 3.59926 10.7653C3.59926 10.6888 3.58969 10.6228 3.57444 10.5646H6.16208C6.20898 10.6275 6.23264 10.671 6.23264 10.7653C6.23264 10.8743 6.20114 10.9153 6.13842 10.9971C6.05826 11.1016 5.9485 11.2447 5.9485 11.5061C5.9485 11.7676 6.05826 11.9107 6.13838 12.0152C6.20114 12.097 6.2326 12.1381 6.2326 12.2471C6.2326 12.3562 6.2011 12.3972 6.13838 12.479C6.05826 12.5835 5.9485 12.7266 5.9485 12.9881V13.0555L5.68835 12.8175C5.58541 12.7232 5.41845 12.7232 5.31548 12.8175ZM7.5999 8.00239H1.66376L1.66376 7.44506L7.5999 7.44506V8.00239ZM7.5999 6.40519V6.96252L1.66376 6.96252V6.40519L7.5999 6.40519ZM1.66376 9.04229V8.48496H7.5999V9.04229H1.66376ZM3.31516 10.0244C3.31516 9.91539 3.34666 9.87434 3.40938 9.79257C3.46046 9.72595 3.5235 9.64347 3.56252 9.52483H6.13118C6.05183 9.62851 5.9485 9.77066 5.9485 10.0244C5.9485 10.0444 5.94935 10.0634 5.95058 10.082H3.31931C3.31678 10.0648 3.31516 10.0462 3.31516 10.0244Z" fill="#78C081"/>
</g>
<defs>
<clipPath id="clip0_172_1141">
<rect width="14" height="18" fill="white" transform="matrix(0 1 -1 0 18 0)"/>
</clipPath>
</defs>
</svg>
