<svg width="18" height="18" viewBox="0 0 18 18" fill="none" xmlns="http://www.w3.org/2000/svg">
<g clip-path="url(#clip0_172_905)">
<path d="M9 0.5625C7.33122 0.5625 5.69992 1.05735 4.31238 1.98448C2.92484 2.9116 1.84338 4.22936 1.20477 5.77111C0.566156 7.31286 0.399065 9.00936 0.724628 10.6461C1.05019 12.2828 1.85378 13.7862 3.03379 14.9662C4.2138 16.1462 5.71722 16.9498 7.35393 17.2754C8.99065 17.6009 10.6871 17.4338 12.2289 16.7952C13.7706 16.1566 15.0884 15.0752 16.0155 13.6876C16.9427 12.3001 17.4375 10.6688 17.4375 9C17.435 6.76301 16.5452 4.61837 14.9634 3.03658C13.3816 1.45479 11.237 0.565031 9 0.5625ZM9 16.875C7.44248 16.875 5.91993 16.4131 4.62489 15.5478C3.32985 14.6825 2.32049 13.4526 1.72445 12.0136C1.12841 10.5747 0.972461 8.99126 1.27632 7.46366C1.58018 5.93606 2.3302 4.53287 3.43154 3.43153C4.53288 2.3302 5.93607 1.58017 7.46367 1.27632C8.99127 0.972457 10.5747 1.12841 12.0136 1.72445C13.4526 2.32049 14.6825 3.32985 15.5478 4.62488C16.4131 5.91992 16.875 7.44247 16.875 9C16.8727 11.0879 16.0422 13.0895 14.5659 14.5659C13.0895 16.0422 11.0879 16.8727 9 16.875Z" fill="#78C081"/>
<path d="M9 2.8125C7.77623 2.8125 6.57994 3.17539 5.56241 3.85528C4.54488 4.53517 3.75182 5.50153 3.2835 6.63215C2.81518 7.76276 2.69265 9.00687 2.93139 10.2071C3.17014 11.4074 3.75944 12.5099 4.62478 13.3752C5.49012 14.2406 6.59262 14.8299 7.79288 15.0686C8.99314 15.3074 10.2372 15.1848 11.3679 14.7165C12.4985 14.2482 13.4648 13.4551 14.1447 12.4376C14.8246 11.4201 15.1875 10.2238 15.1875 9C15.1857 7.35954 14.5332 5.7868 13.3732 4.62682C12.2132 3.46683 10.6405 2.81435 9 2.8125ZM9 14.625C7.88748 14.625 6.79995 14.2951 5.87492 13.677C4.94989 13.0589 4.22892 12.1804 3.80318 11.1526C3.37744 10.1248 3.26604 8.99376 3.48309 7.90262C3.70013 6.81147 4.23586 5.8092 5.02253 5.02252C5.8092 4.23585 6.81148 3.70012 7.90262 3.48308C8.99376 3.26604 10.1248 3.37743 11.1526 3.80318C12.1804 4.22892 13.0589 4.94989 13.677 5.87492C14.2951 6.79994 14.625 7.88748 14.625 9C14.6233 10.4913 14.0301 11.9211 12.9756 12.9756C11.9211 14.0301 10.4913 14.6233 9 14.625Z" fill="#78C081"/>
<path d="M10.3324 7.9682C10.282 7.90306 10.2269 7.84166 10.1677 7.78449C10.2626 7.50628 10.3938 7.24177 10.5578 6.99775C10.6463 6.86947 10.7268 6.75686 10.799 6.65578C11.1399 6.17858 11.3456 5.89044 11.3456 5.39648C11.3456 4.68346 10.5032 3.91401 9.14242 3.91401C8.75777 3.89415 8.37367 3.96231 8.01934 4.1133C7.66501 4.2643 7.34981 4.49415 7.09773 4.78535C6.88917 5.01366 6.74719 5.29477 6.68724 5.59813C6.62729 5.90149 6.65166 6.21548 6.7577 6.50596L7.43948 8.35976C7.40824 8.43668 7.38278 8.51581 7.36331 8.59652C7.0749 8.65329 6.7803 8.67199 6.48702 8.65215C6.33158 8.63952 6.19385 8.62619 6.0701 8.61409C5.48659 8.55754 5.13421 8.52319 4.70657 8.77039C4.53097 8.88801 4.38627 9.04619 4.28472 9.23155C4.18317 9.41691 4.12775 9.624 4.12315 9.83531C4.0892 10.3923 4.22939 10.946 4.52426 11.4197C4.6994 11.7627 4.95049 12.0613 5.25844 12.2927C5.56638 12.5241 5.92306 12.6822 6.30131 12.7549C6.42147 12.7777 6.54349 12.7893 6.66579 12.7895C6.91287 12.7926 7.1575 12.7403 7.38168 12.6363C7.60586 12.5324 7.8039 12.3796 7.96122 12.189L9.22685 10.6706C9.30898 10.6596 9.39019 10.6427 9.46982 10.6198C9.66333 10.8406 9.82655 11.0862 9.95514 11.3501C10.022 11.491 10.0793 11.6169 10.1306 11.7301C10.3736 12.2639 10.5201 12.5861 10.9479 12.8331C11.1109 12.9238 11.2949 12.97 11.4814 12.9669C12.0803 12.9669 12.8219 12.5522 13.3334 11.6664C13.543 11.3432 13.676 10.9764 13.7224 10.594C13.7688 10.2116 13.7273 9.82372 13.6011 9.45979C13.5077 9.16502 13.3352 8.90152 13.1025 8.69793C12.8698 8.49435 12.5857 8.35848 12.2811 8.30511L10.3324 7.9682ZM9.00002 10.125C8.77752 10.125 8.56001 10.059 8.375 9.9354C8.19 9.81178 8.0458 9.63608 7.96066 9.43052C7.87551 9.22495 7.85323 8.99875 7.89664 8.78052C7.94005 8.56229 8.04719 8.36184 8.20453 8.2045C8.36186 8.04717 8.56231 7.94002 8.78054 7.89662C8.99877 7.85321 9.22497 7.87549 9.43054 7.96063C9.63611 8.04578 9.81181 8.18998 9.93542 8.37498C10.059 8.55999 10.125 8.77749 10.125 9C10.1247 9.29826 10.0061 9.58422 9.79514 9.79512C9.58424 10.006 9.29829 10.1247 9.00002 10.125ZM7.52455 5.15163C7.72409 4.9222 7.9739 4.74192 8.25451 4.62485C8.53513 4.50777 8.83899 4.45704 9.14242 4.47663C10.1989 4.47663 10.7831 5.02059 10.7831 5.3966C10.7831 5.69694 10.6842 5.84882 10.3413 6.32891C10.2676 6.43219 10.1854 6.54713 10.095 6.67828C9.92975 6.92261 9.79284 7.18492 9.68686 7.46015C9.37994 7.32215 9.03861 7.27963 8.70722 7.33811C8.37582 7.3966 8.06967 7.55339 7.82853 7.78812L7.28572 6.31187C7.21574 6.11511 7.20101 5.90294 7.24312 5.6984C7.28522 5.49385 7.38256 5.30475 7.52455 5.15163ZM7.52908 11.8288C7.39367 11.9878 7.21732 12.1066 7.01916 12.1724C6.821 12.2381 6.60861 12.2484 6.40504 12.202C6.10655 12.1439 5.8255 12.0177 5.58377 11.8332C5.34205 11.6487 5.14619 11.4109 5.01145 11.1383C4.77849 10.7628 4.66416 10.3258 4.68337 9.88425C4.68353 9.7636 4.71101 9.64454 4.76373 9.53602C4.81646 9.4275 4.89307 9.33232 4.98782 9.25762C5.24778 9.10713 5.4289 9.11714 6.01585 9.17401C6.14221 9.18621 6.28284 9.19994 6.44171 9.21271C6.73552 9.23389 7.03078 9.2214 7.32175 9.1755C7.35738 9.50987 7.49191 9.82602 7.70816 10.0835C7.9244 10.341 8.21253 10.5282 8.5357 10.6211L7.52908 11.8288ZM13.0705 9.64634C13.1694 9.93389 13.2007 10.2404 13.1618 10.542C13.1229 10.8436 13.0149 11.1322 12.8462 11.3852C12.3182 12.2998 11.5545 12.5339 11.2292 12.3459C10.9691 12.1958 10.8871 12.0343 10.6427 11.4972C10.5902 11.3816 10.5317 11.2531 10.4634 11.1091C10.3341 10.8437 10.1751 10.5938 9.98932 10.3642C10.2631 10.1682 10.4712 9.89407 10.5865 9.57773C10.7018 9.2614 10.7188 8.91762 10.6354 8.59143L12.1851 8.8594C12.3905 8.89715 12.5816 8.99046 12.7377 9.12918C12.8938 9.26791 13.0089 9.44675 13.0705 9.64628V9.64634Z" fill="#78C081"/>
<path d="M9 2.25C9.15533 2.25 9.28125 2.12408 9.28125 1.96875C9.28125 1.81342 9.15533 1.6875 9 1.6875C8.84467 1.6875 8.71875 1.81342 8.71875 1.96875C8.71875 2.12408 8.84467 2.25 9 2.25Z" fill="#78C081"/>
<path d="M9 16.3125C9.15533 16.3125 9.28125 16.1866 9.28125 16.0312C9.28125 15.8759 9.15533 15.75 9 15.75C8.84467 15.75 8.71875 15.8759 8.71875 16.0312C8.71875 16.1866 8.84467 16.3125 9 16.3125Z" fill="#78C081"/>
<path d="M1.96875 9.28125C2.12408 9.28125 2.25 9.15533 2.25 9C2.25 8.84467 2.12408 8.71875 1.96875 8.71875C1.81342 8.71875 1.6875 8.84467 1.6875 9C1.6875 9.15533 1.81342 9.28125 1.96875 9.28125Z" fill="#78C081"/>
<path d="M16.0312 9.28125C16.1866 9.28125 16.3125 9.15533 16.3125 9C16.3125 8.84467 16.1866 8.71875 16.0312 8.71875C15.8759 8.71875 15.75 8.84467 15.75 9C15.75 9.15533 15.8759 9.28125 16.0312 9.28125Z" fill="#78C081"/>
</g>
<defs>
<clipPath id="clip0_172_905">
<rect width="18" height="18" fill="white"/>
</clipPath>
</defs>
</svg>
