<svg width="18" height="18" viewBox="0 0 18 18" fill="none" xmlns="http://www.w3.org/2000/svg">
<g clip-path="url(#clip0_92_433)">
<path d="M17.844 13.0965L15.999 12.174L14.8247 9.11958C14.8109 9.08347 14.7898 9.05059 14.7627 9.02301C14.7356 8.99543 14.7031 8.97373 14.6672 8.95927L7.38146 6.04692C7.33052 6.02664 7.27476 6.0217 7.22104 6.03269C7.16733 6.04368 7.11799 6.07014 7.07912 6.1088L6.1074 7.08052C6.06925 7.11943 6.04322 7.16858 6.03249 7.22201C6.02175 7.27543 6.02677 7.33083 6.04693 7.38146L8.95927 14.6672C8.97373 14.7031 8.99543 14.7356 9.02301 14.7627C9.0506 14.7898 9.08347 14.8109 9.11958 14.8247L12.174 15.999L13.0965 17.844C13.1159 17.8846 13.1448 17.9201 13.1808 17.9472C13.2168 17.9744 13.2587 17.9925 13.3032 18C13.3181 18.0014 13.3332 18.0014 13.3482 18C13.4226 17.9997 13.494 17.9699 13.5465 17.9171L17.9171 13.5465C17.9493 13.5154 17.9736 13.4772 17.988 13.4348C18.0024 13.3925 18.0066 13.3474 18.0001 13.3032C17.9925 13.2587 17.9744 13.2168 17.9472 13.1808C17.9201 13.1448 17.8846 13.1159 17.844 13.0965ZM6.63615 7.34489L6.79224 7.19021L10.419 10.8169C10.1799 11.1556 10.0767 11.5716 10.1297 11.9828C10.1827 12.3939 10.388 12.7702 10.705 13.0372C11.0221 13.3043 11.4278 13.4426 11.842 13.4249C12.2561 13.4072 12.6485 13.2348 12.9416 12.9416C13.2348 12.6485 13.4072 12.2561 13.4249 11.8419C13.4426 11.4278 13.3043 11.0221 13.0372 10.705C12.7702 10.388 12.3939 10.1827 11.9828 10.1297C11.5717 10.0767 11.1556 10.1799 10.8169 10.419L7.19021 6.79224L7.3449 6.63614L14.3438 9.43599L15.4477 12.3075L12.3076 15.4477L9.43599 14.3438L6.63615 7.34489ZM11.7704 10.6777C12.0231 10.6781 12.268 10.7661 12.4631 10.9267C12.6583 11.0874 12.7917 11.3107 12.8407 11.5587C12.8897 11.8067 12.8511 12.0639 12.7317 12.2867C12.6122 12.5095 12.4193 12.6839 12.1856 12.7804C11.9519 12.8768 11.6921 12.8893 11.4503 12.8156C11.2085 12.7419 10.9997 12.5867 10.8595 12.3764C10.7193 12.166 10.6564 11.9136 10.6815 11.6621C10.7065 11.4105 10.818 11.1755 10.9969 10.9969C11.2023 10.7922 11.4804 10.6774 11.7704 10.6777ZM13.4255 17.2435L12.7224 15.8372L15.8344 12.7252L17.2407 13.4283L13.4255 17.2435Z" fill="#78C081"/>
<path d="M5.37904 15.047C5.32526 14.9961 5.25406 14.9678 5.18006 14.9678C5.10605 14.9678 5.03485 14.9961 4.98107 15.047L4.62388 15.4042C3.6707 14.1105 3.14486 12.5516 3.11965 10.9449C3.09444 9.33822 3.57112 7.76366 4.48326 6.44072C4.75653 6.59109 5.07118 6.64885 5.38005 6.60535C5.68892 6.56185 5.97537 6.41942 6.19648 6.19942C6.41759 5.97942 6.56145 5.69369 6.60651 5.38504C6.65156 5.0764 6.59538 4.76146 6.44638 4.48744C7.76933 3.5753 9.34388 3.09862 10.9506 3.12383C12.5573 3.14904 14.1161 3.67488 15.4098 4.62806L15.047 4.98103C14.9947 5.03376 14.9654 5.10504 14.9654 5.17931C14.9652 5.21633 14.9723 5.25302 14.9863 5.28728C15.0003 5.32155 15.0209 5.35272 15.047 5.379L16.2873 6.60947C16.34 6.66185 16.4113 6.69125 16.4856 6.69125C16.5599 6.69125 16.6312 6.66185 16.6839 6.60947L17.9172 5.37619C17.9433 5.35007 17.9641 5.31905 17.9782 5.2849C17.9924 5.25076 17.9997 5.21416 17.9997 5.1772C17.9997 5.14024 17.9924 5.10364 17.9782 5.0695C17.9641 5.03536 17.9433 5.00434 17.9172 4.97822L16.6839 3.74494C16.6312 3.69255 16.5599 3.66315 16.4856 3.66315C16.4113 3.66315 16.34 3.69255 16.2873 3.74494L15.8106 4.21884C14.6357 3.33473 13.2466 2.77926 11.7861 2.60948C10.3255 2.4397 8.84606 2.66172 7.49967 3.25275L9.12107 1.63556C9.30492 1.72341 9.51394 1.74329 9.71105 1.69169C9.90816 1.64008 10.0806 1.52033 10.1978 1.35366C10.315 1.187 10.3694 0.984205 10.3514 0.781255C10.3333 0.578305 10.2439 0.388321 10.099 0.245007C9.95422 0.101692 9.7633 0.0143134 9.56017 -0.00162864C9.35704 -0.0175707 9.15483 0.0389547 8.98941 0.15792C8.824 0.276885 8.70606 0.450598 8.65654 0.648242C8.60702 0.845886 8.62911 1.05468 8.71888 1.23759L5.98232 3.97837C5.70447 3.79199 5.37052 3.70786 5.03753 3.74035C4.70453 3.77285 4.39315 3.91995 4.15657 4.15653C3.91999 4.39311 3.77289 4.70449 3.74039 5.03749C3.7079 5.37048 3.79203 5.70443 3.97841 5.98228L1.23763 8.71884C1.05401 8.62937 0.844609 8.60789 0.646643 8.65822C0.448677 8.70856 0.274967 8.82745 0.156381 8.99376C0.0377944 9.16008 -0.0179884 9.36305 -0.00105503 9.56661C0.0158784 9.77017 0.104431 9.96114 0.248868 10.1056C0.393305 10.25 0.584271 10.3386 0.787832 10.3555C0.991394 10.3724 1.19437 10.3166 1.36068 10.1981C1.527 10.0795 1.64589 9.90577 1.69622 9.7078C1.74656 9.50984 1.72508 9.30044 1.6356 9.11681L3.25701 7.49962C2.66539 8.84565 2.44266 10.3249 2.6117 11.7854C2.78074 13.246 3.33545 14.6353 4.21888 15.8106L3.74357 16.2873C3.69119 16.34 3.66179 16.4113 3.66179 16.4856C3.66179 16.5599 3.69119 16.6311 3.74357 16.6838L4.97685 17.9171C5.02936 17.9699 5.10066 17.9998 5.17513 18.0001C5.21225 18.0001 5.249 17.9928 5.28327 17.9786C5.31754 17.9643 5.34866 17.9434 5.37482 17.9171L6.60951 16.6838C6.66189 16.6311 6.69129 16.5599 6.69129 16.4856C6.69129 16.4113 6.66189 16.34 6.60951 16.2873L5.37904 15.047ZM16.4884 4.33837L17.3237 5.17369L16.4884 6.009L15.6531 5.17369L16.4884 4.33837ZM9.28138 0.651186C9.32318 0.609052 9.37654 0.580282 9.43471 0.568527C9.49288 0.556772 9.55323 0.562561 9.60811 0.58516C9.66298 0.607759 9.70991 0.646149 9.74293 0.695459C9.77595 0.74477 9.79358 0.802778 9.79358 0.862123C9.79358 0.921468 9.77595 0.979476 9.74293 1.02879C9.70991 1.0781 9.66298 1.11649 9.60811 1.13909C9.55323 1.16169 9.49288 1.16747 9.43471 1.15572C9.37654 1.14396 9.32318 1.11519 9.28138 1.07306C9.25366 1.04537 9.23167 1.01249 9.21666 0.976296C9.20166 0.940102 9.19393 0.901305 9.19393 0.862123C9.19393 0.822941 9.20166 0.784144 9.21666 0.74795C9.23167 0.711755 9.25366 0.678874 9.28138 0.651186ZM4.55638 4.55634C4.63805 4.47428 4.73513 4.40916 4.84204 4.36473C4.94895 4.3203 5.06358 4.29742 5.17935 4.29742C5.29513 4.29742 5.40976 4.3203 5.51667 4.36473C5.62358 4.40916 5.72065 4.47428 5.80232 4.55634C5.92577 4.6796 6.00989 4.8367 6.04403 5.00778C6.07816 5.17885 6.06078 5.35621 5.99409 5.5174C5.9274 5.6786 5.81439 5.81639 5.66936 5.91334C5.52433 6.01028 5.3538 6.06203 5.17935 6.06203C5.00491 6.06203 4.83438 6.01028 4.68935 5.91334C4.54432 5.81639 4.43131 5.6786 4.36461 5.5174C4.29792 5.35621 4.28054 5.17885 4.31468 5.00778C4.34881 4.8367 4.43293 4.6796 4.55638 4.55634ZM1.07451 9.70322C1.01709 9.7511 0.943839 9.77578 0.869151 9.7724C0.794463 9.76903 0.723737 9.73785 0.670871 9.68498C0.618005 9.63211 0.58682 9.56139 0.583445 9.4867C0.580071 9.41201 0.60475 9.33876 0.652633 9.28134C0.708912 9.22603 0.784663 9.19504 0.86357 9.19504C0.942478 9.19504 1.01823 9.22603 1.07451 9.28134C1.10223 9.30903 1.12422 9.34191 1.13923 9.37811C1.15423 9.4143 1.16196 9.4531 1.16196 9.49228C1.16196 9.53146 1.15423 9.57026 1.13923 9.60645C1.12422 9.64265 1.10223 9.67553 1.07451 9.70322ZM5.17935 17.3153L4.34404 16.4799L5.17935 15.6446L6.01467 16.4799L5.17935 17.3153Z" fill="#78C081"/>
</g>
<defs>
<clipPath id="clip0_92_433">
<rect width="18" height="18" fill="white"/>
</clipPath>
</defs>
</svg>
