<svg width="18" height="12" viewBox="0 0 18 12" fill="none" xmlns="http://www.w3.org/2000/svg">
<g clip-path="url(#clip0_172_1117)">
<path d="M16.4913 7.40973H1.50863C1.26764 7.40973 1.03652 7.31603 0.866114 7.14924C0.695708 6.98244 0.599976 6.75623 0.599976 6.52035V1.46079C0.600243 1.22499 0.696061 0.998926 0.866409 0.832192C1.03676 0.665459 1.26772 0.571673 1.50863 0.571411H16.4913C16.7322 0.571673 16.9632 0.665459 17.1335 0.832192C17.3039 0.998926 17.3997 1.22499 17.4 1.46079V6.52035C17.4 6.75623 17.3042 6.98244 17.1338 7.14924C16.9634 7.31603 16.7323 7.40973 16.4913 7.40973ZM1.50863 1.20386C1.43901 1.20386 1.37224 1.23093 1.32301 1.27911C1.27379 1.32729 1.24613 1.39265 1.24613 1.46079V6.52035C1.24613 6.58849 1.27379 6.65385 1.32301 6.70203C1.37224 6.75021 1.43901 6.77728 1.50863 6.77728H16.4913C16.5609 6.77728 16.6277 6.75021 16.6769 6.70203C16.7262 6.65385 16.7538 6.58849 16.7538 6.52035V1.46079C16.7538 1.39265 16.7262 1.32729 16.6769 1.27911C16.6277 1.23093 16.5609 1.20386 16.4913 1.20386H1.50863Z" fill="#78C081"/>
<path d="M12.8867 3.536H5.11261C4.64422 3.53527 4.19524 3.35277 3.86411 3.02851C3.53298 2.70426 3.34673 2.26472 3.34619 1.80626V0.887634C3.34619 0.803766 3.38023 0.723334 3.44082 0.664031C3.50141 0.604727 3.58358 0.571411 3.66927 0.571411C3.75495 0.571411 3.83713 0.604727 3.89772 0.664031C3.95831 0.723334 3.99235 0.803766 3.99235 0.887634V1.80626C3.99267 2.09718 4.11088 2.3761 4.32106 2.58182C4.53123 2.78753 4.81619 2.90324 5.11342 2.90355H12.8875C13.1846 2.90303 13.4693 2.78723 13.6793 2.58154C13.8893 2.37585 14.0074 2.09705 14.0077 1.80626V0.887634C14.0077 0.803766 14.0418 0.723334 14.1024 0.664031C14.1629 0.604727 14.2451 0.571411 14.3308 0.571411C14.4165 0.571411 14.4987 0.604727 14.5593 0.664031C14.6198 0.723334 14.6539 0.803766 14.6539 0.887634V1.80626C14.6533 2.26486 14.467 2.70452 14.1357 3.02879C13.8044 3.35307 13.3552 3.53548 12.8867 3.536Z" fill="#78C081"/>
<path d="M13.0789 2.36999H4.92122C4.83554 2.36999 4.75336 2.33668 4.69277 2.27738C4.63218 2.21807 4.59814 2.13764 4.59814 2.05377C4.59814 1.9699 4.63218 1.88947 4.69277 1.83017C4.75336 1.77087 4.83554 1.73755 4.92122 1.73755H13.0789C13.1646 1.73755 13.2468 1.77087 13.3074 1.83017C13.368 1.88947 13.402 1.9699 13.402 2.05377C13.402 2.13764 13.368 2.21807 13.3074 2.27738C13.2468 2.33668 13.1646 2.36999 13.0789 2.36999Z" fill="#78C081"/>
<path d="M14.2198 7.40979C14.1341 7.40979 14.0519 7.37648 13.9914 7.31717C13.9308 7.25787 13.8967 7.17744 13.8967 7.09357V6.95522C13.8965 6.72755 13.8039 6.50928 13.6395 6.34829C13.475 6.1873 13.252 6.09674 13.0194 6.09648H4.98182C4.74922 6.09674 4.52621 6.1873 4.36173 6.34829C4.19726 6.50928 4.10473 6.72755 4.10447 6.95522V7.09357C4.10447 7.17744 4.07043 7.25787 4.00984 7.31717C3.94925 7.37648 3.86708 7.40979 3.78139 7.40979C3.6957 7.40979 3.61353 7.37648 3.55294 7.31717C3.49235 7.25787 3.45831 7.17744 3.45831 7.09357V6.95522C3.45879 6.5599 3.61947 6.1809 3.90508 5.90138C4.1907 5.62187 4.57793 5.46465 4.98182 5.46423H13.0204C13.4243 5.46465 13.8116 5.62189 14.0972 5.90145C14.3828 6.18102 14.5435 6.56006 14.5439 6.95542V7.09377C14.5439 7.13536 14.5355 7.17654 14.5191 7.21495C14.5028 7.25336 14.4789 7.28824 14.4488 7.31759C14.4187 7.34695 14.383 7.3702 14.3437 7.38602C14.3044 7.40185 14.2623 7.40992 14.2198 7.40979Z" fill="#78C081"/>
<path d="M2.94997 11.2934C2.86428 11.2934 2.78211 11.26 2.72152 11.2007C2.66093 11.1414 2.62689 11.061 2.62689 10.9771C2.62689 10.8933 2.66093 10.8128 2.72152 10.7535C2.78211 10.6942 2.86428 10.6609 2.94997 10.6609C3.53344 10.6601 4.09276 10.4328 4.50534 10.029C4.91792 9.6252 5.15008 9.07774 5.15093 8.50665C5.15093 8.42278 5.18497 8.34235 5.24556 8.28305C5.30615 8.22375 5.38832 8.19043 5.47401 8.19043C5.55969 8.19043 5.64187 8.22375 5.70246 8.28305C5.76305 8.34235 5.79708 8.42278 5.79708 8.50665C5.79789 10.0429 4.52032 11.2934 2.94997 11.2934Z" fill="#78C081"/>
<path d="M15.0501 11.2934C13.4798 11.2934 12.203 10.0429 12.203 8.50665C12.203 8.42278 12.237 8.34235 12.2976 8.28305C12.3582 8.22375 12.4404 8.19043 12.5261 8.19043C12.6118 8.19043 12.6939 8.22375 12.7545 8.28305C12.8151 8.34235 12.8492 8.42278 12.8492 8.50665C12.85 9.07774 13.0822 9.6252 13.4947 10.029C13.9073 10.4328 14.4666 10.6601 15.0501 10.6609C15.1358 10.6609 15.218 10.6942 15.2786 10.7535C15.3392 10.8128 15.3732 10.8933 15.3732 10.9771C15.3732 11.061 15.3392 11.1414 15.2786 11.2007C15.218 11.26 15.1358 11.2934 15.0501 11.2934Z" fill="#78C081"/>
<path d="M9.00008 11.4285C8.91439 11.4285 8.83222 11.3952 8.77163 11.3359C8.71104 11.2766 8.677 11.1962 8.677 11.1123V8.37164C8.677 8.28778 8.71104 8.20734 8.77163 8.14804C8.83222 8.08874 8.91439 8.05542 9.00008 8.05542C9.08576 8.05542 9.16794 8.08874 9.22853 8.14804C9.28912 8.20734 9.32316 8.28778 9.32316 8.37164V11.1123C9.32316 11.1962 9.28912 11.2766 9.22853 11.3359C9.16794 11.3952 9.08576 11.4285 9.00008 11.4285Z" fill="#78C081"/>
</g>
<defs>
<clipPath id="clip0_172_1117">
<rect width="18" height="12" fill="white"/>
</clipPath>
</defs>
</svg>
