<svg width="18" height="18" viewBox="0 0 18 18" fill="none" xmlns="http://www.w3.org/2000/svg">
<g clip-path="url(#clip0_92_472)">
<path d="M16.2 18H1.8C0.806309 17.999 0.000984375 17.1937 0 16.2V1.8C0.000984375 0.806309 0.806309 0.000984192 1.8 0H16.2C17.1937 0.000984192 17.999 0.806309 18 1.8V16.2C17.999 17.1937 17.1937 17.999 16.2 18V18ZM17.4 1.8C17.4 1.13727 16.8627 0.600012 16.2 0.600012H1.8C1.13727 0.600012 0.600012 1.13727 0.600012 1.8V16.2C0.600012 16.8627 1.13727 17.4 1.8 17.4H16.2C16.8627 17.4 17.4 16.8627 17.4 16.2V1.8Z" fill="#78C081"/>
<path d="M2.24996 14.7C2.82987 14.7 3.29997 15.1701 3.29997 15.75C3.29997 16.3299 2.82987 16.8 2.24996 16.8C1.67006 16.8 1.19995 16.3299 1.19995 15.75C1.19995 15.1701 1.67006 14.7 2.24996 14.7ZM2.24996 16.2C2.49848 16.2 2.69996 15.9986 2.69996 15.75C2.69996 15.5015 2.49848 15.3 2.24996 15.3C2.00144 15.3 1.79996 15.5015 1.79996 15.75C1.79996 15.9986 2.00144 16.2 2.24996 16.2Z" fill="#78C081"/>
<path d="M15.75 16.8C15.1701 16.8 14.7 16.3299 14.7 15.75C14.7 15.1701 15.1701 14.7 15.75 14.7C16.3299 14.7 16.8 15.1701 16.8 15.75C16.8 16.0285 16.6893 16.2956 16.4924 16.4925C16.2955 16.6894 16.0284 16.8 15.75 16.8ZM15.75 15.3C15.5014 15.3 15.3 15.5015 15.3 15.75C15.3 15.9986 15.5014 16.2 15.75 16.2C15.9985 16.2 16.2 15.9986 16.2 15.75C16.2 15.5015 15.9985 15.3 15.75 15.3Z" fill="#78C081"/>
<path d="M2.24996 3.30005C1.67006 3.30005 1.19995 2.82994 1.19995 2.25004C1.19995 1.67013 1.67006 1.20003 2.24996 1.20003C2.82987 1.20003 3.29997 1.67013 3.29997 2.25004C3.29997 2.82994 2.82987 3.30005 2.24996 3.30005ZM2.24996 1.80004C2.00144 1.80004 1.79996 2.00152 1.79996 2.25004C1.79996 2.49856 2.00144 2.70004 2.24996 2.70004C2.49848 2.70004 2.69996 2.49856 2.69996 2.25004C2.69996 2.00152 2.49848 1.80004 2.24996 1.80004Z" fill="#78C081"/>
<path d="M15.75 3.30005C15.1701 3.30005 14.7 2.82994 14.7 2.25004C14.7 1.67013 15.1701 1.20003 15.75 1.20003C16.3299 1.20003 16.8 1.67013 16.8 2.25004C16.8 2.82994 16.3299 3.30005 15.75 3.30005ZM15.75 1.80004C15.5014 1.80004 15.3 2.00152 15.3 2.25004C15.3 2.49856 15.5014 2.70004 15.75 2.70004C15.9985 2.70004 16.2 2.49856 16.2 2.25004C16.2 2.00152 15.9985 1.80004 15.75 1.80004Z" fill="#78C081"/>
<path d="M15.8847 12.9087L15.3447 13.8087C15.2359 13.989 15.0408 14.0994 14.8302 14.1H3.16981C2.95922 14.0993 2.76424 13.9889 2.65529 13.8087L2.11529 12.9087C2.00406 12.7233 2.00118 12.4925 2.10766 12.3043C2.21415 12.1162 2.41363 12 2.6298 12H15.3702C15.5864 12 15.7858 12.1162 15.8924 12.3043C15.9988 12.4925 15.9959 12.7233 15.8847 12.9087ZM2.6298 12.6L3.16981 13.5H14.8302L15.3702 12.6H2.6298Z" fill="#78C081"/>
<path d="M15.8847 10.2087L15.3447 11.1087C15.2359 11.289 15.0408 11.3994 14.8302 11.4H3.16981C2.95922 11.3993 2.76424 11.2889 2.65529 11.1087L2.11529 10.2087C2.00406 10.0234 2.00118 9.7925 2.10766 9.60438C2.21415 9.41626 2.41363 9.3 2.6298 9.3H15.3702C15.5864 9.3 15.7858 9.41626 15.8924 9.60438C15.9988 9.7925 15.9959 10.0233 15.8847 10.2087ZM2.6298 9.90001L3.16981 10.8H14.8302L15.3702 9.90001H2.6298Z" fill="#78C081"/>
<path d="M15.8847 7.50865L15.3447 8.40865C15.2359 8.58893 15.0408 8.69935 14.8302 8.69995H3.16981C2.95922 8.69925 2.76424 8.58886 2.65529 8.40865L2.11529 7.50865C2.00406 7.3233 2.00118 7.09243 2.10766 6.90431C2.21415 6.71619 2.41363 6.59993 2.6298 6.59993H15.3702C15.5864 6.59993 15.7858 6.71619 15.8924 6.90431C15.9988 7.09243 15.9959 7.32327 15.8847 7.50865ZM2.6298 7.19994L3.16981 8.09994H14.8302L15.3702 7.19994H2.6298Z" fill="#78C081"/>
<path d="M15.3444 5.70901C15.2355 5.88908 15.0407 5.99937 14.8302 6H3.1698C2.95922 5.9993 2.76424 5.88891 2.65529 5.7087L2.11529 4.8087C2.00406 4.62335 2.00118 4.39248 2.10766 4.20436C2.21415 4.01624 2.41363 3.89998 2.6298 3.89998H15.3702C15.5864 3.89998 15.7858 4.01624 15.8924 4.20436C15.9988 4.39248 15.996 4.62332 15.8847 4.8087L15.3444 5.70901ZM2.6298 4.50002L3.1698 5.40002H14.8302L15.3702 4.50002H2.6298Z" fill="#78C081"/>
</g>
<defs>
<clipPath id="clip0_92_472">
<rect width="18" height="18" fill="white" transform="matrix(1 0 0 -1 0 18)"/>
</clipPath>
</defs>
</svg>
