<svg width="172" height="113" viewBox="0 0 172 113" fill="none" xmlns="http://www.w3.org/2000/svg">
<path d="M147.906 112.12C148.104 109.847 147.686 107.563 146.697 105.506C145.707 103.45 144.182 101.698 142.281 100.433C140.381 99.1686 138.175 98.4382 135.894 98.3187C133.614 98.1992 131.343 98.6949 129.321 99.754C128.344 97.143 127.341 94.4858 125.612 92.3014C123.884 90.117 121.271 88.4415 118.483 88.5443V112.12H147.906Z" fill="#D0FFD4"/>
<path d="M103 55.3829H42.0454L30.657 39.2237L18.7181 55.8404L4.6909 55.6142L19.8086 35.2661L87.7741 35.5488L103 55.3829Z" fill="#E0E0E0"/>
<path d="M72.5176 55.6141V112.259H11.6506V55.6141H18.6256L30.6571 39.2236L42.0815 55.3674L72.5176 55.6141Z" fill="#F5F5F5"/>
<path d="M49.679 87.7014H63.9171V112.259H49.679V87.7014Z" fill="#E0E0E0"/>
<path d="M18.7182 87.0076H41.1453V100.89H18.7182V87.0076Z" fill="#E0E0E0"/>
<path d="M34.4119 87.0076H34.9263V101.018H34.4119V87.0076Z" fill="#EBEBEB"/>
<path d="M25.0861 87.0076H25.6005V101.018H25.0861V87.0076Z" fill="#EBEBEB"/>
<path d="M25.3436 94.1775H34.6694V94.6915H25.3436V94.1775Z" fill="#EBEBEB"/>
<path d="M18.7182 59.2275H41.1453V73.1099H18.7182V59.2275Z" fill="#E0E0E0"/>
<path d="M34.4119 59.2224H34.9263V73.2332H34.4119V59.2224Z" fill="#EBEBEB"/>
<path d="M25.0861 59.2224H25.6005V73.2332H25.0861V59.2224Z" fill="#EBEBEB"/>
<path d="M25.3436 66.3975H34.6694V66.9114H25.3436V66.3975Z" fill="#EBEBEB"/>
<path d="M51.1656 59.3511H65.3111V72.7349H51.1656V59.3511Z" fill="#E0E0E0"/>
<path d="M72.5124 55.6143H97.2183V112.254H72.5124V55.6143Z" fill="#E0E0E0"/>
<path d="M57.9811 59.3511H58.4955V72.7349H57.9811V59.3511Z" fill="#EBEBEB"/>
<path d="M51.1656 66.1147H65.3111V66.6287H51.1656V66.1147Z" fill="#EBEBEB"/>
<path d="M30.6879 53.0342C29.0316 53.0342 27.689 51.6926 27.689 50.0377C27.689 48.3828 29.0316 47.0413 30.6879 47.0413C32.3441 47.0413 33.6867 48.3828 33.6867 50.0377C33.6867 51.6926 32.3441 53.0342 30.6879 53.0342Z" fill="#E0E0E0"/>
<path d="M52.0811 46.3629L48.2953 41.696V30.4761H56.2219V46.4503L52.0811 46.3629Z" fill="#F5F5F5"/>
<path d="M52.0811 46.3629V30.4761H48.2952V41.696L52.0811 46.3629Z" fill="#EBEBEB"/>
<path d="M47.7654 28.8262H57.1066V30.476H47.7654V28.8262Z" fill="#EBEBEB"/>
<path d="M72.5176 80.3928H118.483V112.259H72.5176V80.3928Z" fill="#F5F5F5"/>
<path d="M89.7031 80.3928H118.483V112.259H89.7031V80.3928Z" fill="#E0E0E0"/>
<path d="M93.9879 90.667H112.809V112.202H93.9879V90.667Z" fill="#F5F5F5"/>
<path d="M75.0483 90.5798H87.1724V93.6637H75.0483V90.5798Z" fill="#EBEBEB"/>
<path d="M103 55.3831V57.0227H42.0814V55.3677L103 55.3831Z" fill="#EBEBEB"/>
<path d="M42.0814 57.0224L30.6878 41.0431L30.657 39.2236L42.0454 55.3829L42.0814 57.0224Z" fill="#EBEBEB"/>
<path d="M4.98405 55.6143H18.6255V56.673H4.98405V55.6143Z" fill="#EBEBEB"/>
<path d="M54.5346 83.9341H59.5704V85.8461H54.5346V83.9341Z" fill="#E0E0E0"/>
<path d="M160.396 11.4695C155.74 5.09982 148.977 2.13037 141.916 2.13037C141.916 2.13037 124.628 2.13037 119.508 17.536C117.617 23.2135 118.037 29.3782 120.327 34.9073C121.187 37.0091 122.27 39.0134 123.558 40.8859C128.023 47.2995 141.916 64.8318 141.916 64.8318H144.937C148.807 59.4701 158.578 41.6534 161.503 35.9487C165.175 28.7802 165.738 18.7865 160.396 11.4695ZM144.801 39.9679C141.879 39.9683 139.023 39.1064 136.594 37.4912C134.165 35.876 132.272 33.5801 131.154 30.8937C130.036 28.2074 129.743 25.2514 130.313 22.3995C130.883 19.5476 132.289 16.928 134.355 14.8719C136.421 12.8158 139.052 11.4157 141.918 10.8485C144.783 10.2813 147.753 10.5726 150.451 11.6856C153.15 12.7985 155.457 14.6831 157.08 17.1009C158.702 19.5188 159.568 22.3614 159.568 25.2691C159.567 29.1673 158.011 32.9057 155.242 35.6621C152.473 38.4185 148.717 39.9673 144.801 39.9679V39.9679Z" fill="#71D281"/>
<path d="M163.436 11.5908C158.782 5.22116 152.017 2.25171 144.956 2.25171C144.956 2.25171 127.667 2.25171 122.548 17.6573C120.657 23.3348 121.077 29.4996 123.369 35.0286C124.228 37.1306 125.31 39.135 126.598 41.0072C131.063 47.425 144.956 64.9511 144.956 64.9511C144.956 64.9511 161.009 42.9708 164.543 36.07C168.215 28.8973 168.78 18.9078 163.436 11.5908ZM144.815 40.0892C141.894 40.0892 139.039 39.227 136.61 37.6117C134.181 35.9963 132.288 33.7004 131.17 31.0141C130.052 28.3279 129.76 25.372 130.33 22.5203C130.899 19.6686 132.306 17.0492 134.372 14.9932C136.437 12.9373 139.069 11.5372 141.934 10.9699C144.799 10.4027 147.768 10.6938 150.467 11.8065C153.166 12.9192 155.473 14.8034 157.096 17.221C158.718 19.6385 159.585 22.4808 159.585 25.3883C159.599 27.3229 159.227 29.2411 158.49 31.0312C157.753 32.8213 156.666 34.4477 155.291 35.8157C153.917 37.1837 152.283 38.266 150.484 38.9997C148.686 39.7333 146.759 40.1037 144.815 40.0892V40.0892Z" fill="#8EEE9E"/>
<path d="M144.801 10.5681C141.748 10.5681 138.771 11.5092 136.279 13.2621C133.786 15.015 131.9 17.4935 130.88 20.3569C132.02 17.8506 133.954 15.785 136.385 14.4758C138.817 13.1666 141.612 12.6859 144.343 13.107C147.075 13.5281 149.593 14.828 151.512 16.8079C153.432 18.7878 154.647 21.3389 154.972 24.0711C155.298 26.8034 154.715 29.5665 153.314 31.9382C151.913 34.3099 149.77 36.1596 147.213 37.2047C144.656 38.2498 141.825 38.4328 139.154 37.7256C136.483 37.0184 134.117 35.46 132.42 33.2886C133.816 35.4224 135.745 37.1586 138.018 38.3271C140.292 39.4955 142.831 40.056 145.387 39.9538C147.943 39.8516 150.429 39.0902 152.601 37.744C154.772 36.3979 156.555 34.5133 157.775 32.2748C158.995 30.0364 159.61 27.521 159.559 24.975C159.508 22.429 158.793 19.9399 157.485 17.7514C156.177 15.563 154.32 13.7503 152.097 12.4911C149.873 11.2318 147.359 10.5692 144.801 10.5681V10.5681Z" fill="#71D281"/>
</svg>
