<svg width="165" height="103" viewBox="0 0 165 103" fill="none" xmlns="http://www.w3.org/2000/svg">
<g clip-path="url(#clip0_2857_352)">
<path d="M37.6957 38.6904H5.9873V62.9905H37.6957V38.6904Z" fill="#8FE89A"/>
<path d="M29.7519 62.8181C29.7245 62.8181 29.7001 57.4023 29.7001 50.7225C29.7001 44.0428 29.7245 38.627 29.7519 38.627C29.7793 38.627 29.8036 44.0397 29.8036 50.7225C29.8036 57.4054 29.7823 62.8181 29.7519 62.8181Z" fill="#495D4C"/>
<path d="M34.5505 57.46H32.1187V60.1905H34.5505V57.46Z" fill="#F5F5F5"/>
<path d="M19.2605 38.7544H15.6599V43.9404H19.2605V38.7544Z" fill="#495D4C"/>
<path d="M19.2605 57.7324H15.6599V62.9184H19.2605V57.7324Z" fill="#495D4C"/>
<path d="M36.9641 38.7056C36.9369 38.7103 36.9091 38.7103 36.8819 38.7056H36.6445H35.7314H32.3621L21.2499 38.7208L10.1346 38.7056H6.76837H5.85528H5.61788C5.59069 38.7103 5.5629 38.7103 5.53571 38.7056H5.61788H5.85528H6.76837L10.1346 38.6875H21.2499H32.3621L35.7314 38.7056H36.6445H36.8819H36.9641Z" fill="#263238"/>
<path d="M64.0928 38.6636H32.3845V62.9636H64.0928V38.6636Z" fill="#E0E0E0"/>
<path d="M56.1429 62.7913C56.1155 62.7913 56.0911 57.3725 56.0911 50.6957C56.0911 44.0189 56.1155 38.6001 56.1429 38.6001C56.1703 38.6001 56.1946 44.0159 56.1946 50.6957C56.1946 57.3755 56.1763 62.7913 56.1429 62.7913Z" fill="#495D4C"/>
<path d="M61.4054 57.4297H58.9735V60.1603H61.4054V57.4297Z" fill="#F5F5F5"/>
<path opacity="0.5" d="M45.6577 38.7241H42.0571V43.9101H45.6577V38.7241Z" fill="white"/>
<path opacity="0.5" d="M45.6577 57.7051H42.0571V62.8911H45.6577V57.7051Z" fill="white"/>
<path d="M64.6537 38.6636H64.5898H64.3493H63.4363L60.067 38.6817H48.9547H37.8395H34.458H33.5449H33.3045H33.2253C33.2517 38.6791 33.2782 38.6791 33.3045 38.6817H33.5449H34.458L37.8242 38.6666H48.9395H60.0518L63.421 38.6817H64.3341H64.5746C64.6003 38.673 64.6268 38.667 64.6537 38.6636V38.6636Z" fill="#0A0D0E"/>
<path d="M65.8734 14.3638H34.165V38.6638H65.8734V14.3638Z" fill="#E0E0E0"/>
<path d="M57.9295 38.4915C57.9022 38.4915 57.8778 33.0757 57.8778 26.3959C57.8778 19.7161 57.9022 14.3003 57.9295 14.3003C57.9569 14.3003 57.9813 19.7161 57.9813 26.3959C57.9813 33.0757 57.9691 38.4915 57.9295 38.4915Z" fill="#495D4C"/>
<path d="M63.1859 33.1294H60.754V35.86H63.1859V33.1294Z" fill="#F5F5F5"/>
<path d="M47.4382 14.4268H43.8376V19.6127H47.4382V14.4268Z" fill="#F5F5F5"/>
<path d="M47.4382 33.4048H43.8376V38.5908H47.4382V33.4048Z" fill="#F5F5F5"/>
<path d="M65.3613 14.3633H65.2821H65.0387H64.1256L60.7593 14.3814L49.6471 14.3965L38.5318 14.3814L35.1625 14.3633H34.2495H34.009H33.9299H34.009H34.2495H35.1625H38.5318L49.6471 14.3481L60.7593 14.3633H64.1256H65.0387H65.2791H65.3613Z" fill="#263238"/>
<path d="M59.8182 90.0457V87.2002H1.23169C1.12727 87.2002 1.0239 87.2209 0.927628 87.261C0.831351 87.3011 0.744101 87.36 0.670981 87.434C0.597861 87.5081 0.540339 87.5959 0.501784 87.6923C0.463228 87.7887 0.444413 87.8918 0.446437 87.9955V89.2837C0.447242 89.4901 0.530327 89.6877 0.677503 89.8334C0.82468 89.979 1.02395 90.0608 1.23169 90.0608H2.86306V91.3581C2.86226 91.5612 2.78046 91.7558 2.63556 91.8992C2.49067 92.0426 2.2945 92.1231 2.08999 92.1231H1.21951C1.01448 92.1231 0.817847 92.204 0.672866 92.3481C0.527886 92.4921 0.446437 92.6875 0.446437 92.8912V94.2035C0.451987 94.4036 0.535879 94.5935 0.680262 94.733C0.824645 94.8725 1.01812 94.9505 1.21951 94.9504H59.8182V92.108H46.1737V90.0457H59.8182ZM16.9033 90.0457H20.4125V92.108H16.9063L16.9033 90.0457ZM14.5627 92.108H11.0534V90.0457H14.5658L14.5627 92.108ZM22.7531 90.0457H26.2685V92.108H22.7561L22.7531 90.0457ZM28.606 90.0457H32.1152V92.108H28.609L28.606 90.0457ZM34.4558 90.0457H37.9681V92.108H34.4588L34.4558 90.0457ZM5.20056 90.0457H8.70985V92.108H5.20361L5.20056 90.0457ZM43.8179 92.108H40.3087V90.0457H43.821L43.8179 92.108Z" fill="#89948F"/>
<path d="M109.175 44.2712C109.271 44.1832 109.347 44.0789 109.398 43.9645C109.449 43.8501 109.473 43.7278 109.471 43.6048C109.468 43.4818 109.437 43.3605 109.381 43.2481C109.325 43.1356 109.245 43.0342 109.144 42.9498L99.2176 34.5912C99.0192 34.4253 98.7574 34.333 98.4854 34.333C98.2134 34.333 97.9515 34.4253 97.7532 34.5912V34.5912C97.6513 34.6772 97.5693 34.7802 97.5122 34.8944C97.455 35.0086 97.4237 35.1318 97.42 35.2568C97.4163 35.3818 97.4403 35.5063 97.4907 35.623C97.541 35.7397 97.6167 35.8465 97.7134 35.9371L101.673 39.6505L99.612 41.416L98.5389 40.664L91.0487 48.3116L87.0468 44.8815L82.2225 57.5257L83.1794 74.6897H94.2771L93.5036 54.2945L100.936 44.8379L100.994 42.5875L103.134 40.6368L107.747 44.3066C107.947 44.4657 108.208 44.55 108.476 44.5419C108.743 44.5338 108.997 44.4339 109.184 44.263L109.175 44.2712Z" fill="#B8B8B8"/>
<path d="M104.627 73.4852L111.697 57.2129L109.042 56.3211V53.1654L128.374 52.9159C128.829 52.908 129.265 52.7634 129.601 52.5091C129.937 52.2548 130.151 51.908 130.202 51.5331L133.039 30.616C133.102 30.1477 133.371 29.7151 133.795 29.4008C134.218 29.0864 134.767 28.9125 135.335 28.9121C135.647 28.9123 135.955 28.9646 136.242 29.066C136.529 29.1673 136.788 29.3157 137.004 29.502C137.22 29.6884 137.388 29.909 137.498 30.1506C137.609 30.3922 137.659 30.6498 137.647 30.908L136.577 52.462L146.671 52.5071L147.013 56.4405L117.163 57.4066L109.379 73.2516L104.627 73.4852Z" fill="#E9E9E9"/>
<path d="M109.33 73.1391L84.6447 73.3061V74.6899L94.8706 74.5786L111.158 74.4752L150.646 69.7752L146.17 55.4153H119.434C118.971 55.4096 118.515 55.4987 118.102 55.6752C117.69 55.8516 117.335 56.11 117.068 56.4279L109.33 73.1391Z" fill="#B8B8B8"/>
<path d="M96.9598 4.48134L79.5959 59.4951L79.7177 74.796H85.2418V59.5919L99.4677 4.62649L138.012 4.4118L145.384 61.6633H149.733L140.763 4.81397C140.624 4.07056 140.227 3.39899 139.642 2.91533C139.057 2.43166 138.32 2.16628 137.559 2.16504H100.089C99.3856 2.16513 98.7014 2.39059 98.1377 2.80791C97.574 3.22522 97.1609 3.81211 96.9598 4.48134V4.48134Z" fill="#E9E9E9"/>
<path d="M76.4793 92.4738V77.7747L79.7299 74.7961L110.166 74.4091L115.645 69.9821C116.666 69.158 117.922 68.6744 119.236 68.6002L125.08 68.2736C125.08 68.2736 127.709 66.4592 130.254 64.6872C133.477 62.4194 137.329 61.2012 141.278 61.2007H158.149C158.761 61.2007 159.349 61.4425 159.782 61.8729C160.215 62.3033 160.459 62.8871 160.459 63.4958V92.4738H76.4793Z" fill="#5CCD6A"/>
<path d="M160.456 87.7354H76.181V92.5675H160.456V87.7354Z" fill="#495D4C"/>
<path d="M80.5425 92.4191C80.5126 94.4667 81.0945 96.4771 82.2147 98.1961C83.3349 99.9152 84.943 101.266 86.8357 102.077C88.7283 102.887 90.8205 103.123 92.8477 102.752C94.8749 102.382 96.746 101.422 98.2244 99.9955C99.7028 98.5686 100.722 96.7381 101.153 94.7356C101.585 92.7331 101.409 90.6485 100.647 88.7455C99.8861 86.8424 98.574 85.2063 96.8769 84.0442C95.1798 82.882 93.1739 82.246 91.1129 82.2165C89.7445 82.1965 88.3855 82.4445 87.1136 82.9465C85.8417 83.4485 84.6818 84.1945 83.7001 85.142C82.7185 86.0894 81.9344 87.2198 81.3926 88.4684C80.8508 89.717 80.5619 91.0595 80.5425 92.4191V92.4191Z" fill="#495D4C"/>
<path d="M80.5456 92.3921C80.5456 92.3921 80.5456 92.4102 80.5456 92.4193C80.5298 95.1493 81.6 97.7751 83.5232 99.7251C85.4464 101.675 88.067 102.791 90.8146 102.831C93.5622 102.871 96.2144 101.831 98.1941 99.9379C100.174 98.0446 101.321 95.451 101.385 92.7217C101.385 92.7217 101.385 92.7036 101.385 92.6945L80.5456 92.3921Z" fill="#495D4C"/>
<path d="M83.647 92.4648C83.6285 93.8991 84.0382 95.3067 84.8245 96.5097C85.6107 97.7128 86.7381 98.6574 88.0643 99.2243C89.3906 99.7911 90.8561 99.9548 92.2759 99.6946C93.6958 99.4345 95.0061 98.7621 96.0416 97.7625C97.077 96.7629 97.7911 95.4808 98.0936 94.0783C98.3961 92.6757 98.2735 91.2155 97.7412 89.8822C97.209 88.5488 96.2909 87.402 95.1031 86.5867C93.9153 85.7714 92.5109 85.324 91.0673 85.3012C90.1062 85.286 89.1516 85.4594 88.2581 85.8115C87.3646 86.1635 86.5499 86.6873 85.8605 87.3528C85.1712 88.0183 84.6208 88.8124 84.241 89.6896C83.8611 90.5669 83.6593 91.5099 83.647 92.4648V92.4648Z" fill="#FAFAFA"/>
<path d="M91.0673 85.3012C90.1062 85.286 89.1516 85.4594 88.2581 85.8115C87.3646 86.1635 86.5499 86.6873 85.8605 87.3528C85.1712 88.0183 84.6208 88.8124 84.241 89.6896C83.8611 90.5669 83.6593 91.5099 83.647 92.4648L98.2776 92.6735C98.2929 91.7186 98.1184 90.7702 97.764 89.8825C97.4097 88.9948 96.8825 88.1853 96.2127 87.5004C95.5428 86.8156 94.7435 86.2688 93.8606 85.8914C92.9776 85.514 92.0284 85.3134 91.0673 85.3012Z" fill="#E0E0E0"/>
<path d="M86.505 92.5041C86.4918 93.3803 86.7405 94.2406 87.2195 94.9764C87.6986 95.7121 88.3865 96.2902 89.1962 96.6375C90.006 96.9847 90.9012 97.0856 91.7687 96.9273C92.6362 96.7691 93.4369 96.3588 94.0696 95.7483C94.7024 95.1379 95.1387 94.3547 95.3234 93.4979C95.5081 92.641 95.4329 91.749 95.1072 90.9347C94.7816 90.1203 94.2202 89.4202 93.4941 88.9229C92.7679 88.4255 91.9096 88.1533 91.0278 88.1406C90.4423 88.1318 89.8609 88.2378 89.3167 88.4523C88.7725 88.6669 88.2762 88.9859 87.8562 89.3912C87.4361 89.7964 87.1006 90.2799 86.8688 90.814C86.6369 91.3482 86.5133 91.9225 86.505 92.5041V92.5041Z" fill="#495D4C"/>
<path d="M131.535 92.4195C131.505 94.4671 132.087 96.4776 133.207 98.1966C134.328 99.9156 135.936 101.266 137.828 102.077C139.721 102.888 141.813 103.123 143.84 102.753C145.868 102.382 147.739 101.423 149.217 99.996C150.696 98.569 151.715 96.7386 152.146 94.7361C152.577 92.7336 152.401 90.649 151.64 88.7459C150.879 86.8429 149.567 85.2068 147.87 84.0446C146.173 82.8825 144.167 82.2464 142.106 82.2169C139.342 82.1773 136.676 83.23 134.694 85.1433C132.711 87.0566 131.575 89.674 131.535 92.4195V92.4195Z" fill="#495D4C"/>
<path d="M131.538 92.3921C131.538 92.3921 131.538 92.4102 131.538 92.4193C131.523 95.1493 132.593 97.7751 134.516 99.7251C136.439 101.675 139.06 102.791 141.807 102.831C144.555 102.871 147.207 101.831 149.187 99.9379C151.166 98.0446 152.313 95.451 152.378 92.7217C152.376 92.7127 152.376 92.7035 152.378 92.6945L131.538 92.3921Z" fill="#495D4C"/>
<path d="M134.64 92.4648C134.621 93.8991 135.031 95.3067 135.817 96.5097C136.603 97.7128 137.731 98.6574 139.057 99.2243C140.383 99.7911 141.849 99.9548 143.269 99.6946C144.688 99.4345 145.999 98.7621 147.034 97.7625C148.07 96.7629 148.784 95.4808 149.086 94.0783C149.389 92.6757 149.266 91.2155 148.734 89.8822C148.202 88.5488 147.284 87.402 146.096 86.5867C144.908 85.7714 143.504 85.324 142.06 85.3012C141.099 85.286 140.144 85.4594 139.251 85.8115C138.357 86.1635 137.543 86.6873 136.853 87.3528C136.164 88.0183 135.614 88.8124 135.234 89.6896C134.854 90.5669 134.652 91.5099 134.64 92.4648V92.4648Z" fill="#FAFAFA"/>
<path d="M142.06 85.3012C141.099 85.286 140.144 85.4594 139.251 85.8115C138.357 86.1635 137.542 86.6873 136.853 87.3528C136.164 88.0183 135.613 88.8124 135.234 89.6896C134.854 90.5669 134.652 91.5099 134.64 92.4648L149.27 92.6735C149.285 91.7186 149.111 90.7702 148.757 89.8825C148.402 88.9948 147.875 88.1853 147.205 87.5004C146.535 86.8156 145.736 86.2688 144.853 85.8914C143.97 85.514 143.021 85.3134 142.06 85.3012V85.3012Z" fill="#E0E0E0"/>
<path d="M137.501 92.5041C137.488 93.3796 137.737 94.2391 138.216 94.9739C138.695 95.7088 139.383 96.286 140.192 96.6325C141.002 96.9791 141.896 97.0795 142.763 96.921C143.629 96.7625 144.429 96.3522 145.061 95.7421C145.693 95.1319 146.129 94.3493 146.313 93.4931C146.498 92.637 146.422 91.7457 146.097 90.9321C145.771 90.1184 145.21 89.419 144.485 88.9221C143.759 88.4252 142.902 88.1533 142.02 88.1406C141.435 88.1318 140.854 88.2378 140.31 88.4524C139.766 88.667 139.27 88.9861 138.85 89.3913C138.43 89.7966 138.095 90.2801 137.863 90.8143C137.632 91.3484 137.509 91.9226 137.501 92.5041V92.5041Z" fill="#495D4C"/>
<path d="M155.516 85.1981C155.516 85.1981 155.498 85.177 155.464 85.1286L155.33 84.9109L155.117 84.5541C155.026 84.3883 154.925 84.2287 154.813 84.0763C154.144 83.0772 153.355 82.1632 152.463 81.3548C152.195 81.0856 151.854 80.8498 151.55 80.5837C151.246 80.3176 150.865 80.0847 150.5 79.8277C150.135 79.5707 149.733 79.3318 149.304 79.1231C149.091 79.0143 148.878 78.8963 148.659 78.7905L147.974 78.4881C147.003 78.0798 145.991 77.7757 144.955 77.5809C141.664 76.9584 138.258 77.493 135.321 79.0929L134.67 79.4588C134.46 79.5828 134.262 79.7219 134.061 79.8489C133.651 80.0998 133.297 80.3992 132.935 80.6623C132.573 80.9254 132.26 81.2278 131.961 81.515C131.663 81.8023 131.371 82.0745 131.127 82.3708C130.317 83.2597 129.619 84.2438 129.049 85.301C128.954 85.4646 128.869 85.6332 128.793 85.8059C128.723 85.9511 128.662 86.0751 128.613 86.1809C128.565 86.2867 128.531 86.3502 128.501 86.4077C128.488 86.4348 128.474 86.4611 128.458 86.4863C128.463 86.4568 128.472 86.4283 128.486 86.4017L128.583 86.1658L128.75 85.7848C128.821 85.6097 128.902 85.439 128.994 85.2737C129.547 84.1983 130.237 83.1974 131.045 82.2952C131.286 81.9928 131.587 81.7267 131.876 81.4273C132.165 81.128 132.512 80.8558 132.853 80.5625C133.194 80.2692 133.571 79.988 133.982 79.734C134.183 79.6039 134.384 79.4648 134.591 79.3348L135.245 78.9659C137.189 77.9008 139.348 77.2809 141.564 77.1515C143.782 77.0685 145.99 77.4819 148.026 78.3611L148.713 78.6635C148.936 78.7724 149.149 78.8903 149.362 79.0022C149.797 79.2139 150.177 79.486 150.579 79.7188C150.981 79.9517 151.307 80.2238 151.632 80.4869C151.958 80.75 152.277 80.9979 152.545 81.2731C153.437 82.0934 154.218 83.0244 154.871 84.043C154.981 84.1996 155.083 84.3621 155.175 84.5299C155.252 84.671 155.319 84.7919 155.376 84.8927L155.495 85.1195C155.505 85.1447 155.512 85.1711 155.516 85.1981Z" fill="#495D4C"/>
<path d="M104.569 87.1064C104.551 87.0803 104.538 87.0518 104.529 87.0217L104.426 86.7767L104.261 86.3715L104.015 85.8333C103.485 84.6901 102.824 83.6115 102.046 82.6189C100.911 81.1295 99.4629 79.9036 97.8028 79.0265C96.8083 78.5452 95.7543 78.1965 94.6679 77.9893C93.5036 77.7526 92.3164 77.6451 91.1282 77.6688C89.94 77.6868 88.7577 77.838 87.6037 78.1193C86.5296 78.3913 85.4946 78.7977 84.5235 79.3289C82.8638 80.2048 81.3794 81.3752 80.1438 82.7822C79.3174 83.7338 78.5979 84.7721 77.998 85.8787C77.785 86.2718 77.6267 86.5772 77.5232 86.7858L77.4015 87.0217C77.3893 87.0505 77.374 87.0779 77.3558 87.1033C77.3628 87.0731 77.373 87.0437 77.3863 87.0156L77.4958 86.7707C77.5871 86.553 77.7393 86.2415 77.9433 85.8424C78.5252 84.7164 79.2349 83.6602 80.0586 82.6945C81.2925 81.2652 82.7827 80.0758 84.4535 79.1868C85.4341 78.6532 86.4795 78.2467 87.5641 77.9772C88.7297 77.69 89.9244 77.5358 91.1251 77.5176C92.3258 77.4929 93.5254 77.6024 94.7014 77.8442C95.7999 78.0565 96.8653 78.4124 97.8698 78.9025C99.5427 79.7948 100.997 81.042 102.131 82.5554C102.908 83.5583 103.562 84.6496 104.079 85.8061C104.164 86.0117 104.243 86.1931 104.31 86.3534C104.377 86.5137 104.42 86.6558 104.462 86.7647C104.505 86.8735 104.526 86.9521 104.551 87.0156C104.561 87.045 104.567 87.0755 104.569 87.1064V87.1064Z" fill="#495D4C"/>
<path d="M76.458 87.2002H30.262V92.5676H76.458V87.2002Z" fill="#495D4C"/>
<path d="M75.207 89.4772C75.207 89.7415 75.1281 89.9999 74.9803 90.2197C74.8325 90.4395 74.6224 90.6108 74.3766 90.712C74.1308 90.8132 73.8603 90.8396 73.5993 90.7881C73.3384 90.7365 73.0986 90.6092 72.9105 90.4223C72.7224 90.2354 72.5942 89.9972 72.5423 89.7379C72.4904 89.4787 72.5171 89.2099 72.6189 88.9657C72.7207 88.7215 72.8931 88.5127 73.1144 88.3659C73.3356 88.219 73.5957 88.1406 73.8618 88.1406C74.0384 88.1406 74.2134 88.1752 74.3766 88.2424C74.5398 88.3095 74.6881 88.408 74.813 88.5321C74.9379 88.6562 75.037 88.8035 75.1046 88.9657C75.1722 89.1279 75.207 89.3017 75.207 89.4772V89.4772Z" fill="#89948F"/>
<path d="M130.692 82.1865C130.692 82.2319 124.191 82.2682 116.174 82.2682C108.157 82.2682 101.656 82.2319 101.656 82.1865C101.656 82.1412 108.154 82.1079 116.174 82.1079C124.194 82.1079 130.692 82.1442 130.692 82.1865Z" fill="#495D4C"/>
<path d="M124.775 81.0403C124.73 81.0403 124.696 78.2311 124.696 74.7687C124.696 71.3064 124.73 68.4941 124.775 68.4941C124.821 68.4941 124.855 71.3033 124.855 74.7687C124.855 78.2341 124.818 81.0403 124.775 81.0403Z" fill="#495D4C"/>
<path d="M76.458 77.2241H71.3904V87.2695H76.458V77.2241Z" fill="#495D4C"/>
<path d="M65.149 62.9697H33.4406V87.2698H65.149V62.9697Z" fill="#8FE89A"/>
<path d="M57.2052 87.0882C57.1778 87.0882 57.1534 81.6724 57.1534 74.9926C57.1534 68.3128 57.1778 62.897 57.2052 62.897C57.2326 62.897 57.2569 68.3097 57.2569 74.9926C57.2569 81.6754 57.2326 87.0882 57.2052 87.0882Z" fill="#495D4C"/>
<path d="M62.4615 81.7388H60.0297V84.4693H62.4615V81.7388Z" fill="#F5F5F5"/>
<path d="M57.761 63.0332H54.1604V68.2192H57.761V63.0332Z" fill="#495D4C"/>
<path d="M46.7138 82.0142H43.1132V87.2001H46.7138V82.0142Z" fill="#495D4C"/>
<path d="M67.442 62.9697C67.4159 62.9742 67.3891 62.9742 67.3629 62.9697H67.1255H66.2124L62.8431 62.9848H51.7309H40.6156L37.2494 62.9697H36.3363H36.0989C36.0717 62.9743 36.0439 62.9743 36.0167 62.9697H36.0989H36.3363H37.2494L40.6156 62.9546H51.7309H62.8431L66.2124 62.9697H67.1255H67.3629H67.442Z" fill="#263238"/>
<path d="M32.964 62.9697H1.25562V87.2698H32.964V62.9697Z" fill="#E0E0E0"/>
<path d="M23.9477 87.0882C23.9172 87.0882 23.8959 81.6724 23.8959 74.9926C23.8959 68.3128 23.9172 62.897 23.9477 62.897C23.9781 62.897 23.9964 68.3097 23.9964 74.9926C23.9964 81.6754 23.9751 87.0882 23.9477 87.0882Z" fill="#263238"/>
<path d="M29.2041 81.7388H26.7723V84.4693H29.2041V81.7388Z" fill="#F5F5F5"/>
<path opacity="0.5" d="M13.4564 63.0332H9.85577V68.2192H13.4564V63.0332Z" fill="white"/>
<path opacity="0.5" d="M13.4564 82.0142H9.85577V87.2001H13.4564V82.0142Z" fill="white"/>
<path d="M31.1568 62.9697C31.1296 62.9743 31.1018 62.9743 31.0746 62.9697H30.8372H29.9242L26.5579 62.9848H15.4457H4.33041L0.961124 62.9697H0.0480402H-0.189361C-0.215544 62.9742 -0.242311 62.9742 -0.268494 62.9697H-0.189361H0.0480402H0.961124L4.33041 62.9546H15.4457H26.5579L29.9242 62.9697H30.8372H31.0746H31.1568Z" fill="#263238"/>
<path d="M161.786 69.5767C163.42 69.9667 164.793 71.6178 164.765 73.287C164.731 74.1247 164.421 74.9282 163.883 75.5739C163.345 76.2196 162.608 76.6718 161.786 76.8612" fill="#E8505B"/>
<g opacity="0.6">
<path d="M161.786 69.5767C163.42 69.9667 164.793 71.6178 164.765 73.287C164.731 74.1247 164.421 74.9282 163.883 75.5739C163.345 76.2196 162.608 76.6718 161.786 76.8612" fill="white"/>
</g>
<path d="M161.853 68.6362H160.456V77.8319H161.853V68.6362Z" fill="#498D51"/>
<path d="M174.867 102.921C174.867 102.964 130.814 103 76.4853 103C22.1568 103 -21.9087 102.964 -21.9087 102.921C-21.9087 102.879 22.1354 102.843 76.4853 102.843C130.835 102.843 174.867 102.876 174.867 102.921Z" fill="#495D4C"/>
</g>
<defs>
<clipPath id="clip0_2857_352">
<rect width="165" height="103" fill="white"/>
</clipPath>
</defs>
</svg>
