<svg width="141" height="125" viewBox="0 0 141 125" fill="none" xmlns="http://www.w3.org/2000/svg">
<path d="M139.318 111.597C139.318 111.597 87.1153 110.517 64.9711 111.597C49.1288 112.368 1.49471 111.597 1.49471 111.597C1.49471 111.597 2.47281 76.7299 1.49471 59.0554C0.864874 47.783 1.49471 13.8953 1.49471 13.8953C1.49471 13.8953 52.2039 13.9917 68.5055 13.3612C95.481 12.3003 139.318 13.8953 139.318 13.8953C139.318 13.8953 140.37 38.1389 139.318 52.5679C138.254 67.2862 139.318 111.597 139.318 111.597Z" fill="white"/>
<path opacity="0.5" d="M139.318 13.8953V36.0395C129.963 35.8058 104.054 35.331 70.0912 36.1471C34.0461 37.0113 8.70074 36.4252 1.47986 36.2138V13.8953C1.47986 13.8953 52.1891 13.9954 68.4907 13.3612C95.481 12.3003 139.318 13.8953 139.318 13.8953Z" fill="#92E3A9" fill-opacity="0.7"/>
<path opacity="0.2" d="M87.0787 110.139L85.8153 34.96H70.4062C69.7208 46.7887 70.1728 94.3932 70.3469 110.139H87.0787Z" fill="#92E3A9" fill-opacity="0.7"/>
<path opacity="0.2" d="M3.23236 36.2507L20.1346 36.1357C20.1346 36.1357 21.4239 94.293 18.4822 110.139H4.20678C4.20678 110.139 4.40314 88.9554 4.20678 71.47C4.01041 53.9846 3.23236 36.2507 3.23236 36.2507Z" fill="#92E3A9" fill-opacity="0.7"/>
<path d="M3.2326 24.5411C3.2326 24.5411 45.0982 23.9513 57.7542 24.5411C70.4102 25.1309 105.233 24.1071 110.308 23.7992C115.384 23.4914 138.466 24.5411 138.466 24.5411C139.333 17.6048 137.684 14.4297 137.684 14.4297C137.684 14.4297 75.9268 15.2346 46.0281 15.6389C16.1294 16.0432 3.2326 15.6389 3.2326 15.6389C3.2326 15.6389 3.82169 21.1175 3.2326 24.5411Z" fill="#5CCD6A"/>
<path d="M139.318 111.597C139.318 111.597 87.1153 110.517 64.9711 111.597C49.1288 112.368 1.49471 111.597 1.49471 111.597C1.49471 111.597 2.47281 76.7299 1.49471 59.0554C0.864874 47.783 1.49471 13.8953 1.49471 13.8953C1.49471 13.8953 52.2039 13.9917 68.5055 13.3612C95.481 12.3003 139.318 13.8953 139.318 13.8953C139.318 13.8953 140.37 38.1389 139.318 52.5679C138.254 67.2862 139.318 111.597 139.318 111.597Z" stroke="#495E4C" stroke-width="0.4" stroke-linecap="round" stroke-linejoin="round"/>
<path d="M5.32935 25.4238C5.32935 25.4238 21.305 24.834 39.6258 25.4238C57.9466 26.0136 85.8076 25.6352 100.679 25.1605C115.551 24.6857 133.538 24.541 133.538 24.541" stroke="#495E4C" stroke-width="0.4" stroke-linecap="round" stroke-linejoin="round"/>
<path d="M5.32928 36.1358C5.32928 36.1358 121.334 34.96 133.519 34.96" stroke="#495E4C" stroke-width="0.4" stroke-linecap="round" stroke-linejoin="round"/>
<path d="M20.1342 24.541C20.1342 24.541 21.7448 89.5493 20.1342 102.313" stroke="#495E4C" stroke-width="0.4" stroke-linecap="round" stroke-linejoin="round"/>
<path d="M36.1091 24.541C36.1091 24.541 35.5252 96.0998 36.1091 101.115" stroke="#495E4C" stroke-width="0.4" stroke-linecap="round" stroke-linejoin="round"/>
<path d="M52.8189 24.541C52.8189 24.541 53.4046 38.6362 53.5603 51.1029C53.716 63.5697 52.8189 100.525 53.5603 104.65" stroke="#495E4C" stroke-width="0.4" stroke-linecap="round" stroke-linejoin="round"/>
<path d="M70.4058 25.1343C70.4058 25.1343 69.5135 67.9761 69.8837 82.6498C70.254 97.3236 70.4058 105.25 70.4058 105.25" stroke="#495E4C" stroke-width="0.4" stroke-linecap="round" stroke-linejoin="round"/>
<path d="M85.7964 24.541C85.7964 24.541 87.2788 75.4764 87.1157 86.4001C86.9527 97.3238 87.1157 103.422 87.1157 103.422" stroke="#495E4C" stroke-width="0.4" stroke-linecap="round" stroke-linejoin="round"/>
<path d="M102.506 23.7988C102.506 23.7988 102.413 53.8437 103.358 62.1932C104.303 70.5427 102.932 105.265 102.932 105.265" stroke="#495E4C" stroke-width="0.4" stroke-linecap="round" stroke-linejoin="round"/>
<path d="M118.941 23.7988C118.941 23.7988 119.571 39.1662 119.682 47.7494C119.793 56.3326 119.389 100.143 120.423 103.436" stroke="#495E4C" stroke-width="0.4" stroke-linecap="round" stroke-linejoin="round"/>
<path d="M5.32928 45.2312C5.32928 45.2312 29.4409 44.7935 44.72 45.2312C44.72 45.2312 44.6829 49.341 44.72 50.9545C44.72 50.9545 9.15276 50.6615 5.32928 50.9545C5.32928 50.9545 5.62197 46.2586 5.32928 45.2312Z" fill="white" stroke="#495E4C" stroke-width="0.6" stroke-linecap="round" stroke-linejoin="round"/>
<path d="M86.3373 45.038V50.9728C86.3373 50.9728 116.425 50.6797 119.645 50.0937L119.585 44.3703C119.585 44.3703 97.0186 44.107 86.3373 45.038Z" fill="white" stroke="#495E4C" stroke-width="0.6" stroke-linecap="round" stroke-linejoin="round"/>
<path d="M35.8467 52.5679H70.1023L69.8875 58.0353C69.8875 58.0353 55.4568 58.3654 47.6876 58.5509C39.9184 58.7363 36.1097 58.9886 36.1097 58.9886L35.8467 52.5679Z" fill="#5CCD6A" stroke="#495E4C" stroke-width="0.6" stroke-linecap="round" stroke-linejoin="round"/>
<path d="M120.386 50.9544L120.526 55.0647C120.526 55.0647 131.187 54.3228 132.754 54.4786V50.3682C132.754 50.3682 123.32 50.2199 120.386 50.9544Z" fill="#5CCD6A" stroke="#495E4C" stroke-width="0.6" stroke-linecap="round" stroke-linejoin="round"/>
<path d="M70.1024 65.6357C70.1024 65.6357 99.3712 64.9532 103.358 63.603V71.7634C103.358 71.7634 74.7595 71.8784 69.7986 72.7834C69.7986 72.7982 69.5096 67.2603 70.1024 65.6357Z" fill="white" stroke="#495E4C" stroke-width="0.6" stroke-linecap="round" stroke-linejoin="round"/>
<path d="M72.1179 65.5834C72.1179 65.5834 69.3206 69.9048 69.8949 70.4574C70.4692 71.0101 73.3072 65.7726 74.1741 65.6354C75.0411 65.4981 71.1472 72.8388 71.5177 73.0985C71.8882 73.3581 76.8121 65.3423 77.9791 65.3423C79.1462 65.3423 75.3857 72.3232 76.1267 72.2898C76.8677 72.2565 80.3355 65.4759 81.5952 65.3423C82.8549 65.2088 78.6757 72.186 79.6427 72.1563C80.6097 72.1266 84.4888 64.7117 85.289 65.1086C86.0893 65.5055 81.3062 71.5665 82.5733 72.0636C83.8404 72.5606 87.0785 65.576 88.6309 65.2236C90.1833 64.8712 85.0408 71.5851 86.5413 71.7631C88.0418 71.9412 90.2907 64.7637 91.4615 65.3349C92.6323 65.9061 89.3126 69.8899 89.8017 70.157C90.2907 70.4241 91.8542 65.3572 93.4177 65.3349C94.9812 65.3127 91.5653 69.8899 91.9358 70.4426C92.3062 70.9953 93.8957 69.0924 93.8957 69.0924" stroke="#92E3A9" stroke-width="0.6" stroke-linecap="round" stroke-linejoin="round"/>
<path d="M6.79272 45.2086C6.79272 45.2086 5.54787 48.176 5.84426 48.3133C6.14066 48.4505 7.32623 45.3793 8.48217 45.5239C9.6381 45.6686 6.38518 50.9023 7.14099 50.8764C7.89679 50.8504 10.4754 44.8785 11.2646 45.1975C12.0537 45.5165 9.36023 50.1827 9.87151 50.5054C10.3828 50.8281 12.9503 44.8563 13.758 45.1864C14.5656 45.5165 11.4869 50.2829 12.276 50.2829C13.0651 50.2829 15.7216 45.0899 16.5255 45.0899C17.3295 45.0899 14.0358 49.6189 14.8398 50.2198C15.6438 50.8207 17.6259 44.5039 18.8004 45.0899C19.9748 45.676 17.0405 49.912 17.9186 50.3682C18.7967 50.8244 21.0678 44.7264 21.8013 45.0528C22.5349 45.3793 19.6154 50.8244 20.1193 50.8281C20.6232 50.8318 23.8687 44.5706 24.6023 45.0417C25.3358 45.5128 21.8903 50.8318 22.5497 50.8318C23.2092 50.8318 26.6548 44.4 27.5329 44.719C28.4109 45.038 25.2617 49.7079 26.0509 50.001C26.84 50.294 28.7629 46.6997 29.1297 46.6997C29.4965 46.6997 27.8441 50.001 28.3035 50.001C28.7629 50.001 30.5264 44.489 31.4008 45.0454C32.2751 45.6018 30.3745 48.6805 30.8154 48.8288C31.2563 48.9772 34.0387 44.8637 34.8427 45.4534C35.6466 46.0432 31.712 50.8764 32.9569 50.8764C34.2017 50.8764 36.3283 45.5239 37.3546 45.5981C38.3809 45.6723 35.3021 50.3682 36.1097 50.4424C36.9174 50.5166 38.529 45.1604 39.4071 45.4534C40.2852 45.7465 38.1623 49.4891 38.7476 49.7079C39.333 49.9268 40.5779 45.9653 41.6041 46.0395C42.6304 46.1137 39.6998 49.8563 40.9447 50.001C42.1895 50.1456 42.6304 45.8207 43.8752 45.9653C45.1201 46.11 42.3007 49.9379 42.9787 50.4424C43.6567 50.9468 44.7051 48.5321 44.7051 48.5321" stroke="#5CCD6A" stroke-width="0.6" stroke-linecap="round" stroke-linejoin="round"/>
<path d="M5.78131 54.2556L7.48952 53.5137C7.47359 54.0761 7.35817 54.6313 7.14862 55.1534C7.39559 55.0972 7.62008 54.9682 7.79312 54.783C7.96617 54.5979 8.07983 54.3651 8.11945 54.1146L7.93047 54.7156H9.52751C9.50189 54.628 9.50578 54.5344 9.5386 54.4493C9.57142 54.3641 9.63133 54.2921 9.70908 54.2445C9.53863 54.3966 9.64238 54.7082 9.84618 54.8121C10.0639 54.8921 10.3029 54.8921 10.5206 54.8121C11.0836 54.6714 11.6256 54.4569 12.1324 54.174C12.0914 54.3581 12.117 54.5509 12.2045 54.7179C12.292 54.885 12.4358 55.0156 12.6104 55.0866C12.9569 55.2208 13.3307 55.2691 13.6998 55.2275L18.491 55.0755" stroke="#495E4C" stroke-width="0.6" stroke-linecap="round" stroke-linejoin="round"/>
<path d="M5.36633 57.5977C5.36633 57.5977 6.0259 56.7444 6.61507 56.8557C7.20423 56.967 6.83369 57.9056 7.05231 58.054C7.27093 58.2023 7.64148 56.099 8.00461 56.8557C8.23472 57.3206 8.96061 58.0614 8.96061 58.0614C8.96061 58.0614 9.76469 57.2119 9.98332 57.3751C10.2019 57.5383 10.6429 57.3751 10.6429 57.3751H17.4609" stroke="#495E4C" stroke-width="0.6" stroke-linecap="round" stroke-linejoin="round"/>
<path d="M26.8734 53.5288C26.8734 53.5288 21.3642 71.5298 67.4756 69.5787" stroke="#495E4C" stroke-width="0.6" stroke-linecap="round" stroke-linejoin="round"/>
<path d="M67.4756 68.2876L68.6464 69.7266L67.4756 70.4572" stroke="#495E4C" stroke-linecap="round" stroke-linejoin="round"/>
<path d="M39.9186 70.1644C36.1099 68.4024 29.2002 69.5931 24.0725 72.8202C18.9448 76.0473 17.8889 86.6151 36.6694 83.5327C55.4499 80.4502 43.5717 71.7779 36.9954 71.7779" fill="white"/>
<path d="M39.9186 70.1644C36.1099 68.4024 29.2002 69.5931 24.0725 72.8202C18.9448 76.0473 17.8889 86.6151 36.6694 83.5327C55.4499 80.4502 43.5717 71.7779 36.9954 71.7779" stroke="#92E3A9" stroke-width="0.6" stroke-linecap="round" stroke-linejoin="round"/>
<path d="M25.0247 75.8877C25.0247 75.8877 26.1732 74.8454 26.6697 74.7749C27.1662 74.7045 25.7323 75.7356 26.6697 75.8877C27.6071 76.0398 27.4107 75.5168 28.3222 75.3276C29.2336 75.1384 29.5152 76.1585 29.5152 76.1585C29.5152 76.1585 30.9972 75.6577 31.8605 75.4166C32.7238 75.1755 32.1532 76.5888 33.3425 76.1585C34.5318 75.7282 33.9946 75.068 35.8657 75.4166C37.7367 75.7653 41.3677 75.5428 42.9979 75.4166" stroke="#92E3A9" stroke-width="0.6" stroke-linecap="round" stroke-linejoin="round"/>
<path d="M26.6881 79C27.0587 78.1022 26.5992 77.9279 27.6256 78.3841C28.652 78.8404 29.2375 79.4562 29.6784 79C29.8592 78.7956 30.0987 78.6523 30.3642 78.5899C30.6296 78.5275 30.9078 78.5489 31.1606 78.6512C31.5978 78.8367 30.5714 79.1298 31.5978 78.8367C32.1937 78.6741 32.7458 78.38 33.2134 77.9761C33.2134 77.9761 32.954 78.5993 34.036 79.1595C35.118 79.7196 35.8887 78.5659 35.8887 78.5659C37.5403 78.503 39.1941 78.529 40.8429 78.6438" stroke="#92E3A9" stroke-width="0.6" stroke-linecap="round" stroke-linejoin="round"/>
<path d="M35.4774 120.377L39.3978 116.077V114.964L42.3918 112.227C42.3918 112.227 46.0453 113.492 47.7869 117.947L44.615 120.625L43.4034 120.781L38.7234 124.12C38.7234 124.12 35.4774 122.992 35.4774 120.377Z" fill="#495E4C"/>
<path opacity="0.3" d="M42.5094 113.058C42.5094 113.058 43.8471 117.042 47.3005 117.854" stroke="white" stroke-width="0.4" stroke-linecap="round" stroke-linejoin="round"/>
<path opacity="0.3" d="M40.0197 116.14C40.0197 116.14 41.235 119.349 43.8177 120.376" stroke="white" stroke-width="0.4" stroke-linecap="round" stroke-linejoin="round"/>
<path opacity="0.2" d="M45.9463 9.72942L47.2196 8.27306H50.1773C50.9753 8.09579 51.7319 7.76688 52.4061 7.30416C52.4061 7.30416 51.2811 6.15663 49.9232 6.11727H47.3708L40.5541 4.87891L2.58155 8.27306C2.31725 9.04368 2.24138 9.86653 2.3603 10.6726C2.47922 11.4786 2.78947 12.2444 3.26503 12.9056L45.9463 9.72942Z" fill="black" fill-opacity="0.7"/>
<path opacity="0.2" d="M63.0279 12.9065L64.0533 12.0314L67.3623 11.9951C67.5747 10.9234 67.5992 9.82291 67.4349 8.74282L58.388 5.59961C56.0651 7.05009 57.0088 12.9065 57.0088 12.9065H63.0279Z" fill="black" fill-opacity="0.7"/>
<path d="M49.7598 2.74436C49.7598 2.74436 51.3507 2.5445 52.2581 3.28337C52.2581 3.28337 52.1401 4.22209 49.7477 4.46132L49.7598 2.74436Z" fill="#5CCD6A" stroke="#495E4C" stroke-width="0.5" stroke-linecap="round" stroke-linejoin="round"/>
<path d="M46.814 2.32355L44.7485 0.912598L2.53893 4.3128C0.685064 7.31637 2.99862 10.2987 2.99862 10.2987L45.4743 6.75926L46.9652 5.29684L49.9109 4.7912C50.0925 4.42127 50.1837 4.01342 50.177 3.60127C50.2008 3.15013 50.06 2.70571 49.7808 2.3508L46.814 2.32355Z" fill="#495E4C"/>
<path d="M16.4777 3.58911L35.3009 2.04492C35.3394 2.13365 35.356 2.23029 35.3494 2.32677C35.3429 2.42325 35.3134 2.51675 35.2633 2.59946C35.2133 2.68217 35.1442 2.75168 35.0618 2.80217C34.9794 2.85266 34.8862 2.88267 34.7898 2.88969L17.1431 4.4036C17.0587 4.41209 16.9735 4.40273 16.893 4.37612C16.8125 4.34951 16.7384 4.30625 16.6757 4.24915C16.613 4.19205 16.5629 4.12238 16.5288 4.04467C16.4947 3.96695 16.4773 3.88292 16.4777 3.79803V3.58911Z" fill="#92E3A9"/>
<path opacity="0.3" d="M44.7122 1.56641C44.7122 1.56641 46.071 3.08048 45.1116 6.10862" stroke="white" stroke-width="0.4" stroke-linecap="round" stroke-linejoin="round"/>
<path opacity="0.3" d="M46.9774 2.72949C47.2155 3.33986 47.2774 4.00497 47.1558 4.64884" stroke="white" stroke-width="0.4" stroke-linecap="round" stroke-linejoin="round"/>
<path opacity="0.3" d="M2.85956 4.87891C2.85956 4.87891 4.29713 6.13861 3.33774 9.72394" stroke="white" stroke-width="0.4" stroke-linecap="round" stroke-linejoin="round"/>
<path opacity="0.3" d="M3.66724 4.63966C3.66724 4.63966 4.12087 4.70022 4.30233 6.97711L44.7124 3.22568C44.6192 2.49934 44.333 1.81133 43.8838 1.2334L3.66724 4.63966Z" fill="white"/>
<path opacity="0.3" d="M47.3705 2.57764C47.5753 2.9091 47.6861 3.29014 47.6911 3.67988L49.9233 3.46186C49.8829 3.15308 49.7888 2.85379 49.645 2.57764H47.3705Z" fill="white"/>
<path d="M66.5727 10.5174L61.9722 9.3516L61.1646 9.7816L58.0461 8.67027C58.0461 8.67027 57.5471 5.55128 60.0757 2.57764L63.2244 3.83129L63.8051 4.64586L68.0034 6.73225C68.0034 6.73225 68.451 9.50906 66.5727 10.5174Z" fill="#5CCD6A"/>
<path d="M66.5727 10.5174L61.9722 9.3516L61.1646 9.7816L58.0461 8.67027C58.0461 8.67027 57.5471 5.55128 60.0757 2.57764L63.2244 3.83129L63.8051 4.64586L68.0034 6.73225C68.0034 6.73225 68.451 9.50906 66.5727 10.5174Z" stroke="#495E4C" stroke-width="0.4" stroke-linecap="round" stroke-linejoin="round"/>
<path d="M58.6086 8.27386C58.6086 8.27386 60.9602 5.77262 60.2127 2.97461" stroke="#495E4C" stroke-width="0.4" stroke-linecap="round" stroke-linejoin="round"/>
<path d="M61.775 8.87938C61.775 8.87938 63.6151 6.75968 63.3579 4.50977" stroke="#495E4C" stroke-width="0.4" stroke-linecap="round" stroke-linejoin="round"/>
<path d="M112.487 120.29C112.487 120.29 110.252 100.201 108.709 95.939C107.166 91.677 105.1 77.5382 105.1 77.5382C105.1 77.5382 109.841 77.1576 111.277 77.1436C112.713 77.1295 114.568 75.7539 114.568 75.7539C114.411 76.0358 114.053 75.8638 113.788 74.1388C113.611 72.9831 111.857 72.6336 111.857 72.6336C111.857 72.6336 107.648 72.9493 104.098 72.4701C103.237 72.7414 102.314 72.7414 101.454 72.4701C100.162 71.9993 99.8998 71.4948 100.609 70.8098C100.609 70.8098 99.6042 69.4963 103.039 67.6246C103.039 67.6246 100.756 65.5698 101.871 64.2421C102.986 62.9145 105.612 61.5841 105.612 61.5841C105.612 61.5841 105.722 60.5806 106.206 60.3213C106.691 60.0619 109.326 58.9824 110.773 57.9789C112.22 56.9754 112.851 57.0487 115.526 56.9754C118.2 56.9021 121.466 56.2313 122.691 56.7894C123.643 57.2235 124.085 58.9232 124.085 58.9232C124.974 59.205 125.064 60.6623 125.121 61.0203C125.383 62.6185 127.221 69.2426 128.037 70.3927C128.854 71.5427 129.335 73.5525 129.189 74.5954C129.043 75.6383 128.668 76.8504 128.297 78.9814C127.925 81.1124 126.664 88.458 126.044 90.5777C125.425 92.6974 125.078 96.3759 125.411 98.1602L134.014 115.34" fill="white"/>
<path opacity="0.4" d="M123.274 65.8602C123.274 65.8602 121.497 66.9341 121.497 67.6163C121.497 67.6163 118.119 70.1898 117.73 73.22C117.73 73.22 115.858 75.1199 115.447 75.9824C115.036 76.845 113.251 77.8569 113.251 77.8569C112.746 77.8092 112.24 77.7904 111.733 77.8006C110.877 77.6711 110.03 77.4827 109.199 77.2368C110.044 77.1832 110.821 77.141 111.269 77.1381C112.46 77.1381 113.938 76.1798 114.408 75.8556C114.228 75.8556 113.977 75.4215 113.78 74.1305C113.603 72.9776 111.849 72.6253 111.849 72.6253C111.849 72.6253 107.64 72.941 104.089 72.4646C103.508 72.645 102.896 72.7082 102.29 72.6506C102.304 72.4272 102.273 72.2032 102.199 71.9918C102.126 71.7803 102.011 71.5856 101.862 71.4188C101.862 71.4188 103.492 70.3336 103.067 69.4964C102.864 69.0961 102.135 68.8481 101.423 68.6987C101.917 68.2806 102.457 67.9186 103.031 67.6191C103.031 67.6191 100.747 65.5642 101.862 64.2366C102.977 62.9089 105.612 61.5841 105.612 61.5841C105.612 61.5841 105.722 60.5834 106.206 60.3213C106.206 60.3213 105.925 61.8688 108.062 61.7307C110.199 61.5925 113.276 60.3213 113.276 60.3213C113.276 60.3213 119.076 60.4819 120.253 59.5884C120.253 59.5884 121.661 60.792 122.691 60.9978C123.722 61.2035 123.274 65.8602 123.274 65.8602Z" fill="#92E3A9"/>
<path opacity="0.4" d="M129.183 74.6039C129.034 75.6441 128.663 76.8589 128.291 78.9899C127.919 81.1209 126.658 88.4694 126.039 90.5863C125.419 92.7031 125.073 96.3844 125.405 98.1687L126.193 100.052C124.484 97.0186 124.62 93.0386 124.757 91.9928C124.924 90.7103 125.884 85.9691 126.728 83.5168C127.573 81.0645 127.649 75.9344 127.649 75.7568C127.649 75.5792 127.204 76.8843 126.751 78.3303C126.298 79.7763 124.634 83.8523 124.634 83.8523C124.577 83.0066 125.273 78.0597 125.399 77.496C125.526 76.9322 126.545 73.141 126.728 72.0699C126.911 70.9988 126.064 69.8149 125.853 68.9693C125.642 68.1236 124.808 64.3522 124.586 61.7561C124.497 60.345 124.147 58.9627 123.552 57.6802C123.784 58.0785 123.964 58.5047 124.087 58.9486C124.977 59.2305 125.067 60.685 125.123 61.0429C125.385 62.6412 127.224 69.2652 128.04 70.4181C128.857 71.571 129.33 73.5638 129.183 74.6039Z" fill="#92E3A9"/>
<path opacity="0.4" d="M112.634 120.438C111.819 113.512 110.189 100.33 109.161 96.7153C109.871 97.6474 110.678 99.154 111.245 102.056C112.386 107.898 112.734 110.469 112.782 113.149C112.827 114.862 112.792 118.018 112.634 120.438Z" fill="#92E3A9"/>
<path d="M112.28 119.526C112.28 119.526 110.054 99.6774 108.517 95.4666C106.98 91.2557 104.922 77.2866 104.922 77.2866C104.922 77.2866 109.645 76.9106 111.075 76.8967C112.505 76.8827 114.353 75.5237 114.353 75.5237C114.196 75.8022 113.84 75.6323 113.576 73.9279C113.4 72.7861 111.652 72.4408 111.652 72.4408C111.652 72.4408 107.46 72.7527 103.924 72.2793C103.066 72.5473 102.147 72.5473 101.29 72.2793C100.003 71.8142 99.7421 71.3157 100.449 70.6389C100.449 70.6389 99.4477 69.3412 102.869 67.492C102.869 67.492 100.595 65.4618 101.705 64.1501C102.816 62.8384 105.432 61.5239 105.432 61.5239C105.432 61.5239 105.542 60.5325 106.024 60.2762C106.506 60.02 109.131 58.9534 110.573 57.962C112.014 56.9705 112.642 57.0429 115.307 56.9705C117.971 56.8981 121.224 56.2353 122.444 56.7867C123.392 57.2156 123.832 58.8949 123.832 58.8949C124.718 59.1734 124.808 60.6132 124.864 60.9669C125.125 62.546 126.956 69.0905 127.769 70.2268C128.583 71.363 129.062 73.3487 128.916 74.3791C128.771 75.4095 128.398 76.607 128.027 78.7124C127.657 80.8178 126.401 88.0754 125.784 90.1696C125.167 92.2639 124.822 95.8982 125.153 97.6611L133.723 114.635" stroke="#495E4C" stroke-width="0.4" stroke-linecap="round" stroke-linejoin="round"/>
<path d="M100.595 70.8099C100.595 70.8099 101.336 71.8162 103.898 71.4046C106.46 70.9931 109.529 68.4308 109.529 68.4308L111.368 67.6528C111.368 67.6528 113.707 67.9121 114.56 67.5034" stroke="#495E4C" stroke-width="0.4" stroke-linecap="round" stroke-linejoin="round"/>
<path d="M113.251 67.7261C113.251 67.7261 114.777 69.3611 116.002 69.7333" stroke="#495E4C" stroke-width="0.4" stroke-linecap="round" stroke-linejoin="round"/>
<path d="M114.554 75.7544C115.593 75.0863 116.967 73.2172 118.229 73.0791" stroke="#495E4C" stroke-width="0.4" stroke-linecap="round" stroke-linejoin="round"/>
<path d="M114.34 73.488C114.903 71.6247 116.593 69.7333 116.593 69.7333C116.871 69.1128 117.219 68.5264 117.632 67.9857C118.05 67.3669 118.687 66.929 119.414 66.7595C119.414 66.7595 117.939 62.5793 118.375 61.7393" stroke="#495E4C" stroke-width="0.4" stroke-linecap="round" stroke-linejoin="round"/>
<path d="M111.843 72.6332C111.843 72.6332 112.989 72.2696 113.251 71.5059" stroke="#495E4C" stroke-width="0.4" stroke-linecap="round" stroke-linejoin="round"/>
<path d="M111.585 71.0723C111.585 71.0723 111.515 72.2619 109.729 72.634" stroke="#495E4C" stroke-width="0.4" stroke-linecap="round" stroke-linejoin="round"/>
<path d="M111.362 67.6527C111.362 67.6527 112.249 67.0609 112.547 66.4634" stroke="#495E4C" stroke-width="0.4" stroke-linecap="round" stroke-linejoin="round"/>
<path d="M105.612 61.5843C105.612 61.5843 105.294 62.478 106.623 62.8473C107.952 63.2166 111.517 62.8106 113.001 61.5843C113.001 61.5843 113.367 60.5441 113.257 59.876" stroke="#495E4C" stroke-width="0.4" stroke-linecap="round" stroke-linejoin="round"/>
<path d="M112.8 61.7393C112.8 61.7393 117.156 61.5843 117.489 61.5843C117.821 61.5843 119.158 60.8795 119.417 60.1353" stroke="#495E4C" stroke-width="0.4" stroke-linecap="round" stroke-linejoin="round"/>
<path d="M119.408 66.7593C119.408 66.7593 120.389 67.0976 121.068 66.951" stroke="#495E4C" stroke-width="0.4" stroke-linecap="round" stroke-linejoin="round"/>
<path d="M117.237 73.4882C117.237 73.4882 117.08 71.8391 118.229 69.5049" stroke="#495E4C" stroke-width="0.4" stroke-linecap="round" stroke-linejoin="round"/>
<path d="M124.079 58.9316C124.67 61.2318 125.58 68.7974 126.193 70.2293C126.807 71.6613 126.88 72.1489 126.436 73.4879C125.991 74.8268 125.273 78.0599 125.273 78.0599" stroke="#495E4C" stroke-width="0.4" stroke-linecap="round" stroke-linejoin="round"/>
<path d="M125.394 98.1693C124.912 96.6441 124.617 94.637 124.8 93.7095" stroke="#495E4C" stroke-width="0.4" stroke-linecap="round" stroke-linejoin="round"/>
<path d="M97.1662 65.7954C97.1662 65.7954 95.9329 66.0266 95.5161 66.6947C95.5161 66.6947 95.8794 67.2585 97.3689 67.1063C98.8585 66.9541 97.1662 65.7954 97.1662 65.7954Z" fill="#495E4C"/>
<path d="M101.561 63.4644L136.386 58.292L136.83 64.513L101.857 67.9857L100.224 67.25L97.5491 67.3176C97.3002 67.0923 97.1378 66.787 97.09 66.4545C97.0422 66.122 97.112 65.7832 97.2873 65.4967L100.041 64.9048L101.561 63.4644Z" fill="#5CCD6A"/>
<path d="M107.549 63.7909L121.908 61.7501C122.053 61.73 122.2 61.7393 122.341 61.7774C122.482 61.8155 122.614 61.8817 122.729 61.9719C122.843 62.0621 122.939 62.1746 123.009 62.3026C123.08 62.4306 123.124 62.5715 123.139 62.7169L123.167 62.9988C123.196 63.2813 123.114 63.564 122.937 63.786C122.76 64.008 122.503 64.1515 122.221 64.1855L107.837 65.936C107.693 65.9532 107.548 65.9415 107.409 65.9017C107.27 65.8619 107.141 65.7947 107.028 65.7041C106.916 65.6135 106.822 65.5013 106.754 65.3742C106.685 65.247 106.643 65.1073 106.629 64.9635C106.603 64.6872 106.685 64.4118 106.856 64.1937C107.027 63.9756 107.275 63.8315 107.549 63.7909Z" fill="#495E4C"/>
<path opacity="0.3" d="M136.83 64.513L101.857 67.9885L100.224 67.25L97.5491 67.3176C97.4064 67.1891 97.2914 67.0328 97.2112 66.8582L100.027 66.7623L101.266 66.8751L106.133 66.4663L107.558 63.7914C107.558 63.7914 108.808 63.6335 109.81 64.9048C110.813 66.176 111.37 66.0125 111.37 66.0125L135.327 63.5038L135.608 63.222C135.608 63.222 134.643 61.029 135.608 59.2391C135.851 58.7909 136.129 58.6105 136.411 58.6133L136.83 64.513Z" fill="black" fill-opacity="0.7"/>
<path d="M101.561 63.4644L136.386 58.292L136.83 64.513L101.857 67.9857L100.224 67.25L97.5491 67.3176C97.3002 67.0923 97.1378 66.787 97.09 66.4545C97.0422 66.122 97.112 65.7832 97.2873 65.4967L100.041 64.9048L101.561 63.4644Z" stroke="#495E4C" stroke-width="0.6" stroke-linecap="round" stroke-linejoin="round"/>
<path d="M136.386 58.2915C138.799 58.0998 139.317 64.2651 136.83 64.5132C134.451 64.75 133.936 58.4832 136.386 58.2915Z" fill="#5CCD6A"/>
<path opacity="0.3" d="M136.83 64.5132C136.18 64.578 135.667 64.1551 135.318 63.5039L135.6 63.222C135.6 63.222 134.634 61.0288 135.6 59.2387C135.842 58.7904 136.121 58.61 136.402 58.6128C137.247 58.6128 138.109 60.2479 138.072 61.1303L138.438 61.2205C138.571 62.7682 138.081 64.4032 136.83 64.5132Z" fill="black" fill-opacity="0.7"/>
<path d="M136.386 58.2915C138.799 58.0998 139.317 64.2651 136.83 64.5132C134.451 64.75 133.936 58.4832 136.386 58.2915Z" stroke="#495E4C" stroke-width="0.6" stroke-linecap="round" stroke-linejoin="round"/>
<path d="M101.561 63.4644C101.561 63.4644 100.871 64.3326 101.057 65.979C101.121 66.7121 101.399 67.4102 101.857 67.9862" stroke="#495E4C" stroke-width="0.6" stroke-linecap="round" stroke-linejoin="round"/>
<path d="M100.04 64.9048C99.9143 65.2883 99.8655 65.6931 99.8969 66.0956C99.9283 66.4982 100.039 66.8904 100.223 67.2497" stroke="#495E4C" stroke-width="0.6" stroke-linecap="round" stroke-linejoin="round"/>
<path d="M135.306 64.6659C132.922 64.9027 132.463 58.9093 134.889 58.5146" stroke="#495E4C" stroke-width="0.6" stroke-linecap="round" stroke-linejoin="round"/>
<path d="M136.433 58.6811C138.342 58.5147 138.754 63.8456 136.785 64.057C134.893 64.2628 134.496 58.8502 136.433 58.6811Z" stroke="#495E4C" stroke-width="0.6" stroke-linecap="round" stroke-linejoin="round"/>
<path d="M136.439 59.061C136.439 59.061 137.436 59.4303 137.614 61.243C137.791 63.0557 136.768 63.6138 136.768 63.6138" stroke="#495E4C" stroke-width="0.6" stroke-linecap="round" stroke-linejoin="round"/>
<path d="M114.555 77.8006C114.555 77.8006 112.021 77.9471 111.739 77.8006C111.457 77.654 109.881 74.6774 109.808 73.75C109.734 72.8227 109.585 69.8461 109.509 67.9857C109.433 66.1253 109.439 63.2276 105.947 63.8449C104.388 64.1268 104.126 65.601 103.608 68.9187C103.09 72.2364 103.571 73.1186 103.2 77.3552C102.828 81.5918 103.273 83.2746 104.165 85.4084C105.058 87.5422 105.387 92.9682 107.764 94.9752C110.14 96.9821 111.072 100.847 111.072 100.847" fill="white"/>
<path opacity="0.4" d="M108.343 67.1371C107.704 67.2921 105.246 67.4189 105.086 68.2392C104.925 69.0595 106.384 69.4456 106.989 70.1813C106.967 70.1813 104.455 70.1813 103.892 71.4075C103.329 72.6336 104.357 75.2663 104.357 76.7152C104.357 78.164 103.095 81.0645 104.061 82.5697C104.906 83.8833 105.688 86.9078 105.28 89.7801C104.855 88.0606 104.562 86.3976 104.154 85.4082C103.267 83.2885 102.822 81.5973 103.194 77.3691C103.566 73.141 103.081 72.2475 103.602 68.9298C103.974 66.548 104.213 65.1132 104.9 64.3916C105.703 64.2169 106.609 64.1492 107.152 64.5382C108.315 65.3415 108.991 66.9792 108.343 67.1371Z" fill="#92E3A9"/>
<path d="M114.555 77.8006C114.555 77.8006 112.021 77.9471 111.739 77.8006C111.457 77.654 109.881 74.6774 109.808 73.75C109.734 72.8227 109.585 69.8461 109.509 67.9857C109.433 66.1253 109.439 63.2276 105.947 63.8449C104.388 64.1268 104.126 65.601 103.608 68.9187C103.09 72.2364 103.571 73.1186 103.2 77.3552C102.828 81.5918 103.273 83.2746 104.165 85.4084C105.058 87.5422 105.387 92.9682 107.764 94.9752C110.14 96.9821 111.072 100.847 111.072 100.847" stroke="#495E4C" stroke-width="0.4" stroke-linecap="round" stroke-linejoin="round"/>
<path d="M109.803 73.75C109.803 73.75 109.564 73.6739 109.423 72.2249C109.377 71.7986 109.229 71.3898 108.991 71.0334C108.753 70.6769 108.432 70.3835 108.056 70.1782" stroke="#495E4C" stroke-width="0.4" stroke-linecap="round" stroke-linejoin="round"/>
<path d="M104.791 70.1782C104.791 70.1782 103.754 70.4009 103.343 71.8523" stroke="#495E4C" stroke-width="0.4" stroke-linecap="round" stroke-linejoin="round"/>
<path d="M11.9236 33.6786C11.7896 33.6789 11.6864 33.616 11.614 33.4899C11.5416 33.3613 11.505 33.1128 11.5042 32.7444C11.5029 32.1106 11.6493 30.7475 11.9437 28.655C11.9615 28.5648 11.9292 28.5107 11.8467 28.4929C11.7642 28.4724 11.4267 28.4629 10.8342 28.4641C10.0253 28.4659 9.56164 28.5145 9.44334 28.6101C9.32504 28.7057 9.23322 29.1361 9.16789 29.9014C9.14279 30.2054 9.06914 30.699 8.94696 31.3819C8.79931 32.2015 8.72585 32.7851 8.72661 33.1329L8.74259 33.3764C8.74309 33.6082 8.63256 33.7244 8.41101 33.7249C8.14566 33.7254 8.01262 33.5595 8.01191 33.2272C8.01134 32.9619 8.03273 32.7274 8.07608 32.5238C8.14747 32.1784 8.2073 31.8459 8.25555 31.5264C8.28604 31.3254 8.32163 31.1076 8.36235 30.8731C8.52521 29.9401 8.60622 29.2753 8.60536 28.8786C8.60507 28.7446 8.54308 28.6713 8.4194 28.6587C8.1746 28.6309 8.05201 28.5307 8.05164 28.3581C8.05139 28.2422 8.08081 28.1481 8.13991 28.0758C8.20158 28.0035 8.28136 27.9647 8.37924 27.9593C8.62654 27.9485 8.80679 27.9082 8.91999 27.8384C9.02293 27.7866 9.10016 27.7607 9.15168 27.7606C9.25731 27.7604 9.34881 27.7834 9.4262 27.8296C9.51132 27.8809 9.75869 27.9061 10.1683 27.9053C10.1735 27.9052 10.4465 27.8969 10.9875 27.8803C11.531 27.8637 11.8286 27.8501 11.8801 27.8397C11.9316 27.8293 11.9946 27.8086 12.0693 27.7775C12.1903 27.7257 12.2894 27.6997 12.3667 27.6996L12.6759 27.7453L13.0198 27.7213C13.2285 27.7209 13.333 27.8121 13.3334 27.995C13.3336 28.1135 13.2952 28.2141 13.2181 28.2967C13.141 28.3767 13.0535 28.4194 12.9556 28.4248C12.8861 28.4301 12.8256 28.456 12.7742 28.5025C12.7227 28.5464 12.6549 28.7423 12.5706 29.0903C12.4864 29.4383 12.4039 30.0477 12.3234 30.9186C12.2454 31.7896 12.2072 32.5728 12.2087 33.2684L12.209 33.4075C12.2091 33.4616 12.1757 33.5171 12.1088 33.5739C12.042 33.6333 11.9802 33.6682 11.9236 33.6786Z" fill="#495E4C"/>
<path d="M16.7675 30.9632C16.7957 30.909 16.8401 30.5856 16.9006 29.9929C16.946 29.5188 17.0962 29.2815 17.3512 29.2809C17.5599 29.2805 17.6644 29.3846 17.6649 29.5932C17.665 29.6422 17.6472 29.7414 17.6114 29.8909C17.4148 30.7131 17.3171 31.4025 17.3183 31.959C17.3196 32.5618 17.4197 32.9519 17.6184 33.1292C17.7217 33.2243 17.7734 33.3015 17.7735 33.3607C17.7736 33.4329 17.721 33.4987 17.6155 33.5581C17.5126 33.6176 17.4186 33.6475 17.3336 33.6476C16.9317 33.6485 16.7294 33.0281 16.7267 31.7863C16.7265 31.7039 16.6955 31.6627 16.6337 31.6629C16.3915 31.6634 16.0953 31.6782 15.745 31.7073C15.3947 31.7364 15.1436 31.773 14.9917 31.8171C14.8424 31.8613 14.7497 31.9027 14.7137 31.9414C14.6803 31.9775 14.6496 32.0768 14.6216 32.2391C14.5962 32.3989 14.5837 32.5651 14.5841 32.7377L14.5851 33.213C14.5857 33.4887 14.4598 33.6268 14.2073 33.6273C13.996 33.6278 13.8901 33.4902 13.8895 33.2145C13.8891 33.0342 13.9118 32.8049 13.9576 32.5265C14.0415 32.0163 14.1246 31.1376 14.207 29.8905C14.2169 29.7282 14.2309 29.6251 14.2488 29.5813C14.2667 29.5375 14.313 29.4897 14.3876 29.438C14.4648 29.3837 14.5484 29.3565 14.6386 29.3563C14.8241 29.3559 14.917 29.4317 14.9173 29.5837C14.9174 29.6069 14.8882 29.8002 14.8297 30.1636C14.7687 30.5269 14.7383 30.8091 14.7388 31.01C14.7391 31.1517 14.7882 31.2225 14.8861 31.2223C15.0819 31.2218 15.4399 31.1889 15.9602 31.1233C16.4804 31.0552 16.7495 31.0018 16.7675 30.9632Z" fill="#495E4C"/>
<path d="M26.688 30.2057C26.6881 30.235 26.7663 30.2856 26.9227 30.3575C27.0967 30.4392 27.2248 30.517 27.307 30.5911C27.3911 30.6631 27.4597 30.7607 27.5127 30.8836C27.5677 31.0046 27.5953 31.15 27.5957 31.3199C27.596 31.4762 27.491 31.6893 27.2807 31.9593C27.0722 32.2273 26.8012 32.4525 26.4676 32.6349C26.136 32.8153 25.7895 32.9059 25.4282 32.9067C25.3598 32.9068 25.2641 32.8865 25.1409 32.8458C25.0197 32.805 24.9591 32.7622 24.959 32.7173C24.9585 32.4712 25.132 32.3477 25.4797 32.347C25.5871 32.3487 25.6926 32.3475 25.7961 32.3434C25.8996 32.3373 26.0314 32.3028 26.1914 32.24C26.3534 32.1752 26.5055 32.085 26.6479 31.9695C26.7902 31.8539 26.8925 31.7414 26.9547 31.6319C27.017 31.5204 27.048 31.4139 27.0478 31.3123C27.0474 31.1326 26.9719 30.9736 26.8212 30.8353C26.6705 30.6969 26.4653 30.628 26.2055 30.6286C26.1664 30.6287 26.0737 30.6601 25.9274 30.7229C25.781 30.7877 25.6854 30.8201 25.6405 30.8202C25.4881 30.8206 25.3924 30.8012 25.3532 30.7623C25.316 30.7233 25.2973 30.654 25.2971 30.5544C25.297 30.486 25.4608 30.387 25.7887 30.2574C26.1107 30.1298 26.4003 29.9348 26.6575 29.6725C26.9167 29.4102 27.0462 29.201 27.0458 29.0447C27.0456 28.9392 26.9907 28.8466 26.8812 28.7667C26.7736 28.6849 26.626 28.6442 26.4385 28.6446C26.1963 28.6452 25.9152 28.679 25.595 28.7461C25.2748 28.8112 25.0992 28.8751 25.068 28.9377C25.0389 29.0002 24.9579 29.476 24.825 30.365C24.6922 31.252 24.6259 31.7648 24.6262 31.9035C24.6263 31.9777 24.6304 32.049 24.6384 32.1174C24.6444 32.1877 24.6474 32.2541 24.6476 32.3166C24.6482 32.5841 24.5186 32.7182 24.2588 32.7188C24.1865 32.7189 24.1268 32.6673 24.0797 32.5639C24.0326 32.4605 24.009 32.3658 24.0088 32.2798C24.0087 32.2427 24.0406 32.0933 24.1045 31.8314C24.1819 31.4757 24.259 30.9892 24.3358 30.3719C24.4126 29.7526 24.4509 29.4224 24.4508 29.3814C24.4506 29.2993 24.4388 29.2388 24.4153 29.1998C24.3937 29.1608 24.3429 29.1414 24.2628 29.1415C24.2315 29.1416 24.2003 29.1427 24.169 29.1447C24.1398 29.1467 24.1094 29.1282 24.0781 29.0892C24.0487 29.0502 24.034 29.0034 24.0339 28.9487C24.0335 28.7944 24.289 28.6298 24.8004 28.4548C25.3117 28.2779 25.9219 28.1887 26.6309 28.1872C26.8907 28.1866 27.1213 28.274 27.3229 28.4494C27.5264 28.6247 27.6283 28.8052 27.6287 28.9907C27.629 29.1235 27.5406 29.3122 27.3634 29.5567C27.1881 29.7993 26.963 30.0156 26.688 30.2057Z" fill="#495E4C"/>
<path d="M30.5849 30.3613C30.4033 30.3656 30.0157 30.9046 29.4223 31.9781C29.2219 32.3399 29.1052 32.5374 29.072 32.5707C29.0389 32.602 28.9774 32.6305 28.8877 32.656C28.7998 32.6816 28.7266 32.6945 28.668 32.6946C28.5372 32.6949 28.4712 32.4401 28.4701 31.9304C28.4694 31.6433 28.5299 31.1236 28.6513 30.3714C28.7014 30.0666 28.7263 29.8487 28.726 29.7179C28.7258 29.589 28.7832 29.5244 28.8985 29.5241C29.1153 29.5237 29.224 29.6797 29.2247 29.9922C29.225 30.1387 29.1895 30.4259 29.1181 30.8538C29.0352 31.3422 28.9929 31.6392 28.9912 31.7447C29.112 31.6272 29.2892 31.37 29.5227 30.973C29.8536 30.4293 30.097 30.085 30.2529 29.9402C30.4108 29.7933 30.5737 29.7197 30.7417 29.7194C30.8687 29.7191 30.9694 29.8038 31.044 29.9736C31.1206 30.1434 31.1673 30.5485 31.1843 31.1891C31.1886 31.3493 31.2035 31.4684 31.2291 31.5465C31.2546 31.6246 31.2733 31.6636 31.285 31.6635C31.3768 31.6634 31.5753 31.3504 31.8806 30.7247C32.044 30.3943 32.2026 30.143 32.3565 29.9708C32.5124 29.7986 32.6851 29.7122 32.8746 29.7118C33.0328 29.7115 33.1482 29.7933 33.2208 29.9572C33.2934 30.1191 33.3457 30.3602 33.3776 30.6805C33.4076 31.0047 33.4532 31.3014 33.5143 31.5708C33.5774 31.8402 33.6911 32.0129 33.8553 32.0887C33.9667 32.1412 34.0225 32.2026 34.0227 32.2729C34.0228 32.3412 33.9761 32.4117 33.8825 32.4841C33.7889 32.5566 33.7031 32.5929 33.6249 32.5931C33.4687 32.5934 33.3288 32.498 33.2054 32.3069C33.0819 32.1157 32.9882 31.7019 32.9243 31.0653C32.8965 30.8095 32.8697 30.6279 32.8441 30.5205C32.8184 30.4131 32.7783 30.3595 32.7236 30.3596C32.6416 30.3598 32.5441 30.4382 32.4311 30.5946C32.3201 30.7511 32.1402 31.0689 31.8912 31.548C31.6967 31.9215 31.5488 32.1708 31.4475 32.296C31.3481 32.4193 31.2516 32.481 31.1578 32.4812C31.0739 32.4814 30.9986 32.4484 30.932 32.3821C30.8655 32.3139 30.8233 32.2329 30.8055 32.1392C30.7877 32.0435 30.7687 31.8102 30.7484 31.4391C30.7177 30.822 30.6632 30.4627 30.5849 30.3613Z" fill="#495E4C"/>
<path d="M43.7585 31.2016C43.8502 31.2014 43.8962 31.2577 43.8965 31.3706C43.8967 31.4881 43.7666 31.6565 43.506 31.8758C43.2455 32.095 42.9438 32.2697 42.6008 32.3997C42.2601 32.5298 41.9475 32.5951 41.663 32.5957C41.2468 32.5966 40.8668 32.4599 40.5229 32.1855C40.1814 31.9112 40.01 31.513 40.0089 30.991C40.0069 30.0387 40.414 29.1114 41.2303 28.2091C42.049 27.3045 42.838 26.8513 43.5975 26.8497C43.882 26.849 44.1091 26.9367 44.2788 27.1127C44.4508 27.2863 44.537 27.4895 44.5375 27.7223C44.538 27.9386 44.5254 28.1091 44.4998 28.2338C44.4766 28.3585 44.4028 28.4644 44.2783 28.5517C44.1539 28.6366 44.0541 28.6792 43.9788 28.6793C43.9247 28.6794 43.8777 28.656 43.8376 28.6091C43.7975 28.5622 43.7774 28.4987 43.7772 28.4188C43.7771 28.3647 43.7968 28.2518 43.8364 28.0801C43.8761 27.9107 43.8958 27.7848 43.8956 27.7025C43.8951 27.4627 43.7902 27.343 43.5809 27.3435C43.2564 27.3442 42.8548 27.532 42.3759 27.9069C41.8994 28.2794 41.4948 28.7529 41.1622 29.3273C40.8295 29.8994 40.6637 30.4265 40.6648 30.9085C40.6655 31.2306 40.7613 31.4984 40.9522 31.712C41.1454 31.9232 41.4196 32.0284 41.7746 32.0276C41.9792 32.0272 42.2272 31.9761 42.5185 31.8744C42.8122 31.7703 43.0811 31.6322 43.3253 31.46C43.5694 31.2878 43.7139 31.2017 43.7585 31.2016Z" fill="#495E4C"/>
<path d="M45.735 31.8533C45.6207 32.2768 45.5139 32.8708 45.4144 33.6351L45.3171 34.3019C45.3008 34.396 45.2575 34.489 45.1872 34.5809C45.1169 34.6751 45.0523 34.7222 44.9935 34.7224C44.9206 34.7225 44.8371 34.6851 44.7429 34.61C44.651 34.5373 44.605 34.4787 44.6049 34.434C44.6046 34.3047 44.6337 34.1259 44.6919 33.8977C45.1185 32.1592 45.3303 30.6327 45.3275 29.3183L45.3233 29.0221C45.3181 28.7681 45.3624 28.5835 45.4562 28.4681C45.55 28.3526 45.658 28.2948 45.7803 28.2945C45.8367 28.2944 45.8909 28.339 45.9428 28.4282C45.9947 28.5151 46.0208 28.6397 46.0212 28.8019C46.0217 29.03 45.9988 29.3063 45.9524 29.6309C45.8922 30.0401 45.861 30.2753 45.8587 30.3365C46.2078 29.7244 46.5782 29.2463 46.9702 28.9021C47.3621 28.558 47.7262 28.3856 48.0624 28.3848C48.2999 28.3843 48.4999 28.4732 48.6626 28.6516C48.8275 28.8276 48.9103 29.0472 48.9109 29.3106C48.9125 30.0771 48.6201 30.7737 48.0336 31.4004C47.4472 32.0272 46.8753 32.3411 46.318 32.3423C46.1793 32.3426 46.0687 32.3076 45.9863 32.2372C45.9062 32.1669 45.8224 32.0389 45.735 31.8533ZM47.9191 29.0094C47.5876 29.0101 47.178 29.3214 46.6903 29.9432C46.2025 30.565 45.959 31.0487 45.9598 31.3943C45.96 31.479 46.0083 31.5612 46.1049 31.6409C46.2015 31.7207 46.3238 31.7604 46.472 31.76C46.8082 31.7593 47.1945 31.5104 47.6307 31.0134C48.067 30.5139 48.2846 30.0244 48.2836 29.5447C48.2832 29.3731 48.2477 29.2415 48.1769 29.1499C48.1085 29.056 48.0226 29.0092 47.9191 29.0094Z" fill="#495E4C"/>
<path d="M59.8413 27.9972L59.8326 28.1459C59.8225 28.1864 59.7684 28.4517 59.6703 28.9418L59.6523 29.0207C59.6343 29.1503 59.5879 29.6554 59.5128 30.5361L59.4356 31.3348C59.4238 31.4663 59.415 31.6485 59.4095 31.8813C59.3962 32.2862 59.3734 32.5149 59.3411 32.5676C59.3109 32.6203 59.2594 32.668 59.1866 32.7107C59.1158 32.7553 59.0481 32.7778 58.9833 32.7779C58.9105 32.7781 58.8537 32.7347 58.813 32.6477C58.7723 32.5628 58.7519 32.4576 58.7516 32.3321C58.7513 32.1843 58.7931 31.8432 58.8769 31.3086C58.9348 30.9421 58.9724 30.5119 58.9895 30.018C58.9792 29.9513 58.9498 29.9159 58.9012 29.912C58.8466 29.9121 58.6737 30.0005 58.3826 30.1772C58.045 30.3844 57.7367 30.5278 57.4575 30.6073C57.1804 30.6848 56.9599 30.7238 56.7959 30.7241C56.5287 30.7247 56.3302 30.6401 56.2003 30.4704C56.0704 30.2986 56.0048 29.9374 56.0036 29.3869C56.0031 29.142 56.0409 28.8302 56.117 28.4515C56.1951 28.0708 56.2918 27.852 56.407 27.7951C56.5243 27.7381 56.6123 27.7096 56.671 27.7095C56.7196 27.7094 56.7631 27.7356 56.8017 27.7881C56.8403 27.8407 56.8597 27.9155 56.8599 28.0127C56.8599 28.0329 56.8057 28.2345 56.6972 28.6172C56.5867 29.0021 56.5317 29.2926 56.5321 29.489C56.5328 29.8007 56.5535 29.998 56.5941 30.0809C56.6348 30.1618 56.7573 30.202 56.9618 30.2015C57.0933 30.2013 57.2825 30.1604 57.5293 30.0789C57.776 29.9974 58.0217 29.8885 58.2663 29.7524C58.511 29.6163 58.6989 29.4853 58.8302 29.3595C58.9615 29.2338 59.0413 29.1455 59.0695 29.0949C59.0977 29.0422 59.1207 28.9156 59.1385 28.7152C59.1424 28.6565 59.1474 28.6049 59.1533 28.5603C59.1732 28.3943 59.183 28.2354 59.1827 28.0836C59.1825 28.0208 59.2239 27.9448 59.3067 27.8556C59.3915 27.7664 59.4673 27.7217 59.5341 27.7215C59.609 27.7214 59.6789 27.7485 59.7438 27.8031C59.8086 27.8555 59.8412 27.9202 59.8413 27.9972Z" fill="#495E4C"/>
<path d="M63.055 30.07C62.8668 30.0744 62.4652 30.6329 61.8502 31.7455C61.6426 32.1204 61.5216 32.3251 61.4872 32.3596C61.4529 32.392 61.3892 32.4215 61.2961 32.448C61.2051 32.4745 61.1292 32.4879 61.0685 32.488C60.9329 32.4883 60.8645 32.2243 60.8634 31.696C60.8627 31.3985 60.9253 30.8599 61.0512 30.0804C61.1031 29.7645 61.129 29.5388 61.1287 29.4031C61.1284 29.2696 61.1879 29.2026 61.3074 29.2024C61.532 29.2019 61.6447 29.3636 61.6454 29.6874C61.6457 29.8392 61.6089 30.1369 61.535 30.5803C61.4491 31.0865 61.4052 31.3943 61.4034 31.5036C61.5286 31.3818 61.7123 31.1153 61.9543 30.7039C62.2971 30.1404 62.5494 29.7836 62.711 29.6335C62.8746 29.4814 63.0435 29.4051 63.2175 29.4047C63.3491 29.4044 63.4535 29.4922 63.5308 29.6682C63.6101 29.8441 63.6586 30.264 63.6762 30.9279C63.6806 31.0938 63.6961 31.2173 63.7226 31.2982C63.7491 31.3791 63.7684 31.4195 63.7805 31.4195C63.8757 31.4193 64.0814 31.095 64.3978 30.4466C64.5671 30.1042 64.7315 29.8437 64.891 29.6652C65.0525 29.4868 65.2315 29.3973 65.4278 29.3969C65.5918 29.3966 65.7114 29.4813 65.7866 29.6512C65.8619 29.819 65.9161 30.0689 65.9492 30.4007C65.9803 30.7367 66.0275 31.0442 66.0908 31.3234C66.1562 31.6026 66.274 31.7815 66.4442 31.8601C66.5597 31.9145 66.6175 31.9781 66.6176 32.051C66.6178 32.1218 66.5694 32.1948 66.4724 32.2699C66.3754 32.345 66.2864 32.3826 66.2054 32.3828C66.0435 32.3831 65.8986 32.2843 65.7706 32.0862C65.6427 31.8881 65.5456 31.4592 65.4794 30.7995C65.4505 30.5344 65.4228 30.3462 65.3962 30.2349C65.3697 30.1237 65.3281 30.0681 65.2714 30.0682C65.1864 30.0684 65.0854 30.1496 64.9683 30.3118C64.8533 30.474 64.6668 30.8033 64.4088 31.2997C64.2072 31.6868 64.0539 31.9452 63.9489 32.0749C63.846 32.2027 63.7459 32.2667 63.6488 32.2669C63.5617 32.2671 63.4837 32.2328 63.4148 32.1641C63.3458 32.0934 63.3021 32.0095 63.2837 31.9124C63.2652 31.8133 63.2455 31.5714 63.2244 31.1869C63.1927 30.5474 63.1362 30.1751 63.055 30.07Z" fill="#495E4C"/>
<path d="M76.4046 33.3432C76.2884 33.3434 76.1988 33.2888 76.136 33.1794C76.0732 33.0678 76.0414 32.8521 76.0407 32.5325C76.0395 31.9825 76.1667 30.7997 76.422 28.9839C76.4375 28.9057 76.4095 28.8588 76.3379 28.8433C76.2663 28.8256 75.9735 28.8173 75.4593 28.8184C74.7574 28.8199 74.3551 28.8621 74.2524 28.945C74.1498 29.028 74.0701 29.4015 74.0134 30.0655C73.9916 30.3294 73.9277 30.7576 73.8217 31.3502C73.6936 32.0614 73.6298 32.5678 73.6305 32.8696L73.6444 33.0809C73.6448 33.282 73.5489 33.3829 73.3566 33.3833C73.1264 33.3838 73.011 33.2398 73.0103 32.9514C73.0098 32.7212 73.0284 32.5177 73.066 32.341C73.128 32.0414 73.1799 31.7529 73.2218 31.4756C73.2482 31.3012 73.2791 31.1122 73.3144 30.9087C73.4557 30.0991 73.526 29.5222 73.5253 29.178C73.525 29.0617 73.4713 28.9981 73.3639 28.9872C73.1515 28.9631 73.0451 28.8761 73.0448 28.7263C73.0446 28.6257 73.0701 28.5441 73.1214 28.4814C73.1749 28.4187 73.2441 28.385 73.3291 28.3803C73.5437 28.3709 73.7001 28.3359 73.7983 28.2754C73.8876 28.2305 73.9546 28.208 73.9994 28.2079C74.091 28.2077 74.1704 28.2276 74.2376 28.2677C74.3114 28.3123 74.5261 28.3342 74.8815 28.3334C74.886 28.3334 75.1229 28.3262 75.5924 28.3117C76.064 28.2973 76.3222 28.2856 76.3669 28.2765C76.4116 28.2675 76.4663 28.2495 76.5311 28.2225C76.636 28.1776 76.722 28.1551 76.7891 28.1549L77.0575 28.1946L77.3558 28.1738C77.5369 28.1734 77.6276 28.2526 77.628 28.4113C77.6282 28.5141 77.5948 28.6014 77.5279 28.6731C77.461 28.7425 77.3851 28.7796 77.3002 28.7842C77.2398 28.7888 77.1873 28.8113 77.1427 28.8516C77.0981 28.8897 77.0392 29.0597 76.9661 29.3617C76.893 29.6636 76.8215 30.1925 76.7515 30.9482C76.6839 31.704 76.6507 32.3836 76.652 32.9872L76.6523 33.1079C76.6524 33.1548 76.6234 33.203 76.5654 33.2523C76.5074 33.3038 76.4538 33.3341 76.4046 33.3432Z" fill="#495E4C"/>
<path d="M80.5699 30.5242C80.3621 30.5291 79.9185 31.1459 79.2394 32.3747C79.01 32.7887 78.8764 33.0148 78.8384 33.0529C78.8005 33.0887 78.7302 33.1213 78.6274 33.1506C78.5269 33.1799 78.4431 33.1946 78.376 33.1947C78.2262 33.195 78.1507 32.9035 78.1494 32.32C78.1487 31.9914 78.2179 31.3966 78.3568 30.5357C78.4142 30.1868 78.4427 29.9375 78.4424 29.7877C78.4421 29.6402 78.5079 29.5663 78.6398 29.566C78.8879 29.5654 79.0124 29.744 79.0131 30.1017C79.0135 30.2693 78.9729 30.598 78.8912 31.0878C78.7963 31.6469 78.7478 31.9868 78.7459 32.1075C78.8842 31.973 79.087 31.6786 79.3542 31.2243C79.7329 30.602 80.0115 30.2079 80.19 30.0421C80.3707 29.8741 80.5572 29.7899 80.7494 29.7894C80.8947 29.7891 81.0101 29.8861 81.0954 30.0804C81.183 30.2747 81.2366 30.7385 81.256 31.4717C81.2609 31.655 81.278 31.7913 81.3072 31.8806C81.3365 31.97 81.3578 32.0147 81.3712 32.0146C81.4763 32.0144 81.7035 31.6562 82.053 30.9401C82.2399 30.5619 82.4215 30.2743 82.5977 30.0772C82.7761 29.8801 82.9737 29.7813 83.1905 29.7808C83.3716 29.7804 83.5037 29.874 83.5868 30.0616C83.6699 30.247 83.7298 30.5229 83.7663 30.8895C83.8007 31.2605 83.8528 31.6002 83.9228 31.9085C83.995 32.2169 84.1251 32.4144 84.313 32.5012C84.4406 32.5613 84.5045 32.6316 84.5046 32.712C84.5048 32.7903 84.4513 32.8709 84.3442 32.9538C84.2371 33.0368 84.1388 33.0783 84.0494 33.0785C83.8705 33.0789 83.7105 32.9697 83.5692 32.7509C83.4279 32.5322 83.3206 32.0585 83.2475 31.3299C83.2156 31.0371 83.185 30.8293 83.1557 30.7064C83.1263 30.5835 83.0804 30.5221 83.0178 30.5222C82.9239 30.5225 82.8123 30.6121 82.683 30.7912C82.556 30.9703 82.35 31.334 82.065 31.8824C81.8424 32.3098 81.6731 32.5952 81.5572 32.7385C81.4435 32.8796 81.333 32.9503 81.2257 32.9505C81.1296 32.9507 81.0434 32.9129 80.9673 32.837C80.8911 32.759 80.8428 32.6663 80.8225 32.559C80.8021 32.4495 80.7803 32.1824 80.757 31.7578C80.722 31.0514 80.6596 30.6402 80.5699 30.5242Z" fill="#495E4C"/>
<path d="M57.7537 18.1553C57.7266 18.3046 57.6375 18.3798 57.4866 18.3809L56.9036 18.3848C56.8376 18.3853 56.4746 18.4156 55.8146 18.4758C55.5789 18.4972 55.4375 18.5081 55.3904 18.5084C55.3564 18.5086 55.2969 18.4956 55.2117 18.4692C55.1663 18.4551 55.1334 18.4715 55.1131 18.5184L55.1158 18.513C54.9134 20.1334 54.8125 20.9948 54.8133 21.0972C54.8139 21.1673 54.8201 21.2436 54.8321 21.3262C54.846 21.4196 54.8533 21.5067 54.8539 21.5875C54.8547 21.6882 54.7913 21.7784 54.6636 21.8584C54.5378 21.9401 54.4532 21.9811 54.4098 21.9814C54.34 21.9819 54.2548 21.9465 54.1543 21.8753C54.0556 21.8041 54.0059 21.7173 54.0051 21.6149C54.0041 21.4873 54.0153 21.3516 54.0387 21.2077C54.0459 21.1645 54.053 21.1105 54.0601 21.0458C54.0706 20.9397 54.1055 20.7032 54.1649 20.3362C54.2334 19.917 54.2675 19.6994 54.2674 19.6832L54.3872 18.7174C54.3844 18.3508 54.3892 18.1208 54.4017 18.0273C54.4141 17.932 54.4598 17.8544 54.5385 17.7945C54.6192 17.7329 54.7171 17.7017 54.8322 17.7009C54.9152 17.7003 55.0068 17.7204 55.1072 17.761C55.2718 17.8246 55.4456 17.8557 55.6287 17.8545L56.91 17.7487C57.1211 17.7311 57.3138 17.7531 57.4879 17.8148C57.6638 17.8765 57.7523 17.9765 57.7534 18.1149L57.7537 18.1553Z" fill="#495E4C"/>
<path d="M59.447 21.5642C59.4104 21.71 59.3653 21.9781 59.3117 22.3684C59.2582 22.7605 59.2263 23.0231 59.216 23.1561C59.2057 23.2909 59.1575 23.4054 59.0715 23.4994C58.9873 23.5934 58.9112 23.6407 58.8433 23.6411C58.7584 23.6417 58.6742 23.6117 58.5907 23.5512C58.5072 23.4907 58.4652 23.4245 58.4646 23.3526C58.4635 23.2071 58.4858 23.0389 58.5315 22.8481C58.8061 21.7699 58.9522 20.6592 58.9697 19.5163L58.9693 19.4624C58.9675 19.2396 58.9739 19.0895 58.9884 19.0121C59.0029 18.9329 59.0495 18.8571 59.1281 18.7847C59.2068 18.7123 59.2999 18.6757 59.4075 18.675C59.4981 18.6744 59.5719 18.7125 59.6291 18.7894C59.6882 18.8663 59.7183 18.9775 59.7195 19.123C59.7206 19.2703 59.6943 19.5284 59.6406 19.8971C59.8474 19.5633 60.0953 19.2867 60.3842 19.0673C60.6749 18.846 60.9401 18.7346 61.1797 18.733C61.391 18.7315 61.5708 18.8022 61.7191 18.9449C61.8693 19.0876 61.9452 19.2677 61.9469 19.4851C61.9514 20.0655 61.7188 20.5954 61.2489 21.0748C60.7809 21.5524 60.3158 21.7928 59.8535 21.7959C59.6384 21.7974 59.5029 21.7202 59.447 21.5642ZM61.0741 19.3456C60.8439 19.3471 60.5465 19.563 60.1819 19.9932C59.8192 20.4233 59.6388 20.7606 59.6407 21.0049C59.6412 21.0678 59.6737 21.1242 59.7383 21.1741C59.8047 21.2222 59.8813 21.2459 59.9681 21.2453C60.2077 21.2437 60.4808 21.063 60.7875 20.7033C61.096 20.3418 61.249 19.994 61.2464 19.6597C61.2455 19.5483 61.2269 19.4685 61.1907 19.4202C61.1545 19.3702 61.1156 19.3453 61.0741 19.3456Z" fill="#495E4C"/>
<path d="M65.4975 20.8005C65.0099 21.4238 64.5387 21.737 64.084 21.7401C63.9142 21.7412 63.7675 21.6784 63.6439 21.5517C63.5202 21.425 63.4576 21.2628 63.4561 21.0651C63.4524 20.589 63.6711 20.0807 64.1122 19.5404C64.5532 18.9983 65.0002 18.7257 65.453 18.7226C65.6832 18.7211 65.835 18.8305 65.9084 19.0511C66.1254 19.0496 66.2345 19.1279 66.2357 19.286C66.2363 19.3615 66.2166 19.4982 66.1767 19.6961C66.1041 20.0668 66.0686 20.3626 66.0704 20.5836C66.0722 20.8136 66.0895 20.9752 66.1223 21.0685C66.1569 21.1617 66.1819 21.2226 66.1973 21.2512C66.2126 21.2799 66.2581 21.3101 66.3338 21.342C66.4096 21.3756 66.4477 21.4229 66.4481 21.484C66.4489 21.5757 66.4004 21.6524 66.3028 21.7141C66.207 21.7759 66.1063 21.8071 66.0006 21.8078C65.8233 21.8091 65.6943 21.7255 65.6138 21.5571C65.5351 21.3887 65.4949 21.1914 65.4931 20.9649L65.4925 20.8841C65.4923 20.8571 65.494 20.8293 65.4975 20.8005ZM65.333 19.3003C65.1424 19.3016 64.8959 19.5045 64.5934 19.9091C64.2927 20.3119 64.1435 20.6534 64.1457 20.9337C64.1468 21.0811 64.1795 21.1545 64.2436 21.1541C64.4662 21.1526 64.7384 20.9629 65.06 20.5852C65.3834 20.2056 65.5441 19.8748 65.5419 19.5926C65.5412 19.5028 65.5189 19.432 65.4751 19.3802C65.4332 19.3265 65.3858 19.2999 65.333 19.3003Z" fill="#495E4C"/>
<path d="M70.3273 21.374C70.309 21.4531 70.2746 21.7607 70.2241 22.2965L70.138 23.2351C70.131 23.3088 70.0891 23.381 70.0123 23.4516C69.9355 23.5222 69.8594 23.5577 69.7839 23.5583C69.6631 23.5591 69.5704 23.5274 69.5058 23.4631C69.4411 23.4007 69.4086 23.3362 69.408 23.2697C69.4069 23.1188 69.4625 22.7491 69.5749 22.1608C69.6147 21.9467 69.6572 21.7065 69.7023 21.4402C69.4435 21.6397 69.1744 21.7403 68.8952 21.7422C68.6122 21.7442 68.3918 21.6702 68.234 21.5203C68.0781 21.3705 67.9991 21.1581 67.997 20.8831C67.9936 20.4519 68.1627 20.0033 68.5044 19.5374C68.8461 19.0714 69.1867 18.8373 69.5263 18.835C69.7112 18.8337 69.8641 18.9611 69.985 19.2173C69.9971 19.0806 70.0024 18.9045 70.0007 18.6889L69.9831 17.8804C69.9817 17.7043 69.9722 17.5758 69.9546 17.4951C69.943 17.4592 69.9371 17.4341 69.937 17.4197C69.9363 17.3263 69.9677 17.2398 70.0312 17.1603C70.0948 17.0808 70.1728 17.0408 70.2652 17.0401C70.3312 17.0397 70.4069 17.067 70.4923 17.1222C70.5776 17.1755 70.6309 17.2407 70.6523 17.3178C70.6755 17.3931 70.6877 17.5045 70.6889 17.6518C70.6944 18.3652 70.6631 18.9476 70.5949 19.3991L70.5387 19.8119C70.6946 19.4748 70.8972 19.2029 71.1465 18.9964C71.3977 18.7898 71.6545 18.6856 71.9168 18.6838C72.13 18.6824 72.3079 18.7539 72.4505 18.8985C72.595 19.0413 72.6681 19.2205 72.6698 19.4361C72.6731 19.8584 72.5976 20.2156 72.4432 20.5077C72.2889 20.7981 72.0513 21.0648 71.7306 21.3078C71.4098 21.5507 71.0787 21.6734 70.7372 21.6757C70.5617 21.6769 70.4251 21.5763 70.3273 21.374ZM70.5375 20.7499C70.5382 20.8433 70.5681 20.9231 70.6271 20.9892C70.688 21.0534 70.7703 21.0852 70.8741 21.0845C71.1099 21.0829 71.3559 20.9222 71.6119 20.6024C71.8679 20.2826 71.9946 19.9529 71.9919 19.6133C71.991 19.5001 71.9706 19.4193 71.9306 19.3711C71.8925 19.3228 71.8527 19.2988 71.8112 19.2991C71.6885 19.3 71.5691 19.3493 71.4529 19.4471C71.3366 19.5432 71.1907 19.7086 71.0152 19.9434C70.8397 20.1764 70.6804 20.4452 70.5375 20.7499ZM69.7936 20.8143C69.8364 20.4887 69.86 20.2442 69.8644 20.0806C69.867 19.9315 69.8576 19.821 69.8363 19.7493C69.8169 19.6757 69.7672 19.6015 69.6874 19.5266C69.6075 19.4499 69.5289 19.4118 69.4516 19.4123C69.361 19.4129 69.2104 19.581 68.9998 19.9167C68.7911 20.2506 68.6879 20.5693 68.6903 20.873C68.691 20.9665 68.719 21.0426 68.7742 21.1016C68.8293 21.1605 68.9079 21.1896 69.0097 21.1889C69.1135 21.1882 69.2538 21.145 69.4304 21.0593C69.6071 20.9719 69.7282 20.8902 69.7936 20.8143Z" fill="#495E4C"/>
<path d="M76.3327 20.6375C76.154 20.9532 75.9456 21.2044 75.7074 21.3911C75.4712 21.5778 75.2304 21.672 74.9851 21.6737C74.8398 21.6747 74.6921 21.6029 74.5419 21.4584C74.3936 21.3138 74.3183 21.0906 74.3159 20.7887C74.3142 20.5749 74.3683 20.252 74.4782 19.82C74.5735 19.4635 74.6205 19.1928 74.619 19.0077C74.6933 18.8562 74.8107 18.78 74.971 18.7789C75.0805 18.7781 75.1675 18.8126 75.2322 18.8822C75.2988 18.95 75.3324 19.019 75.3329 19.0891C75.3339 19.2166 75.2881 19.3985 75.1956 19.6345C75.142 19.775 75.0841 19.974 75.022 20.2314C74.9617 20.4869 74.9318 20.6507 74.9324 20.7225C74.9343 20.9615 74.9871 21.0807 75.0908 21.0799C75.255 21.0788 75.4755 20.9273 75.7524 20.6253C76.0293 20.3233 76.209 20.0148 76.2915 19.6998C76.374 19.3919 76.4479 19.1902 76.5132 19.0945C76.5785 18.9988 76.6715 18.9505 76.7922 18.9497C76.9885 18.9484 77.0874 19.0519 77.089 19.2604C77.0892 19.2909 77.0737 19.3521 77.0423 19.444C76.9335 19.7628 76.8806 20.1216 76.8837 20.5205C76.8874 20.9877 76.9726 21.2665 77.1393 21.357C77.1943 21.3872 77.2219 21.4248 77.2223 21.4697C77.2228 21.5344 77.1751 21.5958 77.0794 21.654C76.9836 21.7121 76.8923 21.7415 76.8055 21.7421C76.6564 21.7431 76.5406 21.6442 76.4579 21.4453C76.3771 21.2446 76.3354 20.9753 76.3327 20.6375Z" fill="#495E4C"/>
<path d="M80.4416 20.2213C80.5266 20.2405 80.6061 20.275 80.6801 20.3248C80.7541 20.3746 80.8425 20.4656 80.9454 20.5979C81.1437 20.8553 81.2997 21.024 81.4136 21.1041C81.5274 21.1842 81.6513 21.2238 81.7853 21.2229C81.9249 21.2219 81.995 21.2628 81.9956 21.3454C81.9963 21.4245 81.9488 21.5048 81.8532 21.5863C81.7576 21.6678 81.606 21.7093 81.3985 21.7107C81.0796 21.7129 80.7541 21.4644 80.4219 20.9653C80.229 20.672 80.0684 20.5257 79.9401 20.5266C79.9232 20.5267 79.877 20.5387 79.8017 20.5626C79.7283 20.5864 79.6804 20.6083 79.6579 20.6282C79.6354 20.6464 79.6174 20.7606 79.604 20.9709L79.5767 21.4671C79.5736 21.548 79.5392 21.6174 79.4736 21.6753C79.408 21.7351 79.3262 21.7653 79.2281 21.766C79.1243 21.7667 79.043 21.7394 78.984 21.6841C78.9251 21.6306 78.8954 21.576 78.895 21.5203C78.8945 21.452 78.9169 21.3054 78.9623 21.0804C79.0711 20.5137 79.1554 19.8213 79.215 19.0032C79.2218 18.899 79.2663 18.8034 79.3487 18.7166C79.431 18.6298 79.5278 18.586 79.6392 18.5852C79.7165 18.5847 79.7809 18.6157 79.8323 18.6783C79.8838 18.7408 79.9098 18.8134 79.9105 18.8961C79.911 18.9607 79.9002 19.0264 79.878 19.093C79.8503 19.1705 79.811 19.3289 79.76 19.5682C79.7109 19.8076 79.6812 19.9902 79.6709 20.116C79.8949 20.0498 80.0687 19.9588 80.1924 19.8429C80.316 19.7271 80.4693 19.5418 80.6522 19.2872C80.8053 19.0777 80.9494 18.9231 81.0845 18.8233C81.2195 18.7218 81.3682 18.6705 81.5304 18.6694C81.6191 18.6687 81.7015 18.7041 81.7775 18.7755C81.8554 18.845 81.8947 18.9193 81.8953 18.9984C81.8958 19.0649 81.8745 19.1153 81.8314 19.1498C81.7901 19.1824 81.7168 19.2144 81.6114 19.2456C81.4777 19.2843 81.3351 19.3877 81.1836 19.5558C80.8693 19.9048 80.622 20.1266 80.4416 20.2213Z" fill="#495E4C"/>
<path d="M93.3124 32.222C93.4176 32.2218 93.4703 32.2864 93.4706 32.4158C93.4709 32.5506 93.3216 32.7438 93.0229 32.9952C92.7241 33.2466 92.3781 33.4469 91.9847 33.596C91.594 33.7452 91.2356 33.8201 90.9093 33.8208C90.432 33.8218 89.9962 33.665 89.6019 33.3504C89.2102 33.0358 89.0137 32.5791 89.0124 31.9805C89.0101 30.8885 89.477 29.8251 90.4131 28.7903C91.3519 27.7529 92.2568 27.2332 93.1277 27.2313C93.454 27.2306 93.7144 27.3312 93.909 27.533C94.1063 27.7321 94.2052 27.9651 94.2058 28.2321C94.2063 28.4801 94.1919 28.6757 94.1625 28.8186C94.1359 28.9616 94.0512 29.0831 93.9085 29.1832C93.7658 29.2806 93.6513 29.3294 93.565 29.3296C93.503 29.3297 93.449 29.3028 93.4031 29.249C93.3571 29.1952 93.334 29.1224 93.3339 29.0307C93.3337 28.9687 93.3564 28.8393 93.4018 28.6423C93.4472 28.4481 93.4698 28.3038 93.4696 28.2094C93.469 27.9344 93.3487 27.7971 93.1087 27.7976C92.7366 27.7984 92.276 28.0138 91.7269 28.4437C91.1804 28.8709 90.7164 29.4139 90.335 30.0726C89.9535 30.7287 89.7634 31.3331 89.7645 31.8859C89.7653 32.2553 89.8752 32.5624 90.0942 32.8073C90.3158 33.0495 90.6302 33.1702 91.0373 33.1693C91.2719 33.1688 91.5563 33.1102 91.8904 32.9936C92.2272 32.8742 92.5356 32.7158 92.8156 32.5183C93.0956 32.3209 93.2612 32.2221 93.3124 32.222Z" fill="#495E4C"/>
<path d="M97.2495 29.2326C97.1464 28.9551 96.9085 28.655 96.5357 28.3322C96.1845 28.031 96.0087 27.7725 96.0082 27.5568C96.0079 27.3842 96.0642 27.2452 96.1772 27.1398C96.2902 27.0317 96.5003 26.9342 96.8075 26.8472C97.1902 26.7412 97.5796 26.6218 97.9757 26.4888C98.3717 26.3531 98.6102 26.2663 98.691 26.2284C98.7422 26.204 98.7947 26.1918 98.8487 26.1916C98.9376 26.1914 98.9823 26.2709 98.9827 26.43C98.9828 26.519 98.8753 26.6405 98.6599 26.7947C98.4445 26.9489 98.0633 27.0926 97.5162 27.2259C97.1712 27.3129 96.9597 27.3781 96.8816 27.4214C96.8062 27.462 96.7685 27.5039 96.7686 27.547C96.7688 27.6441 96.8743 27.7841 97.085 27.967C97.8792 28.6583 98.2775 29.527 98.2797 30.5732C98.2807 31.0235 98.1631 31.5064 97.9269 32.022C97.6908 32.5348 97.3747 32.917 96.9789 33.1686C96.5858 33.4203 96.2005 33.5465 95.823 33.5473C95.4832 33.548 95.2254 33.3827 95.0494 33.0515C94.8734 32.7202 94.785 32.355 94.7841 31.9559C94.7826 31.2495 94.9982 30.583 95.431 29.9565C95.8664 29.33 96.3269 29.0162 96.8122 29.0152C96.8769 29.015 96.9579 29.0566 97.0552 29.14C97.1443 29.2207 97.2091 29.2516 97.2495 29.2326ZM95.4919 31.9706C95.4926 32.2699 95.5322 32.5044 95.6108 32.6741C95.692 32.8438 95.7974 32.9285 95.9268 32.9282C96.0994 32.9279 96.3324 32.8209 96.6258 32.6072C96.9193 32.3935 97.1545 32.0776 97.3316 31.6592C97.5113 31.2409 97.6008 30.8497 97.6 30.4857C97.5994 30.1837 97.5557 29.9398 97.469 29.7539C97.385 29.5653 97.3066 29.4711 97.2338 29.4713C96.7539 29.4723 96.3433 29.7658 96.0021 30.3516C95.6609 30.9375 95.4909 31.4771 95.4919 31.9706Z" fill="#495E4C"/>
<path d="M109.05 29.4529C109.051 29.4971 109.168 29.5733 109.404 29.6817C109.666 29.8048 109.859 29.9221 109.983 30.0337C110.11 30.1423 110.213 30.2892 110.293 30.4745C110.376 30.6568 110.418 30.8759 110.418 31.132C110.419 31.3674 110.26 31.6886 109.944 32.0954C109.629 32.4993 109.221 32.8387 108.718 33.1135C108.219 33.3853 107.697 33.5218 107.152 33.523C107.049 33.5232 106.905 33.4926 106.719 33.4312C106.537 33.3698 106.445 33.3053 106.445 33.2376C106.444 32.8667 106.706 32.6807 107.23 32.6796C107.392 32.6822 107.551 32.6804 107.706 32.6742C107.862 32.665 108.061 32.6131 108.302 32.5184C108.546 32.4207 108.775 32.2848 108.99 32.1107C109.204 31.9366 109.359 31.7671 109.452 31.602C109.546 31.4341 109.593 31.2736 109.593 31.1205C109.592 30.8498 109.478 30.6101 109.251 30.4017C109.024 30.1932 108.715 30.0894 108.323 30.0902C108.265 30.0903 108.125 30.1377 107.904 30.2324C107.684 30.33 107.54 30.3789 107.472 30.379C107.242 30.3795 107.098 30.3504 107.039 30.2917C106.983 30.2329 106.955 30.1285 106.955 29.9784C106.954 29.8754 107.201 29.7262 107.695 29.5309C108.18 29.3386 108.617 29.0448 109.005 28.6495C109.395 28.2543 109.59 27.939 109.59 27.7035C109.589 27.5446 109.507 27.405 109.342 27.2847C109.179 27.1614 108.957 27.1001 108.675 27.1007C108.31 27.1015 107.886 27.1524 107.403 27.2535C106.921 27.3517 106.656 27.4479 106.609 27.5422C106.565 27.6365 106.443 28.3534 106.243 29.693C106.043 31.0296 105.943 31.8024 105.944 32.0114C105.944 32.1232 105.95 32.2306 105.962 32.3336C105.971 32.4395 105.976 32.5396 105.976 32.6338C105.977 33.037 105.781 33.239 105.39 33.2398C105.281 33.2401 105.191 33.1623 105.12 33.0064C105.049 32.8506 105.014 32.7079 105.013 32.5784C105.013 32.5225 105.061 32.2973 105.158 31.9027C105.274 31.3668 105.39 30.6337 105.506 29.7034C105.622 28.7702 105.679 28.2726 105.679 28.2108C105.679 28.0872 105.661 27.996 105.626 27.9372C105.593 27.8784 105.517 27.8492 105.396 27.8494C105.349 27.8495 105.302 27.8511 105.255 27.8542C105.211 27.8572 105.165 27.8293 105.118 27.7706C105.073 27.7118 105.051 27.6412 105.051 27.5588C105.051 27.3263 105.436 27.0782 106.206 26.8146C106.977 26.5481 107.896 26.4137 108.964 26.4114C109.356 26.4105 109.703 26.5422 110.007 26.8064C110.314 27.0707 110.467 27.3426 110.468 27.6222C110.468 27.8223 110.335 28.1066 110.068 28.4751C109.804 28.8406 109.465 29.1666 109.05 29.4529Z" fill="#495E4C"/>
<path d="M112.803 33.4358C112.361 33.4367 112.021 33.3109 111.782 33.0583C111.546 32.8057 111.428 32.4513 111.427 31.9951C111.425 31.2269 111.728 30.4169 112.335 29.565C112.943 28.7102 113.508 28.2822 114.032 28.2811C114.271 28.2806 114.475 28.4096 114.647 28.6683C114.821 28.924 114.908 29.196 114.909 29.4844C114.909 29.6581 114.871 29.8083 114.795 29.935C114.722 30.0588 114.647 30.1207 114.57 30.1209C114.4 30.1213 114.279 29.9493 114.207 29.6051C114.127 29.2345 114.012 29.0493 113.862 29.0496C113.556 29.0503 113.194 29.4146 112.778 30.1424C112.362 30.8703 112.154 31.4844 112.155 31.9847C112.156 32.485 112.441 32.7346 113.009 32.7334C113.441 32.7324 113.95 32.5283 114.535 32.1208C114.741 31.9762 114.892 31.9037 114.989 31.9035C115.089 31.9033 115.139 31.9606 115.14 32.0754C115.14 32.2991 114.877 32.5822 114.351 32.9247C113.825 33.2643 113.309 33.4347 112.803 33.4358Z" fill="#495E4C"/>
</svg>
