<svg width="141" height="124" viewBox="0 0 141 124" fill="none" xmlns="http://www.w3.org/2000/svg">
<g clip-path="url(#clip0_2857_77)">
<path d="M6.08209 21.1693C6.55949 20.8667 7.0759 20.6301 7.6172 20.4659L7.90273 18.9367L10.494 18.8389L10.8993 20.3466C11.4508 20.4712 11.9834 20.6676 12.4835 20.9307L13.7761 20.0499L15.6765 21.8054L14.8936 23.1541C15.1946 23.6307 15.4311 24.1448 15.5967 24.6832L17.1318 24.9707L17.2301 27.5518L15.7164 27.9525C15.5932 28.5034 15.3959 29.0352 15.13 29.5336L16.0143 30.8181L14.2612 32.7233L12.8949 31.9251C12.4175 32.2277 11.9011 32.4643 11.3598 32.6285L11.0712 34.1577L8.483 34.2555L8.07773 32.7478C7.52592 32.6242 6.99314 32.4277 6.4935 32.1637L5.21935 33.0506L3.31888 31.2951L4.10179 29.9464C3.79983 29.4699 3.56239 28.9558 3.39564 28.4173L1.84211 28.136L1.75 25.5487L3.26362 25.148C3.38689 24.5972 3.58414 24.0653 3.85003 23.5669L2.96274 22.2825L4.72505 20.3863L6.08209 21.1693ZM7.5343 24.5792C7.16091 24.9808 6.91546 25.4837 6.82898 26.0243C6.74251 26.5649 6.8189 27.1188 7.0485 27.6162C7.27809 28.1135 7.65057 28.5318 8.11885 28.8183C8.58713 29.1047 9.13016 29.2465 9.67929 29.2255C10.2284 29.2045 10.759 29.0219 11.2039 28.7006C11.6488 28.3792 11.988 27.9337 12.1788 27.4204C12.3695 26.907 12.4031 26.3488 12.2754 25.8164C12.1476 25.2841 11.8643 24.8013 11.4611 24.4294C10.9201 23.9313 10.2028 23.6673 9.4666 23.6954C8.73041 23.7235 8.03548 24.0413 7.5343 24.5792V24.5792Z" fill="#B4FFCD"/>
<path d="M124.854 75.7744C125.332 75.4742 125.848 75.2386 126.389 75.074L126.674 73.5449L129.266 73.447L129.671 74.9547C130.223 75.078 130.756 75.2745 131.255 75.5389L132.548 74.655L134.448 76.4105L133.662 77.7622C133.966 78.2378 134.203 78.7522 134.368 79.2913L135.903 79.5788L136.002 82.1569L134.488 82.5606C134.363 83.1101 134.166 83.6408 133.902 84.1387L134.786 85.4262L133.024 87.3193L131.679 86.5486C131.2 86.8494 130.684 87.0859 130.144 87.252L129.855 88.7811L127.264 88.879L126.862 87.3713C126.309 87.249 125.776 87.0524 125.277 86.7871L123.985 87.671L122.081 85.9155L122.867 84.5638C122.563 84.0882 122.326 83.5738 122.161 83.0347L120.626 82.7472L120.525 80.1691L122.038 79.7654C122.163 79.2159 122.36 78.6852 122.625 78.1873L121.74 76.8998L123.503 75.0067L124.857 75.7866L124.854 75.7744ZM126.306 79.1843C125.932 79.586 125.685 80.0892 125.598 80.6304C125.511 81.1716 125.587 81.7263 125.816 82.2245C126.046 82.7227 126.418 83.1419 126.887 83.4291C127.355 83.7164 127.899 83.8587 128.449 83.8382C128.999 83.8176 129.53 83.6351 129.976 83.3137C130.421 82.9923 130.761 82.5465 130.953 82.0326C131.144 81.5187 131.178 80.9599 131.05 80.4267C130.923 79.8936 130.639 79.4101 130.236 79.0375C129.695 78.5381 128.977 78.273 128.24 78.3005C127.503 78.328 126.808 78.6459 126.306 79.1843V79.1843Z" fill="#B4FFCD"/>
<path d="M9.51765 7.36743C9.74155 7.22368 9.98436 7.1115 10.2392 7.03408L10.3712 6.31845L11.5747 6.27563L11.7651 6.97597C12.0206 7.03268 12.2674 7.1232 12.4988 7.2451L13.1129 6.8353L13.9971 7.65185L13.6195 8.28797C13.7604 8.50981 13.8709 8.74947 13.948 9.00054L14.6633 9.13204L14.7094 10.3309L14.0063 10.5205C13.9478 10.776 13.8559 11.0228 13.7331 11.2545L14.1445 11.8661L13.3247 12.7316L12.7107 12.3677C12.4817 12.5107 12.2337 12.6209 11.9738 12.6949L11.8387 13.4075L10.6444 13.4564L10.4571 12.7561C10.2005 12.6983 9.95269 12.6068 9.72028 12.4839L9.10624 12.8937L8.22509 12.0802L8.59658 11.4471C8.45631 11.226 8.34586 10.9875 8.26807 10.7376L7.55271 10.6031L7.50665 9.40423L8.2128 9.21768C8.26972 8.96214 8.36058 8.71531 8.48298 8.48369L8.07464 7.88734L8.9036 7.00656L9.51765 7.36743ZM10.1931 8.95467C10.0216 9.14227 9.90962 9.37616 9.87114 9.62696C9.83267 9.87776 9.86944 10.1343 9.97684 10.3644C10.0842 10.5944 10.2575 10.7877 10.4748 10.92C10.6921 11.0523 10.9439 11.1178 11.1984 11.108C11.4529 11.0983 11.6989 11.0139 11.9054 10.8654C12.1119 10.7169 12.2698 10.511 12.3592 10.2734C12.4486 10.0358 12.4655 9.77723 12.4079 9.5301C12.3503 9.28297 12.2206 9.05831 12.0352 8.88433C11.9105 8.76805 11.7638 8.67757 11.6037 8.61812C11.4436 8.55867 11.2732 8.53143 11.1025 8.53797C10.9318 8.54451 10.764 8.58471 10.609 8.65623C10.4539 8.72775 10.3147 8.82919 10.1992 8.95467H10.1931Z" fill="#B4FFCD"/>
<path d="M17.3989 115.091L14.1967 116.394C14.1967 116.394 15.2958 119.073 12.5203 120.26C11.9916 120.5 11.4009 120.57 10.8304 120.46C10.2598 120.351 9.73766 120.067 9.33651 119.648C8.99517 119.299 8.74156 118.875 8.59642 118.41C8.45127 117.945 8.41871 117.452 8.5014 116.972C8.67948 115.859 9.53607 114.562 11.851 114.061L8.9036 106.858L5.7382 108.149L7.4606 112.36C7.4606 112.36 3.48773 115.314 5.49259 120.189C7.4084 124.853 12.0506 124.223 13.8497 123.492C15.2221 122.942 19.7691 120.691 17.3989 115.091Z" fill="#EBEBEB"/>
<path d="M5.09082 106.678L8.30469 105.368L7.07705 102.379L3.86318 103.689L5.09082 106.678Z" fill="#EBEBEB"/>
<path d="M129.309 34.9221L132.271 36.1454C132.271 36.1454 133.315 33.6683 135.919 34.7019C136.424 34.8928 136.857 35.2356 137.158 35.6828C137.459 36.13 137.613 36.6593 137.598 37.1975C137.591 37.6507 137.475 38.0957 137.262 38.4959C137.049 38.8962 136.743 39.2404 136.37 39.5003C135.52 40.112 134.101 40.4178 132.253 39.222L129.45 45.8768L132.382 47.1001L134.021 43.2008C134.021 43.2008 138.578 43.8614 140.469 39.3474C142.286 35.0322 138.823 32.4083 137.159 31.7018C135.906 31.1941 131.442 29.6895 129.309 34.9221Z" fill="#EBEBEB"/>
<path d="M131.845 48.506L128.872 47.2642L127.708 50.0309L130.681 51.2727L131.845 48.506Z" fill="#EBEBEB"/>
<path d="M122.984 4.08581L119.373 14.2362C119.23 14.6371 119.24 15.0763 119.4 15.4708C119.56 15.8652 119.86 16.1876 120.242 16.3769V16.3769C120.644 16.5773 121.107 16.616 121.536 16.4851C121.966 16.3541 122.328 16.0635 122.548 15.6735L127.909 6.2113C128.004 6.04243 128.062 5.85527 128.08 5.66223C128.097 5.46919 128.073 5.27469 128.009 5.09162C127.945 4.90855 127.843 4.74111 127.709 4.60039C127.575 4.45967 127.413 4.3489 127.233 4.27542L124.798 3.27843C124.627 3.20814 124.442 3.17335 124.256 3.17619C124.07 3.17902 123.887 3.2194 123.718 3.2949C123.548 3.37039 123.395 3.47942 123.269 3.61537C123.143 3.75133 123.046 3.91137 122.984 4.08581V4.08581Z" fill="#E0E0E0"/>
<path d="M120.488 23.0562C120.143 23.4449 119.689 23.7229 119.186 23.8551C118.682 23.9872 118.15 23.9676 117.657 23.7986C117.164 23.6296 116.733 23.3189 116.418 22.9058C116.102 22.4927 115.917 21.9957 115.885 21.4776C115.854 20.9596 115.977 20.4438 116.239 19.9955C116.502 19.5472 116.892 19.1865 117.36 18.959C117.829 18.7316 118.354 18.6476 118.87 18.7176C119.387 18.7877 119.87 19.0087 120.261 19.3526C120.52 19.5807 120.732 19.8576 120.883 20.1673C121.035 20.477 121.124 20.8135 121.145 21.1575C121.166 21.5015 121.119 21.8463 121.006 22.1721C120.894 22.4979 120.717 22.7983 120.488 23.0562V23.0562Z" fill="#E0E0E0"/>
<path d="M123.549 52.8129C125.807 48.992 126.626 44.4947 125.858 40.1272C125.83 39.9529 125.793 39.7817 125.75 39.6104C125.443 38.1088 125.188 36.8885 124.458 35.6163C124.384 35.4542 124.31 35.3105 124.23 35.1392C124.151 34.968 124.071 34.8334 123.988 34.6713C122.444 31.894 120.216 29.5541 117.513 27.8724C114.81 26.1907 111.721 25.2225 108.539 25.0592C107.458 14.8661 100.307 5.54449 90.7312 1.81648C81.1552 -1.91153 69.5467 0.161965 61.8373 6.94823C53.6767 0.883714 42.4213 -0.804443 32.8514 2.61469C23.2815 6.03381 15.6581 14.4593 13.2326 24.3069C12.4927 27.3193 12.1857 30.509 10.6444 33.2003C9.47776 35.234 7.69396 36.8274 6.17113 38.6073C3.72822 41.4584 1.94069 44.807 0.93377 48.4187C-0.073147 52.0304 -0.275097 55.8176 0.342067 59.5152C0.959232 63.2128 2.38058 66.7313 4.50655 69.8241C6.63251 72.9169 9.41166 75.5093 12.6493 77.4196C7.49439 84.4719 9.30275 95.5765 16.4318 100.644C20.5244 103.552 25.9833 104.669 29.1026 108.595C30.429 110.268 31.1965 112.305 32.3478 114.1C36.2624 120.217 44.9603 122.703 51.5367 119.605L86.4697 110.77C98.3535 111.661 110.121 107.928 119.3 100.357C122.649 97.5582 125.658 94.1941 127.107 90.0747C128.556 85.9552 128.213 81.0589 125.428 77.7101C132.02 70.9514 131.065 58.5043 123.549 52.8129Z" fill="#E9E9E9"/>
<path d="M20.8893 90.5937C20.8335 90.0088 20.8563 89.419 20.9572 88.8401L19.6646 87.845L20.7894 85.396L22.3857 85.731C22.7621 85.2767 23.1972 84.8742 23.6797 84.534L23.4656 82.9231L26.0024 81.9857L26.8925 83.3475C27.4795 83.2922 28.0711 83.3148 28.652 83.4147L29.6502 82.1235L32.1025 83.2436L31.7488 84.8359C32.203 85.2103 32.6049 85.6438 32.9438 86.1249L34.5607 85.9109L35.4971 88.442L34.1292 89.3306C34.1907 89.9105 34.1757 90.4959 34.0847 91.072L35.3772 92.067L34.2497 94.5147L32.6535 94.1797C32.2789 94.6345 31.844 95.0363 31.3609 95.3739L31.5735 96.9876L29.0368 97.925L28.1453 96.5591C27.559 96.6164 26.9677 96.5951 26.3872 96.496L25.389 97.7872L22.938 96.6644L23.2725 95.0693C22.818 94.6951 22.4161 94.2615 22.0775 93.7803L20.4634 93.9956L19.527 91.4645L20.8936 90.5718L20.8893 90.5937ZM24.7546 90.8514C24.9536 91.3872 25.3074 91.8518 25.7711 92.1866C26.2349 92.5214 26.7879 92.7114 27.3601 92.7324C27.9323 92.7534 28.4981 92.6045 28.9859 92.3046C29.4737 92.0047 29.8617 91.5673 30.1006 91.0476C30.3396 90.5279 30.4189 89.9493 30.3284 89.3849C30.238 88.8206 29.9819 88.2959 29.5926 87.8771C29.2033 87.4584 28.6981 87.1644 28.1411 87.0324C27.5841 86.9004 27.0002 86.9363 26.4633 87.1355C26.1065 87.2674 25.7793 87.4683 25.5002 87.7265C25.2212 87.9848 24.9959 88.2954 24.8372 88.6405C24.6785 88.9857 24.5895 89.3586 24.5754 89.738C24.5612 90.1174 24.6221 90.4957 24.7546 90.8514V90.8514Z" fill="white"/>
<path d="M89.3435 25.9737C89.6134 25.8047 89.9045 25.6721 90.2093 25.5792L90.369 24.7137L91.8304 24.6587L92.0576 25.5089C92.3679 25.5772 92.6675 25.6872 92.9479 25.8361L93.6756 25.3407L94.7471 26.3285L94.305 27.0869C94.4756 27.3556 94.6098 27.6456 94.7041 27.9494L95.5699 28.1115L95.6252 29.5641L94.7747 29.7904C94.7034 30.1001 94.5919 30.3993 94.4431 30.6804L94.9405 31.4052L93.9488 32.4725L93.1874 32.0321C92.9176 32.2011 92.6264 32.3338 92.3216 32.4267L92.1589 33.2921L90.7006 33.3472L90.4733 32.497C90.1622 32.4282 89.8617 32.3182 89.5799 32.1698L88.8523 32.6652L87.7808 31.6774L88.2229 30.9159C88.0468 30.6491 87.9074 30.3601 87.8084 30.0565L86.9395 29.8944L86.8873 28.4418L87.7409 28.2124C87.8096 27.9029 87.9212 27.6044 88.0724 27.3255L87.5781 26.6068L88.5698 25.5395L89.3435 25.9737ZM90.1602 27.8943C89.95 28.1208 89.8119 28.4043 89.7635 28.7089C89.715 29.0135 89.7582 29.3256 89.8878 29.6057C90.0174 29.8859 90.2274 30.1215 90.4913 30.2827C90.7553 30.4439 91.0613 30.5236 91.3707 30.5116C91.6801 30.4997 91.979 30.3966 92.2296 30.2155C92.4802 30.0343 92.6713 29.7832 92.7786 29.4939C92.886 29.2046 92.9048 28.8901 92.8328 28.5902C92.7607 28.2902 92.601 28.0183 92.3738 27.8087C92.2227 27.6681 92.045 27.5587 91.8512 27.4868C91.6574 27.4149 91.4512 27.382 91.2445 27.39C91.0378 27.3979 90.8348 27.4466 90.6471 27.5332C90.4594 27.6197 90.2908 27.7425 90.151 27.8943H90.1602Z" fill="#78C081"/>
<path d="M39.5126 106.524C39.4685 106.113 39.4803 105.698 39.5476 105.29L38.6431 104.6L39.4295 102.886L40.5503 103.108C40.8136 102.792 41.1175 102.511 41.4543 102.274L41.305 101.145L43.0736 100.49L43.6943 101.441C44.1047 101.402 44.5184 101.418 44.9244 101.488L45.6175 100.582L47.3322 101.368L47.1085 102.487C47.4263 102.748 47.7076 103.05 47.9447 103.386L49.073 103.234L49.7307 105L48.7756 105.623C48.8104 106.036 48.7903 106.452 48.7159 106.86L49.619 107.552L48.834 109.263L47.7132 109.041C47.4509 109.358 47.1479 109.639 46.8119 109.876L46.964 110.993L45.1927 111.647L44.572 110.696C44.1679 110.733 43.7605 110.716 43.3611 110.644L42.668 111.551L40.9533 110.765L41.1771 109.646C40.8592 109.385 40.578 109.083 40.3408 108.747L39.2194 108.899L38.5617 107.133L39.5195 106.511L39.5126 106.524ZM42.211 106.705C42.3504 107.079 42.5979 107.404 42.9222 107.638C43.2466 107.872 43.6332 108.004 44.0332 108.019C44.4332 108.033 44.8287 107.929 45.1696 107.719C45.5105 107.509 45.7816 107.203 45.9485 106.84C46.1154 106.477 46.1707 106.072 46.1074 105.678C46.0441 105.283 45.865 104.917 45.5928 104.624C45.3205 104.331 44.9674 104.126 44.578 104.034C44.1886 103.941 43.7805 103.966 43.4051 104.106C42.902 104.293 42.4938 104.672 42.2699 105.159C42.0461 105.647 42.0249 106.203 42.211 106.705V106.705Z" fill="#78C081"/>
<path d="M92.1116 93.4401C92.4605 93.2207 92.8374 93.0489 93.2323 92.9294L93.441 91.8101L95.3292 91.7397L95.6362 92.8377C96.0384 92.9273 96.4267 93.0703 96.7906 93.2628L97.7332 92.6205L99.1179 93.8989L98.5468 94.8836C98.7583 95.2319 98.9235 95.6061 99.038 95.9968L100.159 96.2079L100.232 98.0856L99.1302 98.3915C99.0394 98.7918 98.8959 99.1785 98.7034 99.5414L99.3481 100.48L98.0648 101.86L97.0762 101.291C96.7298 101.501 96.3572 101.664 95.9678 101.777L95.7591 102.896L93.8709 102.967L93.5638 101.869C93.1617 101.779 92.7734 101.636 92.4094 101.444L91.47 102.086L90.0822 100.807L90.6563 99.8227C90.4352 99.4763 90.2617 99.1019 90.1405 98.7095L89.0199 98.5016L88.9462 96.6207L90.0515 96.3149C90.1409 95.9141 90.2844 95.5273 90.4783 95.165L89.8335 94.2261L91.1169 92.8468L92.1024 93.4157L92.1116 93.4401ZM93.1709 95.9234C92.8984 96.2161 92.7192 96.5828 92.6559 96.9769C92.5926 97.3711 92.648 97.775 92.8152 98.1378C92.9824 98.5006 93.2538 98.8058 93.5951 99.015C93.9364 99.2241 94.3323 99.3277 94.7328 99.3128C95.1332 99.2978 95.5202 99.1649 95.8448 98.9309C96.1695 98.6969 96.4171 98.3722 96.5566 97.998C96.696 97.6238 96.7209 97.2168 96.6281 96.8285C96.5353 96.4402 96.3291 96.088 96.0354 95.8164C95.8403 95.636 95.6114 95.4957 95.3618 95.4034C95.1122 95.3112 94.8469 95.2688 94.5808 95.2787C94.3148 95.2887 94.0534 95.3507 93.8115 95.4613C93.5695 95.572 93.3518 95.729 93.1709 95.9234V95.9234Z" fill="white"/>
<path d="M27.0794 54.8926C26.8607 54.3428 26.521 53.8488 26.0853 53.4471C25.6496 53.0454 25.129 52.7461 24.5618 52.5714C23.5855 52.2931 22.4341 52.4032 21.6727 51.7334C21.3104 51.4276 21.0955 50.9627 20.7762 50.6018C20.1634 49.9836 19.3488 49.604 18.4797 49.5315C15.6121 49.1461 12.9809 51.1003 11.937 53.3879C10.7642 54.1616 9.56989 54.9507 8.68566 56.0394C7.80144 57.1282 7.25494 58.5808 7.58038 59.9417C7.82293 60.9418 8.50145 61.7951 8.75014 62.792C8.97427 63.7095 8.82382 64.6637 8.89751 65.5995C8.9712 66.5353 9.37032 67.5629 10.2484 67.9054C11.3291 68.3244 12.6708 67.5323 13.6717 68.1226C14.3502 68.5232 14.5682 69.4009 15.1239 69.9575C16.0849 70.927 17.706 70.6793 19.0016 70.2328C20.4998 69.7179 21.9345 69.0357 23.2784 68.199C24.1775 67.6809 24.9735 67.003 25.6272 66.1989C25.9506 65.7955 26.19 65.3318 26.3313 64.835C26.4726 64.3382 26.5129 63.8183 26.45 63.3058C26.3456 62.6942 26.0447 62.1009 26.0079 61.4709C25.9373 60.3638 26.671 59.3882 27.064 58.3515C27.5012 57.2406 27.5067 56.0072 27.0794 54.8926V54.8926Z" fill="white"/>
<path d="M24.9364 66.8994L22.1333 68.8231L22.1302 68.8261L24.9978 69.8384L24.9364 66.8994Z" fill="#F5F5F5"/>
<path d="M15.7993 59.9692C15.7993 60.1967 15.7316 60.419 15.6048 60.6081C15.4779 60.7972 15.2977 60.9446 15.0867 61.0316C14.8758 61.1186 14.6437 61.1414 14.4197 61.097C14.1958 61.0527 13.9901 60.9432 13.8287 60.7823C13.6672 60.6215 13.5573 60.4166 13.5127 60.1936C13.4682 59.9705 13.491 59.7393 13.5784 59.5292C13.6658 59.3191 13.8138 59.1395 14.0036 59.0131C14.1934 58.8868 14.4166 58.8193 14.6449 58.8193C14.9511 58.8193 15.2447 58.9405 15.4612 59.1561C15.6777 59.3718 15.7993 59.6643 15.7993 59.9692V59.9692Z" fill="#495E4C"/>
<path d="M19.3885 59.9692C19.3891 60.1974 19.3217 60.4206 19.1949 60.6106C19.0681 60.8006 18.8875 60.9489 18.6761 61.0366C18.4646 61.1244 18.2318 61.1476 18.0071 61.1035C17.7824 61.0593 17.5758 60.9498 17.4137 60.7886C17.2515 60.6275 17.1409 60.4221 17.096 60.1984C17.0511 59.9746 17.0738 59.7426 17.1614 59.5318C17.2489 59.3209 17.3972 59.1407 17.5876 59.0139C17.7781 58.887 18.002 58.8193 18.231 58.8193C18.5375 58.8193 18.8314 58.9404 19.0484 59.1559C19.2654 59.3715 19.3877 59.664 19.3885 59.9692V59.9692Z" fill="#495E4C"/>
<path d="M22.9745 59.9692C22.9745 60.1967 22.9068 60.419 22.7799 60.6081C22.6531 60.7972 22.4728 60.9446 22.2618 61.0316C22.0509 61.1186 21.8188 61.1414 21.5948 61.097C21.3709 61.0527 21.1652 60.9432 21.0038 60.7823C20.8423 60.6215 20.7324 60.4166 20.6878 60.1936C20.6433 59.9705 20.6661 59.7393 20.7535 59.5292C20.8409 59.3191 20.9889 59.1395 21.1787 59.0131C21.3685 58.8868 21.5917 58.8193 21.8201 58.8193C22.1262 58.8193 22.4198 58.9405 22.6363 59.1561C22.8528 59.3718 22.9745 59.6643 22.9745 59.9692V59.9692Z" fill="#495E4C"/>
<path d="M114.965 35.4757C114.704 35.0567 114.148 34.9558 113.654 34.9129C111.867 34.7516 110.067 34.8143 108.296 35.0995C107.682 35.1974 106.779 35.1423 106.718 34.5123C106.727 34.3261 106.794 34.1475 106.911 34.0019C107.028 33.8563 107.188 33.7513 107.369 33.7019C107.983 33.4694 108.649 33.5795 109.297 33.5643C109.945 33.549 110.678 33.3349 110.939 32.7446C111.336 31.8486 110.307 30.9097 109.334 30.7782C108.36 30.6467 107.338 30.9036 106.402 30.613L104.354 30.6559C102.84 30.6813 101.336 30.8992 99.8774 31.3042C99.4691 31.4174 98.9871 31.6345 98.9564 32.0535C98.9257 32.4725 99.3524 32.7477 99.5489 33.1116C99.945 33.8456 99.3002 34.7661 98.5173 35.0536C97.7344 35.3411 96.8656 35.2279 96.0335 35.2891C95.2015 35.3503 94.2743 35.702 93.998 36.4879C93.78 37.0996 94.041 37.8122 93.8506 38.4391C93.6081 39.2373 92.7238 39.6624 91.901 39.8031C91.0782 39.9438 90.2062 39.9254 89.4448 40.2741C88.8879 40.5274 88.4336 40.9614 88.156 41.505C87.8785 42.0487 87.7941 42.67 87.9167 43.2675C88.0392 43.8651 88.3615 44.4036 88.8308 44.7953C89.3001 45.187 89.8889 45.4087 90.501 45.4242C91.0905 45.4242 91.6707 45.2621 92.2572 45.2315C92.6889 45.1991 93.1196 45.3064 93.4852 45.5373C93.5176 46.1633 93.7406 46.7646 94.1246 47.2612C94.5085 47.7578 95.0351 48.1262 95.6344 48.3173C96.448 48.5344 97.32 48.3968 98.1428 48.5711C98.9656 48.7454 99.816 49.4427 99.6595 50.2654C99.5459 50.8556 98.9595 51.2868 98.9134 51.8832C98.8551 52.6141 99.6503 53.1463 100.384 53.2135C101.118 53.2808 101.849 53.0545 102.582 53.0973C103.316 53.1401 104.136 53.605 104.154 54.3359C104.173 55.1525 103.209 55.7274 103.193 56.5409C103.178 57.2229 103.832 57.7275 104.47 57.9722C105.109 58.2168 105.828 58.3453 106.331 58.8071C106.835 59.2689 106.917 60.2567 106.291 60.5319C107.304 60.4983 107.897 59.0334 107.212 58.3086C106.776 57.859 106.046 57.7367 105.711 57.2076C105.336 56.6204 105.662 55.8069 106.202 55.3727C106.742 54.9384 107.43 54.7396 108.075 54.4552C108.72 54.1708 109.349 53.7182 109.515 53.0423C109.761 52.03 108.787 51.0697 107.765 50.8434C106.742 50.6171 105.683 50.874 104.639 50.9351C103.595 50.9963 102.407 50.7853 101.818 49.9229L105.232 48.305C105.396 48.2521 105.548 48.1669 105.678 48.0545C105.808 47.9421 105.914 47.8047 105.99 47.6506C106.181 47.0665 105.511 46.5894 104.949 46.3355L102.727 45.3294C102.718 45.194 102.688 45.0608 102.638 44.9348C103.988 44.3844 105.514 44.5954 106.96 44.7911C108.407 44.9868 109.951 45.1398 111.259 44.4853C112.567 43.8308 113.408 42.0631 112.564 40.8735C112.112 40.2343 111.237 39.7939 111.216 39.0079C111.216 38.3596 111.83 37.8703 112.444 37.6623C113.058 37.4544 113.74 37.4115 114.311 37.0996C114.882 36.7877 115.308 36.0139 114.965 35.4757Z" fill="white"/>
<path d="M98.7507 40.2864C99.3611 40.2864 99.8559 39.7935 99.8559 39.1854C99.8559 38.5774 99.3611 38.0845 98.7507 38.0845C98.1402 38.0845 97.6454 38.5774 97.6454 39.1854C97.6454 39.7935 98.1402 40.2864 98.7507 40.2864Z" fill="#495E4C"/>
<path d="M103.285 39.1854C103.285 39.4032 103.221 39.6161 103.099 39.7971C102.978 39.9782 102.805 40.1193 102.603 40.2026C102.401 40.2859 102.179 40.3077 101.964 40.2653C101.75 40.2228 101.553 40.1179 101.399 39.9639C101.244 39.81 101.139 39.6138 101.096 39.4002C101.053 39.1867 101.075 38.9653 101.159 38.7641C101.243 38.5629 101.384 38.391 101.566 38.27C101.748 38.149 101.962 38.0845 102.18 38.0845C102.473 38.0845 102.754 38.2005 102.962 38.4069C103.169 38.6134 103.285 38.8935 103.285 39.1854V39.1854Z" fill="#495E4C"/>
<path d="M105.613 40.2864C106.223 40.2864 106.718 39.7935 106.718 39.1854C106.718 38.5774 106.223 38.0845 105.613 38.0845C105.002 38.0845 104.507 38.5774 104.507 39.1854C104.507 39.7935 105.002 40.2864 105.613 40.2864Z" fill="#495E4C"/>
<path d="M28.246 13.8233C27.0097 13.8178 25.799 14.175 24.7651 14.8503C23.7312 15.5256 22.9197 16.4892 22.4319 17.6208C21.944 18.7525 21.8014 20.0022 22.0219 21.214C22.2423 22.4258 22.816 23.5462 23.6714 24.4354C20.6503 25.0777 18.7283 28.6038 19.5235 31.5703C20.3187 34.5368 23.5148 36.5645 26.585 36.3535C29.6553 36.1424 32.4185 33.9068 33.5514 31.0351C33.9714 32.2284 34.7441 33.2671 35.768 34.0147C36.7918 34.7622 38.0188 35.1835 39.2877 35.2232C40.5565 35.263 41.8076 34.9192 42.8766 34.2372C43.9455 33.5551 44.7822 32.5668 45.2766 31.4021C46.6367 33.9252 50.5113 34.3442 52.7311 32.5276C54.9508 30.711 55.4574 27.3285 54.3951 24.677C53.3328 22.0255 50.9657 20.0499 48.3652 18.8449C50.0262 17.3525 50.235 14.6184 49.0499 12.7284C47.8648 10.8384 45.5345 9.82309 43.2901 9.9393C41.0458 10.0555 38.9519 11.184 37.3738 12.759C37.0203 11.8001 36.3556 10.9861 35.485 10.4461C34.6144 9.90617 33.5878 9.67111 32.5679 9.77822C31.548 9.88533 30.5932 10.3285 29.8548 11.0374C29.1164 11.7463 28.6366 12.6805 28.4917 13.6918" fill="white"/>
<path d="M31.6571 19.2853L34.5431 24.3467C34.6567 24.5469 34.8401 24.6986 35.0586 24.773C35.277 24.8474 35.5153 24.8394 35.7282 24.7504C35.9522 24.6578 36.1319 24.483 36.2301 24.2622C36.3284 24.0413 36.3378 23.7913 36.2563 23.5638L34.2729 18.0437C34.2372 17.945 34.1809 17.855 34.1077 17.7796C34.0346 17.7042 33.9463 17.645 33.8485 17.606C33.7508 17.567 33.6459 17.5491 33.5407 17.5534C33.4355 17.5576 33.3324 17.584 33.2382 17.6308L31.9702 18.27C31.8814 18.3147 31.8025 18.3769 31.7383 18.4527C31.6742 18.5285 31.626 18.6165 31.5968 18.7113C31.5675 18.8061 31.5578 18.9058 31.5682 19.0044C31.5785 19.1031 31.6088 19.1986 31.6571 19.2853V19.2853Z" fill="#495E4C"/>
<path d="M38.5528 27.0166C38.5892 27.2948 38.542 27.5775 38.4172 27.8289C38.2924 28.0804 38.0955 28.2894 37.8515 28.4295C37.6075 28.5696 37.3273 28.6345 37.0463 28.616C36.7652 28.5975 36.496 28.4964 36.2726 28.3256C36.0492 28.1548 35.8817 27.9218 35.7912 27.6561C35.7006 27.3905 35.6912 27.1041 35.764 26.8331C35.8369 26.5621 35.9887 26.3187 36.2004 26.1336C36.412 25.9485 36.674 25.8301 36.9532 25.7933C37.1389 25.7688 37.3276 25.781 37.5086 25.8293C37.6895 25.8775 37.8591 25.9609 38.0077 26.0745C38.1563 26.1881 38.2809 26.3298 38.3744 26.4915C38.468 26.6531 38.5286 26.8316 38.5528 27.0166Z" fill="#495E4C"/>
<path d="M40.9875 16.2729L41.0827 21.2976C41.0861 21.4958 41.1624 21.6859 41.2971 21.8318C41.4317 21.9778 41.6154 22.0695 41.8134 22.0897V22.0897C42.0213 22.1118 42.2299 22.0533 42.3957 21.9263C42.5615 21.7993 42.6718 21.6136 42.7038 21.4077L43.4897 16.3983C43.5037 16.3088 43.4984 16.2174 43.4742 16.1301C43.45 16.0428 43.4075 15.9616 43.3495 15.8919C43.2914 15.8222 43.2191 15.7656 43.1375 15.7259C43.0558 15.6861 42.9666 15.6641 42.8757 15.6612L41.6476 15.6245C41.561 15.622 41.4748 15.637 41.3942 15.6686C41.3136 15.7002 41.2402 15.7477 41.1786 15.8083C41.1169 15.8689 41.0682 15.9413 41.0353 16.0211C41.0025 16.101 40.9862 16.1866 40.9875 16.2729V16.2729Z" fill="#E0E0E0"/>
<path d="M43.0199 24.9675C42.933 25.1933 42.7808 25.3884 42.5826 25.5281C42.3844 25.6677 42.1491 25.7458 41.9064 25.7523C41.6637 25.7588 41.4245 25.6936 41.2191 25.5647C41.0136 25.4359 40.8511 25.2493 40.752 25.0285C40.653 24.8077 40.6219 24.5626 40.6626 24.3242C40.7034 24.0858 40.8141 23.8647 40.9809 23.689C41.1477 23.5133 41.3631 23.3907 41.5998 23.3369C41.8365 23.283 42.0839 23.3002 42.3107 23.3864C42.4616 23.4437 42.5997 23.5301 42.717 23.6406C42.8344 23.7511 42.9287 23.8836 42.9945 24.0304C43.0604 24.1773 43.0966 24.3356 43.1009 24.4964C43.1053 24.6572 43.0778 24.8173 43.0199 24.9675Z" fill="#E0E0E0"/>
<path d="M101.614 70.6293L99.0009 77.9691C98.8984 78.2601 98.9058 78.5782 99.0217 78.8641C99.1375 79.15 99.3538 79.3841 99.6303 79.5227V79.5227C99.9213 79.6672 100.257 79.6947 100.568 79.5996C100.879 79.5046 101.141 79.2942 101.3 79.012L105.181 72.1615C105.251 72.0392 105.293 71.9036 105.306 71.7637C105.318 71.6237 105.301 71.4827 105.255 71.35C105.209 71.2172 105.135 71.0958 105.038 70.9937C104.941 70.8916 104.824 70.8112 104.693 70.7578L102.931 70.036C102.805 69.9854 102.671 69.9607 102.536 69.9633C102.401 69.966 102.268 69.9959 102.144 70.0514C102.021 70.1069 101.911 70.1867 101.819 70.2861C101.728 70.3854 101.658 70.5022 101.614 70.6293V70.6293Z" fill="white"/>
<path d="M99.8083 84.3611C99.5584 84.6426 99.2303 84.8438 98.8655 84.9394C98.5007 85.0351 98.1156 85.0207 97.759 84.8983C97.4024 84.7759 97.0903 84.5508 96.8621 84.2516C96.6339 83.9524 96.5 83.5925 96.4772 83.2175C96.4544 82.8424 96.5438 82.4691 96.7341 82.1447C96.9244 81.8203 97.207 81.5593 97.5462 81.395C97.8854 81.2306 98.266 81.1702 98.6397 81.2213C99.0134 81.2724 99.3634 81.4328 99.6456 81.6821C99.8331 81.8473 99.986 82.0476 100.096 82.2717C100.205 82.4958 100.27 82.7392 100.285 82.988C100.3 83.2369 100.266 83.4862 100.184 83.7218C100.102 83.9574 99.9745 84.1747 99.8083 84.3611V84.3611Z" fill="white"/>
<path d="M59.3688 16.7377H61.8557C61.8557 16.7377 61.8557 14.4532 64.0264 14.4134C64.4592 14.4093 64.8821 14.5433 65.2329 14.7959C65.5837 15.0485 65.8441 15.4064 65.976 15.8171C66.1078 16.175 66.1604 16.5571 66.1302 16.9372C66.1 17.3172 65.9877 17.6863 65.801 18.0191C65.3773 18.7806 64.4531 19.4718 62.7768 19.1506V25.2824H65.233V21.689C65.233 21.689 68.6839 20.7165 68.6839 16.5572C68.6839 12.5815 65.4203 11.664 64.0233 11.664C62.961 11.6549 59.3228 11.927 59.3688 16.7377Z" fill="white"/>
<path d="M65.2698 26.5454H62.7706V29.096H65.2698V26.5454Z" fill="white"/>
<path d="M122.275 60.7644C122.275 60.7644 122.308 60.7307 122.379 60.6726C122.491 60.5872 122.618 60.5238 122.754 60.4861C122.977 60.4268 123.212 60.4268 123.435 60.4861C123.75 60.5563 124.03 60.7337 124.227 60.9876C124.475 61.311 124.614 61.7035 124.626 62.11C124.637 62.5985 124.52 63.0813 124.286 63.5107C123.675 64.5601 122.846 65.4672 121.854 66.1714C121.276 66.6008 120.676 66.9989 120.055 67.3641C119.407 67.7525 118.719 68.1501 117.976 68.5232C117.203 68.9169 116.397 69.2413 115.566 69.4926C115.125 69.6283 114.675 69.7305 114.218 69.7985C113.744 69.8702 113.264 69.8958 112.785 69.8749C112.28 69.8938 111.781 69.7663 111.348 69.5079C111.127 69.359 110.972 69.1313 110.915 68.8718C110.866 68.6093 110.899 68.3381 111.01 68.095C111.246 67.6173 111.576 67.1918 111.98 66.8442C112.376 66.4724 112.798 66.1291 113.242 65.8166C114.142 65.1805 115.103 64.5933 116.091 63.9817C117.102 63.344 118.186 62.8305 119.321 62.4525C119.913 62.2634 120.525 62.1433 121.145 62.0947C121.782 62.0332 122.425 62.0934 123.039 62.2721C123.684 62.4423 124.242 62.8471 124.602 63.4067C124.764 63.7047 124.852 64.0373 124.859 64.3763C124.865 64.7153 124.79 65.0509 124.639 65.3548C124.339 65.9735 123.855 66.4858 123.254 66.8228C122.655 67.1702 122.015 67.4405 121.347 67.6271C119.977 67.9942 118.554 68.1307 117.138 68.0308C115.681 67.9276 114.232 67.7233 112.803 67.4191C112.066 67.2841 111.337 67.1064 110.62 66.887C110.258 66.7725 109.903 66.6357 109.558 66.4772C109.193 66.3331 108.865 66.1107 108.597 65.8258C108.46 65.6725 108.371 65.4837 108.339 65.2814C108.308 65.072 108.344 64.8583 108.44 64.6698C108.635 64.3185 108.928 64.0316 109.285 63.844C109.983 63.4673 110.755 63.2471 111.547 63.1987C113.139 63.0612 114.739 63.0612 116.331 63.1987C117.141 63.2723 117.947 63.3928 118.744 63.5596C119.146 63.6422 119.545 63.7431 119.941 63.8654C120.354 63.9569 120.744 64.1261 121.093 64.3639C121.275 64.4908 121.419 64.6644 121.51 64.8663C121.601 65.0683 121.635 65.291 121.608 65.5108C121.548 65.7209 121.445 65.9161 121.304 66.0836C121.163 66.2512 120.989 66.3874 120.792 66.4833C120.048 66.8987 119.231 67.1676 118.385 67.2754C117.96 67.3285 117.531 67.3418 117.104 67.3152C116.672 67.2976 116.244 67.2183 115.833 67.0797C115.405 66.9438 115.037 66.6638 114.793 66.2876C114.684 66.0876 114.627 65.8637 114.627 65.6362C114.627 65.4087 114.684 65.1848 114.793 64.9848C115.008 64.5894 115.335 64.2659 115.734 64.0543C116.132 63.8428 116.584 63.7527 117.034 63.7951C117.494 63.8307 117.922 64.0422 118.228 64.3853C118.526 64.7399 118.671 65.1969 118.633 65.6576C118.613 65.8897 118.536 66.1133 118.409 66.309C118.278 66.5014 118.099 66.6572 117.89 66.7616C117.472 66.9622 116.996 67.0098 116.546 66.8962C116.314 66.8558 116.094 66.7628 115.904 66.6243C115.714 66.4859 115.559 66.3058 115.45 66.098C115.401 65.9838 115.382 65.8592 115.394 65.7357C115.406 65.6122 115.45 65.4938 115.52 65.3915C115.664 65.1939 115.876 65.0558 116.116 65.0031C116.575 64.9431 117.041 64.9988 117.473 65.1652C117.914 65.285 118.334 65.4739 118.716 65.7249C119.106 65.986 119.408 66.3579 119.582 66.7922C119.671 67.0125 119.711 67.2497 119.698 67.4869C119.686 67.7242 119.621 67.9558 119.508 68.1654C119.273 68.57 118.927 68.8998 118.511 69.1165C118.103 69.3464 117.653 69.4911 117.187 69.5416C116.249 69.6482 115.303 69.4159 114.522 68.8871C113.749 68.3483 113.151 67.5955 112.803 66.7219C112.419 65.8543 112.354 64.88 112.619 63.9694C112.766 63.5091 113.055 63.1066 113.445 62.8195C113.834 62.5485 114.273 62.3582 114.737 62.2599C115.644 62.0607 116.574 61.9876 117.5 62.0427C118.422 62.0558 119.34 62.1582 120.242 62.3486C121.161 62.5414 121.979 63.0583 122.545 63.8043C122.812 64.1885 122.97 64.6376 123.002 65.104C123.027 65.5657 122.954 66.0273 122.787 66.4588C122.438 67.3034 121.846 68.0267 121.087 68.5385C120.723 68.8007 120.341 69.0378 119.944 69.248C119.554 69.4645 119.151 69.6575 118.738 69.826C117.911 70.1848 116.997 70.2984 116.107 70.1532C114.379 69.7525 112.844 68.768 111.762 67.3671C111.257 66.6547 110.951 65.8206 110.878 64.9511C110.805 64.0944 110.922 63.2322 111.219 62.425C111.507 61.6259 111.961 60.8964 112.551 60.2842C113.133 59.678 113.821 59.1826 114.581 58.8224C115.334 58.472 116.142 58.2517 116.969 58.171C117.798 58.0955 118.634 58.1775 119.432 58.4126C120.226 58.6285 120.931 59.0914 121.443 59.7337C121.899 60.3991 122.158 61.1793 122.189 61.9846C122.28 63.5442 122.004 65.1035 121.384 66.5384C121.088 67.2412 120.705 67.9048 120.245 68.514C119.791 69.1197 119.218 69.6266 118.56 70.0034C117.905 70.3674 117.16 70.5402 116.411 70.5019C115.67 70.4433 114.969 70.1471 114.412 69.6578C113.877 69.1853 113.384 68.6664 112.941 68.1072C112.46 67.5891 112.061 67.0013 111.756 66.364C111.621 66.0402 111.542 65.6958 111.523 65.3456C111.511 64.9972 111.561 64.6494 111.67 64.3181C111.899 63.6778 112.246 63.0863 112.696 62.5749C113.527 61.5442 114.664 60.8005 115.944 60.4494C116.556 60.2851 117.194 60.2443 117.822 60.3294C118.45 60.4145 119.055 60.6237 119.601 60.9448C120.614 61.609 121.38 62.587 121.78 63.7278C122.19 64.7865 122.332 65.929 122.195 67.0552C122.078 68.133 121.586 69.1359 120.804 69.8902C120.034 70.5527 119.098 70.9945 118.096 71.1686C117.175 71.3657 116.227 71.4061 115.293 71.2878C114.42 71.1717 113.605 70.7893 112.96 70.193C112.377 69.6446 111.942 68.9589 111.695 68.199C111.468 67.5094 111.397 66.7782 111.489 66.0582C111.644 64.851 112.155 63.7166 112.957 62.7981C113.541 62.1284 114.24 61.5663 115.02 61.1375C115.495 60.8719 115.993 60.6498 116.509 60.4738C116.859 60.3546 117.043 60.3087 117.043 60.3087L116.908 60.3546L116.515 60.4891C116.003 60.6722 115.508 60.8983 115.035 61.165C114.263 61.5974 113.572 62.1604 112.993 62.8287C112.202 63.7428 111.7 64.8697 111.55 66.0674C111.463 66.7765 111.534 67.4961 111.759 68.1745C112.006 68.9233 112.438 69.5984 113.015 70.1379C113.65 70.7212 114.452 71.0941 115.308 71.2053C116.23 71.3183 117.164 71.2759 118.072 71.0799C119.055 70.9064 119.974 70.4722 120.73 69.8229C121.493 69.0802 121.971 68.0962 122.084 67.0399C122.221 65.9263 122.081 64.7961 121.676 63.7492C121.28 62.631 120.524 61.6743 119.527 61.0274C118.997 60.7167 118.411 60.5147 117.802 60.4333C117.193 60.3519 116.574 60.3927 115.981 60.5534C114.726 60.8984 113.613 61.6295 112.8 62.6421C112.361 63.1414 112.021 63.7195 111.799 64.3456C111.695 64.6622 111.648 64.9944 111.658 65.3273C111.678 65.6629 111.755 65.9926 111.885 66.3029C112.175 66.93 112.559 67.5095 113.024 68.0216C113.463 68.5728 113.95 69.0845 114.479 69.5507C115.016 70.0226 115.691 70.309 116.404 70.3673C117.13 70.4024 117.851 70.2339 118.486 69.881C119.127 69.5112 119.685 69.016 120.129 68.4253C120.582 67.8257 120.958 67.1724 121.249 66.4803C121.859 65.0662 122.129 63.5301 122.038 61.9938C122.009 61.2152 121.76 60.4606 121.32 59.8163C120.827 59.1989 120.148 58.7551 119.383 58.5502C118.613 58.3211 117.806 58.2401 117.006 58.3117C116.196 58.3887 115.404 58.6039 114.667 58.9478C113.149 59.6453 111.97 60.9115 111.385 62.4709C111.097 63.2528 110.984 64.0876 111.053 64.9175C111.119 65.768 111.415 66.5849 111.91 67.2815C112.966 68.6511 114.467 69.6131 116.156 70.0034C117.016 70.1497 117.9 70.0434 118.701 69.6975C119.108 69.5315 119.505 69.3416 119.889 69.1287C120.279 68.9217 120.654 68.6887 121.013 68.4314C121.748 67.9368 122.321 67.2382 122.662 66.4221C122.819 66.0118 122.888 65.5732 122.864 65.1346C122.836 64.6953 122.688 64.272 122.434 63.9113C121.891 63.1966 121.105 62.7022 120.224 62.5198C119.333 62.33 118.426 62.2276 117.516 62.214C116.602 62.1585 115.684 62.2296 114.789 62.425C114.349 62.5208 113.931 62.7027 113.561 62.9602C113.198 63.2275 112.928 63.602 112.791 64.0306C112.538 64.9094 112.602 65.8485 112.972 66.6852C113.309 67.5299 113.886 68.2581 114.633 68.7801C115.385 69.2819 116.292 69.4989 117.19 69.3917C117.634 69.3446 118.064 69.2072 118.452 68.988C118.838 68.7795 119.158 68.4668 119.373 68.0858C119.475 67.8963 119.534 67.687 119.545 67.4725C119.557 67.258 119.521 67.0435 119.441 66.8442C119.277 66.44 118.996 66.0939 118.633 65.8503C118.264 65.6096 117.859 65.428 117.433 65.312C117.027 65.1568 116.59 65.1022 116.159 65.153C115.957 65.1971 115.778 65.3122 115.655 65.4771C115.6 65.5584 115.566 65.6524 115.557 65.7503C115.548 65.8482 115.564 65.9467 115.603 66.0368C115.703 66.2205 115.843 66.3792 116.013 66.5011C116.183 66.6229 116.379 66.7047 116.586 66.7402C116.997 66.8423 117.43 66.8001 117.814 66.6209C118 66.5287 118.159 66.3897 118.275 66.2175C118.39 66.0453 118.459 65.846 118.474 65.6392C118.494 65.4319 118.472 65.2227 118.409 65.0242C118.346 64.8256 118.243 64.6418 118.107 64.4838C117.97 64.3258 117.804 64.1969 117.616 64.1048C117.428 64.0128 117.224 63.9594 117.015 63.948C116.597 63.9084 116.177 63.9915 115.806 64.1872C115.435 64.3828 115.13 64.6824 114.928 65.049C114.831 65.2271 114.781 65.4263 114.781 65.6285C114.781 65.8308 114.831 66.0299 114.928 66.2081C115.152 66.5534 115.491 66.8097 115.886 66.9329C116.282 67.0658 116.696 67.143 117.114 67.1622C117.532 67.1863 117.951 67.172 118.366 67.1194C119.191 67.0162 119.989 66.7555 120.715 66.3518C120.893 66.2666 121.052 66.1449 121.18 65.9948C121.308 65.8446 121.402 65.6693 121.458 65.4802C121.48 65.2879 121.449 65.0932 121.368 64.917C121.288 64.7409 121.161 64.5899 121.001 64.4802C120.668 64.2542 120.295 64.0934 119.901 64.0061C119.505 63.896 119.112 63.7951 118.713 63.7003C117.923 63.5335 117.123 63.413 116.318 63.3394C114.737 63.1958 113.145 63.1896 111.563 63.3211C110.792 63.3626 110.04 63.5714 109.358 63.9327C109.026 64.1066 108.752 64.3734 108.569 64.7003C108.487 64.8595 108.456 65.0398 108.481 65.2169C108.505 65.3941 108.583 65.5596 108.704 65.6912C108.963 65.9598 109.277 66.1686 109.625 66.3029C109.965 66.4598 110.315 66.5947 110.672 66.7066C111.384 66.9246 112.108 67.1012 112.84 67.2356C114.259 67.5543 115.698 67.774 117.147 67.8932C118.549 67.9952 119.957 67.8608 121.314 67.4956C121.97 67.3157 122.599 67.0515 123.187 66.7096C123.767 66.387 124.234 65.895 124.525 65.2998C124.668 65.0139 124.74 64.6982 124.735 64.3789C124.73 64.0597 124.649 63.7463 124.498 63.4648C124.155 62.9296 123.622 62.543 123.005 62.3822C122.408 62.2069 121.783 62.1477 121.163 62.2079C120.551 62.2554 119.947 62.3724 119.361 62.5565C118.236 62.9314 117.16 63.4386 116.156 64.0673C115.17 64.6789 114.206 65.2631 113.31 65.9022C112.869 66.2115 112.451 66.5508 112.057 66.9176C111.661 67.2576 111.339 67.6737 111.108 68.1409C111.004 68.3653 110.972 68.6163 111.016 68.8596C111.07 69.0968 111.212 69.3052 111.412 69.4437C111.83 69.6922 112.311 69.8144 112.797 69.7954C113.271 69.8173 113.746 69.7927 114.215 69.722C114.668 69.6541 115.114 69.5519 115.551 69.4162C116.378 69.1674 117.182 68.846 117.952 68.4559C118.692 68.0889 119.379 67.6944 120.03 67.309C120.65 66.9452 121.249 66.5491 121.826 66.1224C122.814 65.4281 123.641 64.5313 124.252 63.4923C124.486 63.0705 124.604 62.5949 124.596 62.1131C124.586 61.7142 124.452 61.3282 124.212 61.009C124.019 60.7594 123.746 60.5834 123.438 60.5105C123.218 60.4533 122.986 60.4533 122.766 60.5105C122.584 60.555 122.416 60.642 122.275 60.7644V60.7644Z" fill="#F5F5F5"/>
<path d="M89.8224 8.67006C89.8758 8.61691 89.9321 8.56688 89.9913 8.52021C90.1684 8.38138 90.3706 8.27758 90.5869 8.21438C90.9451 8.12055 91.3217 8.12055 91.6799 8.21438C92.1814 8.32873 92.6274 8.61304 92.9418 9.0187C93.3373 9.53479 93.5596 10.1618 93.5773 10.8108C93.5915 11.5909 93.4022 12.3612 93.0277 13.0464C92.2418 14.5389 90.8786 15.9854 89.1378 17.2974C88.2119 17.9856 87.2495 18.6237 86.2548 19.2088C85.214 19.8205 84.1057 20.4657 82.9236 21.0621C81.686 21.6971 80.3946 22.2221 79.0644 22.631C78.3612 22.8435 77.6427 23.002 76.9152 23.105C76.1575 23.2194 75.3905 23.2614 74.6248 23.2304C73.8183 23.2554 73.0217 23.0472 72.3314 22.631C71.9855 22.3926 71.7422 22.0335 71.6498 21.6248C71.5714 21.2111 71.6251 20.7833 71.8033 20.4015C72.1737 19.6399 72.696 18.9614 73.3384 18.4075C73.9713 17.8137 74.6454 17.2649 75.3555 16.7653C76.074 16.2515 76.8231 15.7683 77.5876 15.2851C78.3521 14.8019 79.1227 14.3095 79.9209 13.8293C81.5384 12.8099 83.2733 11.9885 85.0881 11.3827C86.0361 11.0857 87.0144 10.895 88.0049 10.8139C89.0219 10.7165 90.0483 10.813 91.029 11.0983C91.5273 11.2486 92.0003 11.4723 92.4321 11.762C92.8749 12.053 93.2438 12.4424 93.5098 12.8996C93.766 13.3726 93.9048 13.8999 93.9144 14.4374C93.924 14.9748 93.8042 15.5067 93.565 15.9885C93.0848 16.9717 92.316 17.7865 91.3606 18.325C90.4051 18.8782 89.3827 19.3078 88.318 19.6033C86.126 20.1939 83.8498 20.412 81.585 20.2486C79.2514 20.0759 76.9329 19.7408 74.6463 19.2455C73.4677 19.0272 72.3022 18.7434 71.1555 18.3953C70.5786 18.2107 70.0137 17.9911 69.4638 17.7378C68.8829 17.5066 68.3592 17.153 67.9287 16.701C67.7233 16.4603 67.5902 16.1666 67.5449 15.8539C67.501 15.5337 67.5578 15.2078 67.7076 14.9211C68.0161 14.367 68.4789 13.9135 69.0401 13.6153C70.1529 13.0157 71.3845 12.667 72.6476 12.5938C75.1958 12.3808 77.7577 12.388 80.3047 12.6152C81.6015 12.7335 82.8901 12.9276 84.164 13.1963C84.8057 13.3278 85.4443 13.5021 86.0798 13.6642C86.7391 13.8084 87.3644 14.0773 87.9219 14.4563C88.1948 14.6636 88.4163 14.9304 88.5698 15.2361C88.7326 15.5471 88.7886 15.9027 88.7294 16.2484C88.6587 16.5889 88.4914 16.902 88.2474 17.1506C88.0111 17.3972 87.7402 17.6084 87.443 17.7775C86.2576 18.4384 84.9558 18.8661 83.6083 19.0375C82.9302 19.1226 82.2457 19.1451 81.5635 19.1048C80.867 19.0785 80.1781 18.9507 79.5187 18.7256C78.8415 18.5139 78.2603 18.0724 77.8762 17.4778C77.6983 17.166 77.6092 16.8118 77.6183 16.4533C77.6324 16.0976 77.7235 15.7492 77.8854 15.4319C78.2264 14.8078 78.7441 14.2974 79.3741 13.9641C80.004 13.6308 80.7184 13.4893 81.4284 13.5572C81.7894 13.5781 82.1425 13.6714 82.4664 13.8314C82.7904 13.9914 83.0787 14.2148 83.314 14.4883C83.5493 14.7618 83.7268 15.0798 83.8359 15.4232C83.9451 15.7666 83.9835 16.1284 83.9491 16.487C83.9238 16.852 83.803 17.204 83.5989 17.5082C83.3948 17.8124 83.1144 18.0581 82.7855 18.221C82.1235 18.5358 81.3717 18.6094 80.6609 18.429C80.2978 18.3652 79.9541 18.2197 79.6561 18.0034C79.3582 17.7871 79.1137 17.5059 78.9415 17.1812C78.865 17.0056 78.8347 16.8134 78.8535 16.6229C78.8723 16.4324 78.9396 16.2498 79.049 16.0924C79.2708 15.7834 79.5984 15.5659 79.9701 15.4808C80.3314 15.4043 80.7048 15.4043 81.0661 15.4808C81.4254 15.545 81.7723 15.6398 82.1192 15.7377C82.823 15.928 83.4916 16.2295 84.0995 16.6307C84.7175 17.0426 85.196 17.6311 85.4719 18.3189C85.6055 18.6659 85.6671 19.0362 85.6531 19.4076C85.6307 19.7825 85.5259 20.1479 85.346 20.478C84.9795 21.1268 84.434 21.6575 83.7741 22.0071C83.4537 22.1914 83.1139 22.3401 82.7609 22.4506C82.4074 22.5635 82.0432 22.6403 81.674 22.6799C80.1823 22.8493 78.6791 22.4804 77.4371 21.6401C76.2052 20.7826 75.2538 19.5828 74.7016 18.1904C74.4135 17.499 74.2334 16.7678 74.1674 16.0221C74.0917 15.2715 74.1732 14.5133 74.4068 13.7957C74.6383 13.0631 75.0947 12.4213 75.7117 11.9607C76.3323 11.5329 77.0312 11.2305 77.7687 11.0708C79.2214 10.7528 80.7114 10.6375 82.196 10.7283C83.6666 10.8017 85.1434 10.8598 86.5803 11.2176C88.0171 11.5754 89.3865 12.3124 90.24 13.5296C90.6675 14.1399 90.9201 14.8546 90.9707 15.597C91.0119 16.3264 90.8968 17.0562 90.633 17.7378C90.1202 19.114 89.0794 20.2119 87.9219 21.0499C87.3402 21.4683 86.731 21.8474 86.0982 22.1845C85.4744 22.5283 84.8306 22.8346 84.1701 23.102C83.5077 23.3693 82.8164 23.5592 82.11 23.6677C81.403 23.7673 80.6844 23.7518 79.9824 23.6219C78.6008 23.3394 77.2865 22.7954 76.1108 22.0193C74.9163 21.2868 73.874 20.3327 73.0406 19.2088C72.236 18.0742 71.7505 16.7459 71.6344 15.3615C71.4713 13.3055 71.975 11.2515 73.0713 9.5019C73.2401 9.21137 73.4551 8.94836 73.6454 8.67006C73.8358 8.39176 74.0722 8.1471 74.3086 7.90855C75.2376 6.94266 76.3351 6.15303 77.5477 5.57816C78.7494 5.01607 80.0393 4.66432 81.3609 4.53836C82.6689 4.42496 83.9866 4.55882 85.2447 4.93287C86.5099 5.27476 87.6321 6.01102 88.447 7.03389C89.1709 8.09581 89.5814 9.33861 89.6321 10.6212C89.7754 13.113 89.3349 15.6038 88.3456 17.8968C87.8727 19.0191 87.2611 20.0783 86.525 21.0499C85.8017 22.0163 84.8874 22.825 83.8386 23.4261C82.792 24.0071 81.6027 24.2836 80.406 24.2243C79.816 24.184 79.2374 24.0423 78.6959 23.8054C78.1657 23.5684 77.6708 23.2596 77.2253 22.8879C76.3691 22.1324 75.5811 21.3035 74.8704 20.4107C74.1183 19.5769 73.4972 18.6345 73.0283 17.6155C72.8152 17.0994 72.6897 16.5516 72.6568 15.9946C72.6391 15.4416 72.7192 14.8899 72.8932 14.3645C73.2556 13.343 73.8099 12.3996 74.5266 11.5846C75.8544 9.93878 77.6687 8.7511 79.7122 8.18991C80.688 7.92574 81.7072 7.85945 82.7092 7.99499C83.7113 8.13052 84.6758 8.46512 85.5456 8.97894C86.3717 9.49512 87.0943 10.1599 87.6763 10.9393C88.239 11.6986 88.6927 12.5323 89.0242 13.4165C89.6812 15.1154 89.9058 16.9498 89.6781 18.7562C89.5677 19.6194 89.3233 20.4603 88.9535 21.2487C88.5887 22.0147 88.0825 22.7056 87.4614 23.2855C86.2333 24.4201 84.6552 25.0103 83.1416 25.3253C81.6688 25.6397 80.1533 25.7038 78.6591 25.5149C77.9529 25.4126 77.2659 25.2065 76.6205 24.9033C76.0012 24.6132 75.4314 24.2283 74.9318 23.7625C73.9982 22.8851 73.3005 21.7883 72.9024 20.5728C72.5396 19.4725 72.4264 18.3058 72.5708 17.1567C72.6944 16.1312 72.987 15.1331 73.4366 14.2024C73.8274 13.3832 74.3239 12.6183 74.9134 11.9271C75.8492 10.8571 76.965 9.95778 78.2108 9.26948C78.9718 8.84134 79.7703 8.48306 80.5964 8.19909C81.1521 8.00642 81.4468 7.93302 81.4468 7.93302L81.235 8.00336C81.0907 8.04618 80.8789 8.11652 80.6025 8.21438C79.78 8.50488 78.9848 8.86716 78.2262 9.297C76.9877 9.98812 75.8792 10.8884 74.9503 11.9577C74.3637 12.6437 73.8703 13.4035 73.4827 14.2177C73.0385 15.1431 72.7502 16.135 72.6292 17.1537C72.4884 18.2929 72.6027 19.4491 72.9638 20.5391C73.3601 21.7429 74.0537 22.8282 74.981 23.6953C76.0016 24.6331 77.2885 25.2334 78.6652 25.414C80.1498 25.5995 81.6551 25.5323 83.1171 25.2152C84.6215 24.9094 86.1873 24.2977 87.3908 23.1937C88.0003 22.6211 88.4978 21.9408 88.8584 21.1875C89.2223 20.4064 89.4626 19.5739 89.5707 18.7195C89.793 16.9304 89.5695 15.1143 88.9198 13.4318C88.5879 12.5591 88.1375 11.7359 87.5812 10.9852C87.007 10.2181 86.2949 9.56378 85.4811 9.0554C83.8324 8.02171 81.6986 7.78928 79.7367 8.28472C77.7183 8.8428 75.9276 10.0198 74.6187 11.6488C73.9116 12.4561 73.3656 13.3902 73.0099 14.4012C72.8395 14.9125 72.7626 15.4501 72.7827 15.9885C72.8129 16.5311 72.9354 17.0647 73.145 17.5665C73.6163 18.5712 74.2374 19.4991 74.9871 20.319C75.6915 21.2019 76.4734 22.0207 77.3235 22.7656C78.1892 23.5271 79.2794 23.9885 80.4306 24.0806C81.6008 24.1385 82.7637 23.8672 83.7864 23.2977C84.8193 22.7056 85.7199 21.9094 86.4329 20.9581C87.1585 19.9934 87.7628 18.9437 88.232 17.8326C89.2099 15.5601 89.645 13.0926 89.5031 10.6243C89.4535 9.36797 89.0514 8.15064 88.3426 7.11035C87.5462 6.11404 86.4512 5.3972 85.2171 5.06438C83.9671 4.69713 82.6586 4.56949 81.3609 4.68821C80.0575 4.81233 78.7853 5.15889 77.5999 5.71273C76.4051 6.28137 75.3233 7.0605 74.4068 8.01253C74.1735 8.24802 73.9709 8.51103 73.7529 8.76181C73.5349 9.01258 73.3537 9.29394 73.188 9.58142C72.1159 11.3029 71.6243 13.3206 71.7849 15.3401C71.8986 16.698 72.3745 18.0009 73.1634 19.114C73.9842 20.2207 75.0096 21.1611 76.1845 21.8848C77.3406 22.659 78.635 23.2051 79.9977 23.4934C80.6837 23.6192 81.3856 23.6337 82.0762 23.5362C82.7785 23.4318 83.4659 23.245 84.1241 22.9796C84.7796 22.7124 85.4184 22.4061 86.0368 22.0622C86.6628 21.727 87.2659 21.351 87.8421 20.9367C88.9842 20.111 89.9913 19.0345 90.4948 17.698C90.7512 17.0348 90.8641 16.3251 90.8264 15.6154C90.7793 14.9049 90.5384 14.2207 90.1294 13.6367C89.7129 13.0529 89.1785 12.5623 88.5606 12.1962C87.9393 11.8269 87.2654 11.5536 86.5618 11.3858C85.1306 11.0861 83.6737 10.9243 82.2113 10.9026C80.7422 10.8117 79.2675 10.926 77.8301 11.2421C77.1124 11.3957 76.4322 11.6888 75.8283 12.1045C75.2398 12.5419 74.803 13.1512 74.5788 13.8477C74.3536 14.545 74.2752 15.281 74.3485 16.0099C74.4126 16.7398 74.5886 17.4555 74.8704 18.1323C75.4134 19.4912 76.3455 20.661 77.5507 21.4964C78.7547 22.3207 80.2155 22.6874 81.6679 22.5301C82.0267 22.4903 82.3806 22.4145 82.7241 22.3038C83.068 22.1992 83.3987 22.0556 83.7096 21.8756C84.3426 21.5412 84.8659 21.0328 85.2171 20.4107C85.3831 20.1013 85.4791 19.7594 85.4982 19.4091C85.5173 19.0588 85.459 18.7086 85.3276 18.3831C85.0638 17.7256 84.6068 17.1629 84.0166 16.7683C83.42 16.3792 82.765 16.087 82.0762 15.9028C81.3977 15.7163 80.6854 15.49 80.01 15.6459C79.6764 15.7192 79.3808 15.9105 79.178 16.1842C79.0839 16.32 79.0261 16.4775 79.01 16.6418C78.9938 16.806 79.02 16.9717 79.0858 17.1231C79.2309 17.4322 79.4608 17.6941 79.749 17.8785C80.0366 18.0712 80.3587 18.2072 80.6977 18.2791C81.371 18.4515 82.0837 18.3833 82.7118 18.0864C83.0182 17.9368 83.2795 17.7093 83.4693 17.4268C83.659 17.1444 83.7705 16.817 83.7925 16.4778C83.8244 16.1401 83.7876 15.7995 83.6842 15.4764C83.5808 15.1532 83.413 14.8542 83.1908 14.5972C82.9687 14.3402 82.6967 14.1305 82.3912 13.9807C82.0857 13.8309 81.7531 13.744 81.4131 13.7254C80.7363 13.663 80.056 13.7992 79.456 14.1171C78.8559 14.4349 78.3623 14.9207 78.0358 15.5144C77.8827 15.8103 77.7967 16.136 77.7841 16.4686C77.7769 16.7994 77.8597 17.1259 78.0236 17.4136C78.3884 17.9771 78.9405 18.3949 79.5832 18.5941C80.2185 18.8084 80.8811 18.9319 81.5512 18.9611C82.2232 19.0009 82.8973 18.9794 83.5653 18.8969C84.8934 18.7282 86.1765 18.3067 87.3447 17.6552C87.6298 17.4893 87.8893 17.2833 88.1154 17.0436C88.3417 16.8145 88.4955 16.5241 88.5575 16.2087C88.591 15.8941 88.5392 15.5764 88.4074 15.2886C88.2756 15.0008 88.0688 14.7535 87.8084 14.5725C87.2697 14.2078 86.6665 13.9484 86.0307 13.8079C85.3982 13.6336 84.7627 13.4715 84.1241 13.34C82.8551 13.0736 81.5716 12.8806 80.2802 12.762C77.7436 12.5343 75.1919 12.5251 72.6537 12.7345C71.4112 12.8057 70.1995 13.1482 69.1046 13.7376C68.5665 14.0226 68.1221 14.4558 67.8243 14.9854C67.6881 15.2468 67.6367 15.5438 67.6769 15.8356C67.721 16.1271 67.8502 16.3994 68.0484 16.6185C68.4614 17.0538 68.9642 17.395 69.5221 17.6185C70.07 17.8691 70.6329 18.0857 71.2077 18.2669C72.3494 18.6135 73.5097 18.8964 74.6831 19.114C76.9632 19.6113 79.2758 19.9475 81.6034 20.1202C83.8524 20.2824 86.1128 20.0673 88.2904 19.484C89.3443 19.1927 90.3565 18.7683 91.3023 18.221C92.2349 17.6973 92.9847 16.9024 93.4514 15.9426C93.6836 15.4787 93.8007 14.966 93.7926 14.4476C93.7846 13.9293 93.6518 13.4204 93.4054 12.9638C93.1484 12.5218 92.7922 12.1449 92.3646 11.8629C91.9415 11.5802 91.4791 11.3607 90.9922 11.2115C90.0263 10.9306 89.0155 10.8362 88.0141 10.9332C87.032 11.0114 86.0619 11.1992 85.1219 11.4928C83.3153 12.0943 81.5878 12.9095 79.9762 13.9211C79.181 14.3982 78.4073 14.8906 77.6428 15.3738C76.8784 15.857 76.1292 16.3371 75.4169 16.8478C74.7076 17.3427 74.0355 17.8885 73.4059 18.4809C72.7659 19.0225 72.2435 19.6885 71.8708 20.4382C71.7022 20.8044 71.6508 21.2133 71.7235 21.6095C71.8088 21.9961 72.0395 22.3353 72.3682 22.5576C73.0427 22.958 73.8186 23.1565 74.6033 23.1295C75.3639 23.1629 76.1258 23.1219 76.8784 23.0072C77.6057 22.906 78.3241 22.7495 79.0275 22.5392C80.3521 22.1422 81.6394 21.6305 82.8745 21.0101C84.0627 20.4199 85.1649 19.7868 86.2057 19.1752C87.1988 18.5923 88.1601 17.9574 89.0856 17.2729C90.8233 15.9671 92.1834 14.5205 92.9694 13.0495C93.3431 12.3716 93.5336 11.6086 93.522 10.8353C93.5096 10.1935 93.2948 9.57187 92.908 9.05846C92.6414 8.71606 92.2807 8.45809 91.8698 8.31586C91.4589 8.17363 91.0154 8.15325 90.593 8.2572C90.3062 8.33014 90.0416 8.47188 89.8224 8.67006V8.67006Z" fill="#495E4C"/>
<path d="M34.0976 44.4588C34.0976 44.4588 34.0392 44.4587 33.9287 44.4404L33.4313 44.3639C32.7965 44.2677 32.1772 44.0888 31.5892 43.8318C31.1598 43.6377 30.7744 43.3589 30.4563 43.0122C30.0685 42.6008 29.8259 42.0747 29.7655 41.5137C29.7395 41.198 29.7989 40.8812 29.9374 40.5962C30.0936 40.2975 30.324 40.0438 30.6067 39.8591C30.9086 39.6584 31.2709 39.5676 31.6322 39.6022C31.8211 39.6313 32.0014 39.7011 32.1605 39.8067C32.3196 39.9124 32.4536 40.0513 32.5533 40.2139C32.7549 40.5563 32.843 40.9533 32.805 41.3485C32.7736 41.7556 32.6564 42.1516 32.4611 42.5106C32.3603 42.6956 32.2365 42.8671 32.0927 43.0214C31.9515 43.1823 31.7975 43.3316 31.6322 43.4679C31.2839 43.7356 30.8981 43.951 30.487 44.107C30.0586 44.2619 29.6096 44.3526 29.1545 44.3762C28.6853 44.4055 28.2144 44.358 27.7606 44.2355C27.2914 44.1113 26.8484 43.9041 26.4527 43.6238C26.0476 43.3313 25.7087 42.9572 25.458 42.5259C24.9365 41.6288 24.7424 40.5797 24.9084 39.5564C24.9926 39.03 25.1771 38.5244 25.4518 38.067C25.5925 37.8355 25.7582 37.6202 25.9461 37.4248C26.1295 37.2171 26.3516 37.0467 26.6001 36.9232C26.8577 36.7816 27.1605 36.7455 27.4444 36.8223C27.5865 36.8703 27.7165 36.9485 27.8251 37.0517C27.9267 37.1616 28.0013 37.2935 28.0431 37.437C28.1122 37.7173 28.1122 38.01 28.0431 38.2902C27.9819 38.5664 27.8881 38.8343 27.7637 39.0885C27.4997 39.5869 27.2141 40.061 26.9071 40.5381C26.5969 41.0213 26.2312 41.4667 25.8172 41.8653C25.3973 42.2679 24.8988 42.5802 24.3527 42.7828C23.8083 42.9843 23.2158 43.0184 22.6518 42.8807C22.1014 42.7328 21.6016 42.439 21.2057 42.0305C20.8142 41.6361 20.5017 41.1711 20.2846 40.6604C19.9155 39.6601 19.7233 38.6036 19.7166 37.5379C19.6736 37.0235 19.6829 36.5061 19.7443 35.9935C19.7871 35.4621 20.0242 34.9648 20.4105 34.5959C20.611 34.4296 20.8549 34.3235 21.1136 34.2901C21.3666 34.2561 21.624 34.2855 21.8627 34.3757C22.3302 34.5517 22.7139 34.8968 22.9373 35.3421C23.1367 35.7751 23.2111 36.2548 23.1522 36.7275C23.105 37.1794 22.9837 37.6206 22.793 38.0334C22.6165 38.4328 22.3939 38.8105 22.1298 39.1588C21.8729 39.4918 21.5839 39.7991 21.2671 40.0763C20.6649 40.5951 19.9703 40.9966 19.2193 41.2598C18.5399 41.4995 17.821 41.6085 17.1008 41.5809C16.4587 41.5557 15.826 41.4191 15.231 41.1772C14.2751 40.7932 13.4308 40.1772 12.7749 39.3851C12.3611 38.885 12.0361 38.3182 11.8139 37.7092C11.7533 37.5526 11.703 37.3922 11.6634 37.229C11.6358 37.122 11.6235 37.0639 11.6235 37.0639C11.6235 37.0639 11.6819 37.2902 11.8446 37.697C12.0797 38.2914 12.4117 38.8432 12.8271 39.3301C13.4821 40.1034 14.3183 40.7042 15.2618 41.0794C15.8489 41.3128 16.4721 41.4431 17.1039 41.4647C17.8109 41.4865 18.5159 41.3765 19.1824 41.1405C20.3112 40.742 21.2984 40.0234 22.0224 39.0732C22.2783 38.731 22.4936 38.3606 22.6641 37.9691C22.8494 37.5703 22.9667 37.1434 23.011 36.7061C23.0652 36.2582 22.994 35.8042 22.8053 35.3941C22.5972 34.9821 22.2409 34.6633 21.8075 34.5011C21.5911 34.4149 21.3554 34.3885 21.1253 34.4245C20.8951 34.4606 20.6789 34.5578 20.4996 34.706C20.1524 35.0479 19.9399 35.5026 19.9009 35.9874C19.8392 36.4948 19.831 37.0073 19.8763 37.5165C19.8846 38.5603 20.0737 39.5949 20.4351 40.5748C20.6463 41.0664 20.9507 41.5129 21.3316 41.8898C21.7064 42.2794 22.181 42.5596 22.704 42.7003C23.2367 42.8295 23.7961 42.7964 24.3097 42.6054C24.8343 42.4121 25.3146 42.1157 25.722 41.7338C26.5418 40.9601 27.1036 39.9601 27.6317 39.0028C27.8908 38.5375 27.9869 37.9995 27.9049 37.4737C27.8659 37.3606 27.8042 37.2566 27.7238 37.1679C27.6364 37.0833 27.5316 37.0187 27.4168 36.9783C27.1718 36.9129 26.911 36.9447 26.6891 37.0669C26.4562 37.1835 26.2477 37.3434 26.0751 37.5379C25.8963 37.7247 25.7378 37.9297 25.6023 38.1496C25.337 38.5896 25.1597 39.0767 25.0803 39.5839C24.916 40.5724 25.1004 41.5872 25.6023 42.4556C25.8434 42.8626 26.1633 43.2178 26.5432 43.5008C26.9232 43.7837 27.3558 43.9887 27.8159 44.104C28.4559 44.2792 29.128 44.3044 29.7795 44.1776C30.4309 44.0508 31.0441 43.7754 31.5708 43.3731C31.8922 43.1189 32.1638 42.8079 32.3721 42.4556C32.5578 42.1063 32.6666 41.7216 32.6914 41.3271C32.7308 40.9563 32.6512 40.5827 32.4642 40.2598C32.37 40.113 32.2454 39.9879 32.0987 39.893C31.952 39.798 31.7867 39.7354 31.6138 39.7093C31.2777 39.6755 30.9403 39.7587 30.6589 39.9448C30.3857 40.1196 30.1625 40.3619 30.0111 40.6482C29.8773 40.9161 29.8189 41.2153 29.8422 41.5137C29.8986 42.0572 30.1302 42.5679 30.5023 42.9694C30.8106 43.3108 31.1843 43.5874 31.6015 43.7829C32.189 44.0459 32.8081 44.2319 33.4436 44.3364L33.9379 44.4312L34.0976 44.4588Z" fill="#495E4C"/>
<path d="M74.6952 102.013H55.8423C55.0982 102.013 54.495 102.614 54.495 103.355V103.462C54.495 104.204 55.0982 104.805 55.8423 104.805H74.6952C75.4393 104.805 76.0425 104.204 76.0425 103.462V103.355C76.0425 102.614 75.4393 102.013 74.6952 102.013Z" fill="#495E4C"/>
<path d="M59.662 106.476H71.2755C71.2755 106.476 69.7304 109.552 65.2296 109.552C60.5359 109.552 59.662 106.476 59.662 106.476Z" fill="#495E4C"/>
<path d="M70.9659 41.4461C70.5371 40.764 69.9155 40.2233 69.1793 39.8921C68.443 39.5609 67.625 39.4539 66.8279 39.5845C66.0308 39.7151 65.2902 40.0775 64.6992 40.6263C64.1082 41.175 63.6931 41.8855 63.5061 42.6685C63.3191 43.4515 63.3685 44.2722 63.6481 45.0273C63.9277 45.7825 64.4251 46.4384 65.0777 46.9128C65.7303 47.3872 66.509 47.6588 67.3161 47.6935C68.1231 47.7282 68.9225 47.5245 69.6137 47.108L69.665 47.074L66.8898 58.4099L75.8329 60.5817L75.7963 60.5307C75.3853 59.845 75.1862 59.0538 75.2241 58.256C75.262 57.4582 75.5351 56.6892 76.0093 56.0452C76.4834 55.4013 77.1376 54.9109 77.89 54.6355C78.6424 54.36 79.4596 54.3118 80.2394 54.4967C81.0192 54.6816 81.7269 55.0915 82.2742 55.6751C82.8214 56.2587 83.1838 56.9901 83.316 57.7778C83.4483 58.5656 83.3445 59.3747 83.0177 60.104C82.6908 60.8333 82.1555 61.4503 81.4785 61.878L81.3931 61.9316L91.005 64.2688C93.0846 59.6478 94.2879 53.4533 91.7373 46.3735C90.4103 42.5752 88.1901 39.1487 85.2622 36.3802C82.3344 33.6118 78.784 31.582 74.9078 30.4604L73.7948 30.1904L71.0196 41.5337L70.9659 41.4461Z" fill="#E9E9E9"/>
<path d="M70.9664 41.4462C70.9865 41.4736 71.0053 41.502 71.0225 41.5313C71.1202 41.0814 72.1087 36.9906 73.7636 30.1832V30.1467H73.8002L74.7155 30.368C75.0279 30.4386 75.3379 30.5432 75.6552 30.638C76.2849 30.8447 76.9293 31.0782 77.5786 31.3506C78.9603 31.9232 80.2884 32.6166 81.5473 33.4227C82.9372 34.317 84.2412 35.3371 85.4429 36.4701C86.7253 37.7226 87.879 39.0995 88.8869 40.5804C89.148 40.9646 89.375 41.3757 89.6191 41.7745L89.9877 42.3825C90.1 42.5917 90.2025 42.8082 90.3123 43.0222L90.9616 44.3185L91.5156 45.6804C92.2736 47.5648 92.7919 49.5364 93.0582 51.5491C93.3234 53.6679 93.2922 55.8132 92.9655 57.9236C92.8922 58.4635 92.7702 58.9985 92.6628 59.5385C92.5554 60.0784 92.4016 60.6086 92.2357 61.1388C91.9132 62.2113 91.521 63.2617 91.0616 64.2835L91.0421 64.3321H90.9909L84.281 62.7026L81.3765 62.007L81.2276 61.9705L81.3594 61.8903C82.0769 61.461 82.6418 60.819 82.9752 60.0541C83.139 59.6768 83.2428 59.2763 83.2827 58.8672C83.3293 58.4614 83.3096 58.0507 83.2242 57.6512C83.1834 57.4522 83.1288 57.2564 83.0606 57.065C82.9868 56.8762 82.9004 56.6926 82.8019 56.5154C82.6095 56.1613 82.3624 55.8396 82.0697 55.562C81.6411 55.1536 81.1273 54.8448 80.5649 54.6576C80.0025 54.4704 79.4055 54.4095 78.8167 54.4792C78.2279 54.5489 77.6618 54.7476 77.1591 55.0609C76.6565 55.3743 76.2296 55.7946 75.909 56.2916C75.7003 56.6124 75.5407 56.9624 75.4355 57.3301C75.3227 57.6915 75.2659 58.068 75.2671 58.4465C75.2705 59.1965 75.4853 59.9305 75.8871 60.5648L75.9652 60.6913L75.8236 60.6572L66.8829 58.4805L66.8292 58.4659L66.8414 58.4124C67.8592 54.2779 68.7941 50.4765 69.6239 47.0789L69.6947 47.1275C69.072 47.5186 68.3557 47.7369 67.62 47.7599C66.9226 47.7781 66.2323 47.6164 65.6161 47.2905C65.0889 47.0157 64.6277 46.6304 64.2643 46.161C63.9009 45.6916 63.6439 45.1493 63.5109 44.5715C63.378 43.9936 63.3723 43.3939 63.4943 42.8137C63.6163 42.2334 63.863 41.6864 64.2175 41.2103C64.7817 40.4681 65.5778 39.9342 66.4802 39.6927C66.8625 39.599 67.2556 39.5556 67.6493 39.5638C67.9945 39.5807 68.3368 39.6361 68.6696 39.7291C69.5151 39.9727 70.2574 40.4851 70.7833 41.1884C70.8527 41.2769 70.9155 41.3704 70.9713 41.4681L70.9224 41.4C70.8907 41.3513 70.8419 41.2832 70.7736 41.1957C70.5711 40.935 70.3385 40.699 70.0804 40.4928C69.6594 40.1592 69.1767 39.9113 68.6598 39.7632C68.3298 39.674 67.9909 39.6217 67.6493 39.6075C67.2595 39.6002 66.8705 39.6443 66.4924 39.7389C65.6028 39.9811 64.8196 40.5116 64.2663 41.2468C63.9184 41.7154 63.6766 42.2537 63.5576 42.8245C63.4385 43.3953 63.4451 43.985 63.5769 44.5531C63.7087 45.1211 63.9625 45.6538 64.3209 46.1147C64.6792 46.5755 65.1336 46.9534 65.6527 47.2224C66.2734 47.548 66.9696 47.7043 67.6704 47.6752C68.3713 47.6462 69.052 47.4329 69.6435 47.057L69.7411 46.9962L69.7142 47.1056C68.8844 50.5106 67.9593 54.2973 66.9488 58.444L66.9097 58.3784L75.8505 60.5453L75.7894 60.6378C75.3727 59.983 75.1501 59.2242 75.1475 58.4489C75.1446 58.0589 75.2022 57.6709 75.3184 57.2985C75.4264 56.9194 75.5909 56.5587 75.8065 56.2284C76.2426 55.5553 76.8648 55.0223 77.5981 54.6937C78.3486 54.3563 79.1829 54.2489 79.9948 54.3853C80.8068 54.5218 81.5596 54.8958 82.1575 55.4599C82.4591 55.7434 82.7151 56.0716 82.9166 56.4327C83.0176 56.6156 83.1064 56.8049 83.1827 56.9994C83.2533 57.1961 83.3096 57.3977 83.3511 57.6025C83.4403 58.0146 83.4618 58.4385 83.4146 58.8575C83.3522 59.498 83.1397 60.115 82.7942 60.6587C82.4487 61.2024 81.9798 61.6576 81.4253 61.9876L81.4082 61.8708L84.3128 62.5761L91.0201 64.2081L90.9469 64.2421C91.4036 63.2248 91.7941 62.1793 92.1161 61.112C92.282 60.5843 92.409 60.0516 92.5408 59.519C92.6726 58.9864 92.7702 58.4513 92.841 57.9163C93.1693 55.8176 93.2021 53.6835 92.9386 51.5758C92.6784 49.5653 92.1659 47.5953 91.4131 45.7121L90.8615 44.355C90.6467 43.922 90.4295 43.4916 90.2171 43.0635C90.1097 42.8519 90.0072 42.6355 89.8949 42.4287L89.5288 41.8232C89.2847 41.4219 89.0553 41.0133 88.7966 40.6314C86.8913 37.7728 84.406 35.3437 81.501 33.5006C80.2481 32.6957 78.9266 32.0023 77.5517 31.4284C76.9049 31.1536 76.263 30.9201 75.6357 30.7134C75.3184 30.6186 75.0133 30.514 74.7008 30.441L73.788 30.227L73.8319 30.2002C72.1575 37.0101 71.147 41.0887 71.0225 41.5337L70.9664 41.4462Z" fill="#495E4C"/>
<path d="M79.3598 70.8724L79.4281 70.8018C79.981 70.2361 80.3538 69.5203 80.4996 68.7441C80.6454 67.968 80.5577 67.1662 80.2476 66.4396C79.9375 65.7129 79.4188 65.0938 78.7566 64.66C78.0944 64.2262 77.3184 63.9972 76.5259 64.0015C75.7335 64.0059 74.96 64.2435 74.3027 64.6846C73.6454 65.1257 73.1336 65.7505 72.8315 66.4805C72.5295 67.2105 72.4508 68.0132 72.6052 68.7877C72.7596 69.5622 73.1403 70.2739 73.6995 70.8334L73.7434 70.8724H64.1998V81.5468L64.2389 81.5006C64.6069 81.1321 65.0443 80.8395 65.5259 80.6396C66.0076 80.4397 66.5241 80.3364 67.0458 80.3356C67.7023 80.3347 68.3489 80.4945 68.9289 80.8008C69.5089 81.1071 70.0046 81.5505 70.3724 82.0923C70.7403 82.634 70.9691 83.2574 71.0387 83.9078C71.1083 84.5582 71.0166 85.2157 70.7716 85.8226C70.5267 86.4294 70.136 86.967 69.6338 87.3883C69.1316 87.8096 68.5334 88.1016 67.8915 88.2387C67.2497 88.3757 66.5839 88.3537 65.9525 88.1746C65.3212 87.9954 64.7437 87.6646 64.2706 87.2111L64.1998 87.1406V99.3788H74.9614C74.9614 99.3788 75.4496 95.2953 75.9377 92.192C76.4259 89.0887 83.3944 82.7579 85.3935 80.1191C86.1989 79.0563 88.1882 75.5711 89.0547 70.8772L79.3598 70.8724Z" fill="#E9E9E9"/>
<path d="M82.6448 83.1811C82.5261 82.9104 82.3164 82.6894 82.0517 82.5562C81.7871 82.423 81.4841 82.386 81.195 82.4514C80.8069 82.5487 80.4628 82.8333 80.0551 82.7895C79.8758 82.7515 79.7086 82.6701 79.5681 82.5527C79.4277 82.4352 79.3184 82.2852 79.2497 82.1158C79.0837 81.7899 78.9934 81.4275 78.7981 81.1187C78.7133 80.9561 78.5832 80.8215 78.4234 80.7309C78.2636 80.6403 78.081 80.5976 77.8975 80.6079C77.4264 80.6857 77.131 81.2621 76.6526 81.2719C76.5112 81.261 76.3746 81.2159 76.2546 81.1404C76.1347 81.065 76.035 80.9615 75.9643 80.839C75.8057 80.5958 75.708 80.338 75.5445 80.1093C75.2715 79.7584 74.8716 79.5276 74.4302 79.4663C73.9888 79.4049 73.5408 79.5179 73.1818 79.781C72.7229 80.0121 72.2348 80.7782 72.1689 81.5589C71.9711 83.918 71.0485 84.3412 71.0485 84.3412C71.0491 85.1246 70.8185 85.8909 70.3853 86.5447C69.9521 87.1984 69.3355 87.7108 68.6123 88.018C67.889 88.3252 67.091 88.4136 66.3177 88.2723C65.5444 88.131 64.8298 87.7661 64.263 87.2232L64.1923 87.1527V99.3909H74.9538C74.9538 99.3909 75.442 95.3074 75.9302 92.2041L75.9131 92.1263C75.9206 92.0942 75.9263 92.0617 75.9302 92.029C76.2475 89.8085 82.6448 83.1811 82.6448 83.1811Z" fill="#5CCD6A"/>
<path d="M79.3599 70.8721L89.0645 70.8381H89.106V70.8794C88.7184 72.9522 88.0927 74.9735 87.2413 76.9037C86.7546 78.0346 86.1569 79.1149 85.457 80.1287C84.6686 81.1477 83.7485 82.1157 82.8014 83.1323C81.8544 84.1489 80.878 85.1947 79.8993 86.294C78.8768 87.4206 77.9332 88.616 77.0753 89.8716C76.6221 90.5156 76.2767 91.2285 76.0525 91.9826C75.9037 92.7633 75.8085 93.5757 75.6815 94.3855C75.4521 96.0102 75.2349 97.6786 75.0298 99.3762V99.4297H64.1365V86.9871L64.2439 87.0966C64.6739 87.5304 65.1998 87.858 65.7796 88.0531C66.3594 88.2482 66.977 88.3054 67.5829 88.2202C67.9822 88.1698 68.3705 88.0547 68.7325 87.8797C68.9134 87.7949 69.0879 87.6974 69.2549 87.5879C69.4178 87.4734 69.5734 87.3492 69.7211 87.2157C70.2224 86.7551 70.5953 86.1728 70.8032 85.5256C71.0111 84.8784 71.047 84.1886 70.9073 83.5235C70.7676 82.8584 70.4571 82.2408 70.0062 81.731C69.5553 81.2212 68.9793 80.8367 68.3347 80.6151C67.9803 80.4906 67.6093 80.4193 67.2339 80.4035C66.8614 80.3811 66.4877 80.4155 66.1257 80.5056C65.4091 80.6823 64.7569 81.0565 64.2439 81.5855L64.1389 81.6925V81.5466C64.1389 77.7817 64.1389 74.2138 64.1389 70.8721V70.8186H64.1926H73.7362L73.7069 70.8989C73.1839 70.3959 72.8069 69.7615 72.6159 69.0627C72.4402 68.3995 72.4402 67.7023 72.6159 67.0392C72.8393 66.1487 73.3619 65.3612 74.0966 64.8076C74.8314 64.254 75.7342 63.9677 76.6549 63.9961C77.5757 64.0245 78.4589 64.366 79.1579 64.9638C79.8569 65.5617 80.3296 66.3798 80.4973 67.2824C80.5569 67.6161 80.5773 67.9557 80.5583 68.2941C80.5231 68.8263 80.3803 69.3458 80.1385 69.8215C79.9917 70.1136 79.8079 70.3858 79.5917 70.6314C79.521 70.7165 79.4599 70.7749 79.4233 70.8138L79.3623 70.8721L79.4184 70.8113C79.4551 70.7676 79.5112 70.7092 79.582 70.6241C80.1398 69.9683 80.4687 69.1498 80.5192 68.2917C80.5315 68.1298 80.5315 67.9672 80.5192 67.8053C80.489 67.248 80.3383 66.7038 80.0775 66.2098C79.707 65.4962 79.1272 64.9119 78.4154 64.5346C77.7035 64.1572 76.8932 64.0048 76.0923 64.0974C75.2913 64.1901 74.5377 64.5235 73.9315 65.0533C73.3253 65.5832 72.8954 66.2843 72.6989 67.0635C72.528 67.7133 72.528 68.3959 72.6989 69.0457C72.8885 69.7267 73.2576 70.3448 73.7679 70.8357L73.8485 70.9159H73.7362H64.1926L64.2463 70.8624C64.2463 74.2041 64.2463 77.772 64.2463 81.5368L64.1438 81.4979C64.6718 80.9502 65.3445 80.5623 66.0842 80.3792C66.8388 80.202 67.6282 80.2408 68.3615 80.491C68.9285 80.6857 69.4452 81.003 69.8746 81.42C70.3041 81.837 70.6357 82.3435 70.8456 82.9032C71.0555 83.4629 71.1386 84.0619 71.089 84.6574C71.0393 85.2529 70.8581 85.83 70.5583 86.3475C70.3549 86.7022 70.0971 87.023 69.7943 87.2984C69.64 87.4368 69.4769 87.5651 69.3061 87.6827C69.1335 87.7955 68.9533 87.8962 68.7667 87.9843C68.393 88.1644 67.9923 88.2826 67.5805 88.3345C67.1672 88.3933 66.7472 88.3875 66.3357 88.3175C65.5021 88.1743 64.7342 87.7756 64.1389 87.1768L64.2488 87.1306V90.8347C64.2488 93.7532 64.2488 96.6352 64.2488 99.3689L64.1877 99.3081H74.9493L74.8883 99.3616C75.0982 97.6575 75.3179 95.9923 75.5473 94.3661C75.6669 93.5513 75.7694 92.7512 75.9207 91.9559C76.1487 91.1888 76.4999 90.4636 76.9605 89.8084C77.8239 88.5497 78.7723 87.3512 79.7992 86.221C80.7755 85.112 81.7641 84.0662 82.7087 83.0593C83.6533 82.0524 84.5783 81.0772 85.3618 80.0679C86.06 79.0611 86.6568 77.9882 87.1436 76.8648C87.9967 74.9418 88.6264 72.9279 89.0206 70.8624L89.0523 70.9013L79.3599 70.8721Z" fill="#495E4C"/>
<path d="M72.196 78.5087C72.196 78.6919 72.1414 78.8711 72.0392 79.0235C71.9371 79.1758 71.7918 79.2946 71.6219 79.3647C71.452 79.4349 71.265 79.4532 71.0846 79.4175C70.9042 79.3817 70.7385 79.2935 70.6084 79.1639C70.4784 79.0343 70.3898 78.8692 70.3539 78.6894C70.318 78.5097 70.3365 78.3234 70.4068 78.1541C70.4772 77.9847 70.5964 77.84 70.7494 77.7382C70.9023 77.6364 71.0821 77.582 71.266 77.582C71.5126 77.582 71.7492 77.6797 71.9236 77.8534C72.098 78.0272 72.196 78.2629 72.196 78.5087V78.5087Z" fill="#5CCD6A"/>
<g opacity="0.2">
<path d="M67.417 88.2566C66.4699 88.3344 65.4204 87.9526 64.9761 87.1086L64.2439 87.4297C64.2439 87.9161 64.8517 88.8719 65.2983 89.0543C66.192 89.4511 67.1961 89.5267 68.1394 89.2683C68.6148 89.1046 69.0405 88.8229 69.3762 88.4497C69.7118 88.0764 69.9465 87.6241 70.0579 87.1354C69.2207 87.7434 68.364 88.1788 67.417 88.2566Z" fill="black"/>
</g>
<path d="M58.6619 44.4963C59.6844 44.3343 60.7301 44.574 61.5786 45.1651L61.6543 45.2259L59.8627 33.9119L58.7546 34.087C54.8731 34.87 51.2362 36.5679 48.1481 39.0385C45.0601 41.5091 42.6107 44.6807 41.005 48.2879C37.9369 55.0029 38.6105 61.1634 40.2727 65.8427L41.4541 65.6554L50.656 64.2083L50.5974 64.291C50.1401 64.9358 49.8842 65.7008 49.8618 66.49C49.8395 67.2792 50.0517 68.0573 50.4718 68.7267C50.8919 69.3961 51.5012 69.9269 52.2231 70.2524C52.945 70.5778 53.7473 70.6835 54.5292 70.556C55.3112 70.4286 56.0379 70.0737 56.6181 69.536C57.1983 68.9984 57.6061 68.3018 57.7902 67.5339C57.9744 66.766 57.9267 65.961 57.6531 65.2201C57.3796 64.4791 56.8924 63.8352 56.2528 63.3693L56.2015 63.3376L56.4578 63.2963L64.3392 62.0462L62.5476 50.7395L62.5135 50.7905C62.2079 51.212 61.8218 51.5692 61.3774 51.8417C60.933 52.1142 60.4391 52.2967 59.9238 52.3787C58.9006 52.4899 57.8737 52.2049 57.0555 51.5827C56.2374 50.9604 55.6907 50.0486 55.5285 49.0358C55.3664 48.0231 55.6013 46.987 56.1845 46.142C56.7678 45.297 57.6547 44.7077 58.6619 44.4963V44.4963Z" fill="#5CCD6A"/>
<path d="M58.6618 44.4962L58.3934 44.5571C58.2832 44.5805 58.1747 44.6114 58.0687 44.6495C58.0053 44.6714 57.9369 44.6908 57.8637 44.72L57.6343 44.8197C57.2359 45.0018 56.8705 45.2483 56.553 45.5493C56.1221 45.9626 55.7886 46.4659 55.5767 47.0232C55.5147 47.182 55.4625 47.3444 55.4204 47.5096C55.3792 47.6873 55.3506 47.8678 55.335 48.0495C55.2939 48.4394 55.3145 48.8334 55.396 49.2169C55.5871 50.1651 56.1204 51.0105 56.895 51.5931C57.6695 52.1758 58.6316 52.4553 59.5991 52.3786C60.162 52.3347 60.7085 52.1687 61.2003 51.8922C61.7192 51.6021 62.1657 51.1989 62.5061 50.7127L62.5672 50.6251L62.5842 50.7297C63.1139 54.0592 63.7192 57.8605 64.3856 62.0364V62.0875H64.3343L56.2113 63.3692L56.2332 63.2646C56.8484 63.6917 57.3319 64.2813 57.6294 64.9671C57.7823 65.3139 57.8803 65.6823 57.9198 66.0591C57.9695 66.439 57.9629 66.8242 57.9003 67.2022C57.8365 67.5839 57.719 67.9548 57.5513 68.3039C57.3786 68.6568 57.1576 68.9842 56.8947 69.2767C56.3547 69.8664 55.6528 70.2851 54.8761 70.4806C54.0837 70.6823 53.2483 70.6382 52.4817 70.3542C51.7029 70.0658 51.0304 69.5484 50.5534 68.8706C50.3071 68.5329 50.1213 68.1552 50.0043 67.7543C49.8758 67.3551 49.8123 66.938 49.8163 66.5188C49.8216 65.6653 50.0975 64.8353 50.6047 64.1475L50.6657 64.2472L43.951 65.3027L40.2898 65.8791H40.2361L40.219 65.8281C39.5061 63.8224 39.0589 61.7326 38.8888 59.6116C38.8063 58.5792 38.7957 57.5422 38.857 56.5083C38.901 55.9976 38.9303 55.4868 39.0084 54.9834C39.0425 54.7402 39.067 54.48 39.1133 54.2319L39.2525 53.4877C39.636 51.557 40.2651 49.6829 41.1246 47.9109L41.7689 46.634L41.93 46.3179C41.9862 46.2133 42.0521 46.116 42.1107 46.0139L42.4792 45.4131C42.5988 45.2137 42.7233 45.0143 42.8429 44.8173L43.0235 44.5206L43.2261 44.2409L44.034 43.127C44.1609 42.9397 44.3147 42.7719 44.4587 42.5992L44.8956 42.0861L45.3277 41.5753C45.4741 41.4099 45.6376 41.2591 45.7914 41.1011C46.1014 40.7898 46.4016 40.4711 46.7165 40.1744L47.6928 39.3256C48.9555 38.2776 50.3155 37.3516 51.7543 36.5604C53.0838 35.847 54.472 35.2482 55.9037 34.7703C57.195 34.3324 58.5258 34.0196 59.8774 33.8364H59.9164V33.8753C60.717 39.0046 61.3175 42.8424 61.686 45.1918V45.238L61.6543 45.2259C61.0106 44.7525 60.2397 44.4815 59.4405 44.4476C59.2459 44.44 59.0509 44.4457 58.8571 44.4646L58.6667 44.4841C58.6667 44.4841 58.7277 44.4719 58.8571 44.4549C59.0505 44.4303 59.2456 44.4214 59.4405 44.4282C60.2462 44.4529 61.0256 44.72 61.6763 45.1943L61.6445 45.2137C61.2686 42.8668 60.6536 39.0289 59.831 33.9045L59.8774 33.9386C58.5318 34.1224 57.2075 34.4369 55.9233 34.8774C52.9305 35.862 50.1537 37.4064 47.7416 39.4278L46.7775 40.2742C46.4626 40.5709 46.1649 40.8895 45.8549 41.1983C45.7035 41.3564 45.5424 41.5072 45.396 41.6848C45.2495 41.8623 45.1104 42.0228 44.9664 42.1931L44.532 42.7038C44.3811 42.8721 44.2393 43.0483 44.1072 43.2316L43.3067 44.3382L43.1041 44.6057L42.9234 44.9L42.5622 45.4958L42.1985 46.0941C42.1375 46.1938 42.074 46.2936 42.0179 46.3957L41.8593 46.7119C41.6445 47.1326 41.4321 47.5558 41.2173 47.9814C40.3636 49.7462 39.7386 51.612 39.3574 53.5339C39.3135 53.7771 39.2671 54.0203 39.2207 54.2635C39.1744 54.5067 39.1499 54.7499 39.1158 55.0126C39.0377 55.499 39.0084 56.0195 38.9669 56.5278C38.9055 57.556 38.9161 58.5873 38.9986 59.6141C39.1686 61.7243 39.6141 63.8035 40.324 65.7989L40.2556 65.7575L43.9169 65.1811L50.634 64.1256L50.7853 64.1013L50.695 64.2229C50.3268 64.7181 50.0818 65.2935 49.9804 65.9015C49.879 66.5095 49.924 67.1329 50.1117 67.7202C50.1711 67.9134 50.2445 68.1019 50.3313 68.2845C50.4226 68.4645 50.527 68.6377 50.6438 68.8025C51.1065 69.4598 51.7584 69.9618 52.5134 70.2423C52.8848 70.3775 53.2735 70.4593 53.6679 70.4855C54.0603 70.5012 54.4529 70.4627 54.8346 70.3712C55.2114 70.277 55.5723 70.1287 55.9062 69.931C56.5659 69.5346 57.0959 68.9559 57.4317 68.265C57.5925 67.9251 57.7066 67.5652 57.7709 67.1949C57.8311 66.8281 57.8377 66.4545 57.7905 66.0859C57.7504 65.7204 57.6558 65.363 57.5098 65.0255C57.221 64.3604 56.754 63.7874 56.16 63.3692L56.0404 63.2865L56.182 63.2646L64.3172 62.0072L64.2733 62.0681C63.6069 57.8727 63.0163 54.0738 62.4939 50.7467L62.5696 50.7613C62.2203 51.2577 61.7631 51.6692 61.232 51.9652C60.7294 52.245 60.171 52.4111 59.5967 52.4516C58.6124 52.5267 57.6346 52.2394 56.8487 51.6441C56.0627 51.0488 55.5233 50.1869 55.3326 49.2218C55.2525 48.8322 55.2336 48.4327 55.2764 48.0374C55.3042 47.6792 55.3865 47.3274 55.5205 46.994C55.7075 46.5068 55.9892 46.0611 56.3494 45.6826C56.7096 45.3041 57.1413 45.0001 57.6196 44.7881L57.8515 44.6884L58.059 44.6227C58.1654 44.5854 58.2748 44.5569 58.386 44.5376C58.5691 44.4962 58.6618 44.4962 58.6618 44.4962Z" fill="#495E4C"/>
<path d="M64.0291 99.4098H54.2976C54.2976 99.4098 53.8094 95.3263 53.3212 92.223C52.8331 89.1196 45.8645 82.7889 43.8655 80.1477C43.06 79.0849 41.0708 75.6021 40.2043 70.9058H49.3964L49.3256 70.9787C48.7722 71.5447 48.3991 72.261 48.2531 73.0377C48.1071 73.8143 48.1947 74.6166 48.505 75.3438C48.8152 76.071 49.3343 76.6906 49.9969 77.1247C50.6595 77.5588 51.4361 77.7881 52.229 77.7837C53.022 77.7793 53.796 77.5415 54.4538 77.1001C55.1115 76.6587 55.6236 76.0334 55.9258 75.3029C56.228 74.5723 56.3067 73.7691 56.152 72.9941C55.9974 72.2191 55.6163 71.5069 55.0567 70.9471L55.0127 70.9058L63.9583 70.9714V81.6458C63.9583 81.6458 64.7931 80.3787 66.8068 80.4298C68.8204 80.4809 70.3411 81.9085 70.6657 83.3483C70.9903 84.7881 70.7194 87.5047 68.0052 88.2368C65.291 88.9688 63.929 87.0621 63.929 87.0621L63.9583 99.4657" fill="white"/>
<path d="M63.9458 98.8652C63.98 98.8652 64.0092 99.0013 64.0092 99.1689C64.0092 99.3366 63.9824 99.4726 63.9458 99.4726C63.9093 99.4726 63.8824 99.3366 63.8824 99.1689C63.8824 99.0013 63.9093 98.8652 63.9458 98.8652Z" fill="#495E4C"/>
<path d="M63.9386 96.377C64.0005 96.5783 64.0229 96.7897 64.0045 96.9996C64.0259 97.2092 64.0043 97.4211 63.941 97.6222C63.8792 97.4208 63.8576 97.2092 63.8776 96.9996C63.8561 96.79 63.8769 96.5784 63.9386 96.377V96.377Z" fill="#495E4C"/>
<path d="M63.9338 93.8892C63.9956 94.0906 64.0172 94.3021 63.9973 94.5118C64.0187 94.7213 63.998 94.933 63.9363 95.1344C63.8729 94.9333 63.8505 94.7216 63.8704 94.5118C63.849 94.3021 63.8706 94.0903 63.9338 93.8892V93.8892Z" fill="#495E4C"/>
<path d="M63.9268 91.4014C63.9901 91.6025 64.0126 91.8141 63.9927 92.024C64.0141 92.2337 63.9925 92.4455 63.9292 92.6466C63.8674 92.4452 63.8459 92.2337 63.8658 92.024C63.8444 91.8145 63.8651 91.6028 63.9268 91.4014V91.4014Z" fill="#495E4C"/>
<path d="M63.9217 88.9131C63.9835 89.1145 64.0051 89.326 63.9851 89.5357C64.0066 89.7452 63.9858 89.9569 63.9241 90.1583C63.8619 89.957 63.8395 89.7455 63.8582 89.5357C63.8368 89.326 63.8584 89.1142 63.9217 88.9131V88.9131Z" fill="#495E4C"/>
<path d="M64.3384 87.4996C64.3384 87.5142 64.2652 87.4802 64.1775 87.4122C64.1253 87.3723 64.0756 87.3293 64.0287 87.2834L63.9483 87.1984L63.9068 87.1498L63.8873 87.1255V87.1133L64.0019 87.0769C64.0232 87.2815 64.0017 87.4884 63.9385 87.6843C63.8658 87.4837 63.8359 87.2702 63.8507 87.0574L63.9653 87.021V87.0331L63.9848 87.0574L64.0214 87.1036L64.0921 87.1886L64.2165 87.3344C64.3067 87.4316 64.3384 87.4875 64.3384 87.4996Z" fill="#495E4C"/>
<path d="M66.5019 88.3925C66.0967 88.4501 65.6845 88.3537 65.3474 88.1226C65.5455 88.1362 65.7409 88.1763 65.9283 88.2417C66.1252 88.267 66.318 88.3177 66.5019 88.3925V88.3925Z" fill="#495E4C"/>
<path d="M68.8107 87.9231C68.8302 87.9523 68.6032 88.1079 68.2835 88.2149C68.0963 88.2966 67.8913 88.3293 67.6879 88.3098C67.6879 88.2709 67.932 88.1979 68.242 88.0958C68.4228 88.0128 68.6142 87.9547 68.8107 87.9231V87.9231Z" fill="#495E4C"/>
<path d="M70.3992 86.2133C70.3789 86.4176 70.3001 86.6118 70.1722 86.7727C69.9915 87.0548 69.7792 87.2323 69.7572 87.208C69.7353 87.1837 69.8939 86.9648 70.0648 86.7021C70.2356 86.4395 70.365 86.1987 70.3992 86.2133Z" fill="#495E4C"/>
<path d="M70.7384 83.8958C70.8194 84.0825 70.8489 84.2873 70.8239 84.4892C70.8417 84.6925 70.8037 84.8967 70.714 85.0802C70.6797 84.8842 70.6739 84.6843 70.6969 84.4867C70.6814 84.2888 70.6954 84.0896 70.7384 83.8958Z" fill="#495E4C"/>
<path d="M69.7797 81.7627C69.8041 81.7384 70.0238 81.9135 70.2044 82.1908C70.3378 82.3464 70.4226 82.5375 70.4485 82.7404C70.4168 82.755 70.285 82.5264 70.1019 82.254C69.9188 81.9816 69.7529 81.7871 69.7797 81.7627Z" fill="#495E4C"/>
<path d="M67.7562 80.566C67.9607 80.5543 68.1645 80.5998 68.3444 80.6974C68.6544 80.8238 68.8716 80.9916 68.8521 81.0208C68.6581 80.9773 68.4708 80.9078 68.2956 80.8141C68.1057 80.7552 67.9243 80.6718 67.7562 80.566Z" fill="#495E4C"/>
<path d="M65.4032 80.6267C65.5688 80.5047 65.7663 80.4329 65.9719 80.42C66.1691 80.3649 66.3776 80.3649 66.5748 80.42C66.3867 80.4856 66.1904 80.5249 65.9914 80.5368C65.7996 80.5898 65.6022 80.62 65.4032 80.6267V80.6267Z" fill="#495E4C"/>
<path d="M63.946 81.0332C64.0092 81.2291 64.0307 81.4359 64.0094 81.6406L63.8924 81.6041V81.592L63.9119 81.5653L63.9509 81.5167L64.0313 81.4316C64.077 81.3837 64.1268 81.3398 64.1801 81.3005C64.2679 81.2324 64.3313 81.2033 64.3434 81.2154C64.3556 81.2276 64.3117 81.2834 64.241 81.3661C64.1703 81.4487 64.1533 81.4681 64.1167 81.5094L64.046 81.5969L64.0118 81.643L63.9948 81.6673V81.6795L63.8777 81.6455C63.8587 81.4389 63.8819 81.2306 63.946 81.0332Z" fill="#495E4C"/>
<path d="M63.9459 78.3313C64.0305 78.7773 64.0305 79.2351 63.9459 79.6811C63.8613 79.2351 63.8613 78.7773 63.9459 78.3313V78.3313Z" fill="#495E4C"/>
<path d="M63.9459 75.6265C64.0305 76.0725 64.0305 76.5303 63.9459 76.9763C63.8613 76.5303 63.8613 76.0725 63.9459 75.6265V75.6265Z" fill="#495E4C"/>
<path d="M63.9459 72.927C64.0305 73.373 64.0305 73.8308 63.9459 74.2768C63.8613 73.8308 63.8613 73.373 63.9459 72.927V72.927Z" fill="#495E4C"/>
<path d="M63.3359 70.9619C63.5331 70.902 63.7404 70.8822 63.9454 70.9036L64.0088 70.9668V71.081C64.0088 71.1174 64.0088 71.1563 64.0088 71.1952C64.0088 71.234 64.0088 71.3336 64.0088 71.3895C63.9966 71.4989 63.9796 71.5669 63.9625 71.5669C63.9454 71.5669 63.9284 71.4989 63.9186 71.3895C63.9186 71.3336 63.9186 71.268 63.904 71.1952V70.9668L63.9674 71.0299C63.7544 71.0528 63.539 71.0296 63.3359 70.9619V70.9619Z" fill="#495E4C"/>
<path d="M61.1293 70.9472C61.3059 70.8845 61.4948 70.8636 61.6809 70.8864C61.8676 70.8681 62.056 70.8914 62.2325 70.9545C62.0552 71.0143 61.8668 71.0342 61.6809 71.0128C61.4944 71.0312 61.3062 71.0088 61.1293 70.9472V70.9472Z" fill="#495E4C"/>
<path d="M58.9208 70.9304C59.2847 70.8477 59.6626 70.8477 60.0265 70.9304C59.849 70.993 59.6593 71.0138 59.4724 70.9912C59.2863 71.0118 59.0979 70.9911 58.9208 70.9304V70.9304Z" fill="#495E4C"/>
<path d="M56.7141 70.9154C56.8907 70.8527 57.0796 70.8319 57.2657 70.8546C57.4524 70.8348 57.6412 70.8581 57.8174 70.9227C57.6401 70.9826 57.4517 71.0025 57.2657 70.9811C57.0793 70.9994 56.891 70.977 56.7141 70.9154V70.9154Z" fill="#495E4C"/>
<path d="M55.4054 71.3555C55.3908 71.3555 55.3347 71.324 55.2543 71.2486C55.2128 71.2122 55.1665 71.166 55.1177 71.115L55.0421 71.0324L55.0031 70.9887L54.9812 70.9692C54.9446 71.0664 55.0348 70.8332 55.0251 70.8575C55.2308 70.8392 55.4381 70.8623 55.6346 70.9255C55.4377 70.9868 55.2301 71.0067 55.0251 70.9838C55.0251 71.0081 55.1055 70.7749 55.0665 70.8745V70.8866L55.0885 70.9085L55.1299 70.9547L55.2031 71.0446C55.2494 71.1029 55.2908 71.1563 55.3225 71.2025C55.3859 71.2827 55.4201 71.3434 55.4054 71.3555Z" fill="#495E4C"/>
<path d="M56.2086 73.5325C56.1388 73.3485 56.0929 73.1564 56.0719 72.9609C56.0122 72.7734 55.9785 72.5787 55.9718 72.3821C56.098 72.5419 56.1759 72.7343 56.1964 72.9366C56.2578 73.1299 56.262 73.3368 56.2086 73.5325Z" fill="#495E4C"/>
<path d="M55.65 75.7871C55.7733 75.4144 55.9234 75.0511 56.0991 74.7C56.0837 75.104 55.9245 75.4893 55.65 75.7871V75.7871Z" fill="#495E4C"/>
<path d="M53.9266 77.3486C53.9119 77.3145 54.1389 77.1832 54.4147 77.0056C54.6906 76.8281 54.8883 76.6676 54.9029 76.6943C54.9175 76.7211 54.7516 76.9375 54.4758 77.1102C54.319 77.2399 54.1286 77.3225 53.9266 77.3486Z" fill="#495E4C"/>
<path d="M51.6223 77.6914C51.8149 77.6445 52.015 77.637 52.2106 77.6695C52.4067 77.634 52.6083 77.6415 52.8012 77.6914C52.6144 77.7661 52.4142 77.8017 52.213 77.796C52.0109 77.8033 51.8095 77.7677 51.6223 77.6914V77.6914Z" fill="#495E4C"/>
<path d="M49.5161 76.7015C49.5406 76.6747 49.7602 76.8328 50.0043 77.0103C50.2484 77.1879 50.4925 77.3192 50.4925 77.3533C50.2901 77.3254 50.0997 77.2411 49.9433 77.11C49.6699 76.9325 49.4917 76.7258 49.5161 76.7015Z" fill="#495E4C"/>
<path d="M48.3177 74.7119C48.4229 74.8776 48.505 75.0568 48.5618 75.2445C48.655 75.4178 48.7247 75.6027 48.7693 75.7942C48.74 75.8136 48.5716 75.5996 48.4447 75.2932C48.347 75.1157 48.303 74.9138 48.3177 74.7119Z" fill="#495E4C"/>
<path d="M48.4323 72.3923C48.4271 72.5887 48.3951 72.7834 48.3371 72.9712C48.3193 73.167 48.2742 73.3594 48.2029 73.5427C48.1369 73.1442 48.2184 72.7354 48.4323 72.3923V72.3923Z" fill="#495E4C"/>
<path d="M48.7738 70.901C48.9707 70.8395 49.178 70.818 49.3834 70.8379C49.4029 70.8865 49.3395 70.731 49.4297 70.9472L49.4078 70.9691L49.3663 71.0104L49.2907 71.0954L49.1566 71.2314C49.0786 71.3068 49.0201 71.3481 49.0079 71.3384C48.9957 71.3286 49.0249 71.2655 49.0883 71.1756C49.12 71.1294 49.1591 71.0735 49.2029 71.0152L49.2761 70.9253C49.2886 70.9088 49.3025 70.8934 49.3175 70.8792L49.3395 70.8573C49.4297 71.0735 49.3639 70.918 49.3834 70.9642C49.178 70.9855 48.9704 70.964 48.7738 70.901V70.901Z" fill="#495E4C"/>
<path d="M46.6581 70.9011C46.6581 70.867 46.7946 70.8379 46.9629 70.8379C47.1311 70.8379 47.2677 70.867 47.2677 70.9011C47.2677 70.9351 47.1311 70.9642 46.9629 70.9642C46.7946 70.9642 46.6581 70.9375 46.6581 70.9011Z" fill="#495E4C"/>
<path d="M64.0608 99.4096H63.8851H63.375H61.4223L54.3317 99.4607H54.2878V99.4169C54.0437 97.425 53.7459 95.1656 53.3749 92.736C53.2822 91.4956 52.567 90.389 51.8201 89.3311C51.0242 88.2434 50.1721 87.1978 49.267 86.1985C48.0686 84.8487 46.8531 83.5743 45.7034 82.3291C45.1323 81.704 44.5709 81.0887 44.0583 80.4564C43.8054 80.1436 43.5746 79.8137 43.3676 79.469C43.1577 79.1333 42.9673 78.7904 42.7842 78.4523C42.1135 77.1733 41.551 75.8408 41.1025 74.4686C40.711 73.3054 40.4011 72.1165 40.175 70.9105V70.8594H40.2262L44.8199 70.8788L46.0403 70.891H46.36H46.4674H46.36H46.0403H44.8199L40.2262 70.9105L40.2677 70.8594C40.4951 72.0559 40.8033 73.2357 41.1904 74.3908C41.6426 75.7556 42.2076 77.0807 42.8794 78.3526C43.06 78.6907 43.2504 79.0312 43.4603 79.3644C43.6664 79.7038 43.8956 80.0289 44.1462 80.3372C44.6539 80.9622 45.2153 81.5751 45.7889 82.1978C46.9385 83.443 48.1565 84.715 49.3549 86.0696C50.2637 87.0823 51.1175 88.1426 51.9129 89.2459C52.2952 89.773 52.6394 90.3265 52.9429 90.9022C53.0887 91.1872 53.2096 91.4842 53.3041 91.7899C53.3873 92.0922 53.4477 92.4003 53.4848 92.7116C53.8509 95.1437 54.1365 97.4031 54.3781 99.4023L54.3269 99.3561L61.4199 99.378L63.3725 99.3926H63.8827C64.0023 99.4047 64.0608 99.4096 64.0608 99.4096Z" fill="#495E4C"/>
<path d="M63.4191 99.4101C63.4191 99.3737 63.5557 99.3469 63.7239 99.3469C63.8922 99.3469 64.0287 99.3737 64.0287 99.4101C64.0287 99.4465 63.8922 99.4733 63.7239 99.4733C63.5557 99.4733 63.4191 99.4441 63.4191 99.4101Z" fill="#495E4C"/>
<path d="M60.988 99.41C61.3904 99.3249 61.8061 99.3249 62.2084 99.41C61.8061 99.495 61.3904 99.495 60.988 99.41V99.41Z" fill="#495E4C"/>
<path d="M58.554 99.41C58.9563 99.3249 59.3721 99.3249 59.7744 99.41C59.3721 99.495 58.9563 99.495 58.554 99.41V99.41Z" fill="#495E4C"/>
<path d="M56.1229 99.41C56.5253 99.3249 56.941 99.3249 57.3433 99.41C56.941 99.495 56.5253 99.495 56.1229 99.41V99.41Z" fill="#495E4C"/>
<path d="M54.222 98.8066C54.2391 98.8066 54.2635 98.8698 54.2903 98.9767C54.2903 99.0326 54.3147 99.0958 54.3269 99.1686C54.3391 99.2415 54.3391 99.2464 54.3439 99.2804V99.3411V99.3727V99.3995C54.3147 99.3752 54.4049 99.4578 54.2805 99.3436C54.4859 99.3223 54.6935 99.3438 54.8901 99.4067C54.6932 99.4683 54.4859 99.4898 54.2805 99.4699C54.2805 99.3411 54.1976 99.4408 54.2172 99.4116V99.3533V99.2926V99.1808C54.2172 99.1079 54.2172 99.0423 54.2172 98.9864C54.1976 98.8771 54.205 98.8091 54.222 98.8066Z" fill="#495E4C"/>
<path d="M53.8996 96.2991C54.0398 96.701 54.0954 97.1273 54.0631 97.5516C53.9261 97.149 53.8705 96.7232 53.8996 96.2991V96.2991Z" fill="#495E4C"/>
<path d="M53.5533 93.8015C53.6449 93.9943 53.6964 94.2037 53.7046 94.4168C53.7544 94.6247 53.7635 94.8403 53.7315 95.0516C53.5895 94.6508 53.5289 94.2259 53.5533 93.8015V93.8015Z" fill="#495E4C"/>
<path d="M53.0455 91.3352C53.1839 91.5026 53.2764 91.7029 53.314 91.9165C53.3828 92.1207 53.4012 92.3384 53.3677 92.5512C53.3262 92.5512 53.2749 92.2764 53.1919 91.9481C53.1171 91.7508 53.0679 91.5449 53.0455 91.3352V91.3352Z" fill="#495E4C"/>
<path d="M51.7515 89.1711C51.9162 89.3062 52.0537 89.4713 52.1566 89.6576C52.2928 89.8221 52.3941 90.0124 52.4544 90.2169C52.4251 90.2364 52.2445 90.0175 52.0492 89.7305C51.9134 89.5658 51.8122 89.3756 51.7515 89.1711Z" fill="#495E4C"/>
<path d="M50.1823 87.1889C50.2091 87.167 50.4117 87.3689 50.6338 87.6388C50.7848 87.7904 50.905 87.9696 50.9877 88.1666C50.9584 88.1885 50.7583 87.9866 50.5362 87.7191C50.3843 87.5673 50.264 87.3871 50.1823 87.1889V87.1889Z" fill="#495E4C"/>
<path d="M48.5082 85.2947C48.5326 85.2728 48.7523 85.4625 48.9768 85.7227C49.1348 85.8675 49.2625 86.0419 49.3527 86.2359C49.3259 86.2602 49.1086 86.0681 48.8816 85.8079C48.6546 85.5476 48.474 85.319 48.5082 85.2947Z" fill="#495E4C"/>
<path d="M46.7899 83.4384C46.8143 83.4141 47.034 83.6014 47.2781 83.8592C47.4385 84.0011 47.5695 84.173 47.6637 84.365C47.6369 84.3869 47.4196 84.1996 47.1756 83.9443C46.9315 83.6889 46.7655 83.4627 46.7899 83.4384Z" fill="#495E4C"/>
<path d="M45.0739 81.5802C45.0983 81.5559 45.3179 81.7456 45.5474 82.0034C45.7047 82.148 45.8338 82.3203 45.9281 82.5117C45.9013 82.536 45.6841 82.3463 45.4522 82.0885C45.2203 81.8307 45.0568 81.6021 45.0739 81.5802Z" fill="#495E4C"/>
<path d="M43.8606 80.1478C43.8874 80.1259 43.9947 80.2158 44.1044 80.347C44.2141 80.4782 44.2702 80.59 44.2434 80.624C44.2166 80.658 44.1093 80.556 43.9996 80.4248C43.8899 80.2936 43.8362 80.1697 43.8606 80.1478Z" fill="#495E4C"/>
</g>
<defs>
<clipPath id="clip0_2857_77">
<rect width="141" height="124" fill="white"/>
</clipPath>
</defs>
</svg>
