<svg width="122" height="114" viewBox="0 0 122 114" fill="none" xmlns="http://www.w3.org/2000/svg">
<g clip-path="url(#clip0_2856_2)">
<path d="M79.584 6.45791L115.862 55.84L15.9242 28.5973L72.4757 4.49529C73.708 3.97105 75.0815 3.87969 76.3723 4.2361C77.6632 4.59251 78.7953 5.37567 79.584 6.45791V6.45791Z" fill="#EBEBEB"/>
<path d="M116.384 56.1974L79.7515 6.3321C78.9376 5.20768 77.7648 4.39417 76.4265 4.02565C75.0881 3.65713 73.6642 3.75561 72.3894 4.30485L15.2827 28.6419L116.384 56.1974ZM74.9368 4.20501C75.8146 4.22533 76.6758 4.44853 77.4529 4.85713C78.2301 5.26572 78.9021 5.84863 79.4165 6.56023V6.56023L115.344 55.4867L16.5533 28.5565L72.5499 4.67767C73.3039 4.35793 74.1176 4.20346 74.9364 4.22464L74.9368 4.20501Z" fill="#E0E0E0"/>
<path d="M115.863 55.8538L15.5729 28.5159L0.759684 82.8585C0.466346 83.9346 0.612505 85.0832 1.16601 86.0515C1.71952 87.0199 2.63504 87.7287 3.71116 88.022L95.8822 113.147C96.9583 113.44 98.1069 113.294 99.0753 112.74C100.044 112.187 100.752 111.271 101.046 110.195L115.859 55.8527L115.863 55.8538Z" fill="#F0F0F0"/>
<path d="M21.7159 31.6379L55.8528 68.1203L108.945 57.4205L115.616 29.546C115.986 28.1076 115.774 26.5816 115.028 25.2979C114.281 24.0141 113.06 23.0755 111.627 22.6848L35.6582 1.98649C34.942 1.79063 34.1943 1.73794 33.4577 1.83144C32.7211 1.92493 32.0102 2.16278 31.3656 2.53136C30.7211 2.89994 30.1556 3.39202 29.7014 3.97943C29.2473 4.56685 28.9135 5.23805 28.719 5.95464L21.7159 31.6379Z" fill="white"/>
<path d="M60.7132 65.4214L101.226 109.71C101.067 110.296 100.794 110.845 100.422 111.326C100.05 111.806 99.5875 112.209 99.0601 112.51C98.5328 112.812 97.9512 113.006 97.3486 113.083C96.746 113.159 96.1342 113.116 95.5483 112.956L4.08181 88.0134C2.89853 87.6907 1.89184 86.9113 1.28308 85.8466C0.674315 84.7818 0.513326 83.5189 0.835504 82.3355L0.929638 81.992L55.6137 64.0813C56.5025 63.7895 57.4566 63.7607 58.3613 63.9985C59.266 64.2362 60.0828 64.7303 60.7132 65.4214V65.4214Z" fill="#E0E0E0"/>
<path d="M74.8614 26.0077L104.581 34.1145L103.753 37.149L74.0337 29.0422L74.8614 26.0077Z" fill="#E0E0E0"/>
<path d="M36.5431 23.8213L102.483 41.8081L101.548 45.2366L35.6079 27.2497L36.5431 23.8213Z" fill="#E0E0E0"/>
<path d="M34.2563 32.197L100.196 50.1838L99.261 53.6123L33.3211 35.6254L34.2563 32.197Z" fill="#E0E0E0"/>
<path d="M32.608 43.3244L34.6381 45.4478L89.9822 61.252L97.2949 59.7157L97.5874 58.9328L31.8589 41.0059L31.5466 42.1418L32.608 43.3244Z" fill="#E0E0E0"/>
<path d="M46.5246 58.1503L71.4623 64.9481L79.1686 63.3696L41.899 53.2034L46.5246 58.1503Z" fill="#E0E0E0"/>
<path d="M62.1932 67.0335C62.1932 67.0335 62.2197 67.0773 62.2848 67.1534L62.5758 67.4859L63.7023 68.7406L67.8758 73.3631C71.4096 77.2564 76.3083 82.6376 81.7335 88.5372C87.1586 94.4369 92.1454 99.7415 95.7797 103.539C97.5987 105.438 99.0804 106.971 100.109 108.02L101.296 109.225L101.611 109.534C101.644 109.572 101.681 109.606 101.723 109.635C101.695 109.593 101.663 109.554 101.627 109.519L101.328 109.194L100.178 107.962L95.8998 103.435C92.2855 99.6268 87.3266 94.3032 81.8898 88.3954C76.4531 82.4876 71.5374 77.165 67.9919 73.2636L63.7742 68.6872L62.6237 67.4516L62.3166 67.1344L62.1932 67.0335Z" fill="#FAFAFA"/>
<path d="M0.929687 81.9919C0.948081 82.0473 12.6076 78.2913 26.9707 73.6024C41.3338 68.9135 52.964 65.0665 52.9456 65.0111C52.9272 64.9557 41.2678 68.7077 26.9043 73.4124C12.5408 78.117 0.911382 81.9326 0.929687 81.9919Z" fill="#FAFAFA"/>
<path d="M20.0939 29.8814C20.1149 29.9168 20.1391 29.9503 20.1663 29.9812L20.3997 30.2574L21.3069 31.3108L24.6848 35.1535C27.554 38.3877 31.547 42.8215 36.0258 47.663C40.5046 52.5045 44.6219 56.8272 47.6235 59.9348L51.1979 63.5972L52.1813 64.5816L52.4388 64.8348C52.5004 64.8912 52.5311 64.9194 52.5352 64.9156C52.511 64.8815 52.4841 64.8493 52.4548 64.8195L52.2134 64.5509L51.2581 63.5396L47.7358 59.8312C44.7584 56.6967 40.6611 52.3548 36.1862 47.5173C31.7113 42.6799 27.6983 38.2574 24.8009 35.054L21.3513 31.2568L20.4435 30.2309L20.1942 29.9661C20.1643 29.9339 20.1307 29.9054 20.0939 29.8814V29.8814Z" fill="#FAFAFA"/>
<path d="M62.1931 67.0336C62.2397 67.0321 62.286 67.0252 62.3311 67.0131L62.7257 66.9278L64.3049 66.5705C65.6551 66.263 67.6169 65.8319 70.0439 65.3208C74.8944 64.2869 81.6209 62.9652 89.053 61.5297C96.4852 60.0943 103.208 58.7489 108.052 57.6756C110.475 57.1409 112.434 56.69 113.781 56.3589L115.309 55.9887L115.704 55.8837C115.751 55.875 115.796 55.8601 115.839 55.8396L115.701 55.864L115.306 55.9455L113.746 56.3032C112.392 56.6105 110.431 57.0378 108.003 57.5527C103.153 58.5867 96.4304 59.9085 88.9944 61.3438C81.5583 62.7792 74.8391 64.1246 69.9956 65.198C67.572 65.7327 65.6137 66.1796 64.2669 66.5146L62.7185 66.9001L62.3234 67.0051L62.1931 67.0336Z" fill="#FAFAFA"/>
<path d="M21.716 31.6381C21.716 31.6381 21.7581 31.5095 21.8308 31.2479L22.1423 30.1434C22.4157 29.1637 22.8132 27.7311 23.326 25.8848L27.6333 10.2235C27.8588 9.39589 28.0913 8.54879 28.3307 7.68222C28.4464 7.25277 28.5663 6.81162 28.6901 6.37057C28.7501 6.14804 28.8062 5.92542 28.8817 5.71109C28.9513 5.49259 29.0361 5.27925 29.1356 5.07265C29.5446 4.20067 30.1737 3.45035 30.961 2.89568C31.7484 2.34101 32.6667 2.00115 33.6254 1.90961C34.1239 1.85864 34.6271 1.87656 35.1207 1.96287C35.6134 2.06035 36.1128 2.20905 36.6165 2.34213L39.6806 3.19656L46.0753 4.92711L74.5496 12.7L103.048 20.4577L109.438 22.196L110.98 22.6234C111.487 22.7369 111.983 22.8953 112.462 23.0966C112.926 23.3049 113.358 23.5792 113.744 23.911C114.127 24.2342 114.464 24.6093 114.744 25.0254C115.02 25.4335 115.243 25.8755 115.406 26.3404C115.558 26.799 115.653 27.2748 115.688 27.7568C115.784 28.7212 115.497 29.6417 115.288 30.5522C114.854 32.3754 114.439 34.1217 114.043 35.7913C112.47 42.4763 111.171 47.8753 110.301 51.6146C109.866 53.4823 109.528 54.9279 109.293 55.9124C109.18 56.4009 109.097 56.7761 109.036 57.0339C108.976 57.2918 108.957 57.4249 108.957 57.4249C108.957 57.4249 108.995 57.2962 109.06 57.0345C109.125 56.7728 109.215 56.4056 109.336 55.9213C109.578 54.933 109.929 53.4876 110.383 51.6243C111.288 47.8897 112.592 42.4908 114.203 35.8263C114.602 34.1568 115.022 32.4106 115.464 30.5875C115.672 29.6889 115.969 28.7371 115.873 27.7413C115.836 27.2537 115.739 26.7725 115.583 26.309C115.415 25.8293 115.186 25.3728 114.903 24.9504C114.615 24.5205 114.268 24.1332 113.872 23.8C113.476 23.4544 113.031 23.1691 112.552 22.9533C112.065 22.7418 111.56 22.5753 111.043 22.4559L109.482 22.0281L103.087 20.2818L74.5893 12.5084L46.0911 4.75072L39.7282 3.00124L36.6636 2.17037C36.16 2.03336 35.6683 1.88876 35.1522 1.78682C34.398 1.65678 33.6254 1.67843 32.8797 1.85051C32.134 2.02258 31.4301 2.34162 30.8091 2.78897C30.019 3.3596 29.388 4.12288 28.9761 5.00622C28.8728 5.2184 28.7864 5.43841 28.7178 5.6642C28.6421 5.88638 28.5821 6.10891 28.5221 6.33145C28.4022 6.77259 28.2823 7.21373 28.1665 7.6471C27.931 8.51377 27.7038 9.36099 27.477 10.1886L23.2358 25.8789C22.7386 27.7294 22.3764 29.1667 22.0912 30.1462C21.9663 30.6343 21.8677 31.0052 21.803 31.2591C21.7384 31.5129 21.716 31.6381 21.716 31.6381Z" fill="#E0E0E0"/>
<path d="M66.0758 11.9045L69.8919 14.9479L69.5766 20.5889L73.1928 17.8461L75.118 19.5705L82.7839 10.5283L66.0758 11.9045Z" fill="#5CCD6A"/>
<g opacity="0.3">
<path d="M71.3213 16.1817C71.3174 16.3545 69.5765 20.5887 69.5765 20.5887L73.1928 17.846L71.3213 16.1817Z" fill="black"/>
</g>
<path d="M82.7839 10.5283L71.3253 16.182L69.5766 20.5889L69.8919 14.9479L82.7839 10.5283Z" fill="#54BE61"/>
<path d="M49.6657 85.9901C50.3641 85.9827 51.0535 85.8311 51.6906 85.5447C50.9921 85.5521 50.3027 85.7037 49.6657 85.9901Z" fill="#495D4C"/>
<path d="M46.4367 86.703C46.4354 86.7619 46.7302 86.7489 47.0618 86.6778C47.3933 86.6067 47.6551 86.4948 47.6446 86.4356C47.6341 86.3765 47.351 86.3897 47.0155 86.4647C46.68 86.5396 46.4223 86.6438 46.4367 86.703Z" fill="#495D4C"/>
<path d="M61.2037 19.6623C61.5518 19.6752 61.8996 19.6285 62.232 19.5243C62.5785 19.4909 62.916 19.3946 63.2281 19.2404C62.8791 19.1865 62.5225 19.2134 62.1855 19.319C61.8354 19.3528 61.4986 19.4706 61.2037 19.6623V19.6623Z" fill="#495D4C"/>
<path d="M57.367 21.2059C57.7083 21.1394 58.0354 21.0138 58.3337 20.8349C58.6617 20.7199 58.9673 20.5486 59.2366 20.3289C58.8854 20.3543 58.5452 20.4624 58.2437 20.6443C57.7238 20.884 57.3367 21.1542 57.367 21.2059Z" fill="#495D4C"/>
<path d="M54.0171 23.6286C54.0593 23.6728 54.4153 23.3862 54.8633 23.0271C55.3113 22.6679 55.6638 22.3616 55.6139 22.3095C55.2793 22.4214 54.9752 22.6095 54.7257 22.859C54.2815 23.2261 53.9788 23.5885 54.0171 23.6286Z" fill="#495D4C"/>
<path d="M51.431 26.85C51.4853 26.8787 51.753 26.5038 52.0776 26.0397C52.3019 25.7735 52.4811 25.4724 52.6083 25.1483C52.5659 25.112 52.2285 25.4422 51.8997 25.9179C51.672 26.1872 51.5113 26.5066 51.431 26.85V26.85Z" fill="#495D4C"/>
<path d="M49.9189 30.6929C50.0942 30.3922 50.2184 30.0645 50.2863 29.7231C50.4248 29.4025 50.5056 29.0599 50.5251 28.7112C50.3032 28.9869 50.1516 29.3124 50.0835 29.6596C49.9441 29.9852 49.8876 30.3401 49.9189 30.6929Z" fill="#495D4C"/>
<path d="M49.6142 34.8103C49.6919 34.471 49.7143 34.1214 49.6806 33.7749C49.718 33.4285 49.694 33.0783 49.6096 32.7403C49.4801 33.0685 49.4304 33.4228 49.4646 33.774C49.432 34.1264 49.4832 34.4815 49.6142 34.8103V34.8103Z" fill="#495D4C"/>
<path d="M50.5964 38.8151C50.5619 38.4695 50.4714 38.1318 50.3283 37.8154C50.2558 37.4769 50.1306 37.152 49.9571 36.8526C49.93 37.2058 49.9937 37.5602 50.1422 37.8819C50.2144 38.2256 50.3704 38.5462 50.5964 38.8151V38.8151Z" fill="#495D4C"/>
<path d="M52.9197 42.2216C52.96 42.1754 52.6616 41.8231 52.2981 41.3907C51.9347 40.9583 51.6445 40.5904 51.5925 40.6325C51.6963 40.9712 51.8824 41.279 52.134 41.5284C52.505 41.9727 52.8795 42.2639 52.9197 42.2216Z" fill="#495D4C"/>
<path d="M56.3322 44.5292C56.072 44.2989 55.7765 44.1119 55.4569 43.9753C55.1713 43.7766 54.8549 43.6261 54.5204 43.5301C54.7423 43.8068 55.0287 44.025 55.3545 44.1655C55.6454 44.3655 55.9813 44.4904 56.3322 44.5292V44.5292Z" fill="#495D4C"/>
<path d="M60.3402 45.4913C60.0161 45.3681 59.6739 45.2993 59.3275 45.2879C58.9896 45.2022 58.6401 45.1718 58.2926 45.1978C58.5965 45.3802 58.9411 45.4838 59.2952 45.4992C59.6387 45.5845 59.9981 45.5818 60.3402 45.4913V45.4913Z" fill="#495D4C"/>
<path d="M64.4015 44.7969C64.055 44.8243 63.7144 44.9026 63.3908 45.0295C63.0496 45.0887 62.7189 45.1977 62.4094 45.353C62.7603 45.4048 63.1186 45.3641 63.449 45.235C63.7998 45.1763 64.1286 45.0251 64.4015 44.7969Z" fill="#495D4C"/>
<path d="M67.3112 42.0344C67.2523 42.0331 67.0629 42.4216 66.7306 42.8776C66.3983 43.3336 66.0809 43.6486 66.1228 43.7084C66.1646 43.7683 66.556 43.4825 66.9044 43.0072C67.1456 42.738 67.289 42.3952 67.3112 42.0344V42.0344Z" fill="#495D4C"/>
<path d="M65.6601 38.7806C65.6587 38.8434 66.0835 38.9904 66.5239 39.3184C66.9642 39.6465 67.1948 40.0484 67.2505 40.0182C67.3061 39.988 67.144 39.5131 66.6534 39.1485C66.3812 38.9039 66.0259 38.7723 65.6601 38.7806V38.7806Z" fill="#495D4C"/>
<path d="M62.0781 40.1729C62.1323 40.2056 62.3922 39.8265 62.809 39.4588C63.2257 39.0911 63.6461 38.912 63.6081 38.8522C63.2469 38.8758 62.908 39.0351 62.6594 39.2983C62.3681 39.5117 62.1621 39.8217 62.0781 40.1729V40.1729Z" fill="#495D4C"/>
<path d="M61.8544 44.1781C61.833 43.8354 61.7761 43.4958 61.6847 43.1648C61.6631 42.8209 61.6063 42.48 61.5151 42.1477C61.4292 42.4917 61.4157 42.8499 61.4755 43.1994C61.5352 43.549 61.6669 43.8823 61.8623 44.1783L61.8544 44.1781Z" fill="#495D4C"/>
<path d="M64.4744 47.32C64.5108 47.2698 64.1602 46.9673 63.7405 46.5926C63.3208 46.2179 62.9706 45.8958 62.9423 45.9345C62.9139 45.9731 63.1604 46.3636 63.5959 46.7347C64.0314 47.1058 64.4418 47.3704 64.4744 47.32Z" fill="#495D4C"/>
<path d="M68.1022 49.3107C67.8477 49.0699 67.5474 48.8828 67.219 48.7606C66.9201 48.5749 66.5857 48.4537 66.2372 48.4047C66.4938 48.6446 66.7953 48.8316 67.1243 48.9548C67.4225 49.1392 67.7553 49.2603 68.1022 49.3107V49.3107Z" fill="#495D4C"/>
<path d="M71.7502 51.2702C71.7828 51.2198 71.4161 50.9327 70.9282 50.6233C70.6441 50.4154 70.3172 50.2739 69.9713 50.209C69.9385 50.2671 70.3336 50.5156 70.8179 50.8093C71.0931 51.0264 71.4107 51.1833 71.7502 51.2702V51.2702Z" fill="#495D4C"/>
<path d="M74.8183 54.0415C74.8624 54.0032 74.6002 53.6124 74.197 53.1988C73.7939 52.7852 73.4269 52.5138 73.371 52.5557C73.315 52.5977 73.6448 52.9547 74.0403 53.3563C74.4358 53.758 74.7707 54.064 74.8183 54.0415Z" fill="#495D4C"/>
<path d="M77.1135 57.4787C77.0555 57.1308 76.9177 56.801 76.711 56.5152C76.4197 56.0177 76.1175 55.6574 76.0657 55.6916C76.1645 56.0264 76.3194 56.342 76.5239 56.6249C76.7918 57.1141 77.0579 57.505 77.1135 57.4787Z" fill="#495D4C"/>
<path d="M78.5343 61.3598C78.5622 61.0085 78.5055 60.6557 78.3688 60.3309C78.3027 59.9839 78.1553 59.6576 77.9386 59.3786C77.9537 59.7273 78.0297 60.0706 78.1632 60.3931C78.2297 60.7345 78.3553 61.0616 78.5343 61.3598V61.3598Z" fill="#495D4C"/>
<path d="M78.984 65.4706C79.1419 64.7855 79.1091 64.0703 78.8891 63.4025C78.8193 63.7438 78.8114 64.0948 78.8658 64.4389C78.8444 64.7871 78.8844 65.1363 78.984 65.4706V65.4706Z" fill="#495D4C"/>
<path d="M78.3502 69.5529C78.5333 69.2533 78.6518 68.9189 78.6983 68.5709C78.8235 68.2399 78.86 67.8819 78.8042 67.5325C78.6494 67.8448 78.5426 68.1788 78.4873 68.523C78.371 68.8532 78.3244 69.2038 78.3502 69.5529Z" fill="#495D4C"/>
<path d="M76.6669 73.325C76.9321 73.0926 77.1391 72.8013 77.2712 72.4745C77.4672 72.1807 77.5894 71.8438 77.6271 71.4927C77.395 71.753 77.2101 72.0519 77.081 72.3759C76.8863 72.6644 76.746 72.9861 76.6669 73.325V73.325Z" fill="#495D4C"/>
<path d="M74.1113 76.5787C74.1497 76.6188 74.5097 76.3284 74.9122 75.8975C75.1705 75.6568 75.3706 75.3604 75.4972 75.0309C75.4471 74.9905 75.1292 75.329 74.7505 75.7525C74.3717 76.176 74.0691 76.5345 74.1113 76.5787Z" fill="#495D4C"/>
<path d="M70.8645 79.1374C71.2078 79.0534 71.5263 78.8897 71.7944 78.6595C72.2652 78.3322 72.5947 78.0019 72.5644 77.9541C72.2373 78.0773 71.9342 78.2565 71.6687 78.4838C71.198 78.8071 70.8343 79.0856 70.8645 79.1374Z" fill="#495D4C"/>
<path d="M67.0949 80.8357C67.4482 80.8413 67.7976 80.7616 68.1135 80.6033C68.4561 80.5158 68.7716 80.3447 69.032 80.1055C68.6871 80.1485 68.3517 80.2485 68.0395 80.4013C67.7035 80.495 67.3847 80.6416 67.0949 80.8357V80.8357Z" fill="#495D4C"/>
<path d="M65.0059 81.3385C65.0046 81.3935 65.0389 81.4414 65.0586 81.4379C65.0783 81.4344 65.0873 81.3836 65.0612 81.3241C65.035 81.2646 65.0281 81.2212 65.0084 81.2247C64.9887 81.2282 64.9959 81.2598 65.0059 81.3385Z" fill="#495D4C"/>
<path d="M68.2404 71.1072L72.5651 69.7939L73.382 72.4842L69.0573 73.7975L68.2404 71.1072Z" fill="#43AF55"/>
<path d="M68.2286 71.1127C69.0223 71.5333 69.8467 71.8932 70.6946 72.1894L70.7686 72.2185L70.8171 72.1568L70.8938 72.0642C71.5042 71.3522 72.0583 70.5938 72.5513 69.7959C71.8889 70.4601 71.278 71.1738 70.724 71.9308L70.6512 72.0234L70.7737 71.9908C69.9503 71.6302 69.0992 71.3365 68.2286 71.1127V71.1127Z" fill="#2A9348"/>
<path d="M71.2976 71.4053C71.5872 71.6778 71.9245 71.8944 72.2927 72.0443C72.6302 72.2548 73.0016 72.4053 73.3903 72.4893C73.0982 72.2183 72.7598 72.0019 72.3913 71.8502C72.0548 71.6407 71.6849 71.4903 71.2976 71.4053V71.4053Z" fill="#2A9348"/>
<path d="M68.9887 73.8241C69.2356 73.5335 69.4293 73.2014 69.5606 72.8433C69.8329 72.2642 70.0169 71.7655 69.9382 71.7716C69.6906 72.0626 69.4958 72.3945 69.3623 72.7524C69.1719 73.0832 69.0452 73.4467 68.9887 73.8241V73.8241Z" fill="#2A9348"/>
<path d="M50.5033 81.1791L61.625 77.8018L63.7267 84.7228L52.6051 88.1001L50.5033 81.1791Z" fill="#5CCD6A"/>
<path d="M50.5082 81.1817C50.6635 81.2755 50.8275 81.3542 50.9978 81.4165L52.3598 81.9853C53.5275 82.4553 55.1196 83.096 56.9144 83.8001L56.9884 83.8293L57.0369 83.7675L57.2269 83.5283C58.4639 81.9654 59.5799 80.545 60.377 79.5064L61.312 78.2745C61.4331 78.1272 61.5405 77.9692 61.6329 77.8025C61.4848 77.9279 61.35 78.0684 61.2307 78.2216L60.2417 79.413C59.4138 80.4235 58.2823 81.8317 57.0414 83.3945L56.8515 83.6298L56.974 83.5972C55.183 82.8971 53.5668 82.2795 52.3983 81.8447L51.0114 81.3383C50.8486 81.2714 50.6802 81.219 50.5082 81.1817V81.1817Z" fill="#43AF55"/>
<path d="M58.3466 81.943C59.1929 82.4987 60.0768 82.995 60.9919 83.4283C61.8745 83.9222 62.79 84.3548 63.7319 84.7232C62.889 84.163 62.0062 83.6653 61.0906 83.2341C60.2087 82.7372 59.2916 82.3057 58.3466 81.943V81.943Z" fill="#43AF55"/>
<path d="M52.5583 87.9671C53.0287 87.1655 53.4426 86.3303 53.7968 85.4681C54.2091 84.6323 54.561 83.7666 54.8495 82.8779C54.3761 83.6791 53.962 84.5157 53.6109 85.3807C53.1983 86.215 52.8465 87.0795 52.5583 87.9671V87.9671Z" fill="#43AF55"/>
<path d="M60.9708 79.4766C61.241 79.6843 61.5668 79.8073 61.9069 79.83C62.247 79.8527 62.5862 79.774 62.8816 79.6039C63.177 79.4338 63.4154 79.18 63.5665 78.8745C63.7177 78.5689 63.7749 78.2255 63.7309 77.8875C63.6869 77.5494 63.5437 77.232 63.3193 76.9754C63.095 76.7188 62.7996 76.5344 62.4705 76.4456C62.1414 76.3568 61.7933 76.3676 61.4704 76.4766C61.1474 76.5856 60.864 76.7878 60.6559 77.0579C60.5177 77.2373 60.4161 77.4422 60.3571 77.6609C60.2981 77.8797 60.2828 78.1078 60.3121 78.3325C60.3413 78.5571 60.4145 78.7738 60.5275 78.9701C60.6406 79.1664 60.7912 79.3385 60.9708 79.4766V79.4766Z" fill="#495D4C"/>
<path d="M60.9579 77.7715C61.3165 78.0508 61.6986 78.2986 62.0999 78.512L62.3713 78.6713L62.4217 78.6999L62.4503 78.6535C62.6427 78.3629 62.8074 78.055 62.9423 77.7336C62.7174 78.0006 62.5201 78.2896 62.3533 78.5963L62.4285 78.5744L62.1572 78.4112C61.7768 78.1635 61.3755 77.9494 60.9579 77.7715Z" fill="white"/>
<path d="M57.7992 72.0776L63.6268 70.3079L64.7279 73.9337L58.9003 75.7034L57.7992 72.0776Z" fill="#43AF55"/>
<path d="M57.8063 72.0801C57.8881 72.1286 57.9739 72.17 58.0627 72.2037L58.7787 72.5026C59.382 72.7479 60.2228 73.085 61.1612 73.4517L61.2004 73.4526L61.2287 73.4179L61.3257 73.2944C61.9765 72.4763 62.5392 71.7309 62.9796 71.187L63.4693 70.5421C63.5319 70.4645 63.5876 70.3816 63.6359 70.2944C63.5604 70.3593 63.4928 70.4329 63.4346 70.5138L62.9139 71.1384C62.4817 71.6668 61.8878 72.4036 61.237 73.2217L61.1399 73.3491L61.2027 73.3505C60.2644 72.9838 59.4194 72.6584 58.8039 72.4325L58.0792 72.1687C57.9922 72.1282 57.9005 72.0984 57.8063 72.0801V72.0801Z" fill="#2A9348"/>
<path d="M61.9135 72.4788C62.3571 72.7687 62.8198 73.0284 63.2982 73.2562C63.7611 73.5163 64.2416 73.7436 64.7362 73.9366C64.2938 73.6435 63.8311 73.3824 63.3515 73.1553C62.8891 72.8955 62.4085 72.6694 61.9135 72.4788V72.4788Z" fill="#2A9348"/>
<path d="M58.8042 75.7358C59.0674 75.3003 59.2981 74.846 59.4946 74.3766C59.7231 73.9212 59.9201 73.4505 60.084 72.968C59.5875 73.8567 59.1597 74.782 58.8042 75.7358V75.7358Z" fill="#2A9348"/>
<path d="M105.281 28.0686C105.644 29.6486 106.467 31.0854 107.647 32.1975C108.827 33.3095 110.309 34.0469 111.908 34.3164C113.507 34.586 115.149 34.3755 116.628 33.7117C118.107 33.0479 119.356 31.9606 120.218 30.5871C121.079 29.2136 121.514 27.6156 121.467 25.9951C121.42 24.3746 120.894 22.8043 119.955 21.4827C119.016 20.1611 117.706 19.1476 116.192 18.5701C114.677 17.9927 113.025 17.8773 111.444 18.2386C110.394 18.4791 109.401 18.9243 108.523 19.5485C107.645 20.1728 106.898 20.9639 106.326 21.8768C105.754 22.7896 105.367 23.8063 105.187 24.8687C105.008 25.9311 105.04 27.0185 105.281 28.0686V28.0686Z" fill="#5CCD6A"/>
<path d="M110.333 21.7171C110.186 21.7727 111.055 24.5378 112.276 27.8959C112.457 28.3831 112.627 28.8504 112.798 29.3099L112.89 29.5594L113.156 29.4711C115.836 28.5062 117.799 27.7058 117.754 27.5831C117.71 27.4603 115.678 28.0509 112.978 28.9604L113.32 29.1252C113.158 28.666 112.988 28.1947 112.814 27.7077C111.582 24.3493 110.476 21.6653 110.333 21.7171Z" fill="white"/>
</g>
<defs>
<clipPath id="clip0_2856_2">
<rect width="119.538" height="110.157" fill="white" transform="matrix(-0.999747 -0.0224732 -0.0224732 0.999747 121.984 3.67188)"/>
</clipPath>
</defs>
</svg>
