<svg width="94" height="107" viewBox="0 0 94 107" fill="none" xmlns="http://www.w3.org/2000/svg">
<g clip-path="url(#clip0_2857_321)">
<path d="M75.4373 10.9891L91.416 11.8356C92.1045 11.8714 92.7789 12.044 93.3999 12.3433C94.0208 12.6426 94.5758 13.0626 95.0323 13.5788C95.4888 14.0949 95.8377 14.6969 96.0586 15.3493C96.2794 16.0018 96.3678 16.6917 96.3185 17.3786L94.5547 41.9911C94.4606 43.2897 93.8808 44.5054 92.9306 45.3964C91.9804 46.2875 90.7294 46.7888 89.426 46.8007C88.9888 46.8039 88.5693 46.9735 88.2529 47.2751C87.9366 47.5766 87.7473 47.9873 87.7235 48.4234L84.7938 100.499C84.6984 102.204 83.9315 103.802 82.6607 104.944C81.3899 106.086 79.7185 106.678 78.0113 106.593L16.9681 103.512C16.7407 103.501 16.5178 103.445 16.3123 103.347C16.1067 103.249 15.9227 103.111 15.7708 102.942C15.6189 102.772 15.5021 102.574 15.4273 102.359C15.3525 102.145 15.321 101.917 15.3348 101.69L21.1752 11.3783C21.204 10.9351 21.4029 10.5202 21.7304 10.2201C22.058 9.91999 22.4889 9.75783 22.9333 9.76746L75.4373 10.9891Z" fill="#5CCD6A"/>
<g opacity="0.3">
<path d="M15.4474 99.9732L15.3355 101.683L81.3662 101.869L88.6469 11.6798C88.6469 11.6798 72.5393 12.5818 72.2382 12.5532C71.9372 12.5247 15.4474 99.9732 15.4474 99.9732Z" fill="black"/>
</g>
<path d="M67.6079 5.36901L86.7136 6.01155L79.833 99.5528L12.3276 99.9948L11.2782 6.19596L67.6079 5.36901Z" fill="#EBEBEB"/>
<path d="M67.608 5.36923L66.6042 5.3942L63.6815 5.45082L52.4618 5.63527L11.279 6.25959L11.3418 6.19552C11.6319 31.326 12.0044 63.9738 12.414 99.9998L12.3286 99.915L27.4588 99.8175L79.8439 99.474L79.7633 99.5497C82.7761 58.6492 85.26 25.0948 86.674 6.008L86.7133 6.05174L72.4948 5.54532L68.8356 5.41214C68.0174 5.38133 67.6023 5.35868 67.6023 5.35868C67.6023 5.35868 68.019 5.3648 68.8378 5.38901L72.4989 5.50235L86.7184 5.96219L86.7614 5.96626L86.7574 6.00923C85.359 25.1075 82.9082 58.6651 79.8999 99.5526L79.8927 99.6287L79.8166 99.6214L27.4597 99.9844L12.3295 100.082L12.2435 100.074L12.2516 99.9878C11.8549 63.9663 11.4956 31.3197 11.2224 6.18754L11.2284 6.12474L11.2912 6.1307L52.4693 5.55595L63.6889 5.40817L66.6127 5.375C67.2695 5.38385 67.608 5.36923 67.608 5.36923Z" fill="#495E4C"/>
<path d="M8.25048 2.78144L8.40285 97.5924L79.0498 97.638L77.8458 2.79416L8.25048 2.78144Z" fill="white"/>
<path d="M8.24923 2.7945L77.8464 2.71736L77.9158 2.72395L77.9093 2.79335C78.2513 29.4193 78.6725 62.2218 79.1302 97.6355L79.122 97.7214L79.036 97.7132L78.5351 97.7158L8.40195 97.6722L8.32586 97.665L8.33306 97.5889C8.27881 41.4589 8.25278 3.46176 8.24923 2.7945C8.25059 3.4849 8.33978 41.4846 8.47831 97.606L8.40218 97.5288L78.5495 97.5638L79.0501 97.5645L78.9619 97.6495C78.5197 62.214 78.1078 29.4191 77.7757 2.79403L77.8458 2.86404L8.24923 2.7945Z" fill="#495E4C"/>
<path d="M56.2443 83.554C56.4421 81.5148 57.2407 79.5802 58.5393 77.9948C59.8378 76.4094 61.5778 75.2443 63.5393 74.647C65.5009 74.0497 67.5957 74.047 69.559 74.6392C71.5223 75.2314 73.2658 76.3919 74.5691 77.974C75.8723 79.556 76.6767 81.4886 76.8805 83.5272C77.0844 85.5658 76.6785 87.6189 75.7142 89.4268C74.75 91.2347 73.2706 92.7162 71.4633 93.684C69.656 94.6518 67.6019 95.0623 65.5608 94.8637C62.8256 94.595 60.3086 93.2533 58.562 91.133C56.8154 89.0127 55.9819 86.287 56.2443 83.554V83.554ZM76.6917 85.5374C76.8866 83.5356 76.4829 81.5209 75.5316 79.7481C74.5803 77.9754 73.1242 76.5241 71.3474 75.578C69.5707 74.6319 67.553 74.2333 65.5497 74.4328C63.5464 74.6322 61.6474 75.4207 60.0929 76.6985C58.5384 77.9763 57.3982 79.686 56.8166 81.6114C56.2349 83.5368 56.2379 85.5914 56.8251 87.5153C57.4123 89.4393 58.5575 91.1461 60.1157 92.42C61.6739 93.6939 63.5751 94.4776 65.579 94.6721C68.2648 94.93 70.9431 94.1131 73.0265 92.4006C75.1098 90.6882 76.4279 88.2199 76.6917 85.5374V85.5374Z" fill="#E0E0E0"/>
<path d="M57.432 83.6664C57.6051 81.8884 58.302 80.2017 59.4346 78.8195C60.5672 77.4373 62.0847 76.4217 63.7952 75.9011C65.5057 75.3805 67.3324 75.3784 69.0443 75.8949C70.7562 76.4114 72.2765 77.4234 73.413 78.8029C74.5494 80.1824 75.2509 81.8675 75.4288 83.6451C75.6068 85.4227 75.2531 87.213 74.4126 88.7897C73.572 90.3663 72.2824 91.6585 70.7067 92.5028C69.1309 93.3471 67.3399 93.7057 65.56 93.5331C63.1736 93.2992 60.9774 92.1288 59.4535 90.2789C57.9297 88.4291 57.2026 86.0509 57.432 83.6664V83.6664ZM74.1053 85.2857C74.2529 83.7695 73.947 82.2435 73.2265 80.9007C72.5059 79.558 71.4029 78.4588 70.057 77.7422C68.7112 77.0256 67.1829 76.7239 65.6656 76.875C64.1482 77.0262 62.7098 77.6235 61.5325 78.5915C60.3551 79.5595 59.4916 80.8545 59.0511 82.313C58.6107 83.7714 58.6131 85.3276 59.058 86.7848C59.503 88.2421 60.3705 89.5348 61.5508 90.4996C62.7312 91.4643 64.1714 92.0578 65.6892 92.2049C67.7215 92.3965 69.7468 91.7758 71.3217 90.4788C72.8966 89.1817 73.8928 87.314 74.0921 85.2845L74.1053 85.2857Z" fill="#E0E0E0"/>
<path d="M59.6219 84.0174C59.7201 82.9836 60.0615 81.9876 60.6183 81.1107L61.746 81.821C61.3005 82.525 61.027 83.3239 60.9476 84.153C60.8554 85.1002 61.0177 86.0549 61.4179 86.9186C61.818 87.7824 62.4414 88.524 63.2239 89.0669C64.0063 89.6099 64.9196 89.9346 65.8694 90.0076C66.8192 90.0806 67.7713 89.8992 68.6275 89.4822L69.2119 90.678C68.1422 91.199 66.9528 91.4255 65.7662 91.3341C64.5796 91.2427 63.4388 90.8367 62.4616 90.1579C61.4843 89.4792 60.706 88.5523 60.2068 87.4729C59.7076 86.3935 59.5057 85.2007 59.6219 84.0174V84.0174Z" fill="#E0E0E0"/>
<path d="M63.7667 78.4609C65.1284 77.911 66.6335 77.824 68.0498 78.2132C69.4662 78.6025 70.7151 79.4464 71.6039 80.6148C72.4928 81.7833 72.9723 83.2113 72.9684 84.6787C72.9645 86.1462 72.4774 87.5715 71.5824 88.7348L70.5249 87.9177C71.2413 86.9864 71.6311 85.8454 71.634 84.6708C71.637 83.4961 71.253 82.353 70.5413 81.4179C69.8296 80.4827 68.8297 79.8074 67.6958 79.4961C66.562 79.1848 65.3572 79.2549 64.2673 79.6954L63.7667 78.4609Z" fill="#E0E0E0"/>
<path d="M73.8954 26.8089C73.891 26.8552 60.5635 26.88 44.1138 26.8825C27.6641 26.885 14.3273 26.8323 14.3283 26.7857C14.3294 26.7391 27.6602 26.7146 44.1136 26.7091C60.5669 26.7036 73.8968 26.759 73.8954 26.8089Z" fill="#495E4C"/>
<path d="M41.9315 23.0348C41.9271 23.0811 35.775 23.1186 28.1813 23.1163C20.5877 23.114 14.4332 23.0713 14.431 23.0244C14.4287 22.9775 20.5874 22.9406 28.1811 22.9429C35.7747 22.9452 41.9289 22.9912 41.9315 23.0348Z" fill="#495E4C"/>
<path d="M73.7894 30.6774C73.7851 30.7237 60.4543 30.7482 44.0078 30.751C27.5614 30.7539 14.2213 30.7008 14.2224 30.6542C14.2234 30.6076 27.5542 30.5831 44.0073 30.5809C60.4603 30.5787 73.7921 30.6143 73.7894 30.6774Z" fill="#495E4C"/>
<path d="M73.6866 34.5123C73.6819 34.5619 60.3514 34.5831 43.9047 34.5893C27.458 34.5954 14.1182 34.539 14.1196 34.4891C14.1209 34.4392 27.4514 34.418 43.9045 34.4158C60.3575 34.4136 73.6877 34.4658 73.6866 34.5123Z" fill="#495E4C"/>
<path d="M73.5817 38.3675C73.5774 38.4137 60.2466 38.4382 43.8002 38.4411C27.3537 38.4439 14.0136 38.3908 14.0137 38.3542C14.0139 38.3175 27.3456 38.2831 43.799 38.2776C60.2523 38.2721 73.5822 38.3275 73.5817 38.3675Z" fill="#495E4C"/>
<path d="M73.4773 42.2192C73.4729 42.2655 60.1421 42.29 43.6924 42.2925C27.2427 42.295 13.9092 42.2426 13.9069 42.1957C13.9047 42.1488 27.2388 42.1246 43.6921 42.1191C60.1455 42.1136 73.475 42.1723 73.4773 42.2192Z" fill="#495E4C"/>
<path d="M73.3695 46.0701C73.3648 46.1197 60.0377 46.1412 43.5876 46.147C27.1376 46.1529 13.8011 46.0968 13.8058 46.0472C13.8105 45.9976 27.1377 45.9761 43.5907 45.9739C60.0437 45.9717 73.3706 46.0236 73.3695 46.0701Z" fill="#495E4C"/>
<path d="M73.2648 49.9251C73.2604 49.9714 60.1049 50.0125 43.8836 49.9999C27.6623 49.9874 14.4876 49.95 14.4887 49.9034C14.4897 49.8568 27.6485 49.816 43.8867 49.8268C60.1248 49.8376 73.2662 49.8752 73.2648 49.9251Z" fill="#495E4C"/>
<path d="M49.8196 55.134C49.8152 55.1803 41.874 55.1817 32.0795 55.121C22.285 55.0603 14.3366 54.9977 14.3377 54.9511C14.3387 54.9045 22.2799 54.9031 32.0793 54.9476C41.8786 54.9921 49.8176 55.0838 49.8196 55.134Z" fill="#495E4C"/>
<path d="M37.2616 85.87C37.2573 85.9163 32.4279 85.909 26.4654 85.8478C20.503 85.7865 15.6739 85.706 15.672 85.6558C15.67 85.6056 20.5057 85.6167 26.4682 85.678C32.4306 85.7392 37.263 85.8201 37.2616 85.87Z" fill="#495E4C"/>
<path d="M27.712 88.6505C27.7073 88.7001 24.9977 88.7269 21.6541 88.6803C18.3106 88.6337 15.5952 88.5799 15.593 88.533C15.5908 88.4861 18.3091 88.4735 21.6539 88.5069C24.9987 88.5402 27.7131 88.6039 27.712 88.6505Z" fill="#495E4C"/>
<path d="M29.5262 61.6381C29.5215 61.6877 26.3325 61.7358 22.3888 61.7524C18.4451 61.769 15.2498 61.7431 15.2512 61.6932C15.2526 61.6434 18.4452 61.5923 22.3886 61.579C26.332 61.5657 29.5273 61.5916 29.5262 61.6381Z" fill="#5CCD6A"/>
<g opacity="0.3">
<path d="M8.46614 81.5587L15.0115 80.9281L19.1171 75.8549L8.55627 78.2459L8.46614 81.5587Z" fill="black"/>
</g>
<path d="M-2.15328 73.5734L15.1638 73.5764L19.1171 75.8549L15.4678 79.2473L-2.14463 79.4732L-2.15328 73.5734Z" fill="#5CCD6A"/>
<path d="M51.3315 63.2769L51.3892 63.3023C51.4454 63.3277 51.4984 63.3596 51.5471 63.3973C51.742 63.5432 51.9134 63.718 52.0554 63.9157C52.5889 64.6839 52.9835 65.5395 53.2213 66.4437C53.6447 67.8638 53.7514 69.3593 53.534 70.825C53.4577 71.2692 53.337 71.7046 53.1738 72.1247C52.991 72.5659 52.7721 72.9913 52.5193 73.3966C51.9707 74.279 51.271 75.0582 50.452 75.6984C49.5563 76.4091 48.5352 76.9458 47.4416 77.2806C46.252 77.6498 44.9911 77.7282 43.7648 77.5093C42.4169 77.2358 41.1627 76.6189 40.1239 75.7182C39.085 74.8176 38.2969 73.6639 37.8361 72.3693C37.592 71.6762 37.4648 70.9475 37.4596 70.2128C37.4384 69.458 37.5893 68.7083 37.9009 68.0204C38.1993 67.2977 38.7254 66.692 39.3995 66.295C39.7511 66.1036 40.1433 65.9988 40.5436 65.9891C40.9439 65.9795 41.3408 66.0653 41.7013 66.2395C42.4379 66.5858 43.0301 67.1787 43.3751 67.9153C43.7137 68.6551 43.8848 69.4604 43.876 70.2737C43.8869 71.9258 43.4883 73.5549 42.7159 75.0157C41.9516 76.4828 40.818 77.7257 39.4269 78.6223C38.0636 79.4787 36.4905 79.9435 34.8802 79.9657C33.3247 80.0076 31.7894 79.6065 30.4534 78.8094C29.1846 78.0223 28.1722 76.8837 27.5393 75.5323C26.9207 74.2568 26.6771 72.8323 26.8369 71.4242C26.9058 70.7453 27.1007 70.0852 27.4118 69.4778C27.7059 68.8847 28.1458 68.3756 28.6902 67.9983C28.9567 67.8149 29.2582 67.6883 29.576 67.6266C29.8937 67.5649 30.2207 67.5693 30.5367 67.6397C31.1401 67.7992 31.6695 68.1629 32.0348 68.6686C32.3883 69.1461 32.6112 69.7074 32.6816 70.2971C32.7358 70.8529 32.6827 71.4139 32.5251 71.9496C32.2119 72.9397 31.7217 73.8649 31.0781 74.6803C30.5284 75.4222 29.9044 76.1061 29.2158 76.7214C28.6176 77.2556 27.9778 77.7414 27.3024 78.1742C26.731 78.5303 26.1367 78.8483 25.5233 79.1261C24.6755 79.5142 23.788 79.8092 22.8764 80.0058C22.5603 80.0794 22.2406 80.137 21.9187 80.1785C21.9187 80.1785 22.0009 80.1563 22.1608 80.1248C22.3207 80.0932 22.5612 80.056 22.8696 79.9718C23.7737 79.761 24.6536 79.4577 25.4955 79.0668C26.1023 78.7834 26.6902 78.4615 27.2558 78.1031C27.9235 77.669 28.5556 77.1825 29.146 76.6481C29.8294 76.0436 30.4499 75.3717 30.9983 74.6427C31.628 73.8343 32.108 72.9199 32.4156 71.9426C32.5705 71.4176 32.6226 70.8678 32.569 70.3231C32.5008 69.7572 32.2847 69.2192 31.9424 68.7632C31.5941 68.2846 31.0916 67.9402 30.5193 67.7881C30.2223 67.7235 29.9152 67.7209 29.6172 67.7805C29.3192 67.8401 29.0367 67.9605 28.7875 68.1342C28.2639 68.4992 27.8408 68.9901 27.5574 69.5617C27.2576 70.1502 27.0702 70.7895 27.005 71.4468C26.8539 72.8288 27.0978 74.2254 27.7083 75.4749C28.3332 76.7935 29.3256 77.904 30.5664 78.6734C31.8771 79.4487 33.3798 79.8395 34.9024 79.801C36.4837 79.7772 38.0279 79.3202 39.3669 78.4799C40.7308 77.5956 41.8398 76.3707 42.5842 74.9265C43.3412 73.49 43.7335 71.8897 43.7265 70.2662C43.7318 69.478 43.5666 68.698 43.2422 67.9794C42.9134 67.2804 42.3522 66.717 41.6541 66.3851C41.3127 66.2244 40.9391 66.1433 40.5616 66.1483C40.1904 66.1612 39.8271 66.2591 39.4998 66.4345C38.8574 66.8133 38.3562 67.3909 38.0721 68.08C37.7683 68.7457 37.6218 69.4723 37.644 70.2036C37.6397 70.9181 37.7564 71.6281 37.9892 72.3038C38.4407 73.5728 39.212 74.7043 40.2285 75.5891C41.245 76.4739 42.4726 77.0822 43.7928 77.3552C44.9968 77.5714 46.235 77.4978 47.4048 77.1404C48.4843 76.8124 49.493 76.2859 50.379 75.5881C51.5633 74.6641 52.4888 73.4505 53.0661 72.0645C53.2296 71.6549 53.3494 71.2292 53.4233 70.7945C53.6512 69.338 53.5564 67.8492 53.1455 66.4332C52.9163 65.5333 52.5343 64.6794 52.016 63.9086C51.8789 63.7113 51.7148 63.5341 51.5285 63.3822C51.4084 63.3108 51.3273 63.2865 51.3315 63.2769Z" fill="#495E4C"/>
<path d="M60.9972 17.5445C60.9972 17.5445 61.0026 17.4883 60.9894 17.3804C60.9763 17.2724 60.9817 17.1095 60.9776 16.9057C60.9708 16.4849 60.9625 15.8672 60.948 15.0689L60.8524 8.18387L60.9043 8.23547L24.8186 8.6123L24.9035 8.52697C24.9331 11.7377 24.9703 14.8691 24.9914 17.8889L24.906 17.8041L50.6511 17.5983L58.2329 17.5495L60.2767 17.5396L60.8074 17.5399L60.9927 17.5574L60.8185 17.5643L60.2967 17.5749L58.2709 17.6064L50.7079 17.7037L24.9132 17.9749L24.8271 17.9667L24.835 17.8841C24.7859 14.8783 24.7734 11.7326 24.7404 8.52153L24.7486 8.4356L24.8346 8.44375L60.9056 8.11555L60.9586 8.12056L60.9539 8.17013C60.97 11.1361 60.9848 13.4818 60.9928 15.0898C60.9943 15.8836 60.9966 16.4941 60.9969 16.9142C60.9976 17.1177 60.9964 17.271 60.996 17.381C60.9956 17.491 60.9972 17.5445 60.9972 17.5445Z" fill="#455A64"/>
<path d="M26.7285 15.0328L26.7284 11.1695L28.6711 11.1694C29.1384 11.1694 29.4787 11.2706 29.6921 11.4729C29.9055 11.6716 30.0123 11.9917 30.0123 12.4332C30.0123 12.8748 29.9056 13.1967 29.6922 13.3991C29.4788 13.5978 29.1385 13.6971 28.6712 13.6972L27.3963 13.6972L27.3963 15.0328L26.7285 15.0328ZM27.3963 13.068L28.6325 13.068C28.8791 13.068 29.0593 13.0183 29.1734 12.9189C29.2875 12.8159 29.3445 12.654 29.3445 12.4333C29.3445 12.2088 29.2874 12.0469 29.1734 11.9476C29.063 11.8483 28.8827 11.7986 28.6325 11.7986L27.3962 11.7987L27.3963 13.068Z" fill="#78C081"/>
<path d="M31.4986 15.0823C31.1233 15.0823 30.8473 15.0124 30.6707 14.8726C30.4941 14.7291 30.4058 14.5047 30.4058 14.1993C30.4058 13.8829 30.5014 13.6585 30.6927 13.526C30.8877 13.3898 31.2023 13.3218 31.6365 13.3217L32.5582 13.3217C32.5508 13.0936 32.4864 12.928 32.365 12.825C32.2472 12.7183 32.0596 12.665 31.802 12.665C31.5923 12.665 31.4304 12.6999 31.3164 12.7699C31.2023 12.8361 31.1269 12.9446 31.0901 13.0955L30.4665 13.0955C30.518 12.7533 30.6504 12.505 30.8638 12.3504C31.0772 12.1922 31.3973 12.1131 31.8241 12.1131C32.3024 12.1131 32.6483 12.2105 32.8617 12.4055C33.0788 12.6005 33.1873 12.9133 33.1873 13.3438L33.1874 15.0326L32.5582 15.0326L32.5582 14.707C32.3448 14.9572 31.9916 15.0823 31.4986 15.0823ZM31.0294 14.1772C31.0294 14.4127 31.2355 14.5304 31.6476 14.5304C31.9309 14.5304 32.1443 14.4789 32.2878 14.3759C32.4313 14.2728 32.5214 14.1109 32.5582 13.8902L32.5582 13.7908L31.8021 13.7909C31.287 13.7909 31.0294 13.9197 31.0294 14.1772Z" fill="#78C081"/>
<path d="M33.7736 14.1385L34.3972 14.1385C34.4745 14.3997 34.7339 14.5303 35.1754 14.5303C35.6169 14.5303 35.8377 14.4328 35.8377 14.2378C35.8377 14.0648 35.5764 13.9416 35.054 13.868C34.6014 13.8092 34.2813 13.7135 34.0936 13.5811C33.9097 13.4449 33.8177 13.2407 33.8177 12.9685C33.8177 12.6778 33.9151 12.4625 34.1101 12.3227C34.3088 12.1829 34.6197 12.113 35.0429 12.113C35.4733 12.1129 35.7971 12.1884 36.0142 12.3392C36.2313 12.49 36.3638 12.7292 36.4116 13.0567L35.788 13.0567C35.7475 12.9169 35.6665 12.8175 35.5451 12.7587C35.4274 12.6961 35.2563 12.6649 35.0318 12.6649C34.6271 12.6649 34.4247 12.7569 34.4248 12.9408C34.4248 13.0328 34.4836 13.1064 34.6014 13.1616C34.7228 13.2131 34.9104 13.2572 35.1643 13.294C35.6463 13.3639 35.9793 13.4632 36.1633 13.592C36.3509 13.7171 36.4448 13.9139 36.4448 14.1825C36.4448 14.4806 36.3418 14.705 36.1357 14.8559C35.9297 15.0067 35.6041 15.0822 35.1589 15.0822C34.7247 15.0822 34.3972 15.0068 34.1765 14.8559C33.9594 14.7051 33.8251 14.4659 33.7736 14.1385Z" fill="#78C081"/>
<path d="M38.3345 15.0821C37.8342 15.0821 37.4699 14.9644 37.2418 14.7289C37.0136 14.4934 36.8996 14.1163 36.8995 13.5975C36.8995 13.0787 37.0136 12.7016 37.2417 12.4661C37.4698 12.2306 37.834 12.1129 38.3344 12.1128C38.7796 12.1128 39.1145 12.203 39.3389 12.3832C39.5634 12.5635 39.7013 12.8505 39.7529 13.2442L39.1292 13.2442C39.0887 13.0529 39.006 12.9149 38.8809 12.8303C38.7557 12.7457 38.5773 12.7034 38.3455 12.7034C38.0585 12.7034 37.8506 12.7751 37.7219 12.9186C37.5931 13.0585 37.5287 13.2847 37.5287 13.5975C37.5287 13.9102 37.5931 14.1383 37.7219 14.2818C37.8507 14.4216 38.0586 14.4915 38.3456 14.4915C38.5737 14.4915 38.7503 14.4492 38.8754 14.3646C39.0042 14.2763 39.0888 14.1383 39.1292 13.9506L39.7529 13.9506C39.7051 14.3406 39.5671 14.6276 39.339 14.8116C39.1146 14.9919 38.7798 15.0821 38.3345 15.0821Z" fill="#78C081"/>
<path d="M41.324 15.082C40.9487 15.082 40.6727 15.0121 40.4961 14.8723C40.3195 14.7288 40.2312 14.5043 40.2312 14.199C40.2312 13.8825 40.3268 13.6581 40.5181 13.5256C40.7131 13.3895 41.0277 13.3214 41.4619 13.3214L42.3836 13.3214C42.3762 13.0932 42.3118 12.9277 42.1904 12.8247C42.0726 12.718 41.885 12.6646 41.6274 12.6646C41.4177 12.6646 41.2558 12.6996 41.1418 12.7695C41.0277 12.8357 40.9523 12.9443 40.9155 13.0951L40.2918 13.0952C40.3433 12.753 40.4758 12.5046 40.6892 12.3501C40.9026 12.1918 41.2227 12.1127 41.6495 12.1127C42.1278 12.1127 42.4737 12.2102 42.6871 12.4052C42.9042 12.6002 43.0127 12.9129 43.0127 13.3434L43.0128 15.0322L42.3836 15.0323L42.3836 14.7066C42.1702 14.9568 41.817 15.0819 41.324 15.082ZM40.8548 14.1769C40.8548 14.4123 41.0609 14.5301 41.473 14.5301C41.7563 14.53 41.9697 14.4785 42.1132 14.3755C42.2567 14.2725 42.3468 14.1106 42.3836 13.8898L42.3836 13.7905L41.6275 13.7905C41.1124 13.7905 40.8548 13.9193 40.8548 14.1769Z" fill="#78C081"/>
<path d="M43.7425 15.0322L43.7423 10.8929L44.366 10.8929L44.3661 15.0322L43.7425 15.0322Z" fill="#78C081"/>
<path d="M46.3288 11.1688L47.0352 11.1688L48.4427 14.3311L49.8499 11.1687L50.5564 11.1686L48.8235 15.032L48.0619 15.032L46.3288 11.1688Z" fill="#78C081"/>
<path d="M50.6917 13.597C50.6917 13.0819 50.8076 12.7066 51.0394 12.4711C51.2712 12.2319 51.6446 12.1124 52.1597 12.1123C52.6749 12.1123 53.0465 12.23 53.2746 12.4655C53.5027 12.701 53.6168 13.0781 53.6168 13.5969C53.6168 13.6374 53.6131 13.7018 53.6058 13.7901L51.3375 13.7901C51.3596 14.0477 51.4368 14.2353 51.5693 14.3531C51.7054 14.4708 51.9041 14.5297 52.1653 14.5297C52.5517 14.5297 52.8 14.399 52.9104 14.1378L53.5616 14.1378C53.4881 14.4873 53.3317 14.732 53.0926 14.8718C52.8534 15.0116 52.5425 15.0816 52.1598 15.0816C51.6447 15.0816 51.2713 14.9639 51.0395 14.7284C50.8077 14.4929 50.6918 14.1158 50.6917 13.597ZM51.343 13.321L52.9821 13.321C52.949 13.0855 52.8662 12.9181 52.7337 12.8187C52.6013 12.7157 52.4118 12.6642 52.1653 12.6642C51.9188 12.6642 51.7274 12.7158 51.5913 12.8188C51.4589 12.9218 51.3761 13.0892 51.343 13.321Z" fill="#78C081"/>
<path d="M54.2145 12.1619L54.8382 12.1619L54.8382 12.5041C55.0405 12.2428 55.3717 12.1122 55.8316 12.1122C56.24 12.1122 56.538 12.2152 56.7257 12.4212C56.917 12.6236 57.0127 12.9492 57.0127 13.3981L57.0128 15.0317L56.3891 15.0317L56.389 13.3981C56.389 13.1553 56.3283 12.9787 56.2069 12.8683C56.0892 12.7579 55.9033 12.7027 55.6495 12.7027C55.3625 12.7028 55.1546 12.7727 55.0258 12.9125C54.9007 13.0523 54.8382 13.2804 54.8382 13.5969L54.8383 15.0318L54.2146 15.0318L54.2145 12.1619Z" fill="#78C081"/>
<path d="M58.5781 12.1618L59.4115 12.1617L59.4115 12.7468L58.5781 12.7468L58.5782 13.9831C58.5782 14.1449 58.6168 14.2627 58.6941 14.3363C58.7714 14.4098 58.8983 14.4466 59.0749 14.4466L59.4502 14.4466L59.4502 15.0316L59.0584 15.0316C58.672 15.0317 58.3906 14.9544 58.214 14.7999C58.041 14.6417 57.9545 14.3933 57.9545 14.0548L57.9545 12.7468L57.5019 12.7468L57.5019 12.1618L57.9545 12.1618L57.9544 11.5326L58.5781 11.5326L58.5781 12.1618Z" fill="#78C081"/>
</g>
<defs>
<clipPath id="clip0_2857_321">
<rect width="93.299" height="106.086" fill="white"/>
</clipPath>
</defs>
</svg>
