<svg width="264" height="65" viewBox="0 0 264 65" fill="none" xmlns="http://www.w3.org/2000/svg">
<g clip-path="url(#clip0_2857_414)">
<path d="M152.434 32.7346C152.434 32.7346 146.607 30.8265 142.888 28.6186C139.169 26.4107 136.657 25.5548 135.352 25.7456C134.048 25.9364 131.13 25.9364 129.019 26.3207C126.907 26.7051 125.603 27.0867 125.199 28.0435C124.796 29.0002 126.507 31.6824 128.618 32.2576C130.729 32.8327 134.949 35.5122 134.949 35.5122C134.949 35.5122 116.557 52.2706 117.26 53.9933C117.964 55.716 126.006 62.7159 127.11 62.8032C128.215 62.8904 144.799 58.0166 145.803 57.8231C148.049 57.3505 150.192 56.5084 152.134 55.3344C153.441 54.5347 154.655 53.6035 155.753 52.5568L164.101 49.1113L154.66 31.7778L152.434 32.7346Z" fill="white" stroke="#495E4C" stroke-width="0.6" stroke-linecap="round" stroke-linejoin="round"/>
<path d="M143.972 48.8442C143.972 48.8442 148.215 52.4505 148.673 53.9797C148.934 54.9894 148.894 56.0487 148.558 57.0381L145.792 57.8231L143.972 48.8442Z" fill="#495E4C" stroke="#495E4C" stroke-width="0.6" stroke-linecap="round" stroke-linejoin="round"/>
<path d="M157.158 37.7007L161.057 50.155L164.093 49.111L157.158 37.7007Z" fill="#495E4C" stroke="#495E4C" stroke-width="0.6" stroke-linecap="round" stroke-linejoin="round"/>
<path d="M128.627 32.2574C128.627 32.2574 136.065 33.5031 137.469 34.0755C138.874 34.6479 146.515 42.4084 149.228 44.8016C151.94 47.1949 153.35 50.9293 153.45 53.3226C153.55 55.7158 152.537 58.8778 151.227 59.3548C149.917 59.8318 149.016 59.164 148.615 58.2072C148.215 57.2505 148.012 55.4296 148.012 55.4296L146.404 52.2704C146.512 53.5182 146.444 54.7743 146.201 56.0048C145.8 57.8229 145.096 61.6527 143.489 62.6122C141.881 63.5717 139.97 62.9938 139.77 62.5168C139.608 62.0779 139.474 61.63 139.369 61.1757C139.369 61.1757 138.866 62.8984 137.366 63.3781C135.867 63.8579 133.748 63.2827 133.748 63.2827C133.748 63.2827 132.031 65.1908 130.632 64.8146C129.233 64.4385 127.82 62.9938 127.82 62.9938C127.82 62.9938 123.097 60.2189 118.774 57.3459C114.451 54.4729 106.715 45.4722 106.715 45.4722L102.996 43.2697L114.354 28.1387L119.186 31.0117L128.627 32.2574Z" fill="white" stroke="#495E4C" stroke-width="0.6" stroke-linecap="round" stroke-linejoin="round"/>
<path d="M115.767 32.3472L107.957 46.6632L106.71 45.472L115.767 32.3472Z" fill="#495E4C" stroke="#495E4C" stroke-width="0.6" stroke-linecap="round" stroke-linejoin="round"/>
<path d="M130.83 26.225C130.83 26.225 126.604 26.1187 125.603 26.5112C123.886 27.1818 123.795 29.3843 123.795 29.7659C123.795 30.1475 122.588 33.2141 122.387 34.3643C122.187 35.5146 123.592 36.0871 126.81 35.0349C130.029 33.9827 130.93 32.6389 130.93 29.7659" fill="white"/>
<path d="M130.83 26.225C130.83 26.225 126.604 26.1187 125.603 26.5112C123.886 27.1818 123.795 29.3843 123.795 29.7659C123.795 30.1475 122.588 33.2141 122.387 34.3643C122.187 35.5146 123.592 36.0871 126.81 35.0349C130.029 33.9827 130.93 32.6389 130.93 29.7659" stroke="#495E4C" stroke-width="0.6" stroke-linecap="round" stroke-linejoin="round"/>
<path d="M122.688 33.6938C122.851 33.522 123.054 33.3891 123.281 33.3058C123.509 33.2225 123.753 33.1911 123.995 33.214C124.799 33.3094 126.407 33.1186 126.507 31.9683C126.607 30.818 126.206 30.2456 125.403 30.2456C124.863 30.2706 124.342 30.4366 123.895 30.7254L122.688 33.6938Z" stroke="#495E4C" stroke-width="0.6" stroke-linecap="round" stroke-linejoin="round"/>
<path d="M141.08 44.6274C141.552 45.4043 142.015 46.6064 142.888 47.5768C146.081 51.1204 146.407 52.2706 146.407 52.2706" stroke="#495E4C" stroke-width="0.6" stroke-linecap="round" stroke-linejoin="round"/>
<path d="M140.176 41.5444L140.376 43.4525L140.739 44.0576" stroke="#495E4C" stroke-width="0.6" stroke-linecap="round" stroke-linejoin="round"/>
<path d="M134.749 46.7148L134.849 49.0127C134.849 49.0127 138.969 56.675 139.572 57.5364C140.176 58.3977 139.773 60.6956 139.372 61.1753" stroke="#495E4C" stroke-width="0.6" stroke-linecap="round" stroke-linejoin="round"/>
<path d="M130.266 55.9365C130.768 56.7584 131.325 57.5486 131.934 58.3025C133.542 60.2106 133.742 63.2826 133.742 63.2826" stroke="#495E4C" stroke-width="0.6" stroke-linecap="round" stroke-linejoin="round"/>
<path d="M128.315 51.3135V52.5565C128.315 52.5565 128.913 53.6986 129.728 55.0615" stroke="#495E4C" stroke-width="0.6" stroke-linecap="round" stroke-linejoin="round"/>
<path d="M112.08 52.4368C112.08 52.4368 109.657 51.7908 108.976 50.973C108.295 50.1553 108.006 47.5085 107.96 46.6771C107.914 45.8457 107.388 45.0144 108.444 44.6437C109.499 44.2729 110.915 45.3824 111.45 46.4918C111.985 47.6012 112.023 49.1249 112.023 49.3539C112.023 49.5829 112.846 50.834 112.846 50.834C112.846 50.834 113.63 52.2514 112.08 52.4368Z" fill="white" stroke="#495E4C" stroke-width="0.6" stroke-linecap="round" stroke-linejoin="round"/>
<path d="M108.238 48.4215C108.238 48.4215 109.096 49.2392 109.725 49.1983C110.355 49.1574 109.917 47.1431 109.917 47.1431C109.474 47.037 109.064 46.8335 108.718 46.5488C108.432 46.3039 108.16 46.0446 107.903 45.772L108.238 48.4215Z" fill="white" stroke="#495E4C" stroke-width="0.6" stroke-linecap="round" stroke-linejoin="round"/>
<path d="M116.588 56.9698C116.588 56.9698 114.014 57.4795 113.387 56.6482C112.761 55.8168 111.496 52.4913 111.545 51.3355C111.593 50.1798 114.795 47.364 116.408 46.2082C118.022 45.0525 119.026 44.6845 119.996 45.2379C120.965 45.7912 121.741 46.4863 121.449 47.4567C121.157 48.4271 118.831 52.5839 118.445 53.3226C118.059 54.0613 117.667 56.6482 117.667 56.6482L116.588 56.9698Z" fill="white" stroke="#495E4C" stroke-width="0.6" stroke-linecap="round" stroke-linejoin="round"/>
<path d="M115.619 46.9849C115.619 46.9849 114.552 47.9553 115.084 48.694C115.616 49.4327 116.975 50.1278 117.558 49.9424C118.142 49.7571 120.03 47.8626 120.368 47.263C120.705 46.6633 118.622 45.2295 118.622 45.2295C117.485 45.5696 116.453 46.1727 115.619 46.9849V46.9849Z" fill="white" stroke="#495E4C" stroke-width="0.6" stroke-linecap="round" stroke-linejoin="round"/>
<path d="M120.788 60.5132C120.788 60.5132 117.982 61.0584 117.292 60.1589C116.603 59.2594 115.227 55.6177 115.29 54.3556C115.353 53.0936 118.837 50.0188 120.585 48.7568C122.333 47.4947 123.446 47.0913 124.504 47.6964C125.563 48.3016 126.41 49.0593 126.092 50.1197C125.775 51.18 123.231 55.7185 122.808 56.5254C122.384 57.3322 121.95 60.1589 121.95 60.1589L120.788 60.5132Z" fill="white" stroke="#495E4C" stroke-width="0.6" stroke-linecap="round" stroke-linejoin="round"/>
<path d="M119.729 49.6101C119.729 49.6101 118.562 50.6704 119.157 51.4773C119.752 52.2841 121.223 53.0419 121.858 52.8402C122.493 52.6385 124.559 50.5696 124.93 49.9154C125.302 49.2612 123.022 47.6938 123.022 47.6938C121.775 48.0635 120.644 48.7219 119.729 49.6101V49.6101Z" fill="white" stroke="#495E4C" stroke-width="0.6" stroke-linecap="round" stroke-linejoin="round"/>
<path d="M126.246 62.1244C126.246 62.1244 125.505 60.0119 125.505 59.8183C125.505 59.6248 126.85 56.5473 126.716 55.2035C126.581 53.8597 125.437 52.3196 124.713 52.7039C123.989 53.0883 122.627 54.1786 121.417 55.9095C120.207 57.6404 119.804 58.9842 120.207 59.6248C120.611 60.2654 123.031 62.7022 124.041 63.0866C125.051 63.4709 127.125 62.814 127.125 62.814L126.246 62.1244Z" fill="white" stroke="#495E4C" stroke-width="0.6" stroke-linecap="round" stroke-linejoin="round"/>
<path d="M121.537 56.4872C121.537 56.4872 122.413 56.9997 123.017 56.9997C123.62 56.9997 125.168 55.6531 125.102 54.3066C125.036 52.96 124.161 53.2817 124.161 53.2817C124.161 53.2817 121.806 54.9471 121.537 56.4872Z" fill="white" stroke="#495E4C" stroke-width="0.6" stroke-linecap="round" stroke-linejoin="round"/>
<path d="M153.851 31.1589L164.224 52.5566L170.449 49.997L159.587 28.7192L153.851 31.1589Z" fill="white" stroke="#495E4C" stroke-width="0.6" stroke-linecap="round" stroke-linejoin="round"/>
<path d="M204.116 3.03076L157.513 29.0678L172.918 59.0683L263.431 20.0414" stroke="#495E4C" stroke-width="0.6" stroke-linecap="round" stroke-linejoin="round"/>
<path d="M200.228 7.5L157.612 28.9038L173.318 58.125L255.463 21.806L200.228 7.5Z" fill="#9BF9A6"/>
<path d="M117.604 29.5315L103.449 50.4631L98.0787 47.9062L112.967 26.8574L117.604 29.5315Z" fill="white" stroke="#495E4C" stroke-width="0.6" stroke-linecap="round" stroke-linejoin="round"/>
<path d="M70.6947 0.13623L115.164 26.9747L93.7273 58.2753L0.284424 15.4375" stroke="#495E4C" stroke-width="0.6" stroke-linecap="round" stroke-linejoin="round"/>
<path d="M93.4429 58.2752L114.879 26.9746L70.9254 2.1875L8.20898 17.5L93.4429 58.2752Z" fill="#9BF9A6"/>
</g>
<defs>
<clipPath id="clip0_2857_414">
<rect width="264" height="65" fill="white"/>
</clipPath>
</defs>
</svg>
